<?xml version="1.0" encoding="utf-8"?>
<!-- Generator: Adobe Illustrator 16.0.0, SVG Export Plug-In . SVG Version: 6.00 Build 0)  -->
<!DOCTYPE svg PUBLIC "-//W3C//DTD SVG 1.1//EN" "http://www.w3.org/Graphics/SVG/1.1/DTD/svg11.dtd">
<svg version="1.1" id="Layer_1" xmlns="http://www.w3.org/2000/svg" xmlns:xlink="http://www.w3.org/1999/xlink" x="0px" y="0px"
	 width="136.913px" height="136.914px" viewBox="0 0 136.913 136.914" enable-background="new 0 0 136.913 136.914"
	 xml:space="preserve">
<g>
	<g>
		<g>
			<g>
				<g>
					<circle fill="#49A0AE" cx="68.457" cy="68.458" r="63.333"/>
				</g>
			</g>
		</g>
	</g>
	<g>
		<path fill="#636463" d="M72.816,28.829c0,0.715-0.579,1.293-1.293,1.293h-4.501c-0.714,0-1.293-0.579-1.293-1.293v-8.327
			c0-0.714,0.579-1.293,1.293-1.293h4.501c0.714,0,1.293,0.58,1.293,1.293V28.829z"/>
		<path fill="#5E5F5E" d="M69.341,30.123h-2.319c-0.714,0-1.293-0.579-1.293-1.293v-8.327c0-0.714,0.579-1.293,1.293-1.293h2.319
			V30.123z"/>
		<rect x="51.384" y="28.051" fill="#ECE9E9" width="35.223" height="29.835"/>
		<rect x="51.384" y="28.051" fill="#E7E7E7" width="17.75" height="29.835"/>
		<rect x="53.457" y="30.013" fill="#E4DEDF" width="31.079" height="10.787"/>
		<rect x="54.493" y="31.159" fill="#B1D4D7" width="29.007" height="8.494"/>
		<rect x="54.493" y="31.159" fill="#A7CACB" width="14.503" height="8.494"/>
		<polygon fill="#E5DBC5" points="90.268,103.055 48.138,103.055 34.395,54.157 69.203,50.013 104.011,54.157 		"/>
		<polygon fill="#E8E1D3" points="90.268,103.055 69.203,103.055 69.203,50.013 104.011,54.157 		"/>
		<g>
			<path fill="#A7CACB" d="M27.692,104.366c0,0,34.189-20.519,73.693,0H27.692z"/>
			<path fill="#B1D4D7" d="M113.957,105.263c0,0-18.094-18.233-50.14,0H113.957z"/>
			<path fill="#9CC0C1" d="M71.758,105.332c0,0-26.576-18.232-50.14,0H71.758z"/>
		</g>
		<path fill="#5F6060" d="M89.366,69.825l-1.639,2.159l0.945-0.038c-0.143,1.302-1.202,2.384-2.595,2.646l-0.275-6.942l1.25-0.05
			c0.272-0.011,0.476-0.263,0.462-0.574c-0.012-0.31-0.232-0.545-0.506-0.534l-1.25,0.051l-0.057-1.413
			c0.696-0.286,1.156-0.979,1.127-1.743c-0.039-0.997-0.894-1.776-1.904-1.734c-1.008,0.04-1.799,0.883-1.759,1.88
			c0.032,0.798,0.596,1.47,1.359,1.671l0.055,1.385l-1.126,0.045c-0.272,0.011-0.476,0.262-0.463,0.572
			c0.013,0.312,0.234,0.547,0.507,0.535l1.126-0.044l0.275,6.912c-1.347-0.206-2.403-1.17-2.639-2.407l0.882-0.035l-1.688-2.026
			l-1.639,2.158l1.011-0.041c0.404,2.038,2.12,3.547,4.229,3.71c0.112,0.202,0.294,0.322,0.499,0.314
			c0.199-0.007,0.368-0.134,0.466-0.336c2.147-0.265,3.837-1.948,4.087-4.057l0.948-0.038L89.366,69.825z M84.974,62.883
			c0.326-0.012,0.601,0.234,0.614,0.551c0.007,0.17-0.068,0.328-0.196,0.438c-0.213-0.17-0.522-0.139-0.701,0.063
			c-0.167-0.093-0.277-0.26-0.284-0.455C84.394,63.166,84.649,62.897,84.974,62.883z"/>
		<polygon fill="#E5DBC5" points="35.082,56.603 34.395,54.157 69.203,50.013 104.011,54.157 103.187,57.087 69.48,52.775 		"/>
		<polygon fill="#D7D0BC" points="35.082,56.603 34.395,54.157 69.203,50.013 69.196,52.808 		"/>
	</g>
</g>
</svg>
