<?xml version="1.0" encoding="utf-8"?>
<!-- Generator: Adobe Illustrator 16.0.0, SVG Export Plug-In . SVG Version: 6.00 Build 0)  -->
<!DOCTYPE svg PUBLIC "-//W3C//DTD SVG 1.1//EN" "http://www.w3.org/Graphics/SVG/1.1/DTD/svg11.dtd">
<svg version="1.1" id="Layer_1" xmlns="http://www.w3.org/2000/svg" xmlns:xlink="http://www.w3.org/1999/xlink" x="0px" y="0px"
	 width="136.913px" height="136.914px" viewBox="0 0 136.913 136.914" enable-background="new 0 0 136.913 136.914"
	 xml:space="preserve">
<g>
	<g>
		<g>
			<g>
				<g>
					<circle fill="#65A844" cx="66.626" cy="68.457" r="63.333"/>
				</g>
			</g>
		</g>
	</g>
	<g>
		<g>
			<path fill="#5E5F5E" d="M123.138,84.287c0,0.46-0.372,0.833-0.834,0.833l-60.69,18.865c-0.46,0-0.832-0.373-0.832-0.833v-1.946
				c0-0.46,0.372-0.833,0.832-0.833l60.69-18.866c0.462,0,0.834,0.373,0.834,0.833V84.287z"/>
			<path fill="#5E5F5E" d="M116.71,84.287c0,0.46-0.373,0.833-0.834,0.833l-60.69,18.865c-0.46,0-0.833-0.373-0.833-0.833v-1.946
				c0-0.46,0.373-0.833,0.833-0.833l60.69-18.866c0.461,0,0.834,0.373,0.834,0.833V84.287z"/>
			<path fill="#5E5F5E" d="M61.882,103.193c0,0.46-0.374,0.833-0.835,0.833h-5.799c-0.461,0-0.833-0.373-0.833-0.833v-1.946
				c0-0.46,0.372-0.833,0.833-0.833h5.799c0.461,0,0.835,0.373,0.835,0.833V103.193z"/>
		</g>
		<g>
			<path fill="#5E5F5E" d="M90.828,84.287c0,0.46-0.373,0.833-0.834,0.833l-60.69,18.865c-0.461,0-0.835-0.373-0.835-0.833v-1.946
				c0-0.46,0.374-0.833,0.835-0.833l60.69-18.866c0.461,0,0.834,0.373,0.834,0.833V84.287z"/>
			<path fill="#5E5F5E" d="M84.4,84.287c0,0.46-0.374,0.833-0.834,0.833l-60.69,18.865c-0.462,0-0.835-0.373-0.835-0.833v-1.946
				c0-0.46,0.373-0.833,0.835-0.833l60.69-18.866c0.46,0,0.834,0.373,0.834,0.833V84.287z"/>
			<path fill="#5E5F5E" d="M29.571,103.193c0,0.46-0.374,0.833-0.834,0.833h-5.799c-0.462,0-0.836-0.373-0.836-0.833v-1.946
				c0-0.46,0.374-0.833,0.836-0.833h5.799c0.46,0,0.834,0.373,0.834,0.833V103.193z"/>
		</g>
		<path fill="#E8BE1E" d="M83.589,50.094c-11.798-6.048-15.3-12.584-20.62-16.131c-1.708-1.139-4.934-1.075-4.934-1.075
			l6.325,66.543l57.841-15.869c0.658-0.347,1.112-1.03,1.112-1.826V68.229C123.313,68.229,113.698,65.527,83.589,50.094z"/>
		<path fill="#DBB327" d="M65.879,91.587c-1.147,2.952-1.519,7.844-1.519,7.844l57.841-15.869c0.658-0.347,1.112-1.03,1.112-1.826
			v-0.839C123.313,80.898,71.192,77.925,65.879,91.587z"/>
		<path fill="#ECC31B" d="M69.421,90.576c0,5.03-3.244,9.108-7.245,9.108H23.533c-4.002,0-7.246-4.079-7.246-9.108
			c0,0,0-31.122,0-36.688c0-5.566,7.661-21,10.905-21h31.324c3.243,0,10.904,16.438,10.904,21.249
			C69.421,58.948,69.421,90.576,69.421,90.576z"/>
		<path fill="#DBB327" d="M67.233,58.307c0,4.616-2.977,8.359-6.649,8.359H25.123c-3.673,0-6.648-3.743-6.648-8.359
			c0,0,0,2.089,0-3.019s7.031-18.449,10.007-18.449h28.745c2.977,0,10.007,14.262,10.007,18.678
			C67.233,59.932,67.233,58.307,67.233,58.307z"/>
		<circle fill="#5E5F5E" cx="54.999" cy="82.732" r="3.795"/>
		<circle fill="#5E5F5E" cx="29.191" cy="82.732" r="3.795"/>
		<g>
			<path fill="#DBB327" d="M76.885,52.054c0,0,17.838,12.081,38.078,16.382l0.128,6.199c0,0-19.863,0.252-38.206-4.808V52.054z"/>
			<path fill="#C8D4D6" d="M77.517,54.044c0,0,17.5,10.937,36.941,15.069v4.86c0,0-19.194-0.17-36.814-5.031L77.517,54.044z"/>
			<line fill="none" stroke="#DBB327" stroke-miterlimit="10" x1="84.602" y1="57.304" x2="84.729" y2="70.713"/>
			<line fill="none" stroke="#DBB327" stroke-miterlimit="10" x1="91.053" y1="60.34" x2="91.181" y2="72.358"/>
			<line fill="none" stroke="#DBB327" stroke-miterlimit="10" x1="96.366" y1="62.744" x2="96.494" y2="72.99"/>
			<line fill="none" stroke="#DBB327" stroke-miterlimit="10" x1="100.921" y1="64.515" x2="101.048" y2="73.497"/>
			<line fill="none" stroke="#DBB327" stroke-miterlimit="10" x1="112.56" y1="68.312" x2="112.686" y2="74.13"/>
			<line fill="none" stroke="#DBB327" stroke-miterlimit="10" x1="109.398" y1="67.424" x2="109.523" y2="74.255"/>
			<line fill="none" stroke="#DBB327" stroke-miterlimit="10" x1="105.729" y1="66.539" x2="105.855" y2="73.876"/>
		</g>
		<path fill="#C8D4D6" d="M65.372,57.806c0,4.264-2.749,7.721-6.141,7.721H26.478c-3.393,0-6.142-3.457-6.142-7.721
			c0,0,0,1.93,0-2.788c0-4.719,6.493-17.041,9.243-17.041h26.55c2.75,0,9.243,13.173,9.243,17.251S65.372,57.806,65.372,57.806z"/>
		<path fill="#D3E0E1" d="M32.986,65.527h-6.509c-3.393,0-6.142-3.457-6.142-7.721c0,0,0,1.93,0-2.788
			c0-4.719,6.493-17.041,9.243-17.041h18.967L32.986,65.527z"/>
	</g>
</g>
</svg>
