<?xml version="1.0" encoding="utf-8"?>
<!-- Generator: Adobe Illustrator 16.0.0, SVG Export Plug-In . SVG Version: 6.00 Build 0)  -->
<!DOCTYPE svg PUBLIC "-//W3C//DTD SVG 1.1//EN" "http://www.w3.org/Graphics/SVG/1.1/DTD/svg11.dtd">
<svg version="1.1" id="Layer_1" xmlns="http://www.w3.org/2000/svg" xmlns:xlink="http://www.w3.org/1999/xlink" x="0px" y="0px"
	 width="136.833px" height="136.833px" viewBox="0 0 136.833 136.833" style="enable-background:new 0 0 136.833 136.833;"
	 xml:space="preserve">
<style type="text/css">
<![CDATA[
	.st0{fill:#AA865B;}
	.st1{fill:#49A0AE;}
	.st2{fill:#E0E0E0;}
	.st3{fill:#E23942;}
	.st4{fill:#E4DFD6;}
	.st5{fill:#E4E4E4;}
	.st6{fill:#4C3E30;}
	.st7{fill:#E7E7E7;}
	.st8{fill:#4D4946;}
	.st9{fill:#E84849;}
	.st10{fill:#E8E8DF;}
	.st11{fill:#E8E8E8;}
	.st12{fill:#E9E9EA;}
	.st13{fill:#818282;}
	.st14{fill:#828282;}
	.st15{fill:#B1C635;}
	.st16{fill:#857856;}
	.st17{fill:#B5DDE1;}
	.st18{fill:#B7C133;}
	.st19{fill:#89932C;}
	.st20{fill:#1E1B18;}
	.st21{fill:#ECECEC;}
	.st22{fill:#51473A;}
	.st23{fill:#EFEFEF;}
	.st24{fill:#524F49;}
	.st25{fill:#585550;}
	.st26{fill:#8CB23F;}
	.st27{fill:#202121;}
	.st28{fill:#8EC0C8;}
	.st29{fill:#F3F4F5;}
	.st30{fill:#5B4F3F;}
	.st31{fill:#5C9340;}
	.st32{fill:#C02026;}
	.st33{fill:#C0C0C0;}
	.st34{fill:#93793D;}
	.st35{fill:#939292;}
	.st36{fill:#C4E7ED;}
	.st37{opacity:0.5;}
	.st38{opacity:0.7;}
	.st39{opacity:0.8;}
	.st40{fill:#FFA300;}
	.st41{fill:#FFCE00;}
	.st42{fill:#FFFFFF;}
	.st43{fill:#65A844;}
	.st44{fill:#665C51;}
	.st45{fill:#67B8CB;}
	.st46{fill:#9BD7D9;}
	.st47{fill:#CDCCCB;}
	.st48{fill:#344E5D;}
	.st49{fill:#6B4E15;}
	.st50{fill:#6B7D35;}
	.st51{fill:#D2D2D2;}
	.st52{fill:#3A2F22;}
	.st53{fill:#3B342D;}
	.st54{fill:#D6EFF2;}
	.st55{fill:#D7D7D7;}
	.st56{fill:#3E8540;}
	.st57{fill:#D9E3E4;}
	.st58{fill:#A0D2DC;}
	.st59{fill:#A19F9F;}
	.st60{fill:#737373;}
	.st61{fill:#A2D4DE;}
	.st62{fill:#A2DADB;}
	.st63{fill:#73BFCB;}
	.st64{fill:#766959;}
	.st65{fill:#77746F;}
	.st66{fill:#77913B;}
	.st67{fill:#A6B232;}
	.st68{fill:#A8A7A7;}
	.st69{fill:#DFDFDF;}
	.st70{fill:#423528;}
	.st71{fill:#43B665;}
	.st72{fill:#444341;}
	.st73{fill:#453F38;}
]]>
</style>
<g>
	<g>
		<g>
			<circle class="st1" cx="68.417" cy="68.417" r="63.333"/>
		</g>
	</g>
	<g>
		<g>
			<g>
				<g>
					<g>
						<path class="st57" d="M71.656,51.622H37.367L37.17,66.786c0,0-0.339,0,10.304,0c1.546,0.063,5.973,0.307,7.408,1.072
							c2.979,1.588,5.369,2.049,7.952,2.154v0.029c0.238,0,0.47-0.006,0.702-0.01c0.233,0.004,0.465,0.01,0.701,0.01v-0.029
							c2.585-0.105,4.975-0.566,7.953-2.154c0.946-0.504,3.186-0.779,5.051-0.93c12.673,0.732,11.92,0.501,11.92,11.012
							c0,0,2.951,1.15,7.504,1.15c4.554,0,7.515-1.15,7.515-1.15C104.125,56.271,101.428,51.622,71.656,51.622z"/>
					</g>
					<g>
						<path class="st61" d="M106.25,80.141c0,1.747-1.213,3.162-2.709,3.162H89.662c-1.497,0-2.709-1.415-2.709-3.162l0,0
							c0-1.746,1.212-3.162,2.709-3.162h13.879C105.037,76.979,106.25,78.395,106.25,80.141L106.25,80.141z"/>
					</g>
					<g>
						<circle class="st57" cx="63.982" cy="57.855" r="14.094"/>
					</g>
					<g>
						<path class="st57" d="M70.529,51.958c0,3.614-2.928,6.543-6.542,6.543l0,0c-3.614,0-6.543-2.929-6.543-6.543v-9.571
							c0-3.613,2.929-6.543,6.543-6.543l0,0c3.614,0,6.542,2.93,6.542,6.543V51.958z"/>
					</g>
					<g>
						<path class="st28" d="M66.119,37.737c0,0-0.066,0.789-1.93,0.789s-2.574-0.789-2.574-0.789v-8.055h4.504V37.737z"/>
					</g>
					<g>
						<path class="st28" d="M61.992,29.133c-0.822,0-1.489-0.666-1.489-1.488l0,0c0-0.822,0.667-1.489,1.489-1.489h3.99
							c0.822,0,1.488,0.667,1.488,1.489l0,0c0,0.822-0.666,1.488-1.488,1.488H61.992z"/>
					</g>
					<g>
						<path class="st61" d="M75.355,29.565c0,1.107-0.811,2.006-1.812,2.006h-19.23c-0.999,0-1.81-0.898-1.81-2.006l0,0
							c0-1.107,0.811-2.005,1.81-2.005h19.23C74.544,27.56,75.355,28.458,75.355,29.565L75.355,29.565z"/>
					</g>
				</g>
				<g>
					<path class="st45" d="M42.104,71.909c0,2.996-2.399,5.425-5.359,5.425l0,0c-2.961,0-5.36-2.429-5.36-5.425V46.417
						c0-2.996,2.399-5.425,5.36-5.425l0,0c2.96,0,5.359,2.429,5.359,5.425V71.909z"/>
				</g>
			</g>
			<g>
				<path class="st42" d="M101.464,64.534c-1.931-5.146-4.932-8.362-11.578-9.006c0,0,4.051,2.449,6.646,4.074
					C98.896,61.079,101.464,64.534,101.464,64.534z"/>
			</g>
			<g>
				<path class="st42" d="M75.003,54.089c-2.061-4.593-3.169-6.917-8.885-6.917c0,0,4.732,2.039,5.556,7.327
					C72.117,57.339,75.003,54.089,75.003,54.089z"/>
			</g>
			<g>
				<path class="st36" d="M97.087,88.75c0,0-4.998,9.018-4.998,12.499c0,2.763,2.237,4.999,4.998,5c2.764-0.001,5-2.237,5-5.001
					C102.087,98.019,97.087,88.75,97.087,88.75z"/>
			</g>
			<g>
				<path class="st42" d="M96.642,105.106c3.322-0.069,4.055-0.854,4.391-4.393c0,0-0.904,1.387-1.998,2.594
					C98.041,104.407,96.642,105.106,96.642,105.106z"/>
			</g>
		</g>
	</g>
</g>
</svg>
