<?xml version="1.0" encoding="utf-8"?>
<!-- Generator: Adobe Illustrator 16.0.0, SVG Export Plug-In . SVG Version: 6.00 Build 0)  -->
<!DOCTYPE svg PUBLIC "-//W3C//DTD SVG 1.1//EN" "http://www.w3.org/Graphics/SVG/1.1/DTD/svg11.dtd">
<svg version="1.1" id="Layer_1" xmlns="http://www.w3.org/2000/svg" xmlns:xlink="http://www.w3.org/1999/xlink" x="0px" y="0px"
	 width="136.913px" height="136.913px" viewBox="0 0 136.913 136.913" enable-background="new 0 0 136.913 136.913"
	 xml:space="preserve">
<g>
	<g>
		<g>
			<g>
				<g>
					<circle fill="#A2D4DE" cx="68.457" cy="68.457" r="63.333"/>
				</g>
			</g>
		</g>
	</g>
	<g>
		<g>
			<g>
				<g>
					<path fill="#909090" d="M118.979,62.969c-0.156-0.104-15.809-10.471-26.657-17.783c-0.971-0.654-2.245-0.617-3.247,0.094
						c-1.532,1.09-2.026,3.338-1.321,6.018l-0.903,0.238c-0.808-3.072-0.18-5.695,1.684-7.018c1.322-0.939,3.013-0.98,4.31-0.107
						c10.847,7.311,26.495,17.676,26.651,17.779L118.979,62.969z"/>
				</g>
			</g>
			<g>
				<path fill="#3D4040" d="M85.847,50.688c0.261,0.883,1.229,1.973,1.87,1.039c0.768-1.117-1.487-3.895,1.973-6.49
					c1.04-0.779,2.624,0.389,4.493,1.402c0.05,0.025,0.772-0.477,0.856-0.988c0,0-2.908-2.646-5.712-1.973
					C87.404,44.141,85.431,49.273,85.847,50.688z"/>
			</g>
		</g>
		<g>
			<g>
				<g>
					<path fill="#909090" d="M48.411,76.523C48.253,76.418,32.6,66.051,21.751,58.738c-0.971-0.652-2.244-0.615-3.247,0.094
						c-1.532,1.09-2.024,3.338-1.319,6.018l-0.904,0.238c-0.809-3.072-0.18-5.695,1.684-7.016c1.321-0.939,3.014-0.982,4.31-0.107
						C33.12,65.273,48.77,75.639,48.926,75.742L48.411,76.523z"/>
				</g>
			</g>
			<g>
				<path fill="#3D4040" d="M15.279,64.24c0.258,0.885,1.227,1.975,1.869,1.041c0.768-1.117-1.488-3.896,1.974-6.49
					c1.038-0.781,2.622,0.387,4.491,1.4c0.049,0.027,0.773-0.477,0.857-0.986c0,0-2.909-2.648-5.713-1.975
					C16.835,57.695,14.862,62.826,15.279,64.24z"/>
			</g>
		</g>
		<g>
			<g>
				<path fill="none" d="M95.574,59.412l-24.498,4.809c3.312,0.52,5.862,1.951,7.043,4.213c1.193-1.781,3.095-3.146,5.292-3.578
					c2.26-0.443,4.32,0.201,5.683,1.555C89.966,63.684,92.333,61.238,95.574,59.412z"/>
			</g>
			<g>
				<path fill="#3D4040" d="M119.465,61.543c-0.028-0.266-0.316-0.453-0.644-0.418c-0.049,0.006-0.095,0.016-0.139,0.031
					c-1.123-5.961-5.594-6.445-15.377-4.525c-0.987,0.195-1.947,0.438-2.876,0.723l-33.562,6.588
					c-0.095,0.018-0.18,0.059-0.255,0.113c-1.1,0.072-2.24,0.219-3.408,0.447C53.4,66.426,49.08,68.645,48.648,74.945
					c-0.321,0.01-0.578,0.221-0.578,0.484l0.004,1.41c0,0.26,0.258,0.473,0.578,0.48c0.45,7.938,1.77,13.08,11.122,11.244
					c8.339-1.635,19.499-9.459,19.056-17.488c-0.026-0.486-0.104-0.947-0.222-1.389c0.929-1.846,2.727-3.318,4.862-3.736
					c2.225-0.438,4.217,0.385,5.302,1.955c-0.045,0.402-0.062,0.813-0.038,1.227c0.442,8.029,10.211,12.211,18.521,10.443
					c6.428-1.365,12.109-8.123,11.689-16.086c0.041,0.004,0.084,0.004,0.127-0.002c0.327-0.035,0.569-0.277,0.54-0.545
					L119.465,61.543z M60.017,87.818c-8.834,1.732-10.027-3.168-10.442-10.703c-0.415-7.531,3.459-9.869,13.664-11.873
					c7.823-1.535,14.358,0.74,14.657,6.168C78.312,78.941,67.841,86.281,60.017,87.818z M83.411,64.855
					c-2.197,0.432-4.099,1.797-5.292,3.578c-1.181-2.262-3.731-3.693-7.043-4.213l24.498-4.809c-3.24,1.826-5.607,4.271-6.48,6.998
					C87.731,65.057,85.67,64.412,83.411,64.855z M106.899,78.824c-7.742,1.75-16.754-2.303-17.167-9.803
					c-0.297-5.404,5.823-10.148,13.611-11.678c10.161-1.994,14.188-1.215,14.602,6.285
					C118.359,71.131,113.023,77.441,106.899,78.824z"/>
			</g>
		</g>
		<g>
			<path fill="#F7F8F9" d="M53.538,72.203c-0.031,0-0.065-0.006-0.099-0.016c-0.173-0.055-0.271-0.24-0.217-0.414
				c0.049-0.154,1.242-3.754,7.142-3.754c0.183,0,0.33,0.146,0.33,0.33c0,0.182-0.147,0.33-0.33,0.33
				c-5.418,0-6.501,3.258-6.511,3.291C53.809,72.111,53.679,72.203,53.538,72.203z"/>
		</g>
		<g>
			<g opacity="0.9">
				<path fill="#353535" d="M77.896,71.41c-0.299-5.428-6.834-7.703-14.657-6.168c-10.205,2.004-14.079,4.342-13.664,11.873
					c0.096,1.738,0.235,3.336,0.498,4.744c8.247-3.701,17.825-7.488,27.823-10.418C77.896,71.432,77.897,71.422,77.896,71.41z"/>
			</g>
			<g opacity="0.9">
				<path fill="#353535" d="M117.808,66.588c0.138-0.959,0.193-1.947,0.137-2.959c-0.414-7.5-4.44-8.279-14.602-6.285
					c-7.522,1.477-13.488,5.955-13.617,11.127C99.289,66.49,108.903,65.6,117.808,66.588z"/>
			</g>
			<g>
				<path fill="#353535" d="M60.017,87.818c7.813-1.535,18.263-8.854,17.879-16.377c-9.998,2.93-19.576,6.717-27.823,10.418
					C50.95,86.557,53.222,89.15,60.017,87.818z"/>
			</g>
			<g>
				<path fill="#353535" d="M89.732,69.021c0.413,7.5,9.418,11.525,17.167,9.803c5.394-1.197,10.024-6.084,10.909-12.236
					c-8.905-0.988-18.52-0.098-28.082,1.883C89.72,68.652,89.721,68.836,89.732,69.021z"/>
			</g>
		</g>
	</g>
</g>
</svg>
