<?xml version="1.0" encoding="utf-8"?>
<!-- Generator: Adobe Illustrator 16.0.0, SVG Export Plug-In . SVG Version: 6.00 Build 0)  -->
<!DOCTYPE svg PUBLIC "-//W3C//DTD SVG 1.1//EN" "http://www.w3.org/Graphics/SVG/1.1/DTD/svg11.dtd">
<svg version="1.1" id="Layer_1" xmlns="http://www.w3.org/2000/svg" xmlns:xlink="http://www.w3.org/1999/xlink" x="0px" y="0px"
	 width="136.833px" height="136.834px" viewBox="0 0 136.833 136.834" style="enable-background:new 0 0 136.833 136.834;"
	 xml:space="preserve">
<style type="text/css">
<![CDATA[
	.st0{fill:#AA865B;}
	.st1{fill:#49A0AE;}
	.st2{fill:#E0E0E0;}
	.st3{fill:#E23942;}
	.st4{fill:#E4DFD6;}
	.st5{fill:#E4E4E4;}
	.st6{fill:#4C3E30;}
	.st7{fill:#E7E7E7;}
	.st8{fill:#4D4946;}
	.st9{fill:#E84849;}
	.st10{fill:#E8E8DF;}
	.st11{fill:#E8E8E8;}
	.st12{fill:#E9E9EA;}
	.st13{fill:#818282;}
	.st14{fill:#828282;}
	.st15{fill:#B1C635;}
	.st16{fill:#857856;}
	.st17{fill:#B5DDE1;}
	.st18{fill:#B7C133;}
	.st19{fill:#89932C;}
	.st20{fill:#1E1B18;}
	.st21{fill:#ECECEC;}
	.st22{fill:#51473A;}
	.st23{fill:#EFEFEF;}
	.st24{fill:#524F49;}
	.st25{fill:#585550;}
	.st26{fill:#8CB23F;}
	.st27{fill:#202121;}
	.st28{fill:#8EC0C8;}
	.st29{fill:#F3F4F5;}
	.st30{fill:#5B4F3F;}
	.st31{fill:#5C9340;}
	.st32{fill:#C02026;}
	.st33{fill:#C0C0C0;}
	.st34{fill:#93793D;}
	.st35{fill:#939292;}
	.st36{fill:#C4E7ED;}
	.st37{opacity:0.5;}
	.st38{opacity:0.7;}
	.st39{opacity:0.8;}
	.st40{fill:#FFA300;}
	.st41{fill:#FFCE00;}
	.st42{fill:#FFFFFF;}
	.st43{fill:#65A844;}
	.st44{fill:#665C51;}
	.st45{fill:#67B8CB;}
	.st46{fill:#9BD7D9;}
	.st47{fill:#CDCCCB;}
	.st48{fill:#344E5D;}
	.st49{fill:#6B4E15;}
	.st50{fill:#6B7D35;}
	.st51{fill:#D2D2D2;}
	.st52{fill:#3A2F22;}
	.st53{fill:#3B342D;}
	.st54{fill:#D6EFF2;}
	.st55{fill:#D7D7D7;}
	.st56{fill:#3E8540;}
	.st57{fill:#D9E3E4;}
	.st58{fill:#A0D2DC;}
	.st59{fill:#A19F9F;}
	.st60{fill:#737373;}
	.st61{fill:#A2D4DE;}
	.st62{fill:#A2DADB;}
	.st63{fill:#73BFCB;}
	.st64{fill:#766959;}
	.st65{fill:#77746F;}
	.st66{fill:#77913B;}
	.st67{fill:#A6B232;}
	.st68{fill:#A8A7A7;}
	.st69{fill:#DFDFDF;}
	.st70{fill:#423528;}
	.st71{fill:#43B665;}
	.st72{fill:#444341;}
	.st73{fill:#453F38;}
]]>
</style>
<g>
	<g>
		<g>
			<circle class="st10" cx="68.417" cy="68.417" r="63.333"/>
		</g>
	</g>
	<g>
		<g>
			<g>
				<path class="st15" d="M114.669,50.294c-1.687,0.832-9.667,7.291-11.965-1.002c0,0-9.366,9.738-11.812-0.34
					c0,0-1.559,3.105-6.135,7.178c1.354-8.777,2.84-13.527,2.84-13.527c-9.531,9.951-10.436-11.188-10.436-11.188
					c-6.99,2.648-7.275-8.832-7.697-10.947c0,0-0.507,13.574-7.95,10.49c0,0,0.988,16.395-10.687,10.952
					c0,0,1.484,4.448,2.688,13.245c-4.291-4.201-5.673-6.203-5.673-6.203c-2.445,10.078-11.812,0.34-11.812,0.34
					c-2.298,8.293-10.278,1.834-11.965,1.002c0,0,8.94,8.449,2.478,13.816c0,0,10.521,7.891,3.108,13.566
					c0,0,22.409,5.993,13.44,18.246c0,0,17.273,1.813,22.019-1.83c1.179-0.906,2.55-3.393,3.755-3.357
					c1.329,0.039,4.211,1.977,5.238,3.57c3.262,5.055,21.537,1.617,21.537,1.617c-8.969-12.253,13.44-18.246,13.44-18.246
					c-7.413-5.676,3.108-13.566,3.108-13.566C105.729,58.743,114.669,50.294,114.669,50.294z"/>
			</g>
			<g>
				<path class="st16" d="M68.386,84.259c0,0,2.458,29.882-14.53,33.744h3.089c16.988-3.861,14.415-36.291,14.415-36.291
					L68.386,84.259z"/>
			</g>
		</g>
		<g>
			<path class="st16" d="M68.368,90.944c0,0,2.375-28.646,1.125-69.896c0,0,3.75,61.188,1.791,70.688
				C71.284,91.735,68.993,90.152,68.368,90.944z"/>
		</g>
		<g>
			<polygon class="st16" points="114.669,50.294 69.868,79.485 70.368,82.735 			"/>
		</g>
		<g>
			<polygon class="st16" points="25.368,51.235 68.739,86.666 69.618,83.985 			"/>
		</g>
	</g>
</g>
</svg>
