<?xml version="1.0" encoding="utf-8"?>
<!-- Generator: Adobe Illustrator 16.0.0, SVG Export Plug-In . SVG Version: 6.00 Build 0)  -->
<!DOCTYPE svg PUBLIC "-//W3C//DTD SVG 1.1//EN" "http://www.w3.org/Graphics/SVG/1.1/DTD/svg11.dtd">
<svg version="1.1" id="Layer_1" xmlns="http://www.w3.org/2000/svg" xmlns:xlink="http://www.w3.org/1999/xlink" x="0px" y="0px"
	 width="136.913px" height="136.913px" viewBox="0 0 136.913 136.913" enable-background="new 0 0 136.913 136.913"
	 xml:space="preserve">
<g>
	<g>
		<g>
			<g>
				<g>
					<circle fill="#344E5D" cx="68.457" cy="68.457" r="63.333"/>
				</g>
			</g>
		</g>
	</g>
	<g>
		<g>
			<path fill="#905C25" d="M66.03,56.895c0,0-2.629,51.646-4.819,54.713l7.887,4.383l5.696-3.506c0,0,3.066-41.568-5.258-56.465
				L66.03,56.895z"/>
		</g>
		<g>
			<path fill="#A46828" d="M66.03,56.895c0,0-2.629,51.646-4.819,54.713l7.887,4.383c0,0,3.651-40.84,0.438-59.971L66.03,56.895z"/>
		</g>
		<g>
			<g>
				<path fill="#68B147" d="M69.536,50.322c0,0,14.604-14.02,37.095-7.887C106.63,42.436,88.228,14.104,69.536,50.322z"/>
			</g>
			<g>
				<path fill="#86C06D" d="M69.536,50.322c0,0,14.604-14.02,37.095-7.887C106.63,42.436,87.354,23.451,69.536,50.322z"/>
			</g>
		</g>
		<g>
			<g>
				<path fill="#68B147" d="M68.659,51.492c0,0,9.057-9.641,9.057-21.031c0,0-10.223-6.721-13.145,2.336
					C64.571,32.797,64.57,42.145,68.659,51.492z"/>
			</g>
			<g>
				<path fill="#86C06D" d="M68.659,51.492c0,0,5.905-23.104,2.603-23.396c-2.646-0.234-5.391,0.672-6.69,4.701
					C64.571,32.797,64.57,42.145,68.659,51.492z"/>
			</g>
		</g>
		<g>
			<g>
				<path fill="#68B147" d="M40.472,37.762c0,0,21.031,2.045,28.334,15.773C68.806,53.535,62.67,16.73,40.472,37.762z"/>
			</g>
			<g>
				<path fill="#86C06D" d="M40.472,37.762c0,0,21.031,2.045,28.334,15.773C68.806,53.535,60.042,25.787,40.472,37.762z"/>
			</g>
		</g>
		<g>
			<path fill="#F1E042" d="M74.209,52.658c1.402,2.014,0.279,3.297-1.191,4.32c-1.47,1.025-2.73,1.402-4.133-0.607
				c-1.402-2.014-2.415-5.652-0.945-6.676C69.411,48.67,72.806,50.646,74.209,52.658z"/>
		</g>
		<g>
			<path fill="#FCEE35" d="M67.107,56.313c-1.569,1.975-3.282,1.729-4.725,0.58c-1.442-1.145-2.067-2.758-0.499-4.73
				c1.568-1.975,5.355-3.07,6.18-2.416C68.522,50.111,68.676,54.338,67.107,56.313z"/>
		</g>
		<g>
			<path fill="#FCEF57" d="M72.383,56.164c0,3.146-1.863,4.236-4.162,4.236s-4.162-1.09-4.162-4.236
				c0-3.145,2.848-7.154,4.162-7.154C68.952,49.01,72.383,53.02,72.383,56.164z"/>
		</g>
		<g>
			<g>
				<path fill="#68B147" d="M66.176,51.637c0,0,17.525-7.887,35.051,5.258C101.227,56.895,88.959,26.225,66.176,51.637z"/>
			</g>
			<g>
				<path fill="#86C06D" d="M66.176,51.637c0,0,17.525-7.887,35.051,5.258C101.227,56.895,86.915,33.527,66.176,51.637z"/>
			</g>
		</g>
		<g>
			<g>
				<g>
					<path fill="#68B147" d="M90.236,74.053c0,0-15.376-24.133-25.414-22.85C64.822,51.203,91.517,37.963,90.236,74.053z"/>
				</g>
			</g>
			<g>
				<g>
					<path fill="#86C06D" d="M90.236,74.053c0,0-15.376-24.133-25.414-22.85C64.822,51.203,81.907,43.088,90.236,74.053z"/>
				</g>
			</g>
		</g>
		<g>
			<g>
				<path fill="#68B147" d="M70.12,50.906c0,0-29.793-10.807-45.858,7.303C24.261,58.209,33.025,21.699,70.12,50.906z"/>
			</g>
			<g>
				<path fill="#86C06D" d="M70.12,50.906c0,0-29.793-10.807-45.858,7.303C24.261,58.209,33.9,31.338,70.12,50.906z"/>
			</g>
		</g>
		<g>
			<g>
				<path fill="#68B147" d="M72.457,49.01c0,0-27.75,8.178-28.333,30.961C44.124,79.971,15.499,57.771,72.457,49.01z"/>
			</g>
			<g>
				<path fill="#86C06D" d="M72.457,49.01c0,0-27.75,8.178-28.333,30.961C44.124,79.971,23.969,58.939,72.457,49.01z"/>
			</g>
		</g>
	</g>
</g>
</svg>
