<?xml version="1.0" encoding="utf-8"?>
<!-- Generator: Adobe Illustrator 16.0.0, SVG Export Plug-In . SVG Version: 6.00 Build 0)  -->
<!DOCTYPE svg PUBLIC "-//W3C//DTD SVG 1.1//EN" "http://www.w3.org/Graphics/SVG/1.1/DTD/svg11.dtd">
<svg version="1.1" id="Layer_1" xmlns="http://www.w3.org/2000/svg" xmlns:xlink="http://www.w3.org/1999/xlink" x="0px" y="0px"
	 width="136.913px" height="136.913px" viewBox="0 0 136.913 136.913" enable-background="new 0 0 136.913 136.913"
	 xml:space="preserve">
<g>
	<g>
		<g>
			<g>
				<g>
					<circle fill="#344E5D" cx="68.457" cy="68.457" r="63.333"/>
				</g>
			</g>
		</g>
	</g>
	<g>
		<g>
			<path fill="#67B8CB" d="M73.042,62.781h35.516c2.531,0,4.584-6.766,4.584-6.766s-2.053-6.766-4.584-6.766H73.042
				C70.51,49.25,70.51,62.781,73.042,62.781z"/>
			<path fill="#E5E5E5" d="M99.391,54.584H80.165c-1.125,0-2.035,0.625-2.035,1.398c0,0.771,0.91,1.398,2.035,1.398h19.227
				c1.125,0,2.035-0.627,2.035-1.398C101.426,55.209,100.516,54.584,99.391,54.584z"/>
			<path fill="#E5E5E5" d="M107.249,54.584h-2.04c-1.124,0-2.035,0.625-2.035,1.398c0,0.771,0.911,1.398,2.035,1.398h2.04
				c1.125,0,2.035-0.627,2.035-1.398C109.284,55.209,108.374,54.584,107.249,54.584z"/>
		</g>
		<g>
			<path fill="#67B8CB" d="M69.333,34.99H33.817c-2.531,0-4.584,6.766-4.584,6.766s2.053,6.766,4.584,6.766h35.516
				C71.864,48.521,71.864,34.99,69.333,34.99z"/>
			<path fill="#E5E5E5" d="M42.983,43.188h19.227c1.125,0,2.035-0.625,2.035-1.398s-0.91-1.4-2.035-1.4H42.983
				c-1.125,0-2.035,0.627-2.035,1.4S41.858,43.188,42.983,43.188z"/>
			<path fill="#E5E5E5" d="M35.125,43.188h2.039c1.125,0,2.036-0.625,2.036-1.398s-0.911-1.4-2.036-1.4h-2.039
				c-1.125,0-2.035,0.627-2.035,1.4S34,43.188,35.125,43.188z"/>
		</g>
		<g>
			<path fill="#67B8CB" d="M69.333,65.641H33.817c-2.531,0-4.584,6.766-4.584,6.766s2.053,6.766,4.584,6.766h35.516
				C71.864,79.172,71.864,65.641,69.333,65.641z"/>
			<path fill="#E5E5E5" d="M42.983,73.84h19.227c1.125,0,2.035-0.627,2.035-1.4c0-0.771-0.91-1.398-2.035-1.398H42.983
				c-1.125,0-2.035,0.627-2.035,1.398C40.948,73.213,41.858,73.84,42.983,73.84z"/>
			<path fill="#E5E5E5" d="M35.125,73.84h2.039c1.125,0,2.036-0.627,2.036-1.4c0-0.771-0.911-1.398-2.036-1.398h-2.039
				c-1.125,0-2.035,0.627-2.035,1.398C33.09,73.213,34,73.84,35.125,73.84z"/>
		</g>
		<g>
			<g>
				<ellipse fill="#9D5D26" cx="71.16" cy="116.912" rx="15.425" ry="5.426"/>
			</g>
			<g>
				<ellipse fill="#AE722D" cx="71.159" cy="115.893" rx="14.261" ry="4.074"/>
			</g>
			<g>
				<path fill="#AE722D" d="M75.877,114.074c0,4.701-9.168,4.701-9.168,0V27.643c0-4.701,2.053-8.514,4.584-8.514l0,0
					c2.531,0,4.584,3.813,4.584,8.514V114.074z"/>
			</g>
			<g>
				<path fill="#BB813C" d="M75.877,114.074c0,3.482-5.03,4.385-7.638,2.709c-0.913-0.586-1.446-91.111,3.054-97.654l0,0
					c2.531,0,4.584,3.813,4.584,8.514V114.074z"/>
			</g>
		</g>
	</g>
</g>
</svg>
