<?xml version="1.0" encoding="utf-8"?>
<!-- Generator: Adobe Illustrator 16.0.0, SVG Export Plug-In . SVG Version: 6.00 Build 0)  -->
<!DOCTYPE svg PUBLIC "-//W3C//DTD SVG 1.1//EN" "http://www.w3.org/Graphics/SVG/1.1/DTD/svg11.dtd">
<svg version="1.1" id="Layer_1" xmlns="http://www.w3.org/2000/svg" xmlns:xlink="http://www.w3.org/1999/xlink" x="0px" y="0px"
	 width="136.914px" height="136.914px" viewBox="0 0 136.914 136.914" enable-background="new 0 0 136.914 136.914"
	 xml:space="preserve">
<g>
	<g>
		<g>
			<g>
				<g>
					<circle fill="#A2D4DE" cx="68.457" cy="68.458" r="63.333"/>
				</g>
			</g>
		</g>
	</g>
	<g>
		<g>
			<circle fill="#70BFC8" cx="65.582" cy="68.457" r="47.749"/>
			<g>
				<path fill="#43B665" d="M90.301,47.508c0,0-10.221,2.112-13.881,0.15c0,0-2.441-3.167-9.304-0.452
					c0,0-12.051,7.243-12.204,14.484c0,0-3.357,14.335,9.305,16.295c0,0,13.271-4.374,14.948,0.755c0,0,0.459,6.338,1.679,7.695
					c0,0,1.982,2.914,1.829,4.676c0,0-1.371,5.885,0.458,10.413c0,0,1.222,3.922,1.069,5.13c0,0,11.593-3.319,15.253-14.183
					c0,0,2.137-7.546,2.288-9.507c0,0,3.052-8.751,3.814-11.468c0,0,2.744-8.147-1.831-7.091c0,0-3.203-3.019-5.491-5.281
					C95.945,56.861,91.522,48.263,90.301,47.508z"/>
				<path fill="#43B665" d="M100.521,58.825L87.707,47.057c0,0,2.746-2.415,1.831-3.771c-0.916-1.36-2.897,0.451-4.576,0.451
					c-1.678,0-3.966,1.358-4.882,0.149c-0.915-1.207-1.525-0.904-2.439-0.149c-0.915,0.755-2.593,1.962-2.747,1.206
					c-0.152-0.754-2.896-0.451-3.052-1.206c-0.149-0.755,0.458-2.867-0.913-2.414c-1.372,0.451-3.354,1.963-3.663,2.717
					c-0.304,0.754-1.37,3.018-2.439,3.018c-1.066,0-3.813,0.602-4.271-0.303c-0.456-0.906-1.371-3.925-0.456-4.829
					c0.915-0.905,5.394,0.05,5.187-1.056c-0.208-1.105-0.736-3.534-0.062-3.879c0.672-0.344,2.5-4.269,3.721-4.722
					c1.221-0.452,4.425,1.207,4.883,0.151c0,0,0.151-3.168-0.458-3.621c-0.611-0.452-1.069-1.811-2.135-1.661
					c-1.069,0.152-1.526,1.209-0.763,1.661c0.763,0.453,1.37,2.264,0.915,2.264c-0.458,0-4.578,0.3-4.729-0.754
					c-0.154-1.057,0.458-3.622,1.828-4.527c1.374-0.904,4.271-0.754,5.188-0.303c0.916,0.454,1.983-0.451,2.288-1.205
					c0.307-0.754-4.335-3.28-5.709-3.28c0,0,36.15,2.698,42.356,39.658c0,0-3.852-12.69-6.444-13.445c0,0-1.372,0.906-2.288,0.755
					c-0.916-0.15-5.491-3.019-5.796-2.263c-0.307,0.755,2.136,3.318,4.729,3.619c2.593,0.303,2.746,0.604,2.898,1.963
					c0.151,1.357,0.609,3.471,0.306,4.828C105.708,57.466,103.877,61.541,100.521,58.825z"/>
				<path fill="#43B665" d="M62.69,31.968c0,0-1.221,0.754-1.829,1.809c-0.611,1.058-0.611,1.963-0.611,1.963
					s0.773,0.45,1.554,0.454c0.782,0.002,2.871-0.756,2.871-1.812C64.675,33.325,62.69,31.968,62.69,31.968z"/>
				<path fill="#43B665" d="M60.861,22.915c0,0-3.66,4.375-5.491,4.827c-1.832,0.454-4.881,1.962-5.645,2.566
					c-0.763,0.604-3.356-0.453-1.83-1.659c1.523-1.209,5.643-3.925,4.729-4.227c-0.916-0.301-5.035,2.565-6.714,3.773
					c-1.677,1.206-3.05,3.015-3.812,4.224c-0.765,1.208-0.611,4.376-2.288,4.979c-1.679,0.604-9.002,3.62-11.442,5.734
					c-2.439,2.111-5.068,3.671-6.138,5.782c-1.067,2.112,0.54-3.372,1.484-5.395c0,0,6.485-11.554,21.282-18.797
					C44.998,24.725,56.285,21.859,60.861,22.915z"/>
				<path fill="#43B665" d="M18.149,76.025c0,0-1.526-8.148,0.152-8.903c1.678-0.753,2.185-0.913,3.662,0.604
					c1.476,1.518,3.507,4.073,4.269,5.432c0.765,1.357,3.51,3.017,3.51,4.073c0,1.056-0.61,3.621,0,4.827
					c0.61,1.208,1.525,1.36,2.898,1.962c1.374,0.603,3.965,1.509,5.492,2.868c1.524,1.358,3.66,3.018,3.202,4.827
					c-0.456,1.812-1.372,4.527-1.068,5.583c0.307,1.056,1.374,2.865,0.154,3.62c-1.222,0.755-2.136,0.605-1.984,1.962
					c0.154,1.357,1.682,5.578,2.141,6.332C40.577,109.213,21.557,101.119,18.149,76.025z"/>
				<path fill="#43B665" d="M20.233,59.259c0.304-1.054,1.066-6.335,0.15-6.335c-1.79,6.604-1.726,6.518-2.44,11.467"/>
			</g>
		</g>
		<g>
			<g>
				<path fill="#357180" d="M23.686,45.437c-0.441,0-0.867-0.241-1.083-0.662c-1.399-2.742-1.925-4.631-1.946-4.71
					c-0.177-0.647,0.203-1.315,0.85-1.492c0.647-0.177,1.314,0.203,1.492,0.849l0,0c0.004,0.018,0.49,1.75,1.768,4.249
					c0.305,0.597,0.068,1.328-0.528,1.633C24.06,45.394,23.87,45.437,23.686,45.437z"/>
			</g>
			<g>
				<path fill="#357180" d="M65,66.222c-0.644,0-1.181-0.505-1.212-1.155c-0.033-0.669,0.482-1.239,1.153-1.271
					c3.06-0.15,6.289-0.517,9.598-1.09c0.662-0.111,1.289,0.33,1.403,0.989c0.114,0.661-0.329,1.289-0.989,1.404
					c-3.405,0.589-6.733,0.967-9.893,1.121C65.04,66.221,65.02,66.222,65,66.222z M55.205,65.953c-0.045,0-0.091-0.002-0.137-0.007
					c-3.451-0.384-6.757-1.089-9.822-2.096c-0.637-0.209-0.984-0.895-0.775-1.532c0.21-0.637,0.896-0.986,1.532-0.774
					c2.908,0.954,6.049,1.623,9.334,1.989c0.667,0.074,1.146,0.674,1.072,1.341C56.34,65.494,55.814,65.953,55.205,65.953z
					 M36.762,59.758c-0.223,0-0.447-0.061-0.649-0.189c-2.863-1.815-5.468-4-7.743-6.492c-0.452-0.496-0.418-1.264,0.078-1.716
					c0.495-0.451,1.263-0.417,1.715,0.078c2.13,2.334,4.57,4.38,7.251,6.08c0.565,0.358,0.734,1.109,0.375,1.676
					C37.557,59.559,37.163,59.758,36.762,59.758z"/>
			</g>
			<g>
				<path fill="#357180" d="M84.342,62.964c-0.534,0-1.023-0.355-1.171-0.896c-0.175-0.647,0.206-1.314,0.854-1.49
					c1.506-0.409,3.058-0.865,4.614-1.354c0.644-0.203,1.322,0.154,1.521,0.793c0.202,0.641-0.153,1.321-0.793,1.522
					c-1.587,0.499-3.17,0.964-4.705,1.381C84.555,62.95,84.447,62.964,84.342,62.964z"/>
			</g>
		</g>
		<path fill="#ECCB19" d="M119.129,44.822c-1.291-2.589-5.376-0.915-6.385-0.412c0,0-0.266,0.144-0.731,0.396
			c-3.477-2.32-10.798-6.982-13.27-6.814c-0.48,0.032-1.996,0.704-1.676,0.995c2.547,2.328,7.226,6.515,9.691,8.717
			c-4.606,2.572-10.591,5.996-13.068,7.782c-1.616-1.037-3.909-2.387-4.785-2.326c-0.207,0.013-0.858,0.302-0.721,0.426
			c1.024,0.938,2.85,2.572,3.95,3.556c-0.225,0.354-0.404,0.814-0.131,1.142c0.251,0.303,0.668,0.456,1.023,0.534
			c0.121,1.451,0.338,4.005,0.473,5.432c0.018,0.187,0.639-0.16,0.776-0.318c0.578-0.668,0.879-3.338,1.023-5.256
			c2.973-0.888,9.432-3.578,14.291-5.662c0.264,3.143,0.825,9.836,1.165,13.434c0.044,0.431,1.49-0.375,1.807-0.742
			c1.676-1.933,2.347-11.104,2.563-15.098c0.371-0.164,0.579-0.256,0.579-0.256C116.715,49.847,120.421,47.412,119.129,44.822z"/>
	</g>
</g>
</svg>
