<?xml version="1.0" encoding="utf-8"?>
<!-- Generator: Adobe Illustrator 16.0.0, SVG Export Plug-In . SVG Version: 6.00 Build 0)  -->
<!DOCTYPE svg PUBLIC "-//W3C//DTD SVG 1.1//EN" "http://www.w3.org/Graphics/SVG/1.1/DTD/svg11.dtd">
<svg version="1.1" id="Layer_1" xmlns="http://www.w3.org/2000/svg" xmlns:xlink="http://www.w3.org/1999/xlink" x="0px" y="0px"
	 width="136.833px" height="136.834px" viewBox="0 0 136.833 136.834" style="enable-background:new 0 0 136.833 136.834;"
	 xml:space="preserve">
<style type="text/css">
<![CDATA[
	.st0{fill:#AA865B;}
	.st1{fill:#49A0AE;}
	.st2{fill:#E0E0E0;}
	.st3{fill:#E23942;}
	.st4{fill:#E4DFD6;}
	.st5{fill:#E4E4E4;}
	.st6{fill:#4C3E30;}
	.st7{fill:#E7E7E7;}
	.st8{fill:#4D4946;}
	.st9{fill:#E84849;}
	.st10{fill:#E8E8DF;}
	.st11{fill:#E8E8E8;}
	.st12{fill:#E9E9EA;}
	.st13{fill:#818282;}
	.st14{fill:#828282;}
	.st15{fill:#B1C635;}
	.st16{fill:#857856;}
	.st17{fill:#B5DDE1;}
	.st18{fill:#B7C133;}
	.st19{fill:#89932C;}
	.st20{fill:#1E1B18;}
	.st21{fill:#ECECEC;}
	.st22{fill:#51473A;}
	.st23{fill:#EFEFEF;}
	.st24{fill:#524F49;}
	.st25{fill:#585550;}
	.st26{fill:#8CB23F;}
	.st27{fill:#202121;}
	.st28{fill:#8EC0C8;}
	.st29{fill:#F3F4F5;}
	.st30{fill:#5B4F3F;}
	.st31{fill:#5C9340;}
	.st32{fill:#C02026;}
	.st33{fill:#C0C0C0;}
	.st34{fill:#93793D;}
	.st35{fill:#939292;}
	.st36{fill:#C4E7ED;}
	.st37{opacity:0.5;}
	.st38{opacity:0.7;}
	.st39{opacity:0.8;}
	.st40{fill:#FFA300;}
	.st41{fill:#FFCE00;}
	.st42{fill:#FFFFFF;}
	.st43{fill:#65A844;}
	.st44{fill:#665C51;}
	.st45{fill:#67B8CB;}
	.st46{fill:#9BD7D9;}
	.st47{fill:#CDCCCB;}
	.st48{fill:#344E5D;}
	.st49{fill:#6B4E15;}
	.st50{fill:#6B7D35;}
	.st51{fill:#D2D2D2;}
	.st52{fill:#3A2F22;}
	.st53{fill:#3B342D;}
	.st54{fill:#D6EFF2;}
	.st55{fill:#D7D7D7;}
	.st56{fill:#3E8540;}
	.st57{fill:#D9E3E4;}
	.st58{fill:#A0D2DC;}
	.st59{fill:#A19F9F;}
	.st60{fill:#737373;}
	.st61{fill:#A2D4DE;}
	.st62{fill:#A2DADB;}
	.st63{fill:#73BFCB;}
	.st64{fill:#766959;}
	.st65{fill:#77746F;}
	.st66{fill:#77913B;}
	.st67{fill:#A6B232;}
	.st68{fill:#A8A7A7;}
	.st69{fill:#DFDFDF;}
	.st70{fill:#423528;}
	.st71{fill:#43B665;}
	.st72{fill:#444341;}
	.st73{fill:#453F38;}
]]>
</style>
<g>
	<g>
		<g>
			<circle class="st10" cx="68.417" cy="68.417" r="63.333"/>
		</g>
	</g>
	<g>
		<g>
			<path class="st50" d="M65.072,82.137c-0.297-0.522-0.423-0.818-0.603-1.206c-0.164-0.365-0.312-0.724-0.452-1.082
				c-0.28-0.715-0.525-1.426-0.748-2.137c-0.443-1.422-0.792-2.845-1.075-4.271c-0.56-2.851-0.845-5.707-0.929-8.544
				c-0.04-1.419-0.029-2.833,0.028-4.24c0.054-1.401,0.175-2.913,0.45-4.369c0.506-2.935,1.761-5.868,3.495-8.205
				c1.71-2.36,3.591-4.193,4.776-6.379c1.22-2.162,1.764-4.702,1.837-7.327c0.066-2.603-0.346-5.267-1.019-7.857
				c-0.685-2.593-1.609-5.145-2.799-7.58c1.436,2.302,2.63,4.763,3.6,7.326c0.956,2.567,1.675,5.255,1.897,8.072
				c0.225,2.773-0.032,5.747-1.192,8.476c-1.133,2.742-2.963,4.961-4.179,7.15c-1.253,2.186-1.919,4.46-2.081,6.904
				c-0.091,1.229-0.054,2.431,0.036,3.736c0.087,1.3,0.217,2.593,0.392,3.874c0.352,2.56,0.885,5.075,1.634,7.48
				c0.375,1.201,0.804,2.375,1.292,3.496c0.244,0.56,0.503,1.106,0.775,1.627c0.136,0.26,0.276,0.514,0.417,0.753
				c0.126,0.215,0.315,0.52,0.372,0.575L65.072,82.137z"/>
		</g>
		<g>
			<g>
				<polygon class="st18" points="79.716,118.087 55.947,118.087 50.005,80.652 85.66,80.652 				"/>
			</g>
			<g>
				<polygon class="st66" points="85.617,84.306 49.253,84.306 48.169,78.601 86.701,78.601 				"/>
			</g>
		</g>
		<g>
			<path class="st18" d="M88.696,45.849c-4.394-2.147-5.319-5.227-8.912-5.455c-2.689-0.172-5.009,1.869-5.178,4.559
				c-0.172,2.689,1.867,5.008,4.557,5.179C84.123,50.447,88.696,45.849,88.696,45.849z"/>
		</g>
		<g>
			<path class="st18" d="M83.82,25.832c-3.313-0.604-4.5-2.473-6.923-1.955c-1.814,0.387-2.972,2.172-2.583,3.985
				c0.387,1.813,2.171,2.972,3.986,2.583C81.644,29.731,83.82,25.832,83.82,25.832z"/>
		</g>
		<g>
			<path class="st18" d="M87.726,66.989c-5.507-1.728-7.132-5.156-11.364-4.786c-3.168,0.276-5.51,3.067-5.233,6.234
				c0.274,3.168,3.066,5.511,6.234,5.234C83.204,73.162,87.726,66.989,87.726,66.989z"/>
		</g>
		<g>
			<path class="st18" d="M48.597,43.796c4.814-0.859,6.549-3.568,10.066-2.803c2.633,0.572,4.305,3.172,3.729,5.805
				c-0.571,2.633-3.169,4.303-5.802,3.73C51.735,49.472,48.597,43.796,48.597,43.796z"/>
		</g>
		<g>
			<path class="st18" d="M59.314,28.666c3.313-0.605,4.5-2.474,6.923-1.956c1.814,0.388,2.972,2.172,2.583,3.985
				c-0.387,1.814-2.171,2.972-3.986,2.584C61.49,32.564,59.314,28.666,59.314,28.666z"/>
		</g>
		<g>
			<path class="st18" d="M41.909,61.905c5.507-1.728,7.132-5.156,11.364-4.786c3.168,0.276,5.51,3.067,5.233,6.234
				c-0.274,3.168-3.066,5.511-6.234,5.234C46.431,68.078,41.909,61.905,41.909,61.905z"/>
		</g>
		<g>
			<path class="st50" d="M71.968,32.989c0.097-0.642,0.243-1.224,0.428-1.816c0.185-0.587,0.418-1.16,0.711-1.704
				c0.299-0.539,0.66-1.055,1.13-1.459c0.46-0.412,1.044-0.675,1.631-0.737c-0.568,0.17-1.053,0.516-1.397,0.963
				c-0.354,0.44-0.589,0.961-0.768,1.494c-0.172,0.538-0.287,1.093-0.355,1.655c-0.068,0.556-0.101,1.14-0.082,1.672l0,0.006
				c0.013,0.36-0.269,0.663-0.629,0.676c-0.36,0.013-0.663-0.269-0.676-0.629C71.959,33.07,71.962,33.027,71.968,32.989z"/>
		</g>
		<g>
			<path class="st50" d="M72,36.058c-0.295-1.172-0.744-2.376-1.355-3.457c-0.617-1.062-1.441-2.116-2.696-2.496
				c0.641,0.076,1.265,0.356,1.798,0.747c0.541,0.387,1.009,0.867,1.432,1.378c0.42,0.515,0.796,1.064,1.136,1.634
				c0.34,0.575,0.646,1.151,0.92,1.789c0.143,0.331-0.01,0.715-0.341,0.857s-0.715-0.011-0.857-0.342
				c-0.014-0.031-0.024-0.063-0.033-0.095L72,36.058z"/>
		</g>
		<g>
			<path class="st50" d="M67.304,46.672c0.767-0.663,1.521-1.149,2.348-1.603c0.82-0.441,1.686-0.8,2.587-1.03
				c0.898-0.229,1.834-0.326,2.744-0.234c0.91,0.089,1.783,0.372,2.55,0.801c-1.683-0.576-3.47-0.345-4.961,0.376
				c-0.753,0.355-1.451,0.815-2.094,1.339c-0.631,0.517-1.255,1.129-1.715,1.719l-0.009,0.011c-0.342,0.438-0.974,0.516-1.412,0.174
				c-0.438-0.342-0.515-0.974-0.173-1.411C67.209,46.763,67.257,46.713,67.304,46.672z"/>
		</g>
		<g>
			<path class="st50" d="M65.377,72.388c0.624-0.798,1.269-1.422,1.993-2.027c0.719-0.592,1.5-1.111,2.338-1.511
				c0.837-0.399,1.737-0.675,2.647-0.761c0.91-0.089,1.82,0.019,2.657,0.292c-1.763-0.239-3.471,0.333-4.794,1.329
				c-0.67,0.494-1.266,1.081-1.794,1.719c-0.52,0.629-1.013,1.351-1.35,2.019l-0.006,0.013c-0.25,0.496-0.855,0.694-1.351,0.444
				s-0.694-0.855-0.444-1.351C65.301,72.495,65.339,72.437,65.377,72.388z"/>
		</g>
		<g>
			<path class="st50" d="M62.914,68.197c-0.337-0.668-0.831-1.39-1.35-2.019c-0.528-0.638-1.125-1.225-1.794-1.719
				c-1.323-0.997-3.032-1.568-4.794-1.329c0.836-0.273,1.747-0.381,2.657-0.292c0.911,0.086,1.81,0.361,2.647,0.761
				c0.838,0.4,1.619,0.919,2.338,1.511c0.724,0.605,1.37,1.229,1.993,2.027c0.342,0.438,0.264,1.069-0.173,1.411
				c-0.438,0.342-1.07,0.264-1.412-0.173c-0.04-0.051-0.074-0.105-0.103-0.16L62.914,68.197z"/>
		</g>
		<g>
			<path class="st50" d="M64.058,52.897c-0.005-0.015-0.017-0.138-0.071-0.393c-0.05-0.258-0.146-0.631-0.279-1.076
				c-0.146-0.438-0.319-0.958-0.572-1.482c-0.238-0.535-0.556-1.068-0.909-1.585c-0.197-0.237-0.37-0.506-0.588-0.721
				c-0.215-0.218-0.415-0.455-0.652-0.628c-0.227-0.189-0.447-0.378-0.687-0.508c-0.233-0.14-0.448-0.297-0.675-0.378
				c-0.223-0.098-0.427-0.187-0.608-0.266c-0.191-0.052-0.358-0.097-0.496-0.134c-0.279-0.075-0.438-0.118-0.438-0.118
				s0.165,0.012,0.452,0.034c0.146,0.011,0.323,0.024,0.526,0.04c0.2,0.045,0.425,0.096,0.67,0.151
				c0.254,0.042,0.503,0.157,0.779,0.259c0.283,0.092,0.552,0.244,0.835,0.4c0.295,0.142,0.555,0.35,0.837,0.545
				c0.285,0.193,0.525,0.441,0.795,0.666c0.493,0.487,0.96,1.013,1.333,1.549c0.392,0.527,0.692,1.059,0.949,1.519
				c0.243,0.466,0.432,0.864,0.55,1.156c0.124,0.291,0.187,0.489,0.184,0.473c0.138,0.535-0.184,1.08-0.719,1.218
				S64.195,53.432,64.058,52.897z"/>
		</g>
	</g>
</g>
</svg>
