<?xml version="1.0" encoding="utf-8"?>
<!-- Generator: Adobe Illustrator 16.0.0, SVG Export Plug-In . SVG Version: 6.00 Build 0)  -->
<!DOCTYPE svg PUBLIC "-//W3C//DTD SVG 1.1//EN" "http://www.w3.org/Graphics/SVG/1.1/DTD/svg11.dtd">
<svg version="1.1" id="Layer_1" xmlns="http://www.w3.org/2000/svg" xmlns:xlink="http://www.w3.org/1999/xlink" x="0px" y="0px"
	 width="136.913px" height="136.914px" viewBox="0 0 136.913 136.914" enable-background="new 0 0 136.913 136.914"
	 xml:space="preserve">
<g>
	<g>
		<g>
			<g>
				<g>
					<circle fill="#65A844" cx="68.457" cy="68.458" r="63.333"/>
				</g>
			</g>
		</g>
	</g>
	<g>
		<g>
			<g>
				<path fill="#786E57" d="M119.38,87.98c0,1.505-1.219,2.725-2.725,2.725h-95.35c-1.506,0-2.727-1.22-2.727-2.725V50.165
					c0-1.506,1.221-2.726,2.727-2.726h95.35c1.506,0,2.725,1.22,2.725,2.726V87.98z"/>
			</g>
			<g>
				<path fill="#E8BE1E" d="M107.593,87.277c0,1.505-1.221,2.725-2.725,2.725H20.72c-1.504,0-2.725-1.22-2.725-2.725V49.463
					c0-1.507,1.221-2.727,2.725-2.727h84.148c1.504,0,2.725,1.22,2.725,2.727V87.277z"/>
			</g>
			<g>
				<g>
					<path fill="#786E57" d="M47.958,63.68c-4.158-2.131-5.393-4.435-7.268-5.685c-0.451-0.3-1.201-0.363-1.549-0.375
						c-0.008,0-0.014-0.003-0.02-0.003h-0.105c-0.041,0-0.064,0-0.064,0H28.083c-1.143,0-3.842,5.438-3.842,7.4s0,12.928,0,12.928
						c0,1.773,1.143,3.211,2.553,3.211h0.549l-0.781,0.242c-0.162,0-0.293,0.131-0.293,0.294v0.686c0,0.122,0.074,0.227,0.18,0.271
						c0.041,0.021,0.086,0.037,0.137,0.037h2.043c0.045,0,0.086-0.013,0.123-0.03c0.025,0.007,0.049,0.015,0.076,0.015l4.875-1.515
						h5.027l-0.781,0.242c-0.162,0-0.293,0.131-0.293,0.294v0.686c0,0.122,0.074,0.227,0.18,0.271
						c0.041,0.021,0.084,0.037,0.135,0.037h2.045c0.045,0,0.086-0.013,0.123-0.03c0.025,0.007,0.049,0.015,0.076,0.015l21.387-6.646
						c0.162,0,0.295-0.132,0.295-0.294v-0.624c0.035-0.086,0.061-0.177,0.061-0.275v-0.295V70.07
						C61.956,70.07,58.567,69.119,47.958,63.68z"/>
				</g>
				<g>
					<circle fill="#E8BE1E" cx="37.883" cy="75.182" r="1.337"/>
				</g>
				<g>
					<circle fill="#E8BE1E" cx="28.788" cy="75.182" r="1.338"/>
				</g>
				<g>
					<path fill="#E8BE1E" d="M41.538,66.398c0,1.502-0.969,2.721-2.164,2.721H27.831c-1.195,0-2.164-1.219-2.164-2.721
						c0,0,0,0.68,0-0.982c0-1.663,2.289-6.005,3.258-6.005h9.355c0.969,0,3.258,4.642,3.258,6.079S41.538,66.398,41.538,66.398z"/>
				</g>
			</g>
			<g>
				<path fill="#E3E1DC" d="M118.485,87.277c0,1.505-1.221,2.725-2.725,2.725h-11.607V46.736h11.607c1.504,0,2.725,1.22,2.725,2.727
					V87.277z"/>
			</g>
			<g>
				<path fill="#D1AB2B" d="M82.103,56.293c0,1.067-0.867,1.933-1.934,1.933H69.276c-1.068,0-1.932-0.865-1.932-1.933l0,0
					c0-1.067,0.863-1.932,1.932-1.932h10.893C81.235,54.361,82.103,55.226,82.103,56.293L82.103,56.293z"/>
			</g>
			<g>
				<path fill="#D1AB2B" d="M100.374,56.293c0,1.067-0.865,1.933-1.932,1.933H87.548c-1.066,0-1.932-0.865-1.932-1.933l0,0
					c0-1.067,0.865-1.932,1.932-1.932h10.895C99.509,54.361,100.374,55.226,100.374,56.293L100.374,56.293z"/>
			</g>
			<g>
				<path fill="#D1AB2B" d="M82.103,80.48c0,1.067-0.867,1.933-1.934,1.933H69.276c-1.068,0-1.932-0.865-1.932-1.933l0,0
					c0-1.067,0.863-1.933,1.932-1.933h10.893C81.235,78.548,82.103,79.413,82.103,80.48L82.103,80.48z"/>
			</g>
			<g>
				<path fill="#D1AB2B" d="M100.374,80.48c0,1.067-0.865,1.933-1.932,1.933H87.548c-1.066,0-1.932-0.865-1.932-1.933l0,0
					c0-1.067,0.865-1.933,1.932-1.933h10.895C99.509,78.548,100.374,79.413,100.374,80.48L100.374,80.48z"/>
			</g>
			<g>
				<g>
					<path fill="#D1AB2B" d="M69.452,66.308h28.99c1.066,0,1.932-0.865,1.932-1.933s-0.865-1.933-1.932-1.933h-28.99
						c-1.068,0-1.932,0.865-1.932,1.933S68.384,66.308,69.452,66.308z"/>
				</g>
				<g>
					<path fill="#D1AB2B" d="M98.442,70.29h-28.99c-1.068,0-1.932,0.865-1.932,1.933s0.863,1.934,1.932,1.934h28.99
						c1.066,0,1.932-0.866,1.932-1.934S99.509,70.29,98.442,70.29z"/>
				</g>
			</g>
		</g>
		<g>
			<g>
				<path fill="#786E57" d="M118.499,55.415h-6.559c-0.84,0-1.521-0.683-1.521-1.522l0,0c0-0.842,0.682-1.523,1.521-1.523h6.559
					V55.415z"/>
			</g>
			<g>
				<path fill="#786E57" d="M118.499,61.213h-6.559c-0.84,0-1.521-0.683-1.521-1.522l0,0c0-0.841,0.682-1.523,1.521-1.523h6.559
					V61.213z"/>
			</g>
			<g>
				<path fill="#786E57" d="M118.499,67.362h-6.559c-0.84,0-1.521-0.683-1.521-1.523l0,0c0-0.841,0.682-1.522,1.521-1.522h6.559
					V67.362z"/>
			</g>
		</g>
		<g>
			<rect x="103.653" y="46.736" fill="#D1AB2B" width="1" height="43.266"/>
		</g>
		<g>
			<path fill="#786E57" d="M115.749,75.752c0.822,0,1.492,0.669,1.492,1.494v8.417c0,0.825-0.67,1.494-1.492,1.494l0,0
				c-0.826,0-1.494-0.669-1.494-1.494v-8.417C114.255,76.421,114.923,75.752,115.749,75.752L115.749,75.752z"/>
		</g>
	</g>
</g>
</svg>
