<?xml version="1.0" encoding="utf-8"?>
<!-- Generator: Adobe Illustrator 16.0.0, SVG Export Plug-In . SVG Version: 6.00 Build 0)  -->
<!DOCTYPE svg PUBLIC "-//W3C//DTD SVG 1.1//EN" "http://www.w3.org/Graphics/SVG/1.1/DTD/svg11.dtd">
<svg version="1.1" id="Layer_1" xmlns="http://www.w3.org/2000/svg" xmlns:xlink="http://www.w3.org/1999/xlink" x="0px" y="0px"
	 width="136px" height="135.099px" viewBox="0 0 136 135.099" enable-background="new 0 0 136 135.099" xml:space="preserve">
<g>
	<g>
		<g>
			<g>
				<g>
					<circle fill="#F3EA83" cx="68.458" cy="66.642" r="63.333"/>
				</g>
			</g>
		</g>
	</g>
	<g>
		<g>
			<g>
				<path fill="#786E57" d="M118.789,87.014c0,1.505-1.221,2.725-2.727,2.725h-95.35c-1.504,0-2.725-1.22-2.725-2.725V49.199
					c0-1.506,1.221-2.726,2.725-2.726h95.35c1.506,0,2.727,1.22,2.727,2.726V87.014z"/>
			</g>
			<g>
				<path fill="#EDDAAB" d="M107.002,86.311c0,1.505-1.221,2.725-2.725,2.725H20.129c-1.506,0-2.727-1.22-2.727-2.725V48.497
					c0-1.507,1.221-2.727,2.727-2.727h84.148c1.504,0,2.725,1.22,2.725,2.727V86.311z"/>
			</g>
			<g>
				<path fill="#E3E1DC" d="M117.895,86.311c0,1.505-1.219,2.725-2.725,2.725h-11.607V45.77h11.607c1.506,0,2.725,1.22,2.725,2.727
					V86.311z"/>
			</g>
			<g>
				<path fill="#786E57" d="M54.217,60.261c-1.326-2.656-5.516-0.939-6.551-0.424c0,0-0.271,0.147-0.75,0.408
					c-3.566-2.382-11.076-7.164-13.611-6.992c-0.494,0.034-2.049,0.722-1.721,1.022c2.613,2.387,7.414,6.683,9.943,8.941
					c-4.727,2.639-10.865,6.15-13.406,7.984c-1.658-1.064-4.01-2.45-4.908-2.389c-0.213,0.014-0.881,0.311-0.74,0.439
					c1.051,0.961,2.924,2.637,4.053,3.646c-0.23,0.363-0.416,0.834-0.135,1.171c0.258,0.311,0.686,0.467,1.051,0.548
					c0.123,1.488,0.346,4.108,0.482,5.572c0.02,0.19,0.658-0.165,0.799-0.327c0.592-0.685,0.9-3.424,1.049-5.392
					c3.049-0.912,9.676-3.67,14.66-5.809c0.27,3.224,0.846,10.09,1.195,13.78c0.045,0.442,1.527-0.384,1.854-0.76
					c1.717-1.983,2.406-11.393,2.629-15.488c0.381-0.169,0.594-0.264,0.594-0.264C51.74,65.416,55.541,62.918,54.217,60.261z"/>
			</g>
			<g>
				<path fill="#D8BF8A" d="M81.512,55.327c0,1.067-0.867,1.933-1.934,1.933H68.684c-1.066,0-1.932-0.865-1.932-1.933l0,0
					c0-1.067,0.865-1.932,1.932-1.932h10.895C80.645,53.395,81.512,54.259,81.512,55.327L81.512,55.327z"/>
			</g>
			<g>
				<path fill="#D8BF8A" d="M99.783,55.327c0,1.067-0.865,1.933-1.934,1.933H86.957c-1.066,0-1.932-0.865-1.932-1.933l0,0
					c0-1.067,0.865-1.932,1.932-1.932H97.85C98.918,53.395,99.783,54.259,99.783,55.327L99.783,55.327z"/>
			</g>
			<g>
				<path fill="#D8BF8A" d="M81.512,79.514c0,1.067-0.867,1.933-1.934,1.933H68.684c-1.066,0-1.932-0.865-1.932-1.933l0,0
					c0-1.067,0.865-1.933,1.932-1.933h10.895C80.645,77.582,81.512,78.447,81.512,79.514L81.512,79.514z"/>
			</g>
			<g>
				<path fill="#D8BF8A" d="M99.783,79.514c0,1.067-0.865,1.933-1.934,1.933H86.957c-1.066,0-1.932-0.865-1.932-1.933l0,0
					c0-1.067,0.865-1.933,1.932-1.933H97.85C98.918,77.582,99.783,78.447,99.783,79.514L99.783,79.514z"/>
			</g>
			<g>
				<g>
					<path fill="#D8BF8A" d="M68.861,65.341H97.85c1.068,0,1.934-0.865,1.934-1.933s-0.865-1.933-1.934-1.933H68.861
						c-1.068,0-1.934,0.865-1.934,1.933S67.793,65.341,68.861,65.341z"/>
				</g>
				<g>
					<path fill="#D8BF8A" d="M97.85,69.324H84.289H68.861c-1.068,0-1.934,0.865-1.934,1.933s0.865,1.934,1.934,1.934H97.85
						c1.068,0,1.934-0.866,1.934-1.934S98.918,69.324,97.85,69.324z"/>
				</g>
			</g>
		</g>
		<g>
			<g>
				<path fill="#786E57" d="M117.908,54.449h-6.561c-0.84,0-1.521-0.683-1.521-1.522l0,0c0-0.842,0.682-1.523,1.521-1.523h6.561
					V54.449z"/>
			</g>
			<g>
				<path fill="#786E57" d="M117.908,60.247h-6.561c-0.84,0-1.521-0.683-1.521-1.522l0,0c0-0.841,0.682-1.523,1.521-1.523h6.561
					V60.247z"/>
			</g>
			<g>
				<path fill="#786E57" d="M117.908,66.396h-6.561c-0.84,0-1.521-0.683-1.521-1.523l0,0c0-0.841,0.682-1.522,1.521-1.522h6.561
					V66.396z"/>
			</g>
		</g>
		<g>
			<rect x="103.063" y="45.77" fill="#D9C390" width="1" height="43.266"/>
		</g>
		<g>
			<path fill="#786E57" d="M115.156,74.786c0.824,0,1.494,0.669,1.494,1.494v8.417c0,0.825-0.67,1.494-1.494,1.494l0,0
				c-0.824,0-1.494-0.669-1.494-1.494V76.28C113.662,75.455,114.332,74.786,115.156,74.786L115.156,74.786z"/>
		</g>
	</g>
</g>
</svg>
