<?xml version="1.0" encoding="utf-8"?>
<!-- Generator: Adobe Illustrator 16.0.0, SVG Export Plug-In . SVG Version: 6.00 Build 0)  -->
<!DOCTYPE svg PUBLIC "-//W3C//DTD SVG 1.1//EN" "http://www.w3.org/Graphics/SVG/1.1/DTD/svg11.dtd">
<svg version="1.1" id="Layer_1" xmlns="http://www.w3.org/2000/svg" xmlns:xlink="http://www.w3.org/1999/xlink" x="0px" y="0px"
	 width="136.914px" height="136.914px" viewBox="0 0 136.914 136.914" enable-background="new 0 0 136.914 136.914"
	 xml:space="preserve">
<g>
	<g>
		<g>
			<g>
				<g>
					<circle fill="#4ABC96" cx="68.457" cy="68.458" r="63.333"/>
				</g>
			</g>
		</g>
	</g>
	<g>
		<g>
			<path fill="#EAD03A" d="M78.638,27.595c0,1.256-1.018,1.3-2.273,1.3H61.877c-1.257,0-2.273-0.044-2.273-1.3v-5.708
				c0-1.256,1.017-2.274,2.273-2.274h14.487c1.256,0,2.273,1.019,2.273,2.274V27.595z"/>
		</g>
		<g>
			<path fill="#F8E04E" d="M64.387,28.895h-2.51c-1.257,0-2.273-0.044-2.273-1.3v-5.708c0-1.256,1.017-2.274,2.273-2.274h14.487
				c1.256,0,2.273,1.019,2.273,2.274L64.387,28.895z"/>
		</g>
		<g>
			<g>
				<path d="M64.142,25.451v-2.697h-1.08v-0.547h2.891v0.547h-1.076v2.697H64.142z"/>
			</g>
			<g>
				<path d="M69.377,25.451H68.58l-0.318-0.738h-1.456l-0.3,0.738h-0.779l1.417-3.244h0.777L69.377,25.451z M68.025,24.166
					l-0.502-1.203l-0.491,1.203H68.025z"/>
			</g>
			<g>
				<path d="M69.702,25.451l1.244-1.693l-1.128-1.551h0.859l0.729,1.043l0.715-1.043h0.853l-1.131,1.576l1.241,1.668h-0.885
					l-0.806-1.122l-0.812,1.122H69.702z"/>
			</g>
			<g>
				<path d="M73.934,25.451v-3.244h0.734v3.244H73.934z"/>
			</g>
		</g>
		<g>
			<g>
				<path fill="#5E5F5E" d="M36.883,70.541c-3.794,0-6.869,3.075-6.869,6.869v15.222c0,3.794,3.075,5.504,6.869,5.504
					s6.868-1.71,6.868-5.504V77.41C43.751,73.616,40.677,70.541,36.883,70.541z"/>
			</g>
			<g>
				<path fill="#5E5F5E" d="M102.474,70.541c-3.794,0-6.868,3.075-6.868,6.869v15.222c0,3.794,3.074,5.504,6.868,5.504
					s6.868-1.71,6.868-5.504V77.41C109.342,73.616,106.268,70.541,102.474,70.541z"/>
			</g>
			<g>
				<path fill="#E9D227" d="M107.912,53.72c-4.351-11.552-6.58-25.383-14.835-25.383c0,0-14.723-1.113-23.563-1.113
					c-8.332,0-23.583,1.113-23.583,1.113c-8.854,0-10.874,13.919-15.055,25.469c-6.329,2.735-11.524,10.286-10.763,16.361
					c0.992,7.92,1.803,24.504,13.116,24.504h72.557c11.313,0,12.713-20.049,13.084-24.504
					C119.242,65.712,114.347,56.408,107.912,53.72z"/>
			</g>
			<g>
				<path fill="#D0D1D1" d="M26.545,91.955c1.683,1.679,3.855,2.716,6.685,2.716h72.557c2.61,0,4.693-1.067,6.355-2.763
					c0.069-0.071-22.01-0.854-43.639-0.825C47.303,91.112,26.545,91.955,26.545,91.955z"/>
			</g>
			<g>
				<path fill="#E9DB31" d="M107.912,53.72c-4.351-11.552-6.58-25.383-14.835-25.383c0,0-14.723-1.113-23.563-1.113
					c-8.332,0-23.583,1.113-23.583,1.113c-8.854,0-10.874,13.919-15.055,25.469c-6.329,2.735-12.248,10.421-10.763,16.361
					s98.386,4.455,98.757,0C119.242,65.712,114.347,56.408,107.912,53.72z"/>
			</g>
			<g>
				<path fill="#E9D227" d="M107.912,53.72c-4.351-11.552-6.58-25.383-14.835-25.383c0,0-14.723-1.113-23.563-1.113
					c-8.332,0-23.583,1.113-23.583,1.113c-8.854,0-10.874,13.919-15.055,25.469C24.547,56.541,114.347,56.408,107.912,53.72z"/>
			</g>
			<g>
				<path fill="#E0C422" d="M97.337,82.419c0,3.075-2.41,5.569-5.384,5.569H47.03c-2.974,0-5.384-2.494-5.384-5.569l0,0
					c0-3.074,2.41-5.568,5.384-5.568h44.923C94.927,76.851,97.337,79.345,97.337,82.419L97.337,82.419z"/>
			</g>
			<g>
				<path fill="#FFFFFF" d="M81.374,82.233c0,1.27-1.028,2.298-2.298,2.298H59.907c-1.27,0-2.298-1.028-2.298-2.298l0,0
					c0-1.269,1.028-2.297,2.298-2.297h19.169C80.346,79.937,81.374,80.965,81.374,82.233L81.374,82.233z"/>
			</g>
			<g>
				<g>
					<path fill="#E9D227" d="M99.337,81.346c0,3.382,7.054,3.858,10.438,3.858s6.126-2.744,6.126-6.126
						c0-3.383-2.742-4.703-6.126-4.703S99.337,77.964,99.337,81.346z"/>
				</g>
				<g>
					<path fill="#FFFFFF" d="M100.563,81.01c0,2.883,6.01,3.286,8.892,3.286s5.219-2.335,5.219-5.218
						c0-2.881-2.337-3.713-5.219-3.713S100.563,78.129,100.563,81.01z"/>
				</g>
			</g>
			<g>
				<g>
					<path fill="#E9D227" d="M40.162,81.346c0,3.382-7.055,3.858-10.438,3.858c-3.384,0-6.126-2.744-6.126-6.126
						c0-3.383,2.742-4.703,6.126-4.703C33.107,74.375,40.162,77.964,40.162,81.346z"/>
				</g>
				<g>
					<path fill="#FFFFFF" d="M38.935,81.01c0,2.883-6.01,3.286-8.892,3.286s-5.218-2.335-5.218-5.218
						c0-2.881,2.336-3.713,5.218-3.713S38.935,78.129,38.935,81.01z"/>
				</g>
			</g>
			<g opacity="0.8">
				<path fill="#B1D4D7" d="M49.034,30.477c0,0,13.241-0.909,20.474-0.909c7.675,0,20.453,0.909,20.453,0.909
					c7.273,0,9.305,11.129,13.05,20.576c1.794,4.521-68.904,4.508-67.175-0.026C39.439,41.584,41.263,30.477,49.034,30.477z"/>
			</g>
			<g>
				<path fill="#D3E0E1" d="M49.034,30.477c0,0,13.241-0.909,20.474-0.909c3.122,0,7.088,0.15,10.695,0.33L61.438,54.351
					c-14.172-0.302-26.331-1.409-25.603-3.324C39.439,41.584,41.263,30.477,49.034,30.477z"/>
			</g>
		</g>
	</g>
</g>
</svg>
