<?xml version="1.0" encoding="utf-8"?>
<!-- Generator: Adobe Illustrator 16.0.0, SVG Export Plug-In . SVG Version: 6.00 Build 0)  -->
<!DOCTYPE svg PUBLIC "-//W3C//DTD SVG 1.1//EN" "http://www.w3.org/Graphics/SVG/1.1/DTD/svg11.dtd">
<svg version="1.1" id="Layer_1" xmlns="http://www.w3.org/2000/svg" xmlns:xlink="http://www.w3.org/1999/xlink" x="0px" y="0px"
	 width="136.913px" height="136.913px" viewBox="0 0 136.913 136.913" enable-background="new 0 0 136.913 136.913"
	 xml:space="preserve">
<g>
	<path fill="#C4E6E9" d="M69.09,71.417c22.998,0,44.098,4.48,60.585,13.904c1.477-5.373,2.281-11.023,2.281-16.865
		c0-35.07-28.43-63.5-63.499-63.5c-35.07,0-63.5,28.43-63.5,63.5c0,6.072,0.87,11.939,2.462,17.5
		C24.061,76.101,45.581,71.417,69.09,71.417z"/>
	<path fill="#69C6D4" d="M7.419,85.957c1.089,3.801,2.517,7.455,4.26,10.928C25.51,88.64,42.539,83.267,61.246,80.71
		c25.207-3.441,48.852-1.141,67.382,8.027c0.38-1.127,0.729-2.264,1.047-3.416c-16.487-9.424-37.587-13.904-60.585-13.904
		C45.581,71.417,24.061,76.101,7.419,85.957z"/>
	<path fill="#70BFC8" d="M61.246,80.71c-18.707,2.557-35.736,7.93-49.567,16.174c0.657,1.313,1.358,2.6,2.103,3.857
		C29.389,93.21,48.477,89.615,69.09,89.615c20.178,0,38.89,3.451,54.311,10.658c2.109-3.633,3.865-7.494,5.228-11.535
		C110.098,79.57,86.453,77.269,61.246,80.71z"/>
	<path fill="#F3ED73" d="M13.781,100.742c0.661,1.117,1.346,2.219,2.072,3.291c16.547-6.164,36.317-7.846,57.279-5.611
		c15.963,1.703,30.77,5.479,43.496,11.381c2.536-2.953,4.806-6.139,6.771-9.529c-15.421-7.207-34.133-10.658-54.311-10.658
		C48.477,89.615,29.389,93.21,13.781,100.742z"/>
	<path fill="#F3EA83" d="M15.854,104.033c4.672,6.895,10.669,12.814,17.618,17.412c8.937-3.506,18.674-6.174,28.962-7.996
		c18.099-3.205,35.498-3.379,50.884-0.053c1.153-1.15,2.249-2.357,3.312-3.594c-12.727-5.902-27.533-9.678-43.496-11.381
		C52.171,96.187,32.4,97.869,15.854,104.033z"/>
	<path fill="#E7DD7F" d="M62.434,113.449c-10.288,1.822-20.025,4.49-28.962,7.996c1.872,1.236,3.815,2.373,5.819,3.412
		c8.295-1.342,17.043-1.959,26.078-1.883c10.435,0.09,20.469,1.1,29.853,3.066c6.761-3.146,12.882-7.439,18.096-12.645
		C97.932,110.07,80.532,110.244,62.434,113.449z"/>
	<path fill="#F3ED73" d="M39.291,124.857c8.735,4.527,18.646,7.1,29.166,7.1c9.564,0,18.629-2.129,26.765-5.916
		c-9.384-1.967-19.418-2.977-29.853-3.066C56.334,122.898,47.586,123.515,39.291,124.857z"/>
	<path fill="#F8CC19" d="M68.586,65.677c14.014,0,25.371-11.359,25.371-25.373S82.6,14.931,68.586,14.931
		S43.213,26.291,43.213,40.304S54.572,65.677,68.586,65.677z M66.958,18.595c11.766,0,21.3,9.537,21.3,21.301
		c0,11.766-9.534,21.305-21.3,21.305c-11.765,0-21.303-9.539-21.303-21.305C45.655,28.132,55.193,18.595,66.958,18.595z"/>
	<path fill="#F8D12E" d="M66.958,61.201c11.766,0,21.3-9.539,21.3-21.305c0-11.764-9.534-21.301-21.3-21.301
		c-11.765,0-21.303,9.537-21.303,21.301C45.655,51.662,55.193,61.201,66.958,61.201z M65.879,22.324
		c9.066,0,16.416,7.35,16.416,16.416c0,9.068-7.35,16.42-16.416,16.42c-9.067,0-16.418-7.352-16.418-16.42
		C49.461,29.673,56.812,22.324,65.879,22.324z"/>
	<circle fill="#F8D958" cx="65.879" cy="38.742" r="16.418"/>
</g>
</svg>
