<?xml version="1.0" encoding="utf-8"?>
<!-- Generator: Adobe Illustrator 16.0.0, SVG Export Plug-In . SVG Version: 6.00 Build 0)  -->
<!DOCTYPE svg PUBLIC "-//W3C//DTD SVG 1.1//EN" "http://www.w3.org/Graphics/SVG/1.1/DTD/svg11.dtd">
<svg version="1.1" id="Layer_1" xmlns="http://www.w3.org/2000/svg" xmlns:xlink="http://www.w3.org/1999/xlink" x="0px" y="0px"
	 width="136.833px" height="136.834px" viewBox="0 0 136.833 136.834" style="enable-background:new 0 0 136.833 136.834;"
	 xml:space="preserve">
<style type="text/css">
<![CDATA[
	.st0{fill:#AA865B;}
	.st1{fill:#49A0AE;}
	.st2{fill:#E0E0E0;}
	.st3{fill:#E23942;}
	.st4{fill:#E4DFD6;}
	.st5{fill:#E4E4E4;}
	.st6{fill:#4C3E30;}
	.st7{fill:#E7E7E7;}
	.st8{fill:#4D4946;}
	.st9{fill:#E84849;}
	.st10{fill:#E8E8DF;}
	.st11{fill:#E8E8E8;}
	.st12{fill:#E9E9EA;}
	.st13{fill:#818282;}
	.st14{fill:#828282;}
	.st15{fill:#B1C635;}
	.st16{fill:#857856;}
	.st17{fill:#B5DDE1;}
	.st18{fill:#B7C133;}
	.st19{fill:#89932C;}
	.st20{fill:#1E1B18;}
	.st21{fill:#ECECEC;}
	.st22{fill:#51473A;}
	.st23{fill:#EFEFEF;}
	.st24{fill:#524F49;}
	.st25{fill:#585550;}
	.st26{fill:#8CB23F;}
	.st27{fill:#202121;}
	.st28{fill:#8EC0C8;}
	.st29{fill:#F3F4F5;}
	.st30{fill:#5B4F3F;}
	.st31{fill:#5C9340;}
	.st32{fill:#C02026;}
	.st33{fill:#C0C0C0;}
	.st34{fill:#93793D;}
	.st35{fill:#939292;}
	.st36{fill:#C4E7ED;}
	.st37{opacity:0.5;}
	.st38{opacity:0.7;}
	.st39{opacity:0.8;}
	.st40{fill:#FFA300;}
	.st41{fill:#FFCE00;}
	.st42{fill:#FFFFFF;}
	.st43{fill:#65A844;}
	.st44{fill:#665C51;}
	.st45{fill:#67B8CB;}
	.st46{fill:#9BD7D9;}
	.st47{fill:#CDCCCB;}
	.st48{fill:#344E5D;}
	.st49{fill:#6B4E15;}
	.st50{fill:#6B7D35;}
	.st51{fill:#D2D2D2;}
	.st52{fill:#3A2F22;}
	.st53{fill:#3B342D;}
	.st54{fill:#D6EFF2;}
	.st55{fill:#D7D7D7;}
	.st56{fill:#3E8540;}
	.st57{fill:#D9E3E4;}
	.st58{fill:#A0D2DC;}
	.st59{fill:#A19F9F;}
	.st60{fill:#737373;}
	.st61{fill:#A2D4DE;}
	.st62{fill:#A2DADB;}
	.st63{fill:#73BFCB;}
	.st64{fill:#766959;}
	.st65{fill:#77746F;}
	.st66{fill:#77913B;}
	.st67{fill:#A6B232;}
	.st68{fill:#A8A7A7;}
	.st69{fill:#DFDFDF;}
	.st70{fill:#423528;}
	.st71{fill:#43B665;}
	.st72{fill:#444341;}
	.st73{fill:#453F38;}
]]>
</style>
<g>
	<g>
		<g>
			<circle class="st15" cx="68.417" cy="68.417" r="63.333"/>
		</g>
	</g>
	<g>
		<g>
			<g>
				<path class="st42" d="M48.027,81.679c0.09,0.06,0.186,0.109,0.285,0.149c0.769,0.378,1.494,0.169,1.989-0.31
					c0.514-0.4,0.825-1.047,0.612-1.867c-1.586-6.114-3.172-12.229-4.758-18.343c-0.258-0.995-1.313-1.581-2.296-1.325
					c-6.112,1.586-12.226,3.173-18.338,4.76c-1.598,0.414-1.85,2.612-0.452,3.435c1.949,1.146,3.896,2.292,5.846,3.438
					l-6.881,11.917c-0.69,1.202-0.69,3.237,0.002,4.437l6.668,11.547c0.107-0.633,0.355-1.286,0.732-1.949l11.088-19.125
					C44.358,79.521,46.192,80.601,48.027,81.679z"/>
			</g>
			<g>
				<path class="st42" d="M56.389,88.167v-0.035H39.039l-5.712,9.817c-0.46,0.808-0.688,1.569-0.702,2.255
					c-0.022,1.024,0.444,1.863,1.317,2.381c0.503,0.247,1.023,0.427,1.542,0.513c0.096,0.016,0.204,0.028,0.303,0.032l1.076,0.025
					h17.99c0.013,0,0.024,0.002,0.037,0.002c0.375,0,0.75,0,1.125,0c0.013,0,0.025-0.002,0.039-0.002h0.335v-0.018
					c3.919-0.197,7.156-3.449,7.183-7.428C63.599,91.733,60.355,88.315,56.389,88.167z"/>
			</g>
		</g>
		<g>
			<g>
				<path class="st42" d="M92.584,34.119c-1.961,1.12-3.922,2.241-5.883,3.362l-6.924-11.894c-0.7-1.195-2.466-2.207-3.851-2.202
					l-13.334,0.051c0.495,0.407,0.939,0.946,1.328,1.604l11.088,19.124c-1.896,1.083-3.792,2.167-5.688,3.25
					c-0.005,0.003-0.009,0.007-0.014,0.01c-0.01,0.006-0.018,0.013-0.027,0.019c-0.77,0.464-0.975,1.207-0.819,1.891
					c0.072,0.663,0.476,1.278,1.314,1.507c6.094,1.661,12.188,3.323,18.281,4.984c0.985,0.269,2.035-0.327,2.304-1.313
					c1.66-6.094,3.321-12.186,4.981-18.279C95.779,34.629,94.009,33.305,92.584,34.119z"/>
			</g>
			<g>
				<path class="st42" d="M61.042,24.76c-0.879-0.528-1.838-0.54-2.721-0.039c-0.465,0.313-0.879,0.676-1.212,1.084
					c-0.061,0.075-0.126,0.163-0.178,0.246l-0.557,0.922l-8.967,15.663c-0.001,0.002-0.002,0.003-0.003,0.005
					c-0.187,0.325-0.373,0.651-0.56,0.977c-0.003,0.005-0.004,0.009-0.007,0.013l-0.165,0.289l0.015,0.008
					c-1.793,3.503-0.543,7.946,2.902,9.936c3.445,1.988,7.98,0.852,10.086-2.499l0.034,0.02l8.621-15.059l-5.683-9.835
					C62.177,25.689,61.63,25.114,61.042,24.76z"/>
			</g>
		</g>
		<g>
			<g>
				<path class="st42" d="M88.509,88.618c0.007-2.117,0.014-4.236,0.021-6.354c0.008-0.131,0.001-0.259-0.021-0.385
					c-0.078-0.793-0.575-1.297-1.192-1.502c-0.576-0.258-1.263-0.229-1.86,0.276c-0.046,0.034-0.09,0.068-0.132,0.107
					c-0.001,0.001-0.002,0.001-0.003,0.003c-4.481,4.451-8.962,8.903-13.443,13.355c-0.729,0.724-0.701,1.932,0.015,2.651
					c4.451,4.479,8.902,8.959,13.354,13.438c1.145,1.152,3.188,0.297,3.193-1.319c0.008-2.269,0.016-4.536,0.023-6.804l13.761-0.065
					c1.387-0.01,3.144-1.035,3.831-2.237l6.611-11.58c-0.601,0.227-1.29,0.342-2.053,0.351L88.509,88.618z"/>
			</g>
			<g>
				<path class="st42" d="M113.351,82.271c-0.034-0.09-0.078-0.19-0.125-0.277l-0.521-0.942l-9.109-15.609
					c-0.005-0.008-0.008-0.017-0.013-0.024c-0.189-0.323-0.379-0.647-0.567-0.972c-0.004-0.006-0.009-0.012-0.012-0.018
					l-0.141-0.241l-0.013,0.007c-2.135-3.328-6.669-4.432-10.103-2.42c-3.431,2.012-4.653,6.477-2.827,9.967l-0.033,0.019
					l8.746,14.985l11.357-0.015c0.93-0.011,1.702-0.197,2.302-0.53c0.896-0.497,1.386-1.323,1.393-2.338
					C113.646,83.303,113.539,82.763,113.351,82.271z"/>
			</g>
		</g>
	</g>
</g>
</svg>
