<?xml version="1.0" encoding="utf-8"?>
<!-- Generator: Adobe Illustrator 16.0.0, SVG Export Plug-In . SVG Version: 6.00 Build 0)  -->
<!DOCTYPE svg PUBLIC "-//W3C//DTD SVG 1.1//EN" "http://www.w3.org/Graphics/SVG/1.1/DTD/svg11.dtd">
<svg version="1.1" id="Layer_1" xmlns="http://www.w3.org/2000/svg" xmlns:xlink="http://www.w3.org/1999/xlink" x="0px" y="0px"
	 width="136.833px" height="136.833px" viewBox="0 0 136.833 136.833" style="enable-background:new 0 0 136.833 136.833;"
	 xml:space="preserve">
<style type="text/css">
<![CDATA[
	.st0{fill:#AA865B;}
	.st1{fill:#49A0AE;}
	.st2{fill:#E0E0E0;}
	.st3{fill:#E23942;}
	.st4{fill:#E4DFD6;}
	.st5{fill:#E4E4E4;}
	.st6{fill:#4C3E30;}
	.st7{fill:#E7E7E7;}
	.st8{fill:#4D4946;}
	.st9{fill:#E84849;}
	.st10{fill:#E8E8DF;}
	.st11{fill:#E8E8E8;}
	.st12{fill:#E9E9EA;}
	.st13{fill:#818282;}
	.st14{fill:#828282;}
	.st15{fill:#B1C635;}
	.st16{fill:#857856;}
	.st17{fill:#B5DDE1;}
	.st18{fill:#B7C133;}
	.st19{fill:#89932C;}
	.st20{fill:#1E1B18;}
	.st21{fill:#ECECEC;}
	.st22{fill:#51473A;}
	.st23{fill:#EFEFEF;}
	.st24{fill:#524F49;}
	.st25{fill:#585550;}
	.st26{fill:#8CB23F;}
	.st27{fill:#202121;}
	.st28{fill:#8EC0C8;}
	.st29{fill:#F3F4F5;}
	.st30{fill:#5B4F3F;}
	.st31{fill:#5C9340;}
	.st32{fill:#C02026;}
	.st33{fill:#C0C0C0;}
	.st34{fill:#93793D;}
	.st35{fill:#939292;}
	.st36{fill:#C4E7ED;}
	.st37{opacity:0.5;}
	.st38{opacity:0.7;}
	.st39{opacity:0.8;}
	.st40{fill:#FFA300;}
	.st41{fill:#FFCE00;}
	.st42{fill:#FFFFFF;}
	.st43{fill:#65A844;}
	.st44{fill:#665C51;}
	.st45{fill:#67B8CB;}
	.st46{fill:#9BD7D9;}
	.st47{fill:#CDCCCB;}
	.st48{fill:#344E5D;}
	.st49{fill:#6B4E15;}
	.st50{fill:#6B7D35;}
	.st51{fill:#D2D2D2;}
	.st52{fill:#3A2F22;}
	.st53{fill:#3B342D;}
	.st54{fill:#D6EFF2;}
	.st55{fill:#D7D7D7;}
	.st56{fill:#3E8540;}
	.st57{fill:#D9E3E4;}
	.st58{fill:#A0D2DC;}
	.st59{fill:#A19F9F;}
	.st60{fill:#737373;}
	.st61{fill:#A2D4DE;}
	.st62{fill:#A2DADB;}
	.st63{fill:#73BFCB;}
	.st64{fill:#766959;}
	.st65{fill:#77746F;}
	.st66{fill:#77913B;}
	.st67{fill:#A6B232;}
	.st68{fill:#A8A7A7;}
	.st69{fill:#DFDFDF;}
	.st70{fill:#423528;}
	.st71{fill:#43B665;}
	.st72{fill:#444341;}
	.st73{fill:#453F38;}
]]>
</style>
<g>
	<g>
		<g>
			<circle class="st15" cx="68.416" cy="68.417" r="63.333"/>
		</g>
	</g>
	<g>
		<g>
			<path class="st72" d="M61.116,104.522v26.796c2.396,0.275,4.828,0.432,7.299,0.432c2.264,0,4.498-0.123,6.701-0.355v-26.872
				C75.116,100.656,61.116,100.656,61.116,104.522z"/>
		</g>
	</g>
	<g>
		<g>
			<path class="st24" d="M80.589,105.347c0,6.825-5.529,8.01-12.355,8.01l0,0c-6.824,0-12.355-1.185-12.355-8.01V93.22
				c0-6.826,5.531-12.357,12.355-12.357l0,0c6.826,0,12.355,5.531,12.355,12.357V105.347z"/>
		</g>
		<g>
			<g>
				<g>
					<path class="st65" d="M62.757,51.642c0,2.797-2.266,5.064-5.063,5.064l0,0c-2.797,0-5.064-2.268-5.064-5.064V39.201h10.127
						V51.642z"/>
				</g>
			</g>
			<g>
				<g>
					<path class="st4" d="M62.028,39.833h-8.666V31.22c0-2.394,1.939-4.333,4.332-4.333l0,0c2.395,0,4.334,1.939,4.334,4.333V39.833
						z"/>
				</g>
			</g>
		</g>
		<g>
			<g>
				<g>
					<path class="st65" d="M84.61,51.642c0,2.797-2.268,5.064-5.063,5.064l0,0c-2.797,0-5.064-2.268-5.064-5.064V39.201H84.61
						V51.642z"/>
				</g>
			</g>
			<g>
				<g>
					<path class="st4" d="M83.882,39.833h-8.668V31.22c0-2.394,1.941-4.333,4.334-4.333l0,0c2.393,0,4.334,1.939,4.334,4.333V39.833
						z"/>
				</g>
			</g>
		</g>
		<g>
			<path class="st25" d="M79.565,100.507H57.36c-8.652,0-14.641-32.245-14.641-41.283c0-9.039,4.975-10.297,14.074-10.297h23.34
				c9.1,0,14.074,1.258,14.074,10.297C94.208,68.262,88.22,100.507,79.565,100.507z"/>
		</g>
		<g>
			<path class="st24" d="M42.538,59.224c0-9.039,5.156-10.297,14.256-10.297h23.34c9.1,0,14.256,1.258,14.256,10.297
				c0,0-0.697,0.914-25.926,0.914S42.538,59.224,42.538,59.224z"/>
		</g>
	</g>
</g>
</svg>
