<?xml version="1.0" encoding="utf-8"?>
<!-- Generator: Adobe Illustrator 16.0.0, SVG Export Plug-In . SVG Version: 6.00 Build 0)  -->
<!DOCTYPE svg PUBLIC "-//W3C//DTD SVG 1.1//EN" "http://www.w3.org/Graphics/SVG/1.1/DTD/svg11.dtd">
<svg version="1.1" id="Layer_1" xmlns="http://www.w3.org/2000/svg" xmlns:xlink="http://www.w3.org/1999/xlink" x="0px" y="0px"
	 width="136.914px" height="133.111px" viewBox="0 0 136.914 133.111" enable-background="new 0 0 136.914 133.111"
	 xml:space="preserve">
<g>
	<g>
		<g>
			<g>
				<g>
					<circle fill="#FFD113" cx="68.457" cy="66.557" r="63.333"/>
				</g>
			</g>
		</g>
	</g>
	<g>
		<g>
			<g>
				<path fill="#626463" d="M39.454,57.309c-11.58,0-20.968,9.387-20.968,20.968c0,11.579,9.388,20.968,20.968,20.968
					s20.968-9.389,20.968-20.968C60.422,66.695,51.034,57.309,39.454,57.309z M39.454,97.037c-10.361,0-18.761-8.4-18.761-18.761
					c0-10.362,8.399-18.761,18.761-18.761s18.761,8.398,18.761,18.761C58.215,88.637,49.815,97.037,39.454,97.037z"/>
			</g>
		</g>
		<g>
			<g>
				<path fill="#626463" d="M39.454,75.946c-1.287,0-2.33,1.043-2.33,2.33c0,1.286,1.043,2.33,2.33,2.33s2.33-1.044,2.33-2.33
					C41.784,76.989,40.741,75.946,39.454,75.946z"/>
			</g>
		</g>
		<g>
			<g>
				<g>
					<rect x="39.086" y="58.78" fill="#626463" width="0.736" height="39.237"/>
				</g>
				<g>
					<rect x="19.835" y="78.032" fill="#626463" width="39.237" height="0.735"/>
				</g>
				<g>
					
						<rect x="19.836" y="78.031" transform="matrix(0.7071 0.7071 -0.7071 0.7071 66.9908 -4.9362)" fill="#626463" width="39.237" height="0.736"/>
				</g>
				<g>
					
						<rect x="39.087" y="58.782" transform="matrix(0.7058 0.7084 -0.7084 0.7058 67.1497 -4.8839)" fill="#626463" width="0.736" height="39.237"/>
				</g>
			</g>
			<g>
				<g>
					
						<rect x="39.085" y="58.781" transform="matrix(0.9231 0.3846 -0.3846 0.9231 33.1883 -9.1438)" fill="#626463" width="0.736" height="39.236"/>
				</g>
				<g>
					
						<rect x="19.835" y="78.032" transform="matrix(0.923 0.3847 -0.3847 0.923 33.2009 -9.1446)" fill="#626463" width="39.238" height="0.736"/>
				</g>
				<g>
					
						<rect x="19.835" y="78.032" transform="matrix(0.3806 0.9247 -0.9247 0.3806 96.9377 12.0765)" fill="#626463" width="39.238" height="0.735"/>
				</g>
				<g>
					
						<rect x="39.087" y="58.782" transform="matrix(0.3817 0.9243 -0.9243 0.3817 96.8599 12.0089)" fill="#626463" width="0.734" height="39.238"/>
				</g>
			</g>
		</g>
		<g>
			<g>
				<path fill="#626463" d="M100.519,57.309c-11.58,0-20.968,9.387-20.968,20.968c0,11.579,9.388,20.968,20.968,20.968
					s20.968-9.389,20.968-20.968C121.486,66.695,112.099,57.309,100.519,57.309z M100.519,97.037
					c-10.361,0-18.761-8.4-18.761-18.761c0-10.362,8.399-18.761,18.761-18.761s18.761,8.398,18.761,18.761
					C119.279,88.637,110.88,97.037,100.519,97.037z"/>
			</g>
		</g>
		<g>
			<g>
				<path fill="#626463" d="M100.519,75.946c-1.287,0-2.33,1.043-2.33,2.33c0,1.286,1.043,2.33,2.33,2.33s2.33-1.044,2.33-2.33
					C102.849,76.989,101.806,75.946,100.519,75.946z"/>
			</g>
		</g>
		<g>
			<g>
				<g>
					<rect x="100.15" y="58.78" fill="#626463" width="0.736" height="39.237"/>
				</g>
				<g>
					<rect x="80.899" y="78.032" fill="#626463" width="39.237" height="0.735"/>
				</g>
				<g>
					
						<rect x="80.9" y="78.031" transform="matrix(0.7071 0.7071 -0.7071 0.7071 84.8752 -48.1142)" fill="#626463" width="39.237" height="0.735"/>
				</g>
				<g>
					
						<rect x="100.15" y="58.782" transform="matrix(0.7064 0.7078 -0.7078 0.7064 84.9972 -48.129)" fill="#626463" width="0.737" height="39.237"/>
				</g>
			</g>
			<g>
				<g>
					
						<rect x="100.15" y="58.781" transform="matrix(0.9231 0.3846 -0.3846 0.9231 37.8856 -32.6301)" fill="#626463" width="0.736" height="39.236"/>
				</g>
				<g>
					
						<rect x="80.899" y="78.032" transform="matrix(0.923 0.3847 -0.3847 0.923 37.9015 -32.6388)" fill="#626463" width="39.238" height="0.736"/>
				</g>
				<g>
					
						<rect x="80.899" y="78.032" transform="matrix(0.3806 0.9248 -0.9248 0.3806 134.7642 -44.3913)" fill="#626463" width="39.238" height="0.735"/>
				</g>
				<g>
					
						<rect x="100.151" y="58.782" transform="matrix(0.3817 0.9243 -0.9243 0.3817 134.6169 -44.4324)" fill="#626463" width="0.734" height="39.238"/>
				</g>
			</g>
		</g>
		<g>
			<path fill="#357180" d="M100.518,78.644c-0.49,0-0.938-0.328-1.066-0.824L88.17,34.657c-0.154-0.589,0.199-1.192,0.789-1.346
				c0.587-0.155,1.192,0.198,1.347,0.789l11.28,43.161c0.154,0.589-0.199,1.192-0.789,1.347
				C100.704,78.633,100.61,78.644,100.518,78.644z"/>
		</g>
		<g>
			<path fill="#357180" d="M63.854,79.257c-0.489,0-0.935-0.326-1.066-0.82l-10.79-40.71c-0.156-0.589,0.194-1.193,0.784-1.35
				c0.591-0.155,1.193,0.195,1.35,0.784l10.79,40.709c0.156,0.589-0.194,1.193-0.784,1.35
				C64.043,79.245,63.947,79.257,63.854,79.257z"/>
		</g>
		<g>
			<path fill="#357180" d="M55.026,44.679c-0.592,0-1.081-0.468-1.103-1.063c-0.021-0.609,0.454-1.121,1.063-1.143l36.05-1.288
				c0.604-0.042,1.12,0.454,1.143,1.063c0.021,0.609-0.454,1.121-1.063,1.143l-36.05,1.287
				C55.053,44.679,55.04,44.679,55.026,44.679z"/>
		</g>
		<g>
			<path fill="#357180" d="M36.879,78.521c-0.177,0-0.356-0.043-0.523-0.133c-0.536-0.289-0.737-0.958-0.447-1.495L53.81,43.664
				c0.289-0.536,0.959-0.736,1.495-0.447s0.737,0.958,0.448,1.495L37.851,77.941C37.651,78.312,37.271,78.521,36.879,78.521z"/>
		</g>
		<g>
			<path fill="#357180" d="M37.515,77.77c-0.275,0-0.539-0.154-0.666-0.42L26.404,55.417c-0.174-0.366-0.019-0.806,0.349-0.98
				c0.368-0.175,0.806-0.019,0.98,0.349l10.444,21.933c0.175,0.366,0.02,0.806-0.348,0.98C37.728,77.746,37.62,77.77,37.515,77.77z"
				/>
		</g>
		<g>
			<g>
				<path fill="#357180" d="M70.229,79.502c-0.372,0-0.749-0.113-1.074-0.348c-0.823-0.595-1.01-1.744-0.415-2.568l22.397-31.11
					c0.595-0.823,2.761,2.521,2.167,3.345L71.723,78.738C71.363,79.236,70.801,79.502,70.229,79.502z"/>
			</g>
		</g>
		<g>
			<path fill="#626463" d="M58.663,71.81c-10.095,0-23.011,2.919-23.011,6.52c0,3.602,12.916,6.521,23.011,6.521
				c10.096,0,13.548-2.919,13.548-6.521C72.211,74.729,68.759,71.81,58.663,71.81z"/>
		</g>
		<g>
			<path fill="#626463" d="M56.974,33.903c-0.622-0.207-1.348-0.354-2.141-0.437c-0.888-0.117-1.781-0.154-2.627-0.068
				c-0.297,0.03-0.576,0.077-0.846,0.134c-3.713,0.485-6.521,2.17-6.349,3.868c0.175,1.726,3.36,2.819,7.175,2.501
				c0.73,0.003,1.504-0.034,2.306-0.115c4.093-0.415,7.302-1.817,7.169-3.131C61.579,35.836,59.511,34.609,56.974,33.903z"/>
		</g>
		<g>
			<g>
				<circle fill="#818282" cx="65.817" cy="78.154" r="3.556"/>
			</g>
			<g>
				<circle fill="#818282" cx="65.817" cy="78.154" r="1.716"/>
				<path fill="#4B4A4B" d="M65.817,80.238c-1.149,0-2.085-0.935-2.085-2.084c0-1.15,0.936-2.085,2.085-2.085
					s2.084,0.935,2.084,2.085C67.901,79.304,66.967,80.238,65.817,80.238z M65.817,76.806c-0.744,0-1.349,0.604-1.349,1.349
					c0,0.743,0.604,1.349,1.349,1.349c0.743,0,1.349-0.605,1.349-1.349C67.166,77.41,66.561,76.806,65.817,76.806z"/>
			</g>
			<g>
				<path fill="#818282" d="M69.678,86.832c0.225,0.638,0.103,1.262-0.271,1.393l0,0c-0.374,0.131-0.859-0.279-1.083-0.919
					l-2.921-8.331c-0.224-0.639-0.102-1.264,0.272-1.394l0,0c0.374-0.131,0.859,0.279,1.083,0.919L69.678,86.832z"/>
			</g>
			<g>
				<ellipse fill="#626463" cx="69.036" cy="88.023" rx="3.157" ry="1.227"/>
			</g>
		</g>
		<g>
			<path fill="#357180" d="M49.448,54.642c0,0.769-0.453,1.391-1.012,1.391H27.101c-0.559,0-1.012-0.622-1.012-1.391l0,0
				c0-0.77,0.453-1.392,1.012-1.392h21.336C48.995,53.25,49.448,53.872,49.448,54.642L49.448,54.642z"/>
		</g>
		<g>
			<path fill="#357180" d="M102.948,35.745c-0.247,0.507-0.943,0.676-1.554,0.377l-17.791-8.701
				c-0.611-0.299-0.905-0.951-0.657-1.457l0,0c0.248-0.507,0.944-0.675,1.554-0.377l17.792,8.701
				C102.902,34.586,103.196,35.239,102.948,35.745L102.948,35.745z"/>
		</g>
		<g>
			<path fill="#626463" d="M85.151,26.644c0.044,0.715-0.077,1.304-0.267,1.315l-5.538,0.329c-0.19,0.011-0.379-0.561-0.421-1.274
				l0,0c-0.043-0.716,0.077-1.304,0.267-1.315l5.539-0.329C84.92,25.357,85.109,25.929,85.151,26.644L85.151,26.644z"/>
		</g>
		<g>
			<path fill="#626463" d="M101.171,34.376c0.661-0.272,1.259-0.35,1.33-0.175l2.112,5.131c0.072,0.176-0.407,0.54-1.067,0.812l0,0
				c-0.664,0.274-1.259,0.351-1.332,0.176l-2.111-5.132C100.03,35.014,100.508,34.648,101.171,34.376L101.171,34.376z"/>
		</g>
		<g>
			<path fill="#357180" d="M93.27,30.557c0.383,0.414,0.573,0.86,0.425,0.997l-4.314,3.983c-0.147,0.138-0.577-0.088-0.96-0.503l0,0
				c-0.384-0.414-0.574-0.861-0.425-0.997l4.314-3.983C92.456,29.917,92.888,30.143,93.27,30.557L93.27,30.557z"/>
		</g>
		<g>
			<path fill="#357180" d="M98.556,48.568h-0.841c-1.974,0-3.573,1.6-3.573,3.572c0,1.975,1.6,3.573,3.573,3.573h0.841
				C100.529,55.714,100.529,48.568,98.556,48.568z"/>
		</g>
	</g>
</g>
</svg>
