<?xml version="1.0" encoding="utf-8"?>
<!-- Generator: Adobe Illustrator 16.0.0, SVG Export Plug-In . SVG Version: 6.00 Build 0)  -->
<!DOCTYPE svg PUBLIC "-//W3C//DTD SVG 1.1//EN" "http://www.w3.org/Graphics/SVG/1.1/DTD/svg11.dtd">
<svg version="1.1" id="Layer_1" xmlns="http://www.w3.org/2000/svg" xmlns:xlink="http://www.w3.org/1999/xlink" x="0px" y="0px"
	 width="136.833px" height="136.833px" viewBox="0 0 136.833 136.833" style="enable-background:new 0 0 136.833 136.833;"
	 xml:space="preserve">
<style type="text/css">
<![CDATA[
	.st0{fill:#AA865B;}
	.st1{fill:#49A0AE;}
	.st2{fill:#E0E0E0;}
	.st3{fill:#E23942;}
	.st4{fill:#E4DFD6;}
	.st5{fill:#E4E4E4;}
	.st6{fill:#4C3E30;}
	.st7{fill:#E7E7E7;}
	.st8{fill:#4D4946;}
	.st9{fill:#E84849;}
	.st10{fill:#E8E8DF;}
	.st11{fill:#E8E8E8;}
	.st12{fill:#E9E9EA;}
	.st13{fill:#818282;}
	.st14{fill:#828282;}
	.st15{fill:#B1C635;}
	.st16{fill:#857856;}
	.st17{fill:#B5DDE1;}
	.st18{fill:#B7C133;}
	.st19{fill:#89932C;}
	.st20{fill:#1E1B18;}
	.st21{fill:#ECECEC;}
	.st22{fill:#51473A;}
	.st23{fill:#EFEFEF;}
	.st24{fill:#524F49;}
	.st25{fill:#585550;}
	.st26{fill:#8CB23F;}
	.st27{fill:#202121;}
	.st28{fill:#8EC0C8;}
	.st29{fill:#F3F4F5;}
	.st30{fill:#5B4F3F;}
	.st31{fill:#5C9340;}
	.st32{fill:#C02026;}
	.st33{fill:#C0C0C0;}
	.st34{fill:#93793D;}
	.st35{fill:#939292;}
	.st36{fill:#C4E7ED;}
	.st37{opacity:0.5;}
	.st38{opacity:0.7;}
	.st39{opacity:0.8;}
	.st40{fill:#FFA300;}
	.st41{fill:#FFCE00;}
	.st42{fill:#FFFFFF;}
	.st43{fill:#65A844;}
	.st44{fill:#665C51;}
	.st45{fill:#67B8CB;}
	.st46{fill:#9BD7D9;}
	.st47{fill:#CDCCCB;}
	.st48{fill:#344E5D;}
	.st49{fill:#6B4E15;}
	.st50{fill:#6B7D35;}
	.st51{fill:#D2D2D2;}
	.st52{fill:#3A2F22;}
	.st53{fill:#3B342D;}
	.st54{fill:#D6EFF2;}
	.st55{fill:#D7D7D7;}
	.st56{fill:#3E8540;}
	.st57{fill:#D9E3E4;}
	.st58{fill:#A0D2DC;}
	.st59{fill:#A19F9F;}
	.st60{fill:#737373;}
	.st61{fill:#A2D4DE;}
	.st62{fill:#A2DADB;}
	.st63{fill:#73BFCB;}
	.st64{fill:#766959;}
	.st65{fill:#77746F;}
	.st66{fill:#77913B;}
	.st67{fill:#A6B232;}
	.st68{fill:#A8A7A7;}
	.st69{fill:#DFDFDF;}
	.st70{fill:#423528;}
	.st71{fill:#43B665;}
	.st72{fill:#444341;}
	.st73{fill:#453F38;}
]]>
</style>
<g>
	<g>
		<g>
			<circle class="st10" cx="68.417" cy="68.417" r="63.333"/>
		</g>
	</g>
	<g>
		<g>
			<path class="st53" d="M101.711,90.574c5.266,23.107-12.914,26.171-32.176,28.372c-20.475,2.341-42.703-8.189-38.023-28.372
				c4.551-19.628,21.397-51.127,35.1-51.127S95.432,63.01,101.711,90.574z"/>
		</g>
		<g>
			<path class="st53" d="M74.409,39.447c0,1.931,5.184,15.5,2.072,15.5H56.648c-3.112,0,4.155-13.569,4.155-15.5l-5.164-17.626
				c0-1.93,2.408-3.446,9.383-4.368c11.03-1.456,15.487,1.273,15.487,3.204L74.409,39.447z"/>
		</g>
		<g>
			<path class="st73" d="M65.022,17.453c-6.975,0.922-9.383,2.438-9.383,4.368l5.164,17.626c0,0.349-0.24,1.082-0.611,2.044
				c-12.125,7.275-24.821,32.441-28.68,49.083c-4.68,20.183,17.549,30.713,38.023,28.372
				C88.797,116.745,65.022,17.453,65.022,17.453z"/>
		</g>
		<g>
			<path class="st60" d="M78.875,41.65c0,1.013-0.756,1.834-1.69,1.834c0,0-9.635,1.093-12.627,0.905
				c-2.99-0.187-4.721-0.905-4.721-0.905c-0.933,0-1.688-0.821-1.688-1.834l0,0c0-1.013,0.756-1.834,1.688-1.834
				c0,0,0.021,0.21,4.936,0.906s12.412-0.906,12.412-0.906C78.119,39.816,78.875,40.637,78.875,41.65L78.875,41.65z"/>
		</g>
		<g>
			<path class="st60" d="M79.643,48.486c-0.395-3.229-2.631-7.533-2.631-7.533c-0.18-0.996-1.133-1.658-2.129-1.479
				c-0.996,0.179-1.66,1.134-1.48,2.13c0,0,2.326,1.93,2.588,7.305c0.262,5.376-0.869,5.435-0.869,5.435
				c0.182,0.997,2.063,1.659,3.059,1.479c0.998-0.18,2.124-0.669,1.944-1.666C80.125,54.157,80.034,51.715,79.643,48.486z"/>
		</g>
		<g>
			<path class="st53" d="M55.516,111.876c-4.203,2.71-12.959-3.156-15.668-7.36c-2.711-4.207-4.184-13.289,0.023-15.998
				C44.077,85.809,59.723,109.167,55.516,111.876z"/>
		</g>
		<g>
			<path class="st20" d="M77.87,20.135c0.129,1.195-4.176,2.64-9.613,3.227c-5.439,0.588-9.951,0.094-10.081-1.102
				c-0.128-1.194,4.517-3.74,9.956-4.327C73.567,17.346,77.739,18.94,77.87,20.135z"/>
		</g>
	</g>
</g>
</svg>
