<?xml version="1.0" encoding="utf-8"?>
<!-- Generator: Adobe Illustrator 16.0.0, SVG Export Plug-In . SVG Version: 6.00 Build 0)  -->
<!DOCTYPE svg PUBLIC "-//W3C//DTD SVG 1.1//EN" "http://www.w3.org/Graphics/SVG/1.1/DTD/svg11.dtd">
<svg version="1.1" id="Layer_1" xmlns="http://www.w3.org/2000/svg" xmlns:xlink="http://www.w3.org/1999/xlink" x="0px" y="0px"
	 width="136.833px" height="136.833px" viewBox="0 0 136.833 136.833" style="enable-background:new 0 0 136.833 136.833;"
	 xml:space="preserve">
<style type="text/css">
<![CDATA[
	.st0{fill:#AA865B;}
	.st1{fill:#49A0AE;}
	.st2{fill:#E0E0E0;}
	.st3{fill:#E23942;}
	.st4{fill:#E4DFD6;}
	.st5{fill:#E4E4E4;}
	.st6{fill:#4C3E30;}
	.st7{fill:#E7E7E7;}
	.st8{fill:#4D4946;}
	.st9{fill:#E84849;}
	.st10{fill:#E8E8DF;}
	.st11{fill:#E8E8E8;}
	.st12{fill:#E9E9EA;}
	.st13{fill:#818282;}
	.st14{fill:#828282;}
	.st15{fill:#B1C635;}
	.st16{fill:#857856;}
	.st17{fill:#B5DDE1;}
	.st18{fill:#B7C133;}
	.st19{fill:#89932C;}
	.st20{fill:#1E1B18;}
	.st21{fill:#ECECEC;}
	.st22{fill:#51473A;}
	.st23{fill:#EFEFEF;}
	.st24{fill:#524F49;}
	.st25{fill:#585550;}
	.st26{fill:#8CB23F;}
	.st27{fill:#202121;}
	.st28{fill:#8EC0C8;}
	.st29{fill:#F3F4F5;}
	.st30{fill:#5B4F3F;}
	.st31{fill:#5C9340;}
	.st32{fill:#C02026;}
	.st33{fill:#C0C0C0;}
	.st34{fill:#93793D;}
	.st35{fill:#939292;}
	.st36{fill:#C4E7ED;}
	.st37{opacity:0.5;}
	.st38{opacity:0.7;}
	.st39{opacity:0.8;}
	.st40{fill:#FFA300;}
	.st41{fill:#FFCE00;}
	.st42{fill:#FFFFFF;}
	.st43{fill:#65A844;}
	.st44{fill:#665C51;}
	.st45{fill:#67B8CB;}
	.st46{fill:#9BD7D9;}
	.st47{fill:#CDCCCB;}
	.st48{fill:#344E5D;}
	.st49{fill:#6B4E15;}
	.st50{fill:#6B7D35;}
	.st51{fill:#D2D2D2;}
	.st52{fill:#3A2F22;}
	.st53{fill:#3B342D;}
	.st54{fill:#D6EFF2;}
	.st55{fill:#D7D7D7;}
	.st56{fill:#3E8540;}
	.st57{fill:#D9E3E4;}
	.st58{fill:#A0D2DC;}
	.st59{fill:#A19F9F;}
	.st60{fill:#737373;}
	.st61{fill:#A2D4DE;}
	.st62{fill:#A2DADB;}
	.st63{fill:#73BFCB;}
	.st64{fill:#766959;}
	.st65{fill:#77746F;}
	.st66{fill:#77913B;}
	.st67{fill:#A6B232;}
	.st68{fill:#A8A7A7;}
	.st69{fill:#DFDFDF;}
	.st70{fill:#423528;}
	.st71{fill:#43B665;}
	.st72{fill:#444341;}
	.st73{fill:#453F38;}
]]>
</style>
<g>
	<g>
		<g>
			<circle class="st15" cx="68.416" cy="68.417" r="63.333"/>
		</g>
	</g>
	<g>
		<g>
			<g>
				<path class="st14" d="M64.728,109.806l-0.789,6.465c0,2.125,2.383,2.779,6.533,2.779c4.152,0,6.943-0.654,6.943-2.779
					l-0.791-6.465H64.728z"/>
			</g>
			<g>
				<path class="st33" d="M62.202,106.282l-1.123,6.972c0,2.746,3.393,2.37,9.305,2.37c5.916,0,9.893,0.376,9.893-2.37l-1.123-6.972
					H62.202z"/>
			</g>
			<g>
				<path class="st35" d="M61.276,103.244l-1.246,7.216c0,3.046,3.762,2.736,10.322,2.736c6.563,0,10.973,0.31,10.973-2.736
					l-1.248-7.216H61.276z"/>
			</g>
			<g>
				<path class="st33" d="M60.95,100.5l-1.293,7.303c0,3.151,4.523,2.903,11.311,2.903c6.791,0,10.729,0.248,10.729-2.903
					l-1.291-7.303H60.95z"/>
			</g>
			<g>
				<path class="st59" d="M60.95,102.636l-1.293,2.582c0,3.151,3.896,2.837,10.686,2.837c6.787,0,11.354,0.314,11.354-2.837
					l-1.291-2.582H60.95z"/>
			</g>
			<g>
				<path class="st33" d="M75.798,95.639h-10.24c-3.26,0-5.9,2.554-5.9,5.704v1.293c0,3.15,4.32,2.702,11.109,2.702
					s10.93,0.448,10.93-2.702v-1.293C81.696,98.193,79.056,95.639,75.798,95.639z"/>
			</g>
		</g>
	</g>
	<g>
		<g>
			<g>
				<g>
					<path class="st7" d="M82.433,95.953c0-14.641,21.057-17.332,21.057-41.039c0-18.533-15.01-33.545-33.543-33.55
						C51.411,21.373,36.403,36.38,36.403,54.917c0,22.963,21.504,26.12,21.504,41.063C57.907,105.599,82.433,105.848,82.433,95.953z
						"/>
				</g>
			</g>
			<g>
				<path class="st68" d="M69.812,107.978"/>
			</g>
		</g>
	</g>
	<g>
		<g>
			<path class="st26" d="M88.544,67.501l-0.551-0.537l-13.572,7.222l-0.918-13.991c0-0.338-0.025-0.667-0.061-0.988l3.494-9.215
				l-0.369-0.301l-5.307,5.246c-0.023-0.014-0.041-0.023-0.064-0.037l-7.26-11.254l-0.477,0.391l2.982,14.229
				c-0.139,0.604-0.219,1.251-0.219,1.929l-0.771,11.746L51.687,54.176l-0.496,0.358L64.854,81.06l1.795,21.861
				c0,0,1.664,0.449,3.973,0.449c2.311,0,3.77-0.449,3.77-0.449l0.49-21.702L88.544,67.501z"/>
		</g>
		<g>
			<path class="st26" d="M53.188,55.306c0.725,0.746,1.914,0.764,2.662,0.041c1.377-1.336,1.252-3.834,1.252-3.834
				c-1.758,0.698-2.877,0.164-3.873,1.131C52.483,53.369,52.466,54.561,53.188,55.306z"/>
		</g>
		<g>
			<path class="st26" d="M49.729,48.924c1.006,0.218,2.002-0.425,2.217-1.433c0.4-1.862-1.082-3.856-1.082-3.856
				c-1.063,1.544-2.281,1.72-2.574,3.069C48.077,47.712,48.718,48.708,49.729,48.924z"/>
		</g>
		<g>
			<path class="st26" d="M47.163,46.619c0.814-0.638,0.955-1.813,0.32-2.624c-1.176-1.499-3.656-1.634-3.656-1.634
				c0.508,1.803-0.137,2.854,0.713,3.94C45.179,47.112,46.354,47.254,47.163,46.619z"/>
		</g>
		<g>
			<path class="st26" d="M49.812,56.322c-1.1,0.486-1.035,1.557-2.158,2.735c0,0,1.963,0.908,3.475,0.237
				c0.82-0.365,1.191-1.326,0.826-2.148C51.589,56.328,50.632,55.957,49.812,56.322z"/>
		</g>
		<g>
			<path class="st26" d="M50.54,50.412c-0.314,0.766,0.051,1.639,0.818,1.952c0.76,0.315,1.637-0.05,1.947-0.813
				c0.58-1.41-0.303-3.19-0.303-3.19C51.946,49.425,50.96,49.39,50.54,50.412z"/>
		</g>
		<g>
			<path class="st26" d="M50.249,53.433c-0.168-1.383-1.428-2.368-2.807-2.2c-1.848,0.226-2.234,1.841-4.439,3.079
				c0,0,2.494,2.238,5.049,1.93C49.433,56.072,50.417,54.815,50.249,53.433z"/>
		</g>
		<g>
			<path class="st26" d="M46.749,50.513c0.822-0.152,1.367-0.941,1.219-1.765c-0.154-0.821-0.943-1.365-1.768-1.216
				c-1.096,0.202-1.27,1.186-2.547,2.008C43.653,49.541,45.231,50.79,46.749,50.513z"/>
		</g>
		<g>
			<path class="st26" d="M87.647,68.765c-0.76,0.705-0.811,1.896-0.104,2.66c1.299,1.408,3.801,1.343,3.801,1.343
				c-0.654-1.769-0.092-2.876-1.033-3.896C89.604,68.108,88.413,68.06,87.647,68.765z"/>
		</g>
		<g>
			<path class="st26" d="M96.37,64.083c-1.004-0.242-2.014,0.376-2.256,1.378c-0.244,1.005,0.375,2.015,1.379,2.256
				c1.852,0.446,3.881-0.985,3.881-0.985C97.858,65.629,97.712,64.408,96.37,64.083z"/>
		</g>
		<g>
			<path class="st26" d="M99.099,63.341c1.527-1.137,1.725-3.614,1.725-3.614c-1.818,0.461-2.854-0.208-3.959,0.616
				c-0.828,0.616-0.996,1.789-0.383,2.615C97.101,63.787,98.274,63.957,99.099,63.341z"/>
		</g>
		<g>
			<path class="st26" d="M85.841,67.488c0.826-0.346,1.221-1.298,0.875-2.126c-0.457-1.108-1.529-1.069-2.68-2.222
				c0,0-0.955,1.938-0.322,3.469C84.06,67.437,85.011,67.83,85.841,67.488z"/>
		</g>
		<g>
			<path class="st26" d="M92.608,66.238c-0.758-0.332-1.641,0.012-1.975,0.77c-0.332,0.754,0.012,1.637,0.768,1.969
				c1.396,0.616,3.195-0.225,3.195-0.225C93.562,67.669,93.618,66.683,92.608,66.238z"/>
		</g>
		<g>
			<path class="st26" d="M86.843,63.605c0.133,1.385,1.369,2.402,2.754,2.271c1.385-0.136,2.402-1.37,2.266-2.753
				c-0.178-1.854-1.787-2.279-2.969-4.516C88.894,58.607,86.599,61.046,86.843,63.605z"/>
		</g>
		<g>
			<path class="st26" d="M94.333,63.707c0.826-0.131,1.393-0.906,1.26-1.734c-0.176-1.101-1.152-1.301-1.941-2.596
				c0,0-1.291,1.547-1.053,3.072C92.731,63.273,93.507,63.835,94.333,63.707z"/>
		</g>
		<g>
			<path class="st26" d="M75.708,56.845c-0.648,0.813-0.512,1.998,0.301,2.645c1.5,1.194,3.963,0.747,3.963,0.747
				c-0.918-1.647-0.533-2.827-1.621-3.693C77.542,55.898,76.354,56.032,75.708,56.845z"/>
		</g>
		<g>
			<path class="st26" d="M83.45,56.238c-1.213-2.182-0.705-3.743-2.143-4.889c-1.076-0.855-2.643-0.678-3.502,0.398
				c-0.854,1.078-0.678,2.645,0.398,3.502C80.192,56.832,83.45,56.238,83.45,56.238z"/>
		</g>
		<g>
			<path class="st26" d="M82.212,46.695c-1.027-0.084-1.932,0.68-2.016,1.708c-0.088,1.03,0.678,1.933,1.703,2.019
				c1.902,0.158,3.686-1.568,3.686-1.568C83.921,47.998,83.589,46.81,82.212,46.695z"/>
		</g>
		<g>
			<path class="st26" d="M84.532,46.822c0.738,0.726,1.918,0.715,2.645-0.021c1.334-1.357,1.148-3.834,1.148-3.834
				c-1.723,0.732-2.846,0.229-3.816,1.211C83.786,44.916,83.796,46.099,84.532,46.822z"/>
		</g>
		<g>
			<path class="st26" d="M71.544,51.044c1.572,0.393,3.168-0.561,3.563-2.129c0.527-2.1-1.064-3.197-1.486-6.104
				c0,0-3.471,1.774-4.203,4.67C69.026,49.054,69.976,50.646,71.544,51.044z"/>
		</g>
		<g>
			<path class="st26" d="M69.274,45.886c1.008-1.014,0.475-2.176,1.219-3.969c0,0-2.568-0.165-3.965,1.231
				c-0.752,0.761-0.75,1.985,0.004,2.741C67.286,46.643,68.521,46.642,69.274,45.886z"/>
		</g>
		<g>
			<path class="st26" d="M61.179,47.998c1.348-0.347,2.164-1.722,1.822-3.068c-0.463-1.804-2.113-1.979-3.625-4.008
				c0,0-1.9,2.761-1.264,5.253C58.454,47.522,59.827,48.339,61.179,47.998z"/>
		</g>
		<g>
			<path class="st26" d="M62.632,53.738c-1.77,0.293-2.08,1.864-4.156,3.145c0,0,2.494,2.056,4.938,1.658
				c1.324-0.217,2.227-1.467,2.01-2.792C65.208,54.423,63.954,53.526,62.632,53.738z"/>
		</g>
		<g>
			<path class="st26" d="M82.403,44.259c0.922,0.049,1.709-0.664,1.762-1.588c0.066-1.232-0.951-1.675-1.508-3.26
				c0,0-1.754,1.378-1.842,3.086C80.769,43.42,81.479,44.208,82.403,44.259z"/>
		</g>
		<g>
			<path class="st26" d="M78.509,46.362c1.307-0.417,2.025-1.817,1.611-3.126c-0.563-1.74-2.199-1.818-3.803-3.721
				c0,0-1.705,2.83-0.932,5.242C75.808,46.06,77.204,46.778,78.509,46.362z"/>
		</g>
		<g>
			<path class="st26" d="M63.382,42.433c0.924,0.049,1.715-0.664,1.764-1.589c0.066-1.232-0.949-1.675-1.506-3.26
				c0,0-1.758,1.379-1.848,3.085C61.747,41.594,62.46,42.382,63.382,42.433z"/>
		</g>
		<g>
			<path class="st26" d="M62.636,48.99c-1.32-0.349-2.027,0.646-3.867,0.889c0,0,1.092,2.205,2.914,2.691
				c0.986,0.262,2.002-0.328,2.266-1.314C64.212,50.267,63.622,49.253,62.636,48.99z"/>
		</g>
	</g>
</g>
</svg>
