<?xml version="1.0" encoding="utf-8"?>
<!-- Generator: Adobe Illustrator 16.0.0, SVG Export Plug-In . SVG Version: 6.00 Build 0)  -->
<!DOCTYPE svg PUBLIC "-//W3C//DTD SVG 1.1//EN" "http://www.w3.org/Graphics/SVG/1.1/DTD/svg11.dtd">
<svg version="1.1" id="Layer_1" xmlns="http://www.w3.org/2000/svg" xmlns:xlink="http://www.w3.org/1999/xlink" x="0px" y="0px"
	 width="136.833px" height="136.833px" viewBox="0 0 136.833 136.833" style="enable-background:new 0 0 136.833 136.833;"
	 xml:space="preserve">
<style type="text/css">
<![CDATA[
	.st0{fill:#AA865B;}
	.st1{fill:#49A0AE;}
	.st2{fill:#E0E0E0;}
	.st3{fill:#E23942;}
	.st4{fill:#E4DFD6;}
	.st5{fill:#E4E4E4;}
	.st6{fill:#4C3E30;}
	.st7{fill:#E7E7E7;}
	.st8{fill:#4D4946;}
	.st9{fill:#E84849;}
	.st10{fill:#E8E8DF;}
	.st11{fill:#E8E8E8;}
	.st12{fill:#E9E9EA;}
	.st13{fill:#818282;}
	.st14{fill:#828282;}
	.st15{fill:#B1C635;}
	.st16{fill:#857856;}
	.st17{fill:#B5DDE1;}
	.st18{fill:#B7C133;}
	.st19{fill:#89932C;}
	.st20{fill:#1E1B18;}
	.st21{fill:#ECECEC;}
	.st22{fill:#51473A;}
	.st23{fill:#EFEFEF;}
	.st24{fill:#524F49;}
	.st25{fill:#585550;}
	.st26{fill:#8CB23F;}
	.st27{fill:#202121;}
	.st28{fill:#8EC0C8;}
	.st29{fill:#F3F4F5;}
	.st30{fill:#5B4F3F;}
	.st31{fill:#5C9340;}
	.st32{fill:#C02026;}
	.st33{fill:#C0C0C0;}
	.st34{fill:#93793D;}
	.st35{fill:#939292;}
	.st36{fill:#C4E7ED;}
	.st37{opacity:0.5;}
	.st38{opacity:0.7;}
	.st39{opacity:0.8;}
	.st40{fill:#FFA300;}
	.st41{fill:#FFCE00;}
	.st42{fill:#FFFFFF;}
	.st43{fill:#65A844;}
	.st44{fill:#665C51;}
	.st45{fill:#67B8CB;}
	.st46{fill:#9BD7D9;}
	.st47{fill:#CDCCCB;}
	.st48{fill:#344E5D;}
	.st49{fill:#6B4E15;}
	.st50{fill:#6B7D35;}
	.st51{fill:#D2D2D2;}
	.st52{fill:#3A2F22;}
	.st53{fill:#3B342D;}
	.st54{fill:#D6EFF2;}
	.st55{fill:#D7D7D7;}
	.st56{fill:#3E8540;}
	.st57{fill:#D9E3E4;}
	.st58{fill:#A0D2DC;}
	.st59{fill:#A19F9F;}
	.st60{fill:#737373;}
	.st61{fill:#A2D4DE;}
	.st62{fill:#A2DADB;}
	.st63{fill:#73BFCB;}
	.st64{fill:#766959;}
	.st65{fill:#77746F;}
	.st66{fill:#77913B;}
	.st67{fill:#A6B232;}
	.st68{fill:#A8A7A7;}
	.st69{fill:#DFDFDF;}
	.st70{fill:#423528;}
	.st71{fill:#43B665;}
	.st72{fill:#444341;}
	.st73{fill:#453F38;}
]]>
</style>
<g>
	<g>
		<g>
			<g>
				<g>
					<path class="st58" d="M127.499,91.225c2.736-7.079,4.25-14.765,4.25-22.809c0-34.979-28.355-63.333-63.332-63.333
						c-34.979,0-63.334,28.354-63.334,63.333c0,7.18,1.213,14.073,3.414,20.508c15.924-8.395,35.842-12.398,57.459-12.398
						C89.464,76.526,110.964,81.257,127.499,91.225z"/>
				</g>
				<g>
					<path class="st15" d="M68.417,131.75c26.934,0,49.926-16.822,59.082-40.525c-16.535-9.968-38.035-14.699-61.543-14.699
						c-21.617,0-41.535,4.004-57.459,12.398C17.022,113.833,40.62,131.75,68.417,131.75z"/>
				</g>
			</g>
		</g>
	</g>
	<g>
		<g>
			<path class="st52" d="M84.181,68.235c-0.832-7.816-7.445-13.908-15.484-13.908s-14.654,6.093-15.484,13.912l10.031,5.797h9.58
				L84.181,68.235z"/>
		</g>
		<g>
			<path class="st29" d="M83.216,67.802c-0.781-7.331-6.982-13.042-14.52-13.042s-13.742,5.713-14.52,13.045l-10.598,41.967
				c0,2.229,3.264,4.035,7.293,4.035h35.648c4.027,0,7.293-1.807,7.293-4.035L83.216,67.802z"/>
		</g>
		<g>
			<g>
				<path class="st12" d="M83.216,67.802L72.567,66.37h-8.982l-9.408,1.436l-10.598,41.967c0,2.229,3.264,4.035,7.293,4.035h35.648
					c4.027,0,7.293-1.807,7.293-4.035L83.216,67.802z"/>
			</g>
		</g>
		<g>
			<g>
				<path class="st69" d="M63.585,66.37l-9.408,1.436l-10.598,41.967c0,2.229,3.264,4.035,7.293,4.035L63.585,66.37z"/>
			</g>
		</g>
		<g>
			<g>
				<path class="st21" d="M83.216,67.802L72.567,66.37l13.953,47.438c4.027,0,7.293-1.807,7.293-4.035L83.216,67.802z"/>
			</g>
		</g>
		<g>
			<g>
				<path class="st44" d="M68.417,131.75c3.014,0,5.975-0.222,8.877-0.629l9.227-17.314H50.872l7.889,17.203
					C61.909,131.493,65.132,131.75,68.417,131.75z"/>
			</g>
			<g>
				<path class="st30" d="M43.755,110.645l-0.176-0.873C43.579,110.072,43.644,110.364,43.755,110.645z"/>
			</g>
			<g>
				<path class="st30" d="M50.872,113.807c-3.486,0-6.395-1.354-7.117-3.162l3.52,17.476c3.686,1.306,7.523,2.282,11.486,2.89
					L50.872,113.807z"/>
			</g>
			<g>
				<path class="st64" d="M86.521,113.807l-9.227,17.314c4.451-0.625,8.758-1.706,12.863-3.207l3.48-17.27
					C92.915,112.454,90.005,113.807,86.521,113.807z"/>
			</g>
			<g>
				<path class="st64" d="M93.638,110.645c0.111-0.281,0.176-0.573,0.176-0.873L93.638,110.645z"/>
			</g>
		</g>
		<g>
			<path class="st30" d="M84.181,68.235c-0.832-7.816-7.445-13.908-15.484-13.908s-14.654,6.093-15.484,13.912l10.031-1.53
				l9.58-0.001L84.181,68.235z"/>
		</g>
		<g>
			<circle class="st52" cx="68.404" cy="61.04" r="2.815"/>
		</g>
		<g>
			<g>
				<g>
					<path class="st22" d="M99.704,90.811c-0.025-0.165-0.1-0.326-0.227-0.453l-0.1-0.098L77.224,68.106l-8.246-8.248
						c-0.318-0.317-0.832-0.317-1.148-0.002l-0.459,0.462c-0.318,0.316-0.318,0.829,0,1.146l7.346,7.347l-3.846,3.845
						c-0.496,0.497-0.496,1.305,0.002,1.802l22.154,22.154c0.498,0.498,1.305,0.498,1.801,0l4.551-4.551
						C99.718,91.723,99.823,91.242,99.704,90.811z M93.601,91.831l-1.262-1.264l1.525-1.525l1.264,1.264L93.601,91.831z
						 M91.995,90.223l-1.264-1.264l1.525-1.525l1.264,1.263L91.995,90.223z M90.388,88.616l-1.436-1.436l1.525-1.525l1.436,1.436
						L90.388,88.616z M88.606,86.835l-1.32-1.319l1.527-1.525l1.318,1.318L88.606,86.835z M86.942,85.171l-1.262-1.263l1.525-1.526
						l1.262,1.263L86.942,85.171z M85.337,83.564l-1.379-1.378l1.525-1.525l1.379,1.378L85.337,83.564z M83.614,81.842l-1.264-1.264
						l1.525-1.525l1.264,1.263L83.614,81.842z M82.007,80.235l-1.379-1.378l1.527-1.525l1.377,1.378L82.007,80.235z M80.284,78.512
						l-1.262-1.262l1.525-1.526l1.262,1.263L80.284,78.512z M78.677,76.905L77.3,75.528l1.525-1.526l1.377,1.378L78.677,76.905z
						 M76.954,75.183l-1.262-1.263l1.525-1.525l1.264,1.263L76.954,75.183z M75.349,73.576l-1.545-1.544l0.842-0.842
						c0.379-0.377,1.049-0.318,1.498,0.131l0.729,0.729L75.349,73.576z M95.472,90.648l0.691,0.692
						c0.451,0.449,0.508,1.119,0.131,1.497l-0.842,0.843l-1.506-1.506L95.472,90.648z M72.575,73.262l0.883-0.885l1.547,1.543
						l-1.57,1.568l-0.73-0.729C72.255,74.31,72.196,73.64,72.575,73.262z M75.349,74.264l1.262,1.264l-1.568,1.568l-1.264-1.263
						L75.349,74.264z M76.954,75.872l1.379,1.378l-1.57,1.569l-1.377-1.378L76.954,75.872z M78.677,77.594l1.264,1.262l-1.568,1.57
						l-1.264-1.263L78.677,77.594z M80.284,79.202l1.377,1.377l-1.568,1.569l-1.377-1.377L80.284,79.202z M82.007,80.922
						l1.262,1.264L81.7,83.754l-1.262-1.262L82.007,80.922z M83.614,82.531l1.379,1.378l-1.57,1.568L82.044,84.1L83.614,82.531z
						 M85.335,84.252l1.264,1.264l-1.57,1.568l-1.262-1.264L85.335,84.252z M86.942,85.86l1.32,1.32l-1.566,1.569l-1.322-1.32
						L86.942,85.86z M88.608,87.525l1.434,1.435l-1.568,1.57l-1.434-1.436L88.608,87.525z M90.388,89.304l1.262,1.263l-1.568,1.568
						l-1.262-1.262L90.388,89.304z M91.995,90.912l1.262,1.263l-1.568,1.568l-1.264-1.262L91.995,90.912z M94.222,94.909
						c-0.379,0.378-1.047,0.32-1.498-0.129l-0.691-0.692l1.568-1.569l1.506,1.506L94.222,94.909z"/>
				</g>
			</g>
			<g>
				<g>
					<path class="st22" d="M37.071,30.899c0.023,0.166,0.098,0.326,0.223,0.453l0.1,0.1l22.154,22.154l8.248,8.248
						c0.316,0.316,0.83,0.316,1.146,0l0.461-0.461c0.318-0.316,0.318-0.83,0-1.146l-7.346-7.348l3.844-3.844
						c0.498-0.498,0.498-1.305,0-1.802L43.747,25.099c-0.498-0.497-1.305-0.497-1.801,0l-4.551,4.552
						C37.056,29.989,36.948,30.469,37.071,30.899z M43.171,29.881l1.262,1.264l-1.523,1.524l-1.264-1.263L43.171,29.881z
						 M44.778,31.489l1.264,1.263l-1.525,1.525l-1.264-1.263L44.778,31.489z M46.386,33.096l1.436,1.435l-1.525,1.526l-1.436-1.436
						L46.386,33.096z M48.167,34.875l1.32,1.32l-1.527,1.525l-1.318-1.32L48.167,34.875z M49.829,36.54l1.264,1.264l-1.525,1.525
						l-1.262-1.264L49.829,36.54z M51.437,38.147l1.379,1.378l-1.525,1.526l-1.379-1.379L51.437,38.147z M53.159,39.869l1.264,1.263
						l-1.525,1.525l-1.266-1.262L53.159,39.869z M54.767,41.476l1.377,1.378l-1.525,1.525l-1.377-1.377L54.767,41.476z
						 M56.489,43.199l1.262,1.263l-1.525,1.525l-1.262-1.263L56.489,43.199z M58.097,44.805l1.375,1.379l-1.523,1.525l-1.379-1.378
						L58.097,44.805z M59.819,46.528l1.262,1.264l-1.527,1.525l-1.262-1.264L59.819,46.528z M61.423,48.135l1.545,1.543
						l-0.842,0.842c-0.377,0.377-1.047,0.32-1.498-0.13l-0.727-0.729L61.423,48.135z M41.3,31.063l-0.689-0.692
						c-0.449-0.448-0.508-1.12-0.131-1.497l0.842-0.842l1.506,1.505L41.3,31.063z M64.198,48.449l-0.887,0.886l-1.543-1.544
						l1.57-1.569l0.729,0.73C64.519,47.401,64.575,48.071,64.198,48.449z M61.425,47.446l-1.264-1.262l1.57-1.57l1.264,1.264
						L61.425,47.446z M59.817,45.838l-1.377-1.377l1.57-1.568l1.375,1.377L59.817,45.838z M58.097,44.117l-1.264-1.263l1.568-1.568
						l1.264,1.262L58.097,44.117z M56.489,42.509l-1.377-1.378l1.568-1.568l1.377,1.377L56.489,42.509z M54.767,40.788l-1.262-1.264
						l1.568-1.568l1.262,1.263L54.767,40.788z M53.159,39.18l-1.379-1.377l1.57-1.569l1.379,1.378L53.159,39.18z M51.437,37.458
						l-1.262-1.262l1.568-1.569l1.262,1.263L51.437,37.458z M49.829,35.85l-1.318-1.318l1.568-1.57l1.32,1.32L49.829,35.85z
						 M48.165,34.186l-1.434-1.435l1.568-1.569l1.434,1.436L48.165,34.186z M46.386,32.407l-1.264-1.262l1.57-1.57l1.262,1.264
						L46.386,32.407z M44.778,30.799l-1.262-1.262l1.568-1.57l1.262,1.264L44.778,30.799z M42.552,26.801
						c0.377-0.377,1.049-0.318,1.498,0.131l0.689,0.691l-1.568,1.568l-1.504-1.504L42.552,26.801z"/>
				</g>
			</g>
			<g>
				<g>
					<path class="st22" d="M38.429,92.172c0.168-0.024,0.328-0.099,0.455-0.227l0.1-0.098l22.154-22.154l8.246-8.248
						c0.316-0.316,0.316-0.83,0-1.146l-0.461-0.461c-0.316-0.316-0.828-0.316-1.145,0l-7.348,7.348l-3.844-3.845
						c-0.498-0.497-1.305-0.497-1.801,0L32.63,85.496c-0.498,0.497-0.496,1.304,0,1.802l4.553,4.551
						C37.519,92.186,37.999,92.293,38.429,92.172z M37.411,86.071l1.266-1.264l1.523,1.526l-1.264,1.263L37.411,86.071z
						 M39.019,84.463l1.264-1.264l1.525,1.527l-1.262,1.262L39.019,84.463z M40.628,82.856l1.434-1.436l1.525,1.525l-1.434,1.436
						L40.628,82.856z M42.407,81.077l1.318-1.32l1.527,1.525l-1.32,1.32L42.407,81.077z M44.071,79.412l1.262-1.263l1.525,1.525
						l-1.262,1.264L44.071,79.412z M45.679,77.804l1.377-1.378l1.525,1.526l-1.379,1.378L45.679,77.804z M47.399,76.083l1.264-1.264
						l1.525,1.526l-1.264,1.263L47.399,76.083z M49.009,74.475l1.375-1.377l1.527,1.525L50.532,76L49.009,74.475z M50.729,72.752
						l1.262-1.262l1.525,1.525l-1.262,1.263L50.729,72.752z M52.337,71.145l1.377-1.377l1.527,1.525l-1.379,1.378L52.337,71.145z
						 M54.06,69.424l1.262-1.264l1.527,1.526l-1.264,1.263L54.06,69.424z M55.667,67.817l1.543-1.543l0.842,0.842
						c0.377,0.377,0.318,1.048-0.131,1.497l-0.729,0.729L55.667,67.817z M38.593,87.941l-0.689,0.691
						c-0.451,0.449-1.121,0.509-1.498,0.13l-0.842-0.842l1.504-1.506L38.593,87.941z M55.981,65.043l0.883,0.885l-1.543,1.545
						l-1.568-1.569l0.73-0.729C54.933,64.725,55.603,64.667,55.981,65.043z M54.978,67.817l-1.264,1.264l-1.568-1.57l1.264-1.262
						L54.978,67.817z M53.37,69.424l-1.379,1.377l-1.568-1.568l1.379-1.377L53.37,69.424z M51.647,71.147l-1.262,1.262l-1.57-1.568
						l1.264-1.263L51.647,71.147z M50.042,72.753l-1.379,1.378l-1.568-1.568l1.377-1.378L50.042,72.753z M48.319,74.475
						l-1.264,1.264l-1.568-1.568l1.264-1.264L48.319,74.475z M46.712,76.083l-1.377,1.378l-1.568-1.569l1.377-1.377L46.712,76.083z
						 M44.989,77.805l-1.264,1.263l-1.568-1.569l1.264-1.262L44.989,77.805z M43.382,79.413l-1.32,1.32l-1.568-1.568l1.32-1.32
						L43.382,79.413z M41.718,81.077l-1.436,1.436l-1.568-1.568l1.436-1.436L41.718,81.077z M39.938,82.856l-1.262,1.264
						l-1.57-1.569l1.262-1.263L39.938,82.856z M38.331,84.463l-1.264,1.264l-1.568-1.57l1.264-1.262L38.331,84.463z M34.333,86.691
						c-0.379-0.378-0.318-1.048,0.131-1.497l0.691-0.691l1.568,1.568l-1.506,1.506L34.333,86.691z"/>
				</g>
			</g>
			<g>
				<g>
					<path class="st22" d="M98.345,29.539c-0.168,0.024-0.328,0.099-0.455,0.226l-0.1,0.099L75.636,52.018l-8.246,8.248
						c-0.318,0.316-0.318,0.83,0,1.146l0.459,0.462c0.318,0.316,0.83,0.316,1.146,0l7.348-7.348l3.844,3.844
						c0.498,0.498,1.305,0.498,1.803,0l22.152-22.154c0.5-0.497,0.498-1.304,0-1.801l-4.551-4.552
						C99.255,29.526,98.772,29.417,98.345,29.539z M99.36,35.639l-1.264,1.264l-1.523-1.525l1.262-1.262L99.36,35.639z
						 M97.753,37.247l-1.262,1.264l-1.525-1.525l1.262-1.263L97.753,37.247z M96.146,38.854L94.71,40.29l-1.525-1.525l1.436-1.435
						L96.146,38.854z M94.366,40.634l-1.32,1.319l-1.525-1.525l1.322-1.319L94.366,40.634z M92.702,42.298l-1.262,1.263
						l-1.527-1.525l1.264-1.262L92.702,42.298z M91.097,43.906l-1.379,1.378l-1.525-1.525l1.379-1.377L91.097,43.906z
						 M89.372,45.627l-1.262,1.264l-1.525-1.525l1.262-1.264L89.372,45.627z M87.765,47.235l-1.377,1.379l-1.525-1.526l1.379-1.377
						L87.765,47.235z M86.044,48.958l-1.264,1.262l-1.523-1.523l1.262-1.264L86.044,48.958z M84.435,50.565l-1.375,1.377
						l-1.527-1.525l1.379-1.377L84.435,50.565z M82.714,52.286l-1.264,1.264l-1.525-1.524l1.266-1.263L82.714,52.286z
						 M81.106,53.893l-1.543,1.543l-0.842-0.84c-0.377-0.378-0.318-1.049,0.131-1.498l0.729-0.729L81.106,53.893z M98.181,33.77
						l0.691-0.691c0.449-0.449,1.119-0.508,1.496-0.13l0.842,0.841l-1.504,1.506L98.181,33.77z M80.792,56.667l-0.885-0.886
						l1.543-1.543l1.57,1.568l-0.73,0.73C81.841,56.987,81.171,57.044,80.792,56.667z M81.796,53.894l1.264-1.263l1.568,1.568
						l-1.264,1.264L81.796,53.894z M83.403,52.288l1.377-1.379l1.57,1.569l-1.379,1.378L83.403,52.288z M85.126,50.565l1.262-1.263
						l1.57,1.568l-1.262,1.263L85.126,50.565z M86.731,48.958l1.379-1.377l1.568,1.568l-1.377,1.377L86.731,48.958z M88.454,47.236
						l1.264-1.263l1.568,1.568l-1.262,1.263L88.454,47.236z M90.062,45.627l1.379-1.377l1.568,1.568l-1.379,1.379L90.062,45.627z
						 M91.784,43.907l1.264-1.264l1.568,1.569l-1.264,1.263L91.784,43.907z M93.392,42.299l1.32-1.32l1.568,1.568l-1.32,1.32
						L93.392,42.299z M95.056,40.635l1.436-1.436l1.568,1.568l-1.436,1.436L95.056,40.635z M96.835,38.855l1.262-1.263l1.57,1.568
						l-1.264,1.264L96.835,38.855z M98.442,37.248l1.264-1.263l1.568,1.568l-1.264,1.264L98.442,37.248z M102.44,35.02
						c0.377,0.378,0.318,1.049-0.131,1.498l-0.691,0.691l-1.568-1.568l1.504-1.506L102.44,35.02z"/>
				</g>
			</g>
			<g>
				<circle class="st52" cx="68.404" cy="61.04" r="2.315"/>
			</g>
			<g>
				<circle class="st70" cx="68.404" cy="61.04" r="1.462"/>
			</g>
			<g>
				<path class="st6" d="M67.544,61.718c-0.426-0.425-0.424-1.113,0-1.538c0.426-0.426,1.113-0.427,1.541-0.001
					C69.509,60.605,67.97,62.144,67.544,61.718z"/>
			</g>
		</g>
		<g>
			<path class="st44" d="M71.216,85.94c0,0.709-0.574,1.283-1.281,1.283h-3.35c-0.709,0-1.283-0.574-1.283-1.283v-5.7
				c0-0.708,0.574-1.282,1.283-1.282h3.35c0.707,0,1.281,0.574,1.281,1.282V85.94z"/>
		</g>
		<g>
			<path class="st44" d="M71.216,103.071c0,0.709-0.574,1.283-1.281,1.283h-3.35c-0.709,0-1.283-0.574-1.283-1.283V97.37
				c0-0.708,0.574-1.282,1.283-1.282h3.35c0.707,0,1.281,0.574,1.281,1.282V103.071z"/>
		</g>
	</g>
</g>
</svg>
