<?xml version="1.0" encoding="utf-8"?>
<!-- Generator: Adobe Illustrator 16.0.0, SVG Export Plug-In . SVG Version: 6.00 Build 0)  -->
<!DOCTYPE svg PUBLIC "-//W3C//DTD SVG 1.1//EN" "http://www.w3.org/Graphics/SVG/1.1/DTD/svg11.dtd">
<svg version="1.1" id="Layer_1" xmlns="http://www.w3.org/2000/svg" xmlns:xlink="http://www.w3.org/1999/xlink" x="0px" y="0px"
	 width="136.833px" height="136.833px" viewBox="0 0 136.833 136.833" style="enable-background:new 0 0 136.833 136.833;"
	 xml:space="preserve">
<style type="text/css">
<![CDATA[
	.st0{fill:#AA865B;}
	.st1{fill:#49A0AE;}
	.st2{fill:#E0E0E0;}
	.st3{fill:#E23942;}
	.st4{fill:#E4DFD6;}
	.st5{fill:#E4E4E4;}
	.st6{fill:#4C3E30;}
	.st7{fill:#E7E7E7;}
	.st8{fill:#4D4946;}
	.st9{fill:#E84849;}
	.st10{fill:#E8E8DF;}
	.st11{fill:#E8E8E8;}
	.st12{fill:#E9E9EA;}
	.st13{fill:#818282;}
	.st14{fill:#828282;}
	.st15{fill:#B1C635;}
	.st16{fill:#857856;}
	.st17{fill:#B5DDE1;}
	.st18{fill:#B7C133;}
	.st19{fill:#89932C;}
	.st20{fill:#1E1B18;}
	.st21{fill:#ECECEC;}
	.st22{fill:#51473A;}
	.st23{fill:#EFEFEF;}
	.st24{fill:#524F49;}
	.st25{fill:#585550;}
	.st26{fill:#8CB23F;}
	.st27{fill:#202121;}
	.st28{fill:#8EC0C8;}
	.st29{fill:#F3F4F5;}
	.st30{fill:#5B4F3F;}
	.st31{fill:#5C9340;}
	.st32{fill:#C02026;}
	.st33{fill:#C0C0C0;}
	.st34{fill:#93793D;}
	.st35{fill:#939292;}
	.st36{fill:#C4E7ED;}
	.st37{opacity:0.5;}
	.st38{opacity:0.7;}
	.st39{opacity:0.8;}
	.st40{fill:#FFA300;}
	.st41{fill:#FFCE00;}
	.st42{fill:#FFFFFF;}
	.st43{fill:#65A844;}
	.st44{fill:#665C51;}
	.st45{fill:#67B8CB;}
	.st46{fill:#9BD7D9;}
	.st47{fill:#CDCCCB;}
	.st48{fill:#344E5D;}
	.st49{fill:#6B4E15;}
	.st50{fill:#6B7D35;}
	.st51{fill:#D2D2D2;}
	.st52{fill:#3A2F22;}
	.st53{fill:#3B342D;}
	.st54{fill:#D6EFF2;}
	.st55{fill:#D7D7D7;}
	.st56{fill:#3E8540;}
	.st57{fill:#D9E3E4;}
	.st58{fill:#A0D2DC;}
	.st59{fill:#A19F9F;}
	.st60{fill:#737373;}
	.st61{fill:#A2D4DE;}
	.st62{fill:#A2DADB;}
	.st63{fill:#73BFCB;}
	.st64{fill:#766959;}
	.st65{fill:#77746F;}
	.st66{fill:#77913B;}
	.st67{fill:#A6B232;}
	.st68{fill:#A8A7A7;}
	.st69{fill:#DFDFDF;}
	.st70{fill:#423528;}
	.st71{fill:#43B665;}
	.st72{fill:#444341;}
	.st73{fill:#453F38;}
]]>
</style>
<g>
	<g>
		<g>
			<g>
				<circle class="st15" cx="68.416" cy="68.417" r="63.333"/>
			</g>
		</g>
	</g>
	<g>
		<g>
			<g>
				<g>
					<path class="st14" d="M64.604,112.173l-0.658,5.392c0,1.773,1.988,2.319,5.449,2.319c3.463,0,5.791-0.546,5.791-2.319
						l-0.658-5.392H64.604z"/>
				</g>
				<g>
					<path class="st33" d="M62.497,109.234l-0.936,5.814c0,2.291,2.828,1.977,7.76,1.977c4.936,0,8.252,0.314,8.252-1.977
						l-0.938-5.814H62.497z"/>
				</g>
				<g>
					<path class="st35" d="M61.726,106.7l-1.039,6.019c0,2.54,3.139,2.282,8.609,2.282c5.473,0,9.152,0.258,9.152-2.282
						l-1.041-6.019H61.726z"/>
				</g>
				<g>
					<path class="st33" d="M61.454,104.41l-1.08,6.092c0,2.629,3.773,2.422,9.436,2.422s8.949,0.207,8.949-2.422l-1.078-6.092
						H61.454z"/>
				</g>
				<g>
					<path class="st59" d="M61.454,106.192l-1.08,2.154c0,2.629,3.252,2.366,8.914,2.366s9.471,0.263,9.471-2.366l-1.078-2.154
						H61.454z"/>
				</g>
				<g>
					<path class="st33" d="M73.837,100.357h-8.541c-2.719,0-4.922,2.131-4.922,4.758v1.077c0,2.628,3.604,2.255,9.266,2.255
						c5.664,0,9.119,0.373,9.119-2.255v-1.077C78.759,102.488,76.556,100.357,73.837,100.357z"/>
				</g>
			</g>
		</g>
		<g>
			<g>
				<g>
					<g>
						<path class="st55" d="M81.442,42.142c-0.504,0-1.016-0.112-1.5-0.351c-0.145-0.07-12.232-5.877-22.184-1.864
							c-1.742,0.702-3.729-0.141-4.43-1.883c-0.701-1.744,0.139-3.729,1.883-4.431c12.822-5.17,27.139,1.774,27.742,2.073
							c1.684,0.833,2.375,2.873,1.543,4.559C83.903,41.447,82.696,42.142,81.442,42.142z"/>
					</g>
				</g>
			</g>
			<g>
				<g>
					<g>
						<path class="st55" d="M81.442,32.499c-0.504,0-1.016-0.112-1.5-0.351c-0.145-0.07-12.232-5.877-22.184-1.865
							c-1.742,0.703-3.729-0.139-4.43-1.883s0.139-3.727,1.883-4.43c12.822-5.17,27.139,1.775,27.742,2.072
							c1.684,0.834,2.375,2.875,1.543,4.561C83.903,31.803,82.696,32.499,81.442,32.499z"/>
					</g>
				</g>
			</g>
			<g>
				<g>
					<g>
						<path class="st55" d="M81.442,51.734c-0.504,0-1.016-0.113-1.5-0.352l0,0c-0.121-0.059-12.223-5.88-22.184-1.864
							c-1.742,0.702-3.729-0.14-4.43-1.884c-0.701-1.742,0.139-3.727,1.883-4.43c12.82-5.171,27.139,1.774,27.742,2.074
							c1.684,0.832,2.375,2.873,1.543,4.559C83.903,51.038,82.696,51.734,81.442,51.734z"/>
					</g>
				</g>
			</g>
			<g>
				<g>
					<g>
						<path class="st55" d="M81.442,61.275c-0.504,0-1.016-0.113-1.5-0.35c-0.145-0.071-12.232-5.877-22.184-1.865
							c-1.742,0.703-3.729-0.141-4.43-1.885c-0.701-1.742,0.139-3.726,1.883-4.429c12.822-5.171,27.139,1.774,27.742,2.073
							c1.684,0.832,2.375,2.874,1.543,4.559C83.903,60.58,82.696,61.275,81.442,61.275z"/>
					</g>
				</g>
			</g>
			<g>
				<g>
					<g>
						<path class="st55" d="M81.442,70.817c-0.504,0-1.016-0.112-1.5-0.351c-0.145-0.07-12.232-5.877-22.184-1.864
							c-1.742,0.703-3.729-0.142-4.43-1.884c-0.701-1.743,0.139-3.727,1.883-4.43c12.822-5.17,27.139,1.774,27.742,2.073
							c1.684,0.833,2.375,2.874,1.543,4.559C83.903,70.121,82.696,70.817,81.442,70.817z"/>
					</g>
				</g>
			</g>
			<g>
				<g>
					<g>
						<path class="st55" d="M81.442,80.359c-0.504,0-1.016-0.112-1.5-0.351l0,0c-0.119-0.06-12.221-5.882-22.184-1.865
							c-1.742,0.702-3.729-0.14-4.43-1.884c-0.701-1.743,0.139-3.727,1.883-4.429c12.822-5.172,27.139,1.774,27.742,2.073
							c1.684,0.832,2.375,2.874,1.543,4.559C83.903,79.663,82.696,80.359,81.442,80.359z"/>
					</g>
				</g>
			</g>
			<g>
				<g>
					<path class="st7" d="M57.163,88.054c-0.432,0-0.703-0.006-0.783-0.01c-1.879-0.058-3.354-1.629-3.297-3.507
						c0.059-1.878,1.617-3.366,3.508-3.296c0.244,0.003,15.518,0.343,22.443-6.607c1.328-1.333,3.482-1.335,4.814-0.01
						c1.332,1.328,1.336,3.482,0.01,4.814C75.778,87.544,60.8,88.054,57.163,88.054z"/>
				</g>
			</g>
			<g>
				<g>
					<path class="st7" d="M57.163,78.431c-0.432,0-0.703-0.007-0.783-0.01c-1.879-0.059-3.354-1.629-3.297-3.508
						c0.059-1.879,1.617-3.361,3.508-3.296c0.244,0.005,15.518,0.343,22.443-6.607c1.328-1.332,3.482-1.335,4.814-0.009
						c1.332,1.327,1.336,3.482,0.01,4.813C75.778,77.921,60.8,78.431,57.163,78.431z"/>
				</g>
			</g>
			<g>
				<g>
					<path class="st7" d="M57.163,68.906c-0.434,0-0.703-0.007-0.783-0.01c-1.879-0.059-3.354-1.629-3.297-3.508
						c0.059-1.877,1.617-3.365,3.508-3.295c0.244,0.002,15.518,0.342,22.443-6.609c1.326-1.331,3.482-1.334,4.814-0.008
						c1.332,1.327,1.336,3.481,0.01,4.813C75.778,68.396,60.798,68.906,57.163,68.906z"/>
				</g>
			</g>
			<g>
				<g>
					<path class="st7" d="M57.163,59.332c-0.434,0-0.703-0.007-0.783-0.01c-1.879-0.059-3.354-1.629-3.297-3.508
						c0.059-1.877,1.645-3.35,3.506-3.297l0,0c0.154,0.005,15.496,0.366,22.445-6.607c1.326-1.332,3.482-1.334,4.814-0.008
						c1.332,1.327,1.336,3.482,0.01,4.813C75.778,58.822,60.798,59.332,57.163,59.332z"/>
				</g>
			</g>
			<g>
				<g>
					<path class="st7" d="M57.163,49.757c-0.434,0-0.703-0.008-0.783-0.01c-1.879-0.059-3.354-1.629-3.297-3.508
						c0.059-1.879,1.617-3.365,3.508-3.297c0.244,0.004,15.518,0.344,22.443-6.607c1.326-1.332,3.482-1.336,4.814-0.009
						s1.336,3.482,0.01,4.813C75.778,49.248,60.798,49.757,57.163,49.757z"/>
				</g>
			</g>
			<g>
				<g>
					<path class="st7" d="M57.163,40.181c-0.432,0-0.703-0.006-0.783-0.01c-1.879-0.057-3.354-1.628-3.297-3.506
						c0.059-1.879,1.645-3.355,3.506-3.297l0,0c0.158,0.006,15.496,0.365,22.445-6.607c1.326-1.333,3.482-1.336,4.814-0.01
						c1.332,1.328,1.336,3.482,0.01,4.814C75.778,39.672,60.798,40.181,57.163,40.181z"/>
				</g>
			</g>
			<g>
				<g>
					<path class="st7" d="M57.163,40.181c-0.432,0-0.703-0.006-0.783-0.01c-1.879-0.057-3.354-1.628-3.297-3.506
						c0.059-1.879,1.645-3.355,3.506-3.297l0,0c0.158,0.006,15.496,0.365,22.445-6.607c1.326-1.333,3.482-1.336,4.814-0.01
						c1.332,1.328,1.336,3.482,0.01,4.814C75.778,39.672,60.798,40.181,57.163,40.181z"/>
				</g>
			</g>
			<g>
				<g>
					<path class="st7" d="M78.532,30.754c-0.084-0.14-2.113-3.397-8.057-3.166c-0.961,0.038-2.076,0.429-3.488,0.926
						c-2.426,0.851-5.742,2.017-10.502,2.017c-1.879,0-3.404-1.523-3.404-3.404c0-1.879,1.525-3.402,3.404-3.402
						c3.598,0,5.959-0.83,8.246-1.633c1.797-0.632,3.494-1.228,5.479-1.306c10.311-0.402,14.111,6.364,14.268,6.653l-5.98,3.252
						L78.532,30.754z"/>
				</g>
			</g>
			<g>
				<g>
					<path class="st23" d="M85.983,94.981c0,3.455-6.254,9.645-6.254,9.645H58.528c0,0-6.256-6.189-6.256-9.645V79.776h33.711
						V94.981z"/>
				</g>
			</g>
		</g>
	</g>
</g>
</svg>
