<?xml version="1.0" encoding="utf-8"?>
<!-- Generator: Adobe Illustrator 16.0.0, SVG Export Plug-In . SVG Version: 6.00 Build 0)  -->
<!DOCTYPE svg PUBLIC "-//W3C//DTD SVG 1.1//EN" "http://www.w3.org/Graphics/SVG/1.1/DTD/svg11.dtd">
<svg version="1.1" id="Layer_1" xmlns="http://www.w3.org/2000/svg" xmlns:xlink="http://www.w3.org/1999/xlink" x="0px" y="0px"
	 width="136.833px" height="136.833px" viewBox="0 0 136.833 136.833" style="enable-background:new 0 0 136.833 136.833;"
	 xml:space="preserve">
<style type="text/css">
<![CDATA[
	.st0{fill:#AA865B;}
	.st1{fill:#49A0AE;}
	.st2{fill:#E0E0E0;}
	.st3{fill:#E23942;}
	.st4{fill:#E4DFD6;}
	.st5{fill:#E4E4E4;}
	.st6{fill:#4C3E30;}
	.st7{fill:#E7E7E7;}
	.st8{fill:#4D4946;}
	.st9{fill:#E84849;}
	.st10{fill:#E8E8DF;}
	.st11{fill:#E8E8E8;}
	.st12{fill:#E9E9EA;}
	.st13{fill:#818282;}
	.st14{fill:#828282;}
	.st15{fill:#B1C635;}
	.st16{fill:#857856;}
	.st17{fill:#B5DDE1;}
	.st18{fill:#B7C133;}
	.st19{fill:#89932C;}
	.st20{fill:#1E1B18;}
	.st21{fill:#ECECEC;}
	.st22{fill:#51473A;}
	.st23{fill:#EFEFEF;}
	.st24{fill:#524F49;}
	.st25{fill:#585550;}
	.st26{fill:#8CB23F;}
	.st27{fill:#202121;}
	.st28{fill:#8EC0C8;}
	.st29{fill:#F3F4F5;}
	.st30{fill:#5B4F3F;}
	.st31{fill:#5C9340;}
	.st32{fill:#C02026;}
	.st33{fill:#C0C0C0;}
	.st34{fill:#93793D;}
	.st35{fill:#939292;}
	.st36{fill:#C4E7ED;}
	.st37{opacity:0.5;}
	.st38{opacity:0.7;}
	.st39{opacity:0.8;}
	.st40{fill:#FFA300;}
	.st41{fill:#FFCE00;}
	.st42{fill:#FFFFFF;}
	.st43{fill:#65A844;}
	.st44{fill:#665C51;}
	.st45{fill:#67B8CB;}
	.st46{fill:#9BD7D9;}
	.st47{fill:#CDCCCB;}
	.st48{fill:#344E5D;}
	.st49{fill:#6B4E15;}
	.st50{fill:#6B7D35;}
	.st51{fill:#D2D2D2;}
	.st52{fill:#3A2F22;}
	.st53{fill:#3B342D;}
	.st54{fill:#D6EFF2;}
	.st55{fill:#D7D7D7;}
	.st56{fill:#3E8540;}
	.st57{fill:#D9E3E4;}
	.st58{fill:#A0D2DC;}
	.st59{fill:#A19F9F;}
	.st60{fill:#737373;}
	.st61{fill:#A2D4DE;}
	.st62{fill:#A2DADB;}
	.st63{fill:#73BFCB;}
	.st64{fill:#766959;}
	.st65{fill:#77746F;}
	.st66{fill:#77913B;}
	.st67{fill:#A6B232;}
	.st68{fill:#A8A7A7;}
	.st69{fill:#DFDFDF;}
	.st70{fill:#423528;}
	.st71{fill:#43B665;}
	.st72{fill:#444341;}
	.st73{fill:#453F38;}
]]>
</style>
<g>
	<g>
		<g>
			<circle class="st1" cx="68.417" cy="68.417" r="63.333"/>
		</g>
	</g>
	<g>
		<g>
			<g>
				<g class="st39">
					<path class="st36" d="M96.678,32.065L46.062,57.717c-3.615,1.832-8.575,4.045-8.537,8.557c-0.012,0.005,0.063,0.807-0.293,1.65
						s-0.906,1.424-0.906,1.424c-1.072,0.543-3.457,1.754-4.105,2.145c-2.277,1.373-1.898,4.457-0.414,7.385
						c1.557,3.07,4.07,5.174,6.359,4.103c0.667-0.313,3.021-1.501,4.045-2.019c0,0,0.889-0.39,1.515-0.225
						c0.628,0.165,1.472,0.643,1.472,0.643c0.002-0.002,0.004-0.004,0.004-0.004c3.862,2.99,9.688-0.149,12.145-1.395l50.615-25.652
						c2.049-1.037,4.42-4.346-0.51-14.07C102.329,30.148,98.726,31.028,96.678,32.065z"/>
				</g>
				<g>
					<path class="st54" d="M31.806,78.877c1.557,3.07,4.07,5.174,6.359,4.103c0.667-0.313,3.021-1.501,4.045-2.019
						c0,0,0.889-0.39,1.515-0.225c0.628,0.165,1.472,0.643,1.472,0.643c0.002-0.002,0.004-0.004,0.004-0.004
						c3.862,2.99,9.688-0.149,12.145-1.395l50.615-25.652c2.049-1.037,4.42-4.346-0.51-14.07c-2.049-4.049-23.706,6.67-38.193,14.21
						C47.566,65.756,30.916,77.122,31.806,78.877z"/>
				</g>
				<g>
					<path class="st17" d="M90.085,61.717L51.779,77.428c-3.426,1.735-2.462-1.688-6.055-0.292c-0.01,0.004-5.998,2.442-5.998,2.442
						c-1.016,0.516-1.969-0.584-2.581-0.215c-2.157,1.301-2.805,1.1-1.398,3.874c1.474,2.909,1.165-0.167,3.335-1.184
						c0.633-0.297,2.26-1.231,3.229-1.722c0,0,1.326-0.21,1.919-0.053c0.595,0.156,1.394,0.607,1.394,0.607
						c0.002-0.001,0.002-0.002,0.002-0.002c3.662,2.832,9.184-0.143,11.51-1.322l47.959-24.305
						C107.035,54.276,92.027,60.735,90.085,61.717z"/>
				</g>
				<g class="st37">
					<path class="st63" d="M32.542,72.514c-1.983,1.006-1.589,3.729-0.347,6.178c1.302,2.57,3.435,4.39,5.321,3.434
						c0.988-0.502,1.209-2.211-0.618-5.816C35.093,72.749,33.484,72.036,32.542,72.514z"/>
				</g>
				<g>
					<g>
						<path class="st45" d="M36.326,69.348c-0.246,0.125-0.564,0.286-0.912,0.463c0,0,2.749,1.864,4.322,4.967
							c1.572,3.104,1.563,6.645,1.563,6.645c0.352-0.177,0.67-0.338,0.912-0.461c0,0,0.045-0.02,0.117-0.045
							c0,0,0.36-2.85-1.537-6.594c-1.897-3.742-4.376-5.076-4.376-5.076C36.359,69.313,36.326,69.348,36.326,69.348z"/>
					</g>
				</g>
				<g>
					<path class="st45" d="M88.031,64.456l-18.845,9.551c0,0-1.269-6.313-4.318-12.328c-3.047-6.015-6.95-9.908-6.95-9.908
						l18.844-9.55c0,0,3.449,2.997,6.821,9.651C86.956,58.527,88.031,64.456,88.031,64.456z"/>
				</g>
			</g>
			<g>
				<g>
					<path class="st36" d="M37.078,98.573c0,0-2.234,5.254-2.034,7.17c0.159,1.521,1.521,2.623,3.042,2.465
						c1.518-0.158,2.623-1.519,2.463-3.041C40.365,103.389,37.078,98.573,37.078,98.573z"/>
				</g>
				<g>
					<path class="st42" d="M37.772,107.604c1.824-0.229,2.184-0.703,2.165-2.67c0,0-0.418,0.814-0.951,1.542
						C38.502,107.138,37.772,107.604,37.772,107.604z"/>
				</g>
			</g>
			<g>
				<g>
					<path class="st36" d="M36.683,86.47c0,0-2.455,4.427-2.455,6.136c0,1.354,1.1,2.453,2.455,2.453
						c1.354,0,2.453-1.099,2.453-2.453C39.136,91.02,36.683,86.47,36.683,86.47z"/>
				</g>
				<g>
					<path class="st42" d="M36.462,94.499c1.631-0.034,1.992-0.42,2.158-2.156c0,0-0.445,0.68-0.982,1.273
						C37.15,94.155,36.462,94.499,36.462,94.499z"/>
				</g>
			</g>
		</g>
	</g>
</g>
</svg>
