<?xml version="1.0" encoding="utf-8"?>
<!-- Generator: Adobe Illustrator 16.0.0, SVG Export Plug-In . SVG Version: 6.00 Build 0)  -->
<!DOCTYPE svg PUBLIC "-//W3C//DTD SVG 1.1//EN" "http://www.w3.org/Graphics/SVG/1.1/DTD/svg11.dtd">
<svg version="1.1" id="Layer_1" xmlns="http://www.w3.org/2000/svg" xmlns:xlink="http://www.w3.org/1999/xlink" x="0px" y="0px"
	 width="136.833px" height="136.834px" viewBox="0 0 136.833 136.834" style="enable-background:new 0 0 136.833 136.834;"
	 xml:space="preserve">
<style type="text/css">
<![CDATA[
	.st0{fill:#AA865B;}
	.st1{fill:#49A0AE;}
	.st2{fill:#E0E0E0;}
	.st3{fill:#E23942;}
	.st4{fill:#E4DFD6;}
	.st5{fill:#E4E4E4;}
	.st6{fill:#4C3E30;}
	.st7{fill:#E7E7E7;}
	.st8{fill:#4D4946;}
	.st9{fill:#E84849;}
	.st10{fill:#E8E8DF;}
	.st11{fill:#E8E8E8;}
	.st12{fill:#E9E9EA;}
	.st13{fill:#818282;}
	.st14{fill:#828282;}
	.st15{fill:#B1C635;}
	.st16{fill:#857856;}
	.st17{fill:#B5DDE1;}
	.st18{fill:#B7C133;}
	.st19{fill:#89932C;}
	.st20{fill:#1E1B18;}
	.st21{fill:#ECECEC;}
	.st22{fill:#51473A;}
	.st23{fill:#EFEFEF;}
	.st24{fill:#524F49;}
	.st25{fill:#585550;}
	.st26{fill:#8CB23F;}
	.st27{fill:#202121;}
	.st28{fill:#8EC0C8;}
	.st29{fill:#F3F4F5;}
	.st30{fill:#5B4F3F;}
	.st31{fill:#5C9340;}
	.st32{fill:#C02026;}
	.st33{fill:#C0C0C0;}
	.st34{fill:#93793D;}
	.st35{fill:#939292;}
	.st36{fill:#C4E7ED;}
	.st37{opacity:0.5;}
	.st38{opacity:0.7;}
	.st39{opacity:0.8;}
	.st40{fill:#FFA300;}
	.st41{fill:#FFCE00;}
	.st42{fill:#FFFFFF;}
	.st43{fill:#65A844;}
	.st44{fill:#665C51;}
	.st45{fill:#67B8CB;}
	.st46{fill:#9BD7D9;}
	.st47{fill:#CDCCCB;}
	.st48{fill:#344E5D;}
	.st49{fill:#6B4E15;}
	.st50{fill:#6B7D35;}
	.st51{fill:#D2D2D2;}
	.st52{fill:#3A2F22;}
	.st53{fill:#3B342D;}
	.st54{fill:#D6EFF2;}
	.st55{fill:#D7D7D7;}
	.st56{fill:#3E8540;}
	.st57{fill:#D9E3E4;}
	.st58{fill:#A0D2DC;}
	.st59{fill:#A19F9F;}
	.st60{fill:#737373;}
	.st61{fill:#A2D4DE;}
	.st62{fill:#A2DADB;}
	.st63{fill:#73BFCB;}
	.st64{fill:#766959;}
	.st65{fill:#77746F;}
	.st66{fill:#77913B;}
	.st67{fill:#A6B232;}
	.st68{fill:#A8A7A7;}
	.st69{fill:#DFDFDF;}
	.st70{fill:#423528;}
	.st71{fill:#43B665;}
	.st72{fill:#444341;}
	.st73{fill:#453F38;}
]]>
</style>
<g>
	<g>
		<g>
			<circle class="st10" cx="68.417" cy="68.417" r="63.333"/>
		</g>
	</g>
	<g>
		<g>
			<path class="st15" d="M70.612,19.105C60.599,43.392,44.41,49.409,44.41,68.741c0,14.472,11.73,26.203,26.202,26.203
				s26.202-11.731,26.202-26.203C96.814,42.06,70.612,19.105,70.612,19.105z"/>
		</g>
		<g>
			<g>
				<path class="st56" d="M69.413,94.018c-1.225,10.276-4.915,22.726-15.446,25.053l3.354,0.02
					c10.525-2.326,14.217-14.761,15.445-25.034C72.766,94.058,69.434,93.838,69.413,94.018z"/>
			</g>
		</g>
		<g>
			<path class="st56" d="M83.39,74.491c-3.504,5.149-7.156,9.117-9.533,11.483c0.15-2.513,0.232-5.308,0.258-8.292
				c1.336-1.627,5.652-7.068,7.307-11.343c1.965-5.082,3.258-18.511,3.258-18.511s-2.385,9.406-4.017,14.932
				c-0.917,3.113-4.685,8.818-6.541,11.518c-0.019-4.361-0.137-9.014-0.314-13.684c0.648-1.319,3.108-6.405,4.05-9.537
				c1.09-3.62,1.67-13.124,1.67-13.124s-1.278,6.681-2.164,10.608c-0.49,2.176-2.645,5.52-3.763,7.156
				c-0.819-17.713-2.311-34.239-2.311-34.239c0.935,14.061,1.17,26.085,1.033,36.101c-1.42-1.678-3.985-4.908-4.581-7.027
				c-1.104-3.928-2.696-10.609-2.696-10.609s0.724,9.504,2.081,13.125c1.196,3.189,4.356,8.411,5.092,9.609
				c-0.109,3.916-0.273,7.471-0.471,10.672c-1.948-2.393-6.553-8.236-7.741-11.438c-2.016-5.414-5.04-14.655-5.04-14.655
				s2.125,13.324,4.462,18.275c1.912,4.053,6.515,9.059,8.126,10.746c-0.322,4.455-0.697,8.104-1.048,10.961
				c-2.841-3.009-9.367-10.158-11.225-14.214c-3.173-6.921-8.045-18.776-8.045-18.776s4.086,17.311,7.638,23.592
				c2.699,4.773,8.526,10.4,11.173,12.831c-0.414,2.833-0.718,4.263-0.718,4.263c0.531-0.224,3.344,0.068,3.344,0.068
				c0.351-1.295,0.627-2.947,0.84-4.873c1.723-1.727,6.823-6.959,9.823-11.31c3.649-5.292,8.7-20.331,8.7-20.331
				S87.206,68.881,83.39,74.491z"/>
		</g>
	</g>
</g>
</svg>
