<?xml version="1.0" encoding="utf-8"?>
<!-- Generator: Adobe Illustrator 16.0.0, SVG Export Plug-In . SVG Version: 6.00 Build 0)  -->
<!DOCTYPE svg PUBLIC "-//W3C//DTD SVG 1.1//EN" "http://www.w3.org/Graphics/SVG/1.1/DTD/svg11.dtd">
<svg version="1.1" id="Layer_1" xmlns="http://www.w3.org/2000/svg" xmlns:xlink="http://www.w3.org/1999/xlink" x="0px" y="0px"
	 width="136.833px" height="136.833px" viewBox="0 0 136.833 136.833" style="enable-background:new 0 0 136.833 136.833;"
	 xml:space="preserve">
<style type="text/css">
<![CDATA[
	.st0{fill:#AA865B;}
	.st1{fill:#49A0AE;}
	.st2{fill:#E0E0E0;}
	.st3{fill:#E23942;}
	.st4{fill:#E4DFD6;}
	.st5{fill:#E4E4E4;}
	.st6{fill:#4C3E30;}
	.st7{fill:#E7E7E7;}
	.st8{fill:#4D4946;}
	.st9{fill:#E84849;}
	.st10{fill:#E8E8DF;}
	.st11{fill:#E8E8E8;}
	.st12{fill:#E9E9EA;}
	.st13{fill:#818282;}
	.st14{fill:#828282;}
	.st15{fill:#B1C635;}
	.st16{fill:#857856;}
	.st17{fill:#B5DDE1;}
	.st18{fill:#B7C133;}
	.st19{fill:#89932C;}
	.st20{fill:#1E1B18;}
	.st21{fill:#ECECEC;}
	.st22{fill:#51473A;}
	.st23{fill:#EFEFEF;}
	.st24{fill:#524F49;}
	.st25{fill:#585550;}
	.st26{fill:#8CB23F;}
	.st27{fill:#202121;}
	.st28{fill:#8EC0C8;}
	.st29{fill:#F3F4F5;}
	.st30{fill:#5B4F3F;}
	.st31{fill:#5C9340;}
	.st32{fill:#C02026;}
	.st33{fill:#C0C0C0;}
	.st34{fill:#93793D;}
	.st35{fill:#939292;}
	.st36{fill:#C4E7ED;}
	.st37{opacity:0.5;}
	.st38{opacity:0.7;}
	.st39{opacity:0.8;}
	.st40{fill:#FFA300;}
	.st41{fill:#FFCE00;}
	.st42{fill:#FFFFFF;}
	.st43{fill:#65A844;}
	.st44{fill:#665C51;}
	.st45{fill:#67B8CB;}
	.st46{fill:#9BD7D9;}
	.st47{fill:#CDCCCB;}
	.st48{fill:#344E5D;}
	.st49{fill:#6B4E15;}
	.st50{fill:#6B7D35;}
	.st51{fill:#D2D2D2;}
	.st52{fill:#3A2F22;}
	.st53{fill:#3B342D;}
	.st54{fill:#D6EFF2;}
	.st55{fill:#D7D7D7;}
	.st56{fill:#3E8540;}
	.st57{fill:#D9E3E4;}
	.st58{fill:#A0D2DC;}
	.st59{fill:#A19F9F;}
	.st60{fill:#737373;}
	.st61{fill:#A2D4DE;}
	.st62{fill:#A2DADB;}
	.st63{fill:#73BFCB;}
	.st64{fill:#766959;}
	.st65{fill:#77746F;}
	.st66{fill:#77913B;}
	.st67{fill:#A6B232;}
	.st68{fill:#A8A7A7;}
	.st69{fill:#DFDFDF;}
	.st70{fill:#423528;}
	.st71{fill:#43B665;}
	.st72{fill:#444341;}
	.st73{fill:#453F38;}
]]>
</style>
<g>
	<g>
		<g>
			<circle class="st15" cx="68.416" cy="68.417" r="63.333"/>
		</g>
	</g>
	<g>
		<g>
			<polygon class="st23" points="90.356,106.792 46.476,106.792 35.507,37.683 101.325,37.683 			"/>
		</g>
		<g>
			<polygon class="st2" points="101.981,44.429 34.851,44.429 32.851,33.896 103.981,33.896 			"/>
		</g>
		<g>
			<g>
				<g>
					<g>
						<g>
							<path class="st15" d="M54.838,85.695h-0.002c0.199,0.119,0.443,0.203,0.727,0.242l0,0
								C55.279,85.898,55.037,85.814,54.838,85.695z"/>
						</g>
					</g>
					<g>
						<g>
							<path class="st15" d="M55.563,85.937c-0.242-0.041-0.488-0.125-0.725-0.242C55.037,85.814,55.279,85.898,55.563,85.937z"/>
						</g>
					</g>
					<g>
						<g>
							<path class="st15" d="M51.479,69.41l2.621,1.525l-3.348,5.799c-0.326,0.566-0.326,1.521,0,2.087l3.137,5.431
								c0.051-0.297,0.168-0.604,0.346-0.916l5.359-9.244l2.613,1.51l-2.266-8.461L51.479,69.41z"/>
						</g>
					</g>
					<g>
						<g>
							<path class="st15" d="M55.563,85.937c0.051,0.008,0.098,0.015,0.143,0.019v-0.003C55.66,85.95,55.609,85.945,55.563,85.937z"
								/>
						</g>
					</g>
					<g>
						<g>
							<path class="st15" d="M54.219,84.576c-0.01,0.481,0.209,0.876,0.617,1.119h0.002C54.428,85.452,54.209,85.057,54.219,84.576z
								"/>
						</g>
					</g>
					<g>
						<g>
							<path class="st15" d="M55.705,85.953c-0.045-0.003-0.096-0.008-0.143-0.016l0,0C55.609,85.945,55.66,85.95,55.705,85.953
								L55.705,85.953z"/>
						</g>
					</g>
					<g>
						<g>
							<path class="st15" d="M54.73,83.515c-0.217,0.379-0.324,0.738-0.33,1.061c-0.012,0.481,0.209,0.876,0.619,1.119
								c0.236,0.117,0.48,0.201,0.725,0.242c0.047,0.008,0.096,0.013,0.143,0.016l0.506,0.012h9.186V83.39v-4.493h-8.162
								L54.73,83.515z"/>
						</g>
					</g>
				</g>
				<g>
					<g>
						<g>
							<path class="st15" d="M68.615,65.835l8.451,2.293l2.293-8.456l-2.635,1.498l-3.332-5.81c-0.324-0.566-1.15-1.047-1.805-1.048
								l-6.268-0.021c0.23,0.195,0.438,0.451,0.615,0.764l5.299,9.277L68.615,65.835z"/>
						</g>
					</g>
					<g>
						<g>
							<path class="st15" d="M58.639,63.07l5.484,3.188l3.814-6.562l-2.541-4.463c-0.178-0.313-0.393-0.55-0.619-0.688
								c-0.301-0.184-0.615-0.19-0.918-0.022c-0.168,0.112-0.338,0.263-0.469,0.419c-0.021,0.027-0.045,0.061-0.066,0.093
								l-0.256,0.415L58.639,63.07z"/>
						</g>
					</g>
				</g>
				<g>
					<g>
						<g>
							<path class="st15" d="M86.326,77.394C86.326,77.395,86.326,77.395,86.326,77.394c0.002-0.23-0.049-0.483-0.158-0.749
								c-0.004,0.001,0,0.001,0,0.001C86.277,76.911,86.328,77.164,86.326,77.394z"/>
						</g>
					</g>
					<g>
						<g>
							<path class="st15" d="M86.168,76.646c0.086,0.229,0.139,0.484,0.158,0.748C86.328,77.164,86.277,76.911,86.168,76.646z"/>
						</g>
					</g>
					<g>
						<g>
							<path class="st15" d="M67.744,82.394l6.244,6.147l-0.014-3.032l6.697-0.053c0.652-0.006,1.475-0.489,1.799-1.058l3.092-5.454
								c-0.283,0.106-0.605,0.162-0.965,0.164L73.91,79.175l-0.023-3.021L67.744,82.394z"/>
						</g>
					</g>
					<g>
						<g>
							<path class="st15" d="M86.168,76.645c-0.02-0.047-0.039-0.091-0.059-0.134l-0.004,0.003
								C86.129,76.558,86.148,76.602,86.168,76.645z"/>
						</g>
					</g>
					<g>
						<g>
							<path class="st15" d="M85.672,78.496c0.422-0.236,0.65-0.625,0.654-1.101c0,0,0,0,0-0.001
								C86.324,77.871,86.094,78.259,85.672,78.496z"/>
						</g>
					</g>
					<g>
						<g>
							<path class="st15" d="M86.105,76.514c0.023,0.044,0.043,0.088,0.063,0.132c0,0-0.004,0,0-0.001
								C86.148,76.602,86.129,76.558,86.105,76.514L86.105,76.514z"/>
						</g>
					</g>
					<g>
						<g>
							<path class="st15" d="M84.594,78.656c0.436-0.004,0.801-0.094,1.078-0.252c0.422-0.236,0.652-0.625,0.654-1.101
								c-0.02-0.264-0.072-0.519-0.158-0.747c-0.02-0.045-0.039-0.088-0.063-0.133l-0.244-0.441l-4.656-7.918l-2.215,1.304
								l-3.875,2.278l4.135,7.035L84.594,78.656z"/>
						</g>
					</g>
				</g>
			</g>
		</g>
	</g>
</g>
</svg>
