<?xml version="1.0" encoding="utf-8"?>
<!-- Generator: Adobe Illustrator 16.0.0, SVG Export Plug-In . SVG Version: 6.00 Build 0)  -->
<!DOCTYPE svg PUBLIC "-//W3C//DTD SVG 1.1//EN" "http://www.w3.org/Graphics/SVG/1.1/DTD/svg11.dtd">
<svg version="1.1" id="Layer_1" xmlns="http://www.w3.org/2000/svg" xmlns:xlink="http://www.w3.org/1999/xlink" x="0px" y="0px"
	 width="136.913px" height="136.914px" viewBox="0 0 136.913 136.914" enable-background="new 0 0 136.913 136.914"
	 xml:space="preserve">
<g>
	<g>
		<g>
			<g>
				<g>
					<circle fill="#49A0AE" cx="68.457" cy="68.458" r="63.333"/>
				</g>
			</g>
		</g>
	</g>
	<g>
		<path fill="#E5E5E4" d="M95.217,74.739L83.814,88.7l6.294-0.027c-1.262,8.623-8.563,15.566-17.881,16.98L72.04,59.427l8.326-0.036
			c1.816-0.01,3.222-1.636,3.21-3.706c-0.008-2.063-1.421-3.676-3.237-3.671l-8.326,0.043l-0.041-9.409
			c4.695-1.74,7.922-6.236,7.904-11.324c-0.021-6.639-5.52-12.019-12.245-11.982c-6.714,0.023-12.172,5.443-12.139,12.082
			c0.021,5.313,3.605,9.914,8.639,11.429l0.036,9.226l-7.501,0.034c-1.811,0.005-3.221,1.632-3.208,3.696
			c0.007,2.073,1.424,3.691,3.241,3.676l7.495-0.023l0.189,46.021c-8.899-1.686-15.699-8.352-16.972-16.631l5.874-0.023
			L42.537,74.959L31.132,88.917l6.726-0.03c2.207,13.646,13.256,24.089,27.241,25.671c0.7,1.373,1.882,2.213,3.245,2.207
			c1.326-0.002,2.48-0.807,3.18-2.129c14.339-1.248,25.969-12.041,28.132-26l6.315-0.027L95.217,74.739z M67.667,27.542
			c2.172-0.004,3.938,1.697,3.954,3.81c0.003,1.132-0.53,2.169-1.412,2.87c-1.37-1.18-3.438-1.044-4.675,0.254
			c-1.087-0.658-1.779-1.799-1.781-3.092C63.747,29.282,65.5,27.557,67.667,27.542z"/>
	</g>
</g>
</svg>
