<?xml version="1.0" encoding="utf-8"?>
<!-- Generator: Adobe Illustrator 16.0.0, SVG Export Plug-In . SVG Version: 6.00 Build 0)  -->
<!DOCTYPE svg PUBLIC "-//W3C//DTD SVG 1.1//EN" "http://www.w3.org/Graphics/SVG/1.1/DTD/svg11.dtd">
<svg version="1.1" id="Layer_1" xmlns="http://www.w3.org/2000/svg" xmlns:xlink="http://www.w3.org/1999/xlink" x="0px" y="0px"
	 width="136.914px" height="136.914px" viewBox="0 0 136.914 136.914" enable-background="new 0 0 136.914 136.914"
	 xml:space="preserve">
<g>
	<g>
		<g>
			<g>
				<circle fill="#A2D4DE" cx="68.457" cy="68.457" r="63.333"/>
			</g>
		</g>
	</g>
</g>
<g>
	<g>
		<g>
			<path fill="#FFFFFF" d="M99.859,46.575c-1.422,0-2.785,0.243-4.063,0.674c-1.417-8.946-9.161-15.784-18.506-15.784
				c-3.042,0-5.913,0.73-8.454,2.016c-4.051-6.44-11.219-10.723-19.391-10.723c-10.501,0-19.33,7.077-22.03,16.715
				c-7.72,1.471-13.56,8.246-13.56,16.393c0,9.224,7.476,16.701,16.699,16.701c1.027,0,2.028-0.107,3.004-0.284
				c0.379,0.057,0.765,0.097,1.159,0.097h63.634c0.828,0,1.625-0.132,2.375-0.377c6.626-0.446,11.866-5.95,11.866-12.69
				C112.594,52.279,106.892,46.575,99.859,46.575z"/>
		</g>
		<g>
			<path fill="#F4E028" d="M47.998,43.554c-1.393-0.08-5.903,1.528-5.058,2.446c9.428,10.224,14.73,15.85,14.73,15.85l13.808-5.933
				C71.478,55.917,55.494,43.987,47.998,43.554z"/>
		</g>
		<g>
			<path fill="#DEBA24" d="M121.399,49.366c-5.222-4.992-8.69-1.795-17.192-4.871c-4.157-1.503-13.012,0.438-17.173,2.226
				c0,0-50.729,26.421-56.409,26.665c-4.368-3.28-7.571-6.119-10.167-5.002c-1.29,0.555-0.166,3.169,0.65,5.069l5.515,12.252
				c0.994,2.313,3.976,4.082,6.291,3.087c0,0,23.248-5.013,41.176-11.595c24.066-8.837,44.775-19.721,44.775-19.721
				C122.103,55.499,124.988,52.797,121.399,49.366z"/>
		</g>
		<g>
			<path fill="#F4E028" d="M82.469,63.815c0,0-14.412,5.485-15.13,5.752c-0.719,0.268-1.146,0.935-1.122,1.825
				c0.171,6.03,0.867,30.267,1.358,42.377c0.052,1.246,4.337-0.843,5.306-1.846c6.035-6.251,9.635-41.689,10.193-47.547
				C83.125,63.845,82.469,63.815,82.469,63.815z"/>
		</g>
		<g>
			<g>
				<path fill="#F0EB64" d="M90.892,54.292c0.249,0.573-0.014,1.239-0.587,1.487l-3.111,1.352c-0.574,0.25-1.24-0.014-1.488-0.586
					l-1.352-3.112c-0.248-0.572,0.015-1.238,0.587-1.487l3.113-1.351c0.572-0.249,1.238,0.014,1.486,0.586L90.892,54.292z"/>
			</g>
			<g>
				<path fill="#F0EB64" d="M41.439,76.809c0.249,0.573-0.014,1.238-0.586,1.488l-3.112,1.35c-0.573,0.248-1.239-0.015-1.487-0.586
					l-1.351-3.114c-0.249-0.572,0.013-1.238,0.586-1.487l3.112-1.35c0.573-0.25,1.238,0.013,1.487,0.587L41.439,76.809z"/>
			</g>
			<g>
				<path fill="#F0EB64" d="M48.696,73.549c0.249,0.574-0.014,1.24-0.587,1.488l-3.111,1.352c-0.573,0.249-1.24-0.015-1.488-0.587
					l-1.351-3.113c-0.249-0.573,0.015-1.238,0.587-1.486l3.111-1.35c0.574-0.251,1.24,0.013,1.488,0.584L48.696,73.549z"/>
			</g>
			<g>
				<path fill="#F0EB64" d="M55.593,70.351c0.249,0.573-0.015,1.24-0.586,1.488l-3.112,1.352c-0.573,0.249-1.239-0.016-1.488-0.587
					l-1.351-3.112c-0.248-0.572,0.014-1.238,0.587-1.489l3.112-1.35c0.573-0.249,1.238,0.014,1.487,0.588L55.593,70.351z"/>
			</g>
			<g>
				<path fill="#F0EB64" d="M62.832,67.107c0.253,0.571-0.004,1.239-0.577,1.492l-3.101,1.373c-0.572,0.254-1.239-0.006-1.493-0.576
					l-1.374-3.103c-0.252-0.57,0.006-1.238,0.577-1.491l3.103-1.374c0.57-0.252,1.239,0.006,1.492,0.575L62.832,67.107z"/>
			</g>
			<g>
				<path fill="#F0EB64" d="M69.918,63.623c0.266,0.564,0.022,1.238-0.542,1.504l-3.07,1.442c-0.565,0.267-1.238,0.023-1.504-0.543
					l-1.443-3.069c-0.265-0.565-0.023-1.238,0.543-1.503l3.07-1.444c0.565-0.267,1.238-0.023,1.503,0.542L69.918,63.623z"/>
			</g>
			<g>
				<path fill="#F0EB64" d="M76.759,60.643c0.249,0.573-0.013,1.239-0.587,1.487l-3.112,1.353c-0.573,0.248-1.238-0.015-1.486-0.586
					l-1.352-3.113c-0.249-0.572,0.013-1.238,0.586-1.487l3.113-1.351c0.573-0.249,1.238,0.015,1.487,0.587L76.759,60.643z"/>
			</g>
			<g>
				<path fill="#F0EB64" d="M83.836,57.313c0.249,0.573-0.015,1.24-0.587,1.487l-3.111,1.353c-0.573,0.248-1.239-0.015-1.488-0.588
					l-1.351-3.112c-0.249-0.572,0.014-1.238,0.587-1.487l3.112-1.351c0.573-0.249,1.239,0.015,1.487,0.587L83.836,57.313z"/>
			</g>
		</g>
	</g>
	<g>
		<path fill="#F0EB64" d="M98.609,47.402l1.51,3.679c0.278,0.677,1.052,1.002,1.729,0.724l11.916-5.471
			c0.084-0.034,0.162-0.077,0.234-0.125c-2.574-0.207-5.559-0.183-9.792-1.714c-0.449-0.162-0.957-0.282-1.504-0.369l-3.371,1.547
			C98.655,45.951,98.331,46.726,98.609,47.402z"/>
	</g>
</g>
</svg>
