<?xml version="1.0" encoding="utf-8"?>
<!-- Generator: Adobe Illustrator 16.0.0, SVG Export Plug-In . SVG Version: 6.00 Build 0)  -->
<!DOCTYPE svg PUBLIC "-//W3C//DTD SVG 1.1//EN" "http://www.w3.org/Graphics/SVG/1.1/DTD/svg11.dtd">
<svg version="1.1" id="Layer_1" xmlns="http://www.w3.org/2000/svg" xmlns:xlink="http://www.w3.org/1999/xlink" x="0px" y="0px"
	 width="136.833px" height="136.834px" viewBox="0 0 136.833 136.834" style="enable-background:new 0 0 136.833 136.834;"
	 xml:space="preserve">
<style type="text/css">
<![CDATA[
	.st0{fill:#AA865B;}
	.st1{fill:#49A0AE;}
	.st2{fill:#E0E0E0;}
	.st3{fill:#E23942;}
	.st4{fill:#E4DFD6;}
	.st5{fill:#E4E4E4;}
	.st6{fill:#4C3E30;}
	.st7{fill:#E7E7E7;}
	.st8{fill:#4D4946;}
	.st9{fill:#E84849;}
	.st10{fill:#E8E8DF;}
	.st11{fill:#E8E8E8;}
	.st12{fill:#E9E9EA;}
	.st13{fill:#818282;}
	.st14{fill:#828282;}
	.st15{fill:#B1C635;}
	.st16{fill:#857856;}
	.st17{fill:#B5DDE1;}
	.st18{fill:#B7C133;}
	.st19{fill:#89932C;}
	.st20{fill:#1E1B18;}
	.st21{fill:#ECECEC;}
	.st22{fill:#51473A;}
	.st23{fill:#EFEFEF;}
	.st24{fill:#524F49;}
	.st25{fill:#585550;}
	.st26{fill:#8CB23F;}
	.st27{fill:#202121;}
	.st28{fill:#8EC0C8;}
	.st29{fill:#F3F4F5;}
	.st30{fill:#5B4F3F;}
	.st31{fill:#5C9340;}
	.st32{fill:#C02026;}
	.st33{fill:#C0C0C0;}
	.st34{fill:#93793D;}
	.st35{fill:#939292;}
	.st36{fill:#C4E7ED;}
	.st37{opacity:0.5;}
	.st38{opacity:0.7;}
	.st39{opacity:0.8;}
	.st40{fill:#FFA300;}
	.st41{fill:#FFCE00;}
	.st42{fill:#FFFFFF;}
	.st43{fill:#65A844;}
	.st44{fill:#665C51;}
	.st45{fill:#67B8CB;}
	.st46{fill:#9BD7D9;}
	.st47{fill:#CDCCCB;}
	.st48{fill:#344E5D;}
	.st49{fill:#6B4E15;}
	.st50{fill:#6B7D35;}
	.st51{fill:#D2D2D2;}
	.st52{fill:#3A2F22;}
	.st53{fill:#3B342D;}
	.st54{fill:#D6EFF2;}
	.st55{fill:#D7D7D7;}
	.st56{fill:#3E8540;}
	.st57{fill:#D9E3E4;}
	.st58{fill:#A0D2DC;}
	.st59{fill:#A19F9F;}
	.st60{fill:#737373;}
	.st61{fill:#A2D4DE;}
	.st62{fill:#A2DADB;}
	.st63{fill:#73BFCB;}
	.st64{fill:#766959;}
	.st65{fill:#77746F;}
	.st66{fill:#77913B;}
	.st67{fill:#A6B232;}
	.st68{fill:#A8A7A7;}
	.st69{fill:#DFDFDF;}
	.st70{fill:#423528;}
	.st71{fill:#43B665;}
	.st72{fill:#444341;}
	.st73{fill:#453F38;}
]]>
</style>
<g>
	<g>
		<g>
			<circle class="st10" cx="68.417" cy="68.417" r="63.333"/>
		</g>
	</g>
	<g>
		<g>
			<g>
				<g>
					<path class="st16" d="M86.763,102.337c-3.185,6.051-8.402,12.861-15.449,11.809l2.063,0.805
						c7.045,1.053,13.509-5.629,16.692-11.678C90.07,103.272,86.819,102.231,86.763,102.337z"/>
				</g>
			</g>
			<g>
				<path class="st15" d="M105.728,56.012C93.736,68.56,82.326,68.377,77.686,80.279c-3.474,8.907,0.934,18.944,9.841,22.418
					c8.908,3.473,18.945-0.933,22.419-9.841C116.35,76.431,105.728,56.012,105.728,56.012z"/>
			</g>
		</g>
		<g>
			<g>
				<g>
					<path class="st16" d="M33.353,65.415c-2.743-6.264-4.811-14.59,0.407-19.441l-1.916,1.111
						c-5.219,4.85-4.016,14.301-1.274,20.563C30.57,67.647,33.402,65.523,33.353,65.415z"/>
				</g>
			</g>
			<g>
				<path class="st15" d="M57.732,109.135c-2.327-17.2,4.932-26.006-1.475-37.056c-4.799-8.271-15.391-11.088-23.662-6.292
					c-8.271,4.797-11.089,15.39-6.292,23.662C35.148,104.699,57.732,109.135,57.732,109.135z"/>
			</g>
		</g>
		<g>
			<g>
				<g>
					<path class="st16" d="M86.934,38.878c6.794,0.769,15.035,3.156,16.614,10.105v-2.217c-1.579-6.944-10.188-10.848-16.979-11.619
						C86.57,35.147,86.815,38.865,86.934,38.878z"/>
				</g>
			</g>
			<g>
				<path class="st15" d="M36.884,38.036c16.047,6.615,20.021,17.312,32.795,17.312c9.563-0.001,17.313-7.751,17.313-17.313
					s-7.75-17.313-17.313-17.312C52.049,20.723,36.884,38.036,36.884,38.036z"/>
			</g>
		</g>
	</g>
</g>
</svg>
