<?xml version="1.0" encoding="utf-8"?>
<!-- Generator: Adobe Illustrator 16.0.0, SVG Export Plug-In . SVG Version: 6.00 Build 0)  -->
<!DOCTYPE svg PUBLIC "-//W3C//DTD SVG 1.1//EN" "http://www.w3.org/Graphics/SVG/1.1/DTD/svg11.dtd">
<svg version="1.1" id="Layer_1" xmlns="http://www.w3.org/2000/svg" xmlns:xlink="http://www.w3.org/1999/xlink" x="0px" y="0px"
	 width="136.913px" height="136.913px" viewBox="0 0 136.913 136.913" enable-background="new 0 0 136.913 136.913"
	 xml:space="preserve">
<g>
	<g>
		<g>
			<g>
				<g>
					<circle fill="#4ABC96" cx="68.456" cy="68.457" r="63.333"/>
				</g>
			</g>
		</g>
	</g>
	<g>
		<path fill="#E8DBCD" d="M110.631,72.666c0,0.73-0.594,1.322-1.324,1.322H45.635c-0.73,0-1.324-0.592-1.324-1.322V30.658
			c0-0.73,0.594-1.322,1.324-1.322h63.672c0.73,0,1.324,0.592,1.324,1.322V72.666z"/>
		<g>
			<rect x="77.008" y="31.594" fill="#C1B19F" width="0.766" height="39.877"/>
		</g>
		<g>
			<path fill="#A0C4C8" d="M108.486,33.432V33.1l-1.102-1.102h-0.34c-0.096,0.217-0.313,0.367-0.564,0.367s-0.467-0.15-0.563-0.367
				h-0.221c-0.096,0.217-0.311,0.367-0.563,0.367s-0.467-0.15-0.563-0.367h-0.232c-0.096,0.217-0.311,0.367-0.563,0.367
				s-0.467-0.15-0.563-0.367h-0.225c-0.096,0.217-0.311,0.367-0.563,0.367s-0.469-0.15-0.563-0.367h-0.197
				c-0.096,0.217-0.313,0.367-0.563,0.367c-0.252,0-0.469-0.15-0.563-0.367h-0.232c-0.096,0.217-0.313,0.367-0.563,0.367
				c-0.252,0-0.469-0.15-0.564-0.367h-0.332L97.75,33.1v0.34c0.217,0.096,0.367,0.313,0.367,0.564c0,0.25-0.15,0.467-0.367,0.563
				v0.219c0.217,0.096,0.367,0.313,0.367,0.564s-0.15,0.467-0.367,0.563v0.232c0.217,0.094,0.367,0.313,0.367,0.563
				s-0.15,0.467-0.367,0.563v0.225c0.217,0.096,0.367,0.311,0.367,0.563s-0.15,0.467-0.367,0.563v0.197
				c0.217,0.094,0.367,0.311,0.367,0.563c0,0.25-0.15,0.467-0.367,0.563v0.232c0.217,0.096,0.367,0.311,0.367,0.564
				c0,0.25-0.15,0.465-0.367,0.563v0.33l1.102,1.102h0.34c0.096-0.217,0.313-0.367,0.563-0.367c0.252,0,0.469,0.15,0.564,0.367
				h0.219c0.096-0.217,0.313-0.367,0.564-0.367s0.467,0.15,0.563,0.367h0.232c0.096-0.217,0.311-0.367,0.563-0.367
				s0.467,0.15,0.563,0.367h0.225c0.096-0.217,0.311-0.367,0.563-0.367s0.467,0.15,0.563,0.367h0.197
				c0.096-0.217,0.311-0.367,0.563-0.367s0.467,0.15,0.563,0.367h0.232c0.096-0.217,0.313-0.367,0.563-0.367
				c0.252,0,0.469,0.15,0.564,0.367h0.332l1.102-1.102v-0.34c-0.217-0.094-0.369-0.311-0.369-0.563c0-0.25,0.152-0.467,0.369-0.563
				v-0.221c-0.217-0.096-0.369-0.311-0.369-0.563s0.152-0.467,0.369-0.563v-0.232c-0.217-0.096-0.369-0.313-0.369-0.563
				c0-0.252,0.152-0.469,0.369-0.563v-0.225c-0.217-0.096-0.369-0.313-0.369-0.563c0-0.252,0.152-0.469,0.369-0.563v-0.197
				c-0.217-0.096-0.369-0.313-0.369-0.564c0-0.25,0.152-0.467,0.369-0.561v-0.234c-0.217-0.094-0.369-0.311-0.369-0.563
				C108.117,33.744,108.27,33.527,108.486,33.432z"/>
			<rect x="99.301" y="33.322" fill="#357180" width="7.635" height="7.863"/>
			<g>
				<defs>
					<rect id="SVGID_7_" x="99.301" y="33.322" width="7.635" height="7.863"/>
				</defs>
				<clipPath id="SVGID_2_">
					<use xlink:href="#SVGID_7_"  overflow="visible"/>
				</clipPath>
				<g clip-path="url(#SVGID_2_)">
					<path fill="#E84849" d="M105.334,43.76c0,0.584-0.432,1.059-0.963,1.059h-2.631c-0.531,0-0.963-0.475-0.963-1.059
						c0,0,0.221-2.295,0.402-2.867c0.18-0.572,0.432-1.059,0.963-1.059h1.908c0.531,0,0.822,0.354,0.963,1.059
						C105.154,41.6,105.334,43.76,105.334,43.76z"/>
					<path fill="#FFFFFF" d="M104.619,43.74c0,0.578-0.297,1.045-0.662,1.045h-1.803c-0.365,0-0.662-0.467-0.662-1.045
						c0,0,0.152-2.264,0.275-2.828c0.125-0.566,0.297-1.047,0.662-1.047h1.309c0.365,0,0.564,0.35,0.66,1.047
						C104.496,41.607,104.619,43.74,104.619,43.74z"/>
					<path fill="#626463" d="M104.246,43.695c0,0.572-0.225,1.037-0.504,1.037h-1.373c-0.277,0-0.502-0.465-0.502-1.037
						c0,0,0.113-2.248,0.209-2.811c0.094-0.561,0.225-1.037,0.504-1.037h0.994c0.279,0,0.432,0.346,0.504,1.037
						C104.152,41.576,104.246,43.695,104.246,43.695z"/>
					<path fill="#D7C9CA" d="M104.066,43.695c0,0.572-0.191,1.037-0.428,1.037h-1.166c-0.236,0-0.428-0.465-0.428-1.037
						c0,0,0.1-2.248,0.18-2.811c0.08-0.561,0.189-1.037,0.426-1.037h0.846c0.236,0,0.365,0.346,0.428,1.037
						S104.066,43.695,104.066,43.695z"/>
				</g>
				<g clip-path="url(#SVGID_2_)">
					<g>
						<circle fill="#E9C29C" cx="103.114" cy="37.994" r="1.612"/>
						<path fill="#A46434" d="M104.727,37.994l-1.1-0.988c0,0-0.232,0.389-0.857,0.67c-0.602,0.271-1.268,0.318-1.268,0.318
							c0-0.889,0.723-1.611,1.613-1.611S104.727,37.105,104.727,37.994z"/>
						<g>
							<ellipse fill="#343433" cx="102.631" cy="38.234" rx="0.221" ry="0.234"/>
							<ellipse fill="#343433" cx="103.589" cy="38.234" rx="0.222" ry="0.234"/>
							<circle fill="#FFFFFF" cx="103.657" cy="38.146" r="0.089"/>
							<circle fill="#FFFFFF" cx="102.698" cy="38.146" r="0.089"/>
						</g>
					</g>
				</g>
				<g clip-path="url(#SVGID_2_)">
					<g>
						<path fill="#DEBA24" d="M104.848,37.232c0,0.191-0.156,0.348-0.348,0.348c0,0-0.477-0.125-1.379-0.125
							s-1.367,0.125-1.367,0.125c-0.191,0-0.348-0.156-0.348-0.348l-0.051-1.125c0-0.191,0.154-0.346,0.346-0.346h2.916
							c0.191,0,0.346,0.154,0.346,0.346L104.848,37.232z"/>
					</g>
					<g>
						<path fill="#DEBA24" d="M102.494,36.91c0.084,0.154,0.027,0.348-0.127,0.432l0,0c-0.154,0.084-0.348,0.025-0.432-0.125
							l-1.084-2.027c-0.084-0.156-0.029-0.348,0.125-0.432l0,0c0.154-0.086,0.348-0.029,0.432,0.125L102.494,36.91z"/>
					</g>
					<g>
						<path fill="#DEBA24" d="M103.824,36.91c-0.084,0.154-0.027,0.348,0.125,0.432l0,0c0.156,0.084,0.348,0.025,0.432-0.125
							l1.086-2.027c0.084-0.156,0.029-0.348-0.125-0.432l0,0c-0.154-0.086-0.348-0.029-0.432,0.125L103.824,36.91z"/>
					</g>
					<g>
						<path fill="#DEBA24" d="M103.514,36.908c0,0.176-0.141,0.318-0.316,0.318l0,0c-0.176,0.004-0.318-0.139-0.318-0.314
							l0.012-2.299c0-0.176,0.141-0.318,0.316-0.32l0,0c0.176,0,0.318,0.141,0.318,0.316L103.514,36.908z"/>
					</g>
					<g>
						<path fill="#DEBA24" d="M101.264,34.752c0,0,0.971,0.6,1.703-0.344l-0.053,1.391l-1.02,0.115L101.264,34.752z"/>
					</g>
					<g>
						<path fill="#DEBA24" d="M105.074,34.74c0,0-0.865,0.648-1.598-0.293l-0.039,1.375l1.021,0.117L105.074,34.74z"/>
					</g>
					<g>
						<circle fill="#DEBA24" cx="100.878" cy="34.723" r="0.438"/>
					</g>
					<g>
						<circle fill="#DEBA24" cx="103.192" cy="34.234" r="0.438"/>
					</g>
					<g>
						<circle fill="#DEBA24" cx="105.43" cy="34.711" r="0.438"/>
					</g>
					<g opacity="0.4">
						<g>
							<path fill="#F6E568" d="M103.324,36.656c0,0.037-0.047,0.066-0.105,0.066l0,0c-0.059,0-0.105-0.029-0.105-0.066v-1.234
								c0-0.033,0.047-0.063,0.105-0.063l0,0c0.059,0,0.105,0.029,0.105,0.063V36.656z"/>
						</g>
					</g>
					<g opacity="0.4">
						<g>
							<path fill="#F6E568" d="M103.99,36.814c-0.018,0.031-0.074,0.029-0.125-0.004l0,0c-0.049-0.033-0.074-0.084-0.055-0.113
								l0.545-0.834c0.02-0.029,0.076-0.027,0.127,0.006l0,0c0.049,0.033,0.074,0.082,0.055,0.113L103.99,36.814z"/>
						</g>
					</g>
					<g opacity="0.4">
						<g>
							<path fill="#F6E568" d="M102.367,36.814c0.02,0.031,0.074,0.029,0.125-0.004l0,0c0.051-0.033,0.074-0.084,0.055-0.113
								l-0.545-0.834c-0.02-0.029-0.076-0.027-0.127,0.006l0,0c-0.049,0.033-0.072,0.082-0.053,0.113L102.367,36.814z"/>
						</g>
					</g>
					<g opacity="0.4">
						<g>
							<path fill="#F6E568" d="M100.525,34.822c-0.076-0.076,0.008-0.289,0.086-0.367c0.076-0.076,0.262-0.148,0.34-0.072
								C101.027,34.459,100.604,34.9,100.525,34.822z"/>
						</g>
					</g>
					<g opacity="0.4">
						<g>
							<path fill="#F6E568" d="M102.838,34.322c-0.078-0.076,0.008-0.289,0.086-0.367c0.076-0.076,0.262-0.15,0.338-0.072
								C103.338,33.959,102.914,34.398,102.838,34.322z"/>
						</g>
					</g>
					<g opacity="0.4">
						<g>
							<path fill="#F6E568" d="M105.078,34.787c-0.076-0.078,0.008-0.291,0.084-0.365c0.078-0.078,0.264-0.152,0.342-0.074
								C105.58,34.424,105.154,34.865,105.078,34.787z"/>
						</g>
					</g>
					<g>
						<path fill="#B8972F" d="M104.848,37.232c0,0.191-0.156,0.348-0.348,0.348c0,0-0.715-0.125-1.379-0.125
							s-1.367,0.125-1.367,0.125c-0.191,0-0.348-0.156-0.348-0.348c0,0,0.766-0.127,1.721-0.127S104.848,37.232,104.848,37.232z"/>
					</g>
				</g>
				<g clip-path="url(#SVGID_2_)">
					<path fill="#FFFFFF" d="M105.854,38.852h-0.172v-0.646c0.064,0.008,0.127,0.029,0.184,0.064
						c0.059,0.035,0.135,0.104,0.23,0.207c0.078,0.082,0.131,0.133,0.158,0.152c0.037,0.025,0.074,0.037,0.111,0.037
						c0.043,0,0.072-0.012,0.096-0.031c0.021-0.023,0.033-0.055,0.033-0.092c0-0.039-0.012-0.068-0.035-0.094
						c-0.023-0.021-0.063-0.035-0.115-0.037l0.018-0.184c0.102,0.01,0.174,0.045,0.219,0.102c0.045,0.059,0.066,0.131,0.066,0.217
						c0,0.096-0.025,0.17-0.076,0.225c-0.051,0.053-0.115,0.08-0.191,0.08c-0.043,0-0.084-0.008-0.123-0.021
						c-0.039-0.016-0.08-0.041-0.123-0.076c-0.029-0.021-0.07-0.061-0.123-0.119s-0.088-0.096-0.105-0.111s-0.035-0.029-0.051-0.037
						V38.852z"/>
					<path fill="#FFFFFF" d="M105.93,38.979l0.018,0.184c-0.041,0.004-0.074,0.021-0.098,0.047
						c-0.025,0.025-0.037,0.055-0.037,0.088c0,0.039,0.016,0.072,0.047,0.1c0.031,0.025,0.078,0.039,0.143,0.039
						c0.059,0,0.102-0.014,0.131-0.039c0.029-0.027,0.045-0.061,0.045-0.104c0-0.053-0.023-0.1-0.07-0.143l0.021-0.15l0.5,0.096
						v0.486h-0.172v-0.348l-0.164-0.029c0.021,0.043,0.031,0.086,0.031,0.127c0,0.082-0.029,0.15-0.09,0.207
						c-0.059,0.057-0.135,0.086-0.23,0.086c-0.08,0-0.15-0.023-0.211-0.07c-0.086-0.061-0.127-0.148-0.127-0.258
						c0-0.09,0.023-0.16,0.07-0.219C105.785,39.023,105.848,38.99,105.93,38.979z"/>
					<path fill="#FFFFFF" d="M106.035,40.75l-0.061,0.188c-0.104-0.027-0.182-0.076-0.232-0.143
						c-0.051-0.068-0.076-0.152-0.076-0.254c0-0.129,0.043-0.232,0.129-0.314c0.088-0.084,0.207-0.125,0.359-0.125
						c0.158,0,0.283,0.041,0.371,0.125c0.09,0.082,0.133,0.189,0.133,0.324c0,0.117-0.033,0.213-0.104,0.287
						c-0.041,0.043-0.1,0.076-0.178,0.098l-0.045-0.191c0.049-0.012,0.088-0.035,0.117-0.072c0.029-0.035,0.045-0.078,0.045-0.131
						c0-0.07-0.027-0.129-0.078-0.174c-0.051-0.043-0.133-0.064-0.248-0.064c-0.121,0-0.207,0.021-0.26,0.064
						c-0.051,0.043-0.078,0.1-0.078,0.17c0,0.053,0.018,0.096,0.051,0.135C105.914,40.709,105.965,40.734,106.035,40.75z"/>
				</g>
			</g>
		</g>
		<g>
			<path fill="#C1B19F" d="M107.428,52.426c0,0.213-0.172,0.383-0.383,0.383H81.354c-0.211,0-0.383-0.17-0.383-0.383l0,0
				c0-0.211,0.172-0.383,0.383-0.383h25.691C107.256,52.043,107.428,52.215,107.428,52.426L107.428,52.426z"/>
			<path fill="#C1B19F" d="M107.428,57.412c0,0.211-0.172,0.383-0.383,0.383H81.354c-0.211,0-0.383-0.172-0.383-0.383l0,0
				c0-0.213,0.172-0.385,0.383-0.385h25.691C107.256,57.027,107.428,57.199,107.428,57.412L107.428,57.412z"/>
			<path fill="#C1B19F" d="M107.428,62.141c0,0.213-0.172,0.383-0.383,0.383H81.354c-0.211,0-0.383-0.17-0.383-0.383l0,0
				c0-0.211,0.172-0.383,0.383-0.383h25.691C107.256,61.758,107.428,61.93,107.428,62.141L107.428,62.141z"/>
		</g>
	</g>
	<g>
		<path fill="#C4E6E9" d="M54.906,73.934c14.463,0,26.969,4.605,32.977,14.586V58.557c0-0.73-0.592-1.324-1.322-1.324H22.889
			c-0.732,0-1.324,0.594-1.324,1.324v30.592C27.418,78.732,40.143,73.934,54.906,73.934z"/>
		<g>
			<circle fill="#F8CC19" cx="33.11" cy="66.975" r="7.972"/>
			<g>
				<circle fill="#F8D12E" cx="32.599" cy="66.848" r="6.692"/>
				<path fill="#F8D958" d="M27.102,66.482c0-2.848,2.311-5.156,5.158-5.156s5.158,2.309,5.158,5.156c0,2.852-2.311,5.16-5.158,5.16
					S27.102,69.334,27.102,66.482z"/>
			</g>
		</g>
		<path fill="#69C6D4" d="M51.887,77.512c15.26-2.084,29.029,1.307,35.996,11.838v-0.83c-6.008-9.98-18.514-14.586-32.977-14.586
			c-14.764,0-27.488,4.799-33.342,15.215v6.443C26.41,85.398,37.934,79.418,51.887,77.512z"/>
		<path fill="#70BFC8" d="M21.656,95.984c5.896-10.301,18.566-15.045,33.25-15.045c14.463,0,26.969,4.605,32.977,14.586V89.35
			c-6.967-10.531-20.736-13.922-35.996-11.838c-13.953,1.906-25.477,7.887-30.322,18.08v0.527
			C21.596,96.074,21.625,96.029,21.656,95.984z"/>
		<path fill="#F3ED73" d="M54.906,80.939c-14.684,0-27.354,4.744-33.25,15.045c6.914-9.783,20.098-13.223,34.807-11.654
			c9.555,1.02,18.035,3.967,24.096,8.928c2.809,1.555,5.275,3.58,7.324,6.094v-3.826C81.875,85.545,69.369,80.939,54.906,80.939z"/>
		<path fill="#F3EA83" d="M21.564,96.119v0.035c0.031-0.057,0.061-0.115,0.092-0.17C21.625,96.029,21.596,96.074,21.564,96.119z"/>
		<path fill="#F3EA83" d="M52.344,90.115c10.631-1.883,20.639-1.053,28.215,3.143c-6.061-4.961-14.541-7.908-24.096-8.928
			c-14.709-1.568-27.893,1.871-34.807,11.654c-0.031,0.055-0.061,0.113-0.092,0.17v4.408c0,0.732,0.592,1.324,1.324,1.324h2.906
			c2.049-1.695,4.379-3.117,6.939-4.268C38.057,93.953,44.82,91.449,52.344,90.115z"/>
		<path fill="#E7DD7F" d="M87.352,101.596c0.314-0.24,0.531-0.604,0.531-1.033v-1.211c-2.049-2.514-4.516-4.539-7.324-6.094
			C83.406,95.588,85.715,98.367,87.352,101.596z"/>
		<path fill="#E7DD7F" d="M52.344,90.115c-7.523,1.334-14.287,3.838-19.609,7.504c5.922-2.662,13.061-3.9,20.74-3.836
			c10.701,0.092,20.309,2.693,26.984,8.104h6.102c0.303,0,0.568-0.119,0.791-0.291c-1.637-3.229-3.945-6.008-6.793-8.338
			C72.982,89.063,62.975,88.232,52.344,90.115z"/>
		<path fill="#F3ED73" d="M32.734,97.619c-2.561,1.15-4.891,2.572-6.939,4.268h1.93C29.201,100.324,30.877,98.898,32.734,97.619z"/>
		<path fill="#F3ED73" d="M53.475,93.783c-7.68-0.064-14.818,1.174-20.74,3.836c-1.857,1.279-3.533,2.705-5.01,4.268h52.734
			C73.783,96.477,64.176,93.875,53.475,93.783z"/>
	</g>
</g>
</svg>
