<?xml version="1.0" encoding="utf-8"?>
<!-- Generator: Adobe Illustrator 16.0.0, SVG Export Plug-In . SVG Version: 6.00 Build 0)  -->
<!DOCTYPE svg PUBLIC "-//W3C//DTD SVG 1.1//EN" "http://www.w3.org/Graphics/SVG/1.1/DTD/svg11.dtd">
<svg version="1.1" id="Layer_1" xmlns="http://www.w3.org/2000/svg" xmlns:xlink="http://www.w3.org/1999/xlink" x="0px" y="0px"
	 width="136.913px" height="136.914px" viewBox="0 0 136.913 136.914" enable-background="new 0 0 136.913 136.914"
	 xml:space="preserve">
<g>
	<g>
		<g>
			<g>
				<g>
					<circle fill="#4ABC96" cx="68.457" cy="68.457" r="63.333"/>
				</g>
			</g>
		</g>
	</g>
	<g>
		<path fill="#357180" d="M110.544,92.812c0,3.379-1.721,4.759-5.1,4.759H65.841V37.911h39.604c3.379,0,5.1,1.55,5.1,4.929V92.812z"
			/>
		<path fill="#FFFFFF" d="M70.517,95.275h33.229c3.119,0,3.871-0.365,3.871-3.483V44.199c0-3.118-0.752-3.993-3.871-3.993H70.517
			V95.275z"/>
		<path fill="#357180" d="M27.429,42.712c0-3.379,1.721-4.759,5.1-4.759h36.373v59.659H32.528c-3.379,0-5.1-1.55-5.1-4.929V42.712z"
			/>
		<g>
			<defs>
				<path id="SVGID_1_" d="M104.228,64.59c0,0.962-0.777,1.741-1.74,1.741H89.942c-0.961,0-1.74-0.779-1.74-1.741V49.056
					c0-0.963,0.779-1.741,1.74-1.741h12.545c0.963,0,1.74,0.778,1.74,1.741V64.59z"/>
			</defs>
			<clipPath id="SVGID_2_">
				<use xlink:href="#SVGID_1_"  overflow="visible"/>
			</clipPath>
			<path clip-path="url(#SVGID_2_)" fill="#90B9C0" d="M104.228,64.59c0,0.962-0.777,1.741-1.74,1.741H89.942
				c-0.961,0-1.74-0.779-1.74-1.741V49.056c0-0.963,0.779-1.741,1.74-1.741h12.545c0.963,0,1.74,0.778,1.74,1.741V64.59z"/>
			<path clip-path="url(#SVGID_2_)" fill="#FFFFFF" d="M97.501,60.793v-1.027c1.508-0.653,2.514-2.361,2.697-4.458
				c0.271-0.119,0.477-0.526,0.477-1.033c0-0.58-0.264-1.045-0.598-1.075c-0.461-2.043-1.93-3.097-3.934-3.097
				c-2.002,0-3.49,1.054-3.959,3.097c-0.33,0.028-0.598,0.494-0.598,1.075c0,0.507,0.205,0.913,0.479,1.033
				c0.182,2.085,1.193,3.787,2.693,4.447v1.039c-4.635,0.068-5.512,0.599-5.512,3.988v2.54h13.822v-2.54
				C103.069,61.379,102.167,60.858,97.501,60.793z"/>
		</g>
		<path fill="#78A4A4" d="M104.296,72.42c0,0.655-0.531,1.188-1.189,1.188H73.829c-0.656,0-1.189-0.533-1.189-1.188
			c0-0.657,0.533-1.188,1.189-1.188h29.277C103.765,71.231,104.296,71.763,104.296,72.42"/>
		<path fill="#78A4A4" d="M104.296,77.407c0,0.656-0.531,1.188-1.189,1.188H73.829c-0.656,0-1.189-0.532-1.189-1.188
			s0.533-1.188,1.189-1.188h29.277C103.765,76.219,104.296,76.751,104.296,77.407"/>
		<path fill="#78A4A4" d="M104.296,82.678c0,0.655-0.531,1.188-1.189,1.188H73.829c-0.656,0-1.189-0.532-1.189-1.188
			c0-0.657,0.533-1.188,1.189-1.188h29.277C103.765,81.489,104.296,82.021,104.296,82.678"/>
		<polygon fill="#1C5A64" points="68.976,37.953 69.495,37.953 69.495,97.612 68.976,97.602 		"/>
		<path opacity="0.15" fill="#FFFFFF" d="M48.335,37.953h20.566v59.659H48.335C44.956,97.612,44.956,37.953,48.335,37.953z"/>
		<g>
			<path fill="#DAC425" d="M51.378,52.405c-0.58-1.69-1.445-3.25-2.537-4.621c-1.152,1.403-2.059,3.014-2.66,4.765
				c0.729,0.124,1.477,0.192,2.24,0.192C49.437,52.741,50.425,52.622,51.378,52.405z"/>
			<path fill="#DAC425" d="M50.216,46.604c-0.088-0.013-0.176-0.024-0.264-0.034c-0.199,0.196-0.395,0.396-0.584,0.604
				c1.207,1.484,2.154,3.184,2.779,5.031c0.557-0.162,1.1-0.36,1.625-0.592C52.94,49.703,51.722,48.001,50.216,46.604z"/>
			<path fill="#DAC425" d="M48.325,47.171c-0.191-0.216-0.387-0.428-0.59-0.633c-0.203,0.017-0.402,0.038-0.6,0.066
				c-1.557,1.44-2.805,3.206-3.637,5.188c0.613,0.245,1.246,0.446,1.9,0.599C46.048,50.465,47.048,48.698,48.325,47.171z"/>
			<path fill="#DAC425" d="M52.327,47.116c-0.246-0.087-0.498-0.165-0.754-0.234c1.195,1.286,2.178,2.771,2.889,4.401
				c0.352-0.18,0.693-0.373,1.025-0.583C54.657,49.323,53.583,48.11,52.327,47.116z"/>
			<path fill="#DAC425" d="M39.288,55.98c0.189-1.703,0.684-3.314,1.43-4.78c-0.244-0.16-0.482-0.324-0.715-0.498
				c-0.902,1.141-1.582,2.463-1.979,3.904C38.413,55.094,38.837,55.553,39.288,55.98z"/>
			<path fill="#DAC425" d="M45.776,46.881c-0.254,0.07-0.506,0.147-0.754,0.234c-1.322,1.049-2.443,2.344-3.291,3.814
				c0.346,0.202,0.701,0.389,1.066,0.56C43.517,49.778,44.53,48.222,45.776,46.881z"/>
			<path fill="#DAC425" d="M54.61,48.228c0.563,0.634,1.07,1.317,1.512,2.046c0.174-0.125,0.346-0.253,0.514-0.386
				C56.03,49.258,55.351,48.699,54.61,48.228z"/>
			<path fill="#DAC425" d="M51.608,53.137c-1.025,0.238-2.092,0.369-3.188,0.369c-0.844,0-1.67-0.078-2.473-0.222
				c-0.391,1.354-0.604,2.781-0.604,4.258c0,0.59,0.035,1.171,0.102,1.743c0.957,0.22,1.951,0.34,2.975,0.34
				c1.283,0,2.523-0.187,3.699-0.527c0.061-0.554,0.094-1.114,0.094-1.683C52.214,55.931,52.001,54.497,51.608,53.137z"/>
			<path fill="#DAC425" d="M55.86,51.368c-0.359,0.226-0.729,0.434-1.107,0.626c0.641,1.686,0.996,3.508,1.014,5.41
				c0.547-0.363,1.064-0.766,1.551-1.204C57.144,54.471,56.636,52.84,55.86,51.368z"/>
			<path fill="#DAC425" d="M46.786,65.73c-0.781-0.091-1.543-0.246-2.277-0.46c0.723,1.189,1.609,2.27,2.627,3.211
				c0.119,0.017,0.24,0.032,0.359,0.045c0.248-0.239,0.49-0.485,0.723-0.742C47.688,67.14,47.21,66.452,46.786,65.73z"/>
			<path fill="#DAC425" d="M50.776,65.627c-0.449,0.762-0.953,1.486-1.514,2.163c0.221,0.249,0.451,0.49,0.689,0.725
				c0.088-0.011,0.176-0.021,0.264-0.034c1.07-0.992,1.996-2.14,2.74-3.407C52.251,65.314,51.524,65.501,50.776,65.627z"/>
			<path fill="#DAC425" d="M45.56,60.097c0.295,1.756,0.887,3.412,1.725,4.915c0.373,0.032,0.754,0.052,1.137,0.052
				c0.623,0,1.236-0.047,1.838-0.13c0.854-1.53,1.455-3.219,1.748-5.009c-1.145,0.303-2.348,0.465-3.586,0.465
				C47.44,60.39,46.483,60.288,45.56,60.097z"/>
			<path fill="#DAC425" d="M42.741,48.226c-0.83,0.53-1.586,1.164-2.246,1.89c0.193,0.143,0.389,0.278,0.588,0.411
				C41.56,49.703,42.114,48.933,42.741,48.226z"/>
			<path fill="#DAC425" d="M41.581,57.542c0-1.873,0.33-3.672,0.936-5.339c-0.393-0.183-0.775-0.384-1.146-0.601
				c-0.766,1.527-1.244,3.22-1.369,5.009c0.498,0.41,1.029,0.783,1.584,1.117C41.583,57.666,41.581,57.605,41.581,57.542z"/>
			<path fill="#DAC425" d="M42.741,66.859c-0.926-1.044-1.697-2.225-2.281-3.509c-0.736-0.507-1.422-1.082-2.047-1.716
				C39.276,63.797,40.802,65.622,42.741,66.859z"/>
			<path fill="#DAC425" d="M43.423,64.908c-0.588-0.226-1.16-0.485-1.709-0.784c0.85,1.484,1.977,2.79,3.309,3.846
				c0.248,0.086,0.5,0.164,0.754,0.234C44.856,67.215,44.065,66.108,43.423,64.908z"/>
			<path fill="#DAC425" d="M59.638,58.896c0.053-0.443,0.084-0.895,0.084-1.354c0-0.855-0.1-1.688-0.285-2.489
				c-0.408,0.515-0.852,1-1.328,1.453c0.025,0.343,0.041,0.688,0.041,1.036c0,1.321-0.186,2.598-0.527,3.811
				C58.386,60.618,59.063,59.794,59.638,58.896z"/>
			<path fill="#DAC425" d="M55.88,63.68c-0.58,0.363-1.186,0.686-1.816,0.963c-0.664,1.302-1.504,2.499-2.49,3.56
				c0.256-0.068,0.508-0.146,0.754-0.233C53.792,66.809,55.007,65.348,55.88,63.68z"/>
			<path fill="#DAC425" d="M59.257,60.72c-0.633,0.765-1.35,1.459-2.127,2.075c-0.605,1.5-1.463,2.871-2.52,4.063
				C56.817,65.449,58.487,63.281,59.257,60.72z"/>
			<path fill="#DAC425" d="M57.386,57.542c0-0.128-0.006-0.254-0.01-0.381c-0.514,0.425-1.057,0.813-1.627,1.162
				c-0.09,1.844-0.502,3.604-1.178,5.227c0.678-0.354,1.32-0.766,1.924-1.227C57.067,60.838,57.386,59.228,57.386,57.542z"/>
			<path fill="#DAC425" d="M44.728,59.895c-0.799-0.218-1.57-0.503-2.307-0.853c0.188,1.875,0.727,3.646,1.547,5.253
				c0.758,0.27,1.547,0.474,2.361,0.603C45.538,63.355,44.987,61.673,44.728,59.895z"/>
			<path fill="#DAC425" d="M39.923,61.986c-0.467-1.398-0.723-2.892-0.723-4.444c0-0.199,0.006-0.398,0.014-0.598
				c-0.5-0.434-0.969-0.902-1.402-1.401c-0.119,0.648-0.186,1.316-0.186,1.999c0,0.791,0.086,1.562,0.242,2.306
				C38.474,60.635,39.161,61.353,39.923,61.986z"/>
			<path fill="#DAC425" d="M57.149,50.457c-0.211,0.168-0.428,0.329-0.648,0.485c0.75,1.405,1.27,2.952,1.504,4.589
				c0.424-0.44,0.816-0.909,1.178-1.405C58.741,52.769,58.044,51.527,57.149,50.457z"/>
			<path fill="#DAC425" d="M52.849,59.672c-0.252,1.807-0.803,3.519-1.6,5.086c0.781-0.17,1.537-0.407,2.258-0.708
				c0.789-1.616,1.289-3.396,1.443-5.273C54.278,59.129,53.575,59.43,52.849,59.672z"/>
			<path fill="#DAC425" d="M54.997,57.878c0.002-0.112,0.008-0.223,0.008-0.336c0-1.836-0.336-3.594-0.945-5.22
				c-0.545,0.238-1.105,0.443-1.684,0.613c0.408,1.425,0.633,2.926,0.633,4.479c0,0.479-0.025,0.949-0.066,1.417
				C53.657,58.572,54.343,58.251,54.997,57.878z"/>
			<path fill="#DAC425" d="M48.421,65.828c-0.223,0-0.439-0.006-0.658-0.017c0.301,0.472,0.627,0.927,0.977,1.361
				c0.367-0.449,0.705-0.921,1.021-1.41C49.319,65.805,48.872,65.828,48.421,65.828z"/>
			<path fill="#DAC425" d="M41.622,58.633c-0.578-0.321-1.133-0.681-1.656-1.077c0,1.877,0.395,3.664,1.102,5.284
				c0.586,0.39,1.205,0.732,1.85,1.026C42.2,62.247,41.751,60.483,41.622,58.633z"/>
			<path fill="#DAC425" d="M44.554,57.542c0-1.531,0.219-3.013,0.619-4.419c-0.67-0.158-1.322-0.365-1.951-0.617
				c-0.566,1.575-0.877,3.27-0.877,5.036c0,0.207,0.008,0.412,0.016,0.616c0.721,0.371,1.479,0.678,2.268,0.913
				C44.581,58.568,44.554,58.059,44.554,57.542z"/>
		</g>
		<path fill="#78A4A4" d="M86.28,48.624c0,0.656-0.533,1.189-1.189,1.189H73.829c-0.656,0-1.188-0.533-1.188-1.189
			s0.531-1.188,1.188-1.188h11.262C85.747,47.436,86.28,47.968,86.28,48.624"/>
		<path fill="#78A4A4" d="M86.28,53.612c0,0.656-0.533,1.188-1.189,1.188H73.829c-0.656,0-1.188-0.532-1.188-1.188
			c0-0.657,0.531-1.189,1.188-1.189h11.262C85.747,52.423,86.28,52.955,86.28,53.612"/>
		<path fill="#78A4A4" d="M86.28,58.882c0,0.656-0.533,1.188-1.189,1.188H73.829c-0.656,0-1.188-0.532-1.188-1.188
			c0-0.657,0.531-1.188,1.188-1.188h11.262C85.747,57.693,86.28,58.225,86.28,58.882"/>
	</g>
	<g>
		<g>
			<path fill="#786E57" d="M92.782,84.812c0.438,1-0.02,2.165-1.02,2.603l-55.957,24.422c-1.002,0.437-2.168-0.021-2.605-1.021
				L22.228,85.668c-0.438-1.001,0.02-2.166,1.02-2.604l55.957-24.422c1.002-0.438,2.168,0.02,2.605,1.021L92.782,84.812z"/>
		</g>
		<g>
			<path fill="#EDDAAB" d="M92.19,84.514c0.438,1-0.021,2.166-1.021,2.603l-55.957,24.422c-1.002,0.437-2.166-0.021-2.604-1.021
				L21.632,85.371c-0.436-1.002,0.021-2.167,1.021-2.604l55.959-24.422c1-0.437,2.166,0.021,2.604,1.021L92.19,84.514z"/>
		</g>
		<g>
			<path fill="#786E57" d="M49.528,82.511c-1.652-1.383-3.941,0.976-4.479,1.619c0,0-0.139,0.176-0.381,0.489
				c-3.063-0.549-9.445-1.55-11.08-0.7c-0.32,0.166-1.154,1.075-0.848,1.179c2.43,0.83,6.869,2.293,9.207,3.062
				c-2.377,3.125-5.439,7.242-6.6,9.199c-1.41-0.226-3.375-0.465-3.955-0.163c-0.139,0.07-0.496,0.462-0.365,0.507
				c0.979,0.334,2.709,0.904,3.754,1.248c-0.049,0.309-0.035,0.676,0.25,0.817c0.262,0.133,0.592,0.112,0.857,0.061
				c0.514,0.953,1.422,2.632,1.939,3.564c0.066,0.122,0.389-0.3,0.436-0.448c0.195-0.628-0.396-2.538-0.869-3.89
				c1.766-1.491,5.371-5.25,8.064-8.118c1.115,2.065,3.492,6.465,4.795,8.817c0.156,0.28,0.904-0.699,1.012-1.044
				c0.566-1.817-1.705-8.274-2.748-11.063c0.205-0.223,0.32-0.347,0.32-0.347C49.378,86.656,51.181,83.893,49.528,82.511z"/>
		</g>
		<g>
			<path fill="#D8BF8A" d="M66.247,71.308c0.309,0.71-0.016,1.536-0.725,1.846l-7.244,3.161c-0.709,0.311-1.537-0.015-1.846-0.724
				l0,0c-0.311-0.71,0.014-1.536,0.723-1.847l7.246-3.161C65.11,70.273,65.937,70.598,66.247,71.308L66.247,71.308z"/>
		</g>
		<g>
			<path fill="#D8BF8A" d="M78.397,66.004c0.309,0.71-0.016,1.537-0.725,1.847l-7.244,3.161c-0.709,0.31-1.537-0.015-1.846-0.725
				l0,0c-0.311-0.709,0.014-1.536,0.725-1.846l7.244-3.161C77.261,64.971,78.087,65.295,78.397,66.004L78.397,66.004z"/>
		</g>
		<g>
			<path fill="#D8BF8A" d="M73.267,87.392c0.309,0.71-0.016,1.537-0.725,1.846l-7.244,3.161c-0.709,0.311-1.535-0.014-1.846-0.724
				l0,0c-0.311-0.71,0.014-1.536,0.725-1.847l7.242-3.161C72.13,86.357,72.956,86.682,73.267,87.392L73.267,87.392z"/>
		</g>
		<g>
			<path fill="#D8BF8A" d="M85.417,82.088c0.311,0.711-0.016,1.537-0.725,1.847l-7.244,3.162c-0.709,0.31-1.537-0.015-1.846-0.726
				l0,0c-0.309-0.709,0.016-1.535,0.725-1.845l7.244-3.162C84.28,81.055,85.106,81.379,85.417,82.088L85.417,82.088z"/>
		</g>
		<g>
			<g>
				<path fill="#D8BF8A" d="M60.741,81.639l19.277-8.414c0.709-0.31,1.033-1.136,0.725-1.846c-0.311-0.71-1.137-1.034-1.846-0.725
					l-19.279,8.413c-0.709,0.31-1.033,1.137-0.723,1.847C59.204,81.624,60.03,81.948,60.741,81.639z"/>
			</g>
			<g>
				<path fill="#D8BF8A" d="M81.175,75.873l-19.277,8.413c-0.711,0.311-1.035,1.137-0.725,1.847c0.309,0.71,1.135,1.033,1.846,0.724
					l19.277-8.413c0.711-0.31,1.033-1.137,0.725-1.846C82.71,75.888,81.884,75.563,81.175,75.873z"/>
			</g>
		</g>
	</g>
	<g>
		<g>
			<path fill="#258B90" d="M107.022,58.827l-0.258-0.588c1.941-0.853,2.988-2.139,2.988-2.951c0-0.882-1.246-1.62-1.725-1.833
				l0.256-0.588c0.086,0.037,2.111,0.938,2.111,2.419C110.397,56.407,109.278,57.838,107.022,58.827z"/>
		</g>
		<g>
			<path fill="#31A3A8" d="M104.972,52.451c0,0-5.158,8.292-4.424,10.349l5.426,15.191c0.732,2.055,2.279,2.684,4.334,1.948
				l8.061-2.878c2.057-0.734,2.729-2.154,1.994-4.208l-5.424-15.193C114.204,55.605,104.972,52.451,104.972,52.451z M107.792,59.513
				c-0.801,0.285-1.68-0.131-1.965-0.93c-0.285-0.8,0.131-1.678,0.932-1.965c0.799-0.284,1.678,0.132,1.963,0.93
				C109.007,58.348,108.591,59.227,107.792,59.513z"/>
		</g>
		<g>
			<path fill="#4EA5AE" d="M104.776,52.776c0,0-4.975,8.046-4.258,10.052l5.293,14.829c0.717,2.007,2.102,2.663,4.109,1.946
				l7.869-2.81c2.004-0.717,2.66-2.101,1.943-4.108l-5.295-14.829C113.722,55.852,104.776,52.776,104.776,52.776z M107.464,59.665
				c-0.781,0.277-1.639-0.128-1.918-0.908c-0.277-0.78,0.129-1.64,0.91-1.918c0.779-0.277,1.637,0.13,1.916,0.91
				C108.649,58.528,108.243,59.386,107.464,59.665z"/>
		</g>
		<g>
			<path fill="#258B90" d="M107.022,58.827c-0.033,0.012-0.068,0.02-0.107,0.019c-0.18,0-0.322-0.144-0.322-0.322
				c0-0.241,0.055-5.954,4.244-9.25c2.908-2.29,7.063-2.807,12.346-1.536c0.174,0.04,0.279,0.216,0.238,0.389
				s-0.215,0.277-0.389,0.236c-5.082-1.223-9.053-0.746-11.799,1.416c-3.945,3.104-3.998,8.69-3.998,8.745
				C107.235,58.664,107.147,58.783,107.022,58.827z"/>
		</g>
		<path fill="#FFFFFF" d="M104.022,64.999c-0.379-1.057,0.109-2.196,1.09-2.546l5.836-2.084c0.979-0.35,2.078,0.224,2.455,1.279
			l3.813,10.679c0.379,1.058-0.109,2.196-1.088,2.547l-5.836,2.083c-0.98,0.351-2.08-0.223-2.457-1.278L104.022,64.999z"/>
		<path fill="#94D6E2" d="M105.423,63.635c-0.309,0.11-0.471,0.453-0.361,0.763l3.922,10.983c0.111,0.309,0.453,0.471,0.764,0.36
			c0.311-0.112,0.473-0.452,0.361-0.763l-3.922-10.981C106.075,63.687,105.733,63.523,105.423,63.635z"/>
		<path fill="#94D6E2" d="M107.845,62.77c-0.311,0.112-0.471,0.453-0.361,0.765l3.922,10.98c0.111,0.311,0.453,0.472,0.764,0.36
			c0.309-0.11,0.473-0.449,0.361-0.761l-3.922-10.983C108.497,62.821,108.155,62.659,107.845,62.77z"/>
		<path fill="#94D6E2" d="M110.267,61.905c-0.311,0.111-0.471,0.452-0.361,0.763l3.922,10.982c0.111,0.311,0.451,0.472,0.764,0.36
			c0.309-0.11,0.471-0.452,0.359-0.763l-3.92-10.981C110.919,61.956,110.577,61.795,110.267,61.905z"/>
	</g>
</g>
</svg>
