<?xml version="1.0" encoding="utf-8"?>
<!-- Generator: Adobe Illustrator 16.0.0, SVG Export Plug-In . SVG Version: 6.00 Build 0)  -->
<!DOCTYPE svg PUBLIC "-//W3C//DTD SVG 1.1//EN" "http://www.w3.org/Graphics/SVG/1.1/DTD/svg11.dtd">
<svg version="1.1" id="Layer_1" xmlns="http://www.w3.org/2000/svg" xmlns:xlink="http://www.w3.org/1999/xlink" x="0px" y="0px"
	 width="136.913px" height="136.914px" viewBox="0 0 136.913 136.914" enable-background="new 0 0 136.913 136.914"
	 xml:space="preserve">
<g>
	<g>
		<g>
			<g>
				<g>
					<circle fill="#FFD113" cx="68.457" cy="68.457" r="63.333"/>
				</g>
			</g>
		</g>
	</g>
	<g>
		<path fill="#357180" d="M102.109,99.912H35.747c-6.24,0-11.297-5.058-11.297-11.296V63.201c0-6.238,9.254-11.126,15.492-11.126
			h66.363c6.24,0,12.985,13.025,12.985,29.975C119.291,98.998,108.348,99.912,102.109,99.912z"/>
		<g>
			<path fill="#46818B" d="M106.739,54.435c-8.274,0-15.866,43.117-4.195,43.117c5.625,0,15.491-0.207,15.491-15.488
				C118.035,66.78,112.366,54.435,106.739,54.435z"/>
			<path fill="#46818B" d="M106.305,52.074c0,0-53.225-1.404-69.748,0.41c-4.909,1.108-18.935,5.402-18.935,27.683
				c0,16.949,10.866,19.746,17.104,19.746c0.132,0,0.262-0.013,0.39-0.032c0.21,0.012,0.417,0.032,0.63,0.032h66.362
				C89.167,99.912,97.127,52.074,106.305,52.074z"/>
			<path fill="#3F7177" d="M82.49,51.763c0,0-24.871-1.653-32.39,0.162c-2.234,1.108-8.002,5.961-8.002,28.241
				c0,16.949,4.945,19.746,7.783,19.746c0.061,0,0.119-0.013,0.178-0.032c0.094,0.012,0.19,0.032,0.287,0.032h30.2
				C74.657,99.912,75.752,57.886,82.49,51.763z"/>
			<path fill="#46818B" d="M75.045,51.768c0,0-14.275-0.94-18.512-0.313c-3.143,4.775-8.495,12.394-8.723,28.711
				c-0.238,16.946,3.377,19.746,5.316,19.746c0.041,0,0.08-0.013,0.119-0.032c0.066,0.012,0.129,0.032,0.197,0.032h20.625
				C70.045,99.912,67.364,72.016,75.045,51.768z"/>
			<g>
				<path fill="#3F7177" d="M67.384,37.021c-14.593-0.634-16.813,14.903-16.813,14.903l5.177-0.026v-0.287h0.049
					c0.3-1.486,2.235-9.208,10.165-8.864c0,0,9.579-0.393,9.08,8.862l-0.213,0.002h0.139v0.191l7.522-0.039
					C83.32,36.371,67.384,37.021,67.384,37.021z"/>
			</g>
		</g>
		<g>
			<g>
				<path fill="#7ECBB7" d="M42.975,57.985l-0.218-0.502c1.657-0.726,2.55-1.826,2.55-2.519c0-0.753-1.063-1.385-1.471-1.565
					l0.218-0.502c0.074,0.032,1.802,0.802,1.802,2.064C45.858,55.918,44.903,57.141,42.975,57.985z"/>
			</g>
			<g>
				<path fill="#20B68E" d="M41.227,52.541c0,0-4.404,7.08-3.776,8.834l4.632,12.968c0.625,1.753,1.943,2.291,3.699,1.663
					l6.881-2.458c1.756-0.626,2.329-1.838,1.701-3.592l-4.631-12.969C49.106,55.234,41.227,52.541,41.227,52.541z M43.633,58.569
					c-0.682,0.245-1.434-0.11-1.676-0.792c-0.243-0.684,0.111-1.433,0.793-1.678c0.684-0.244,1.434,0.112,1.676,0.793
					C44.671,57.574,44.315,58.325,43.633,58.569z"/>
			</g>
			<g>
				<path fill="#52BFA3" d="M41.059,52.818c0,0-4.247,6.869-3.635,8.581l4.52,12.659c0.612,1.712,1.795,2.272,3.507,1.661
					l6.717-2.398c1.712-0.612,2.272-1.792,1.66-3.507l-4.521-12.658C48.696,55.443,41.059,52.818,41.059,52.818z M43.354,58.699
					c-0.666,0.237-1.399-0.108-1.637-0.776c-0.238-0.665,0.109-1.398,0.775-1.636c0.666-0.238,1.398,0.11,1.637,0.776
					C44.366,57.729,44.018,58.462,43.354,58.699z"/>
			</g>
			<g>
				<path fill="#7ECBB7" d="M42.975,57.985c-0.026,0.009-0.057,0.016-0.09,0.014c-0.152,0-0.274-0.121-0.273-0.274
					c-0.001-0.206,0.047-5.083,3.621-7.897c2.483-1.952,6.03-2.395,10.537-1.31c0.149,0.035,0.24,0.184,0.205,0.332
					c-0.035,0.147-0.184,0.237-0.331,0.202c-4.339-1.043-7.728-0.637-10.072,1.209c-3.368,2.649-3.413,7.417-3.413,7.464
					C43.159,57.845,43.084,57.946,42.975,57.985z"/>
			</g>
			<path fill="#FFFFFF" d="M40.416,63.253c-0.321-0.902,0.094-1.875,0.932-2.173l4.981-1.78c0.836-0.298,1.773,0.192,2.096,1.093
				l3.255,9.115c0.323,0.903-0.094,1.875-0.931,2.174l-4.98,1.778c-0.836,0.299-1.773-0.19-2.098-1.092L40.416,63.253z"/>
			<path fill="#94D6E2" d="M41.612,62.087c-0.264,0.095-0.401,0.386-0.309,0.652l3.349,9.376c0.095,0.265,0.387,0.401,0.651,0.307
				c0.264-0.095,0.402-0.387,0.308-0.65l-3.347-9.376C42.168,62.132,41.876,61.994,41.612,62.087z"/>
			<path fill="#94D6E2" d="M43.68,61.351c-0.267,0.093-0.404,0.384-0.309,0.651l3.348,9.374c0.094,0.266,0.386,0.404,0.65,0.309
				c0.266-0.094,0.403-0.385,0.31-0.651l-3.349-9.375C44.235,61.393,43.944,61.255,43.68,61.351z"/>
			<path fill="#94D6E2" d="M45.747,60.612c-0.266,0.095-0.402,0.386-0.309,0.651l3.348,9.375c0.096,0.264,0.386,0.402,0.652,0.308
				c0.264-0.095,0.401-0.386,0.306-0.652l-3.347-9.373C46.303,60.655,46.011,60.518,45.747,60.612z"/>
		</g>
	</g>
</g>
</svg>
