<?xml version="1.0" encoding="utf-8"?>
<!-- Generator: Adobe Illustrator 16.0.0, SVG Export Plug-In . SVG Version: 6.00 Build 0)  -->
<!DOCTYPE svg PUBLIC "-//W3C//DTD SVG 1.1//EN" "http://www.w3.org/Graphics/SVG/1.1/DTD/svg11.dtd">
<svg version="1.1" id="Layer_1" xmlns="http://www.w3.org/2000/svg" xmlns:xlink="http://www.w3.org/1999/xlink" x="0px" y="0px"
	 width="136.913px" height="136.913px" viewBox="0 0 136.913 136.913" enable-background="new 0 0 136.913 136.913"
	 xml:space="preserve">
<g>
	<g>
		<g>
			<g>
				<g>
					<circle fill="#344E5D" cx="68.457" cy="68.457" r="63.333"/>
				</g>
			</g>
		</g>
	</g>
	<g>
		<g>
			<g>
				<g>
					<path fill="#5AABB9" d="M50.218,50.498c0,1.708-1.385,3.092-3.092,3.092h-8.6c-1.707,0-3.09-1.384-3.09-3.092l0,0
						c0-1.706,1.383-3.09,3.09-3.09h8.6C48.833,47.408,50.218,48.792,50.218,50.498L50.218,50.498z"/>
				</g>
				<g>
					<path fill="#5AABB9" d="M87.306,50.498c0,1.708-1.385,3.092-3.092,3.092h-8.6c-1.707,0-3.092-1.384-3.092-3.092l0,0
						c0-1.706,1.385-3.09,3.092-3.09h8.6C85.921,47.408,87.306,48.792,87.306,50.498L87.306,50.498z"/>
				</g>
				<g>
					<path fill="#67B8CB" d="M117.14,82.614c0,1.639-2.082,3.856-3.721,3.856H21.265c-1.639,0-2.967-1.328-2.967-2.967v-31.52
						c0-1.637,1.328-2.965,2.967-2.965h92.154c1.639,0,2.967,1.328,2.967,2.965c0,0,2.232,13.229,2.232,25.188
						C118.081,81.741,117.14,82.614,117.14,82.614z"/>
				</g>
				<g>
					<path fill="#357180" d="M117.409,82.255c0,1.639-1.318,4.215-2.957,4.215H21.265c-1.639,0-2.967-1.328-2.967-2.967h97.498
						L117.409,82.255z"/>
				</g>
				<g>
					<g>
						<g>
							<circle fill="#202121" cx="52.182" cy="86.223" r="5.292"/>
						</g>
					</g>
					<g>
						<circle fill="#5E5F5E" cx="52.182" cy="86.223" r="2.431"/>
					</g>
				</g>
				<g>
					<g>
						<g>
							<circle fill="#202121" cx="28.485" cy="86.223" r="5.291"/>
						</g>
					</g>
					<g>
						<circle fill="#5E5F5E" cx="28.485" cy="86.223" r="2.432"/>
					</g>
				</g>
				<g>
					<g>
						<circle fill="#202121" cx="86.105" cy="86.223" r="5.29"/>
					</g>
					<g>
						<circle fill="#5E5F5E" cx="86.105" cy="86.223" r="2.431"/>
					</g>
				</g>
				<g>
					<g>
						<path fill="#357180" d="M113.323,86.47H92.624V61.39c0-1.813,1.369-3.284,3.059-3.284h14.582c1.688,0,3.059,1.471,3.059,3.284
							V86.47z"/>
					</g>
					<g>
						<path fill="#CDEAEA" d="M112.517,85.211H93.431V62.757c0-1.625,1.262-2.942,2.82-2.942h13.445c1.557,0,2.82,1.317,2.82,2.942
							V85.211z"/>
					</g>
					<g>
						<rect x="102.44" y="58.125" fill="#357180" width="0.557" height="28.339"/>
					</g>
				</g>
				<g>
					<path fill="#CDEAEA" d="M69.165,59.622c0-1.007,0.816-1.824,1.824-1.824h13.414c1.008,0,1.824,0.817,1.824,1.824v13.416
						c0,1.008-0.816,1.824-1.824,1.824H70.989c-1.008,0-1.824-0.816-1.824-1.824V59.622z"/>
					<path fill="#357180" d="M84.403,75.13H70.989c-1.154,0-2.094-0.938-2.094-2.093V59.622c0-1.152,0.939-2.092,2.094-2.092h13.414
						c1.154,0,2.094,0.939,2.094,2.092v13.416C86.497,74.192,85.558,75.13,84.403,75.13z M70.989,58.067
						c-0.859,0-1.557,0.697-1.557,1.555v13.416c0,0.857,0.697,1.555,1.557,1.555h13.414c0.857,0,1.555-0.697,1.555-1.555V59.622
						c0-0.857-0.697-1.555-1.555-1.555H70.989z"/>
				</g>
				<g>
					<path fill="#CDEAEA" d="M46.409,59.622c0-1.007,0.818-1.824,1.824-1.824h13.416c1.008,0,1.824,0.817,1.824,1.824v13.416
						c0,1.008-0.816,1.824-1.824,1.824H48.233c-1.006,0-1.824-0.816-1.824-1.824V59.622z"/>
					<path fill="#357180" d="M61.649,75.13H48.233c-1.152,0-2.092-0.938-2.092-2.093V59.622c0-1.152,0.939-2.092,2.092-2.092h13.416
						c1.154,0,2.094,0.939,2.094,2.092v13.416C63.743,74.192,62.804,75.13,61.649,75.13z M48.233,58.067
						c-0.857,0-1.555,0.697-1.555,1.555v13.416c0,0.857,0.697,1.555,1.555,1.555h13.416c0.857,0,1.555-0.697,1.555-1.555V59.622
						c0-0.857-0.697-1.555-1.555-1.555H48.233z"/>
				</g>
				<g>
					<path fill="#CDEAEA" d="M23.655,59.622c0-1.007,0.816-1.824,1.824-1.824h13.416c1.008,0,1.824,0.817,1.824,1.824v13.416
						c0,1.008-0.816,1.824-1.824,1.824H25.479c-1.008,0-1.824-0.816-1.824-1.824V59.622z"/>
					<path fill="#357180" d="M38.896,75.13H25.479c-1.154,0-2.094-0.938-2.094-2.093V59.622c0-1.152,0.939-2.092,2.094-2.092h13.416
						c1.154,0,2.092,0.939,2.092,2.092v13.416C40.987,74.192,40.05,75.13,38.896,75.13z M25.479,58.067
						c-0.857,0-1.555,0.697-1.555,1.555v13.416c0,0.857,0.697,1.555,1.555,1.555h13.416c0.857,0,1.555-0.697,1.555-1.555V59.622
						c0-0.857-0.697-1.555-1.555-1.555H25.479z"/>
				</g>
			</g>
			<g>
				<path fill="#357180" d="M118.548,75.358c0,0.192-1.461,0.154-2.508-1.068c-0.578-0.675-0.359-14.198-0.113-20.096
					c0.066-1.613,0.459-2.21,0.459-2.21S118.548,66.541,118.548,75.358z"/>
			</g>
			<g>
				<path fill="#CDEAEA" d="M118.573,73.924c0,0.18-1.164,0.022-1.904-1.12c-0.738-1.142-0.291-21.365-0.291-21.365
					S118.573,65.681,118.573,73.924z"/>
			</g>
		</g>
	</g>
</g>
</svg>
