<?xml version="1.0" encoding="utf-8"?>
<!-- Generator: Adobe Illustrator 16.0.0, SVG Export Plug-In . SVG Version: 6.00 Build 0)  -->
<!DOCTYPE svg PUBLIC "-//W3C//DTD SVG 1.1//EN" "http://www.w3.org/Graphics/SVG/1.1/DTD/svg11.dtd">
<svg version="1.1" id="Layer_1" xmlns="http://www.w3.org/2000/svg" xmlns:xlink="http://www.w3.org/1999/xlink" x="0px" y="0px"
	 width="136.914px" height="136.913px" viewBox="0 0 136.914 136.913" enable-background="new 0 0 136.914 136.913"
	 xml:space="preserve">
<g>
	<g>
		<g>
			<g>
				<g>
					<circle fill="#344E5D" cx="68.457" cy="68.458" r="63.333"/>
				</g>
			</g>
		</g>
	</g>
	<g>
		<g>
			<path fill="#C4BEBA" d="M59.991,37.679c3.363,10.953,5.892,30.852-0.456,32.801c0,0-5.078-14.777-8.44-25.73
				c-3.362-10.952-6.688-23.554-6.688-23.554C47.381,20.282,56.629,26.726,59.991,37.679z"/>
			<path fill="#C4BEBA" d="M80.418,113.656c0.369,1.203-1.223,2.762-3.558,3.479l0,0c-2.334,0.715-4.526,0.32-4.896-0.885
				L54.893,53.351c-0.371-1.205,0.307-2.482,1.512-2.854l0,0c1.205-0.369,2.48,0.309,2.852,1.514L80.418,113.656z"/>
		</g>
		<path fill="#D0D0CF" d="M44.406,21.195c0,0,3.326,12.602,6.688,23.554c3.362,10.953,8.44,25.73,8.44,25.73
			c0.002-0.002,0.004-0.002,0.006-0.004l12.423,45.774c0.37,1.205,2.563,1.6,4.896,0.885c2.335-0.717,3.927-2.275,3.558-3.479
			C80.418,113.656,47.381,20.282,44.406,21.195z"/>
	</g>
	<g>
		<g>
			<path fill="#C4BEBA" d="M59.605,115.035c-0.461,1.172-2.678,1.398-4.949,0.506l0,0c-2.272-0.895-3.74-2.568-3.279-3.74
				l25.838-59.839c0.462-1.172,1.787-1.748,2.959-1.289l0,0c1.174,0.463,1.75,1.787,1.289,2.959L59.605,115.035z"/>
			<path fill="#C4BEBA" d="M100.975,28.025c0.424-1.077,0.154-2.189-0.602-2.486s-1.711,0.334-2.135,1.411L90.72,46.062
				c-0.767-0.51-1.786-1.102-3.135-1.758l7.341-18.658c0.424-1.076,0.154-2.188-0.602-2.485c-0.756-0.299-1.711,0.332-2.135,1.409
				l-7.292,18.535c-0.657-0.27-1.363-0.549-2.132-0.834c-0.389-0.145-0.764-0.279-1.131-0.408l7.256-18.442
				c0.424-1.076,0.154-2.189-0.602-2.486c-0.756-0.298-1.711,0.333-2.135,1.41l-7.33,18.636c-1.465-0.408-2.687-0.662-3.667-0.816
				l7.595-19.306c0.424-1.077,0.154-2.189-0.602-2.487c-0.755-0.297-1.711,0.334-2.133,1.411l-8.025,20.399
				c-0.067,0.168-0.111,0.338-0.145,0.506c-3.893,10.191-3.629,15.984,4.488,19.178c8.092,3.184,12.231-0.84,16.313-10.881
				c0.114-0.17,0.219-0.354,0.3-0.559L100.975,28.025z"/>
		</g>
		<path fill="#D0D0CF" d="M81.635,41.862l7.256-18.442c0.424-1.076,0.154-2.189-0.602-2.486c-0.756-0.298-1.711,0.333-2.135,1.41
			l-7.33,18.636c-1.465-0.408-2.687-0.662-3.667-0.816l7.595-19.306c0.424-1.077,0.154-2.189-0.602-2.487
			c-0.755-0.297-1.711,0.334-2.133,1.411l-8.025,20.399c-0.067,0.168-0.111,0.338-0.145,0.506
			c-3.521,9.221-3.641,14.84,2.381,18.193l-22.852,52.921c-0.461,1.172,1.007,2.846,3.279,3.74c2.271,0.893,4.488,0.666,4.949-0.506
			c0,0,20.373-63.536,22.905-72.847C82.511,42.188,81.662,41.872,81.635,41.862z"/>
	</g>
</g>
</svg>
