<?xml version="1.0" encoding="utf-8"?>
<!-- Generator: Adobe Illustrator 16.0.0, SVG Export Plug-In . SVG Version: 6.00 Build 0)  -->
<!DOCTYPE svg PUBLIC "-//W3C//DTD SVG 1.1//EN" "http://www.w3.org/Graphics/SVG/1.1/DTD/svg11.dtd">
<svg version="1.1" id="Layer_1" xmlns="http://www.w3.org/2000/svg" xmlns:xlink="http://www.w3.org/1999/xlink" x="0px" y="0px"
	 width="136.913px" height="136.914px" viewBox="0 0 136.913 136.914" enable-background="new 0 0 136.913 136.914"
	 xml:space="preserve">
<g>
	<g>
		<g>
			<g>
				<g>
					<circle fill="#A2D4DE" cx="68.457" cy="68.458" r="63.333"/>
				</g>
			</g>
		</g>
	</g>
	<g>
		<g>
			<path fill="#B1B1B2" d="M5.487,75.218C6.362,83.47,8.825,91.245,12.56,98.24c10.658,19.961,31.688,33.55,55.898,33.55
				c24.207,0,45.236-13.588,55.895-33.548c3.699-6.927,6.145-14.621,7.043-22.783L5.487,75.218z"/>
			<path fill="#6CC077" d="M131.724,65.859c-0.145-3.603-0.586-7.128-1.311-10.552c-0.686-3.249-1.627-6.402-2.789-9.446
				l-12.795-12.794c0,0-8.293-9.666-15.229-10.06c-6.934-0.394-14.406,9.235-14.406,9.235l-11.42,11.422l-1.846-1.849
				c0,0-6.744-7.864-12.393-8.186c-5.645-0.321-11.721,7.518-11.721,7.518l-6.068,6.069c-0.963-1.079-6.025-6.505-10.365-6.753
				c-4.811-0.273-9.996,6.41-9.996,6.41l-8.209,8.208l-6.623-0.013c-0.164,0.766-0.309,1.54-0.445,2.315
				c-0.318,1.806-0.564,3.635-0.727,5.49c-0.16,1.841-0.258,3.7-0.258,5.583c0,2.285,0.127,4.539,0.363,6.761l125.908,0.241
				c0.254-2.3,0.395-4.634,0.395-7.002C131.79,67.586,131.759,66.722,131.724,65.859z"/>
		</g>
		<g>
			<g>
				<path fill="#FFFFFF" d="M113.196,100.22l-10.117,0.053l-0.014-2.704l10.115-0.054L113.196,100.22z M92.964,100.327
					l-10.117,0.054l-0.014-2.708L92.95,97.62L92.964,100.327z M72.731,100.433l-10.117,0.053l-0.014-2.705l10.117-0.055
					L72.731,100.433z M52.499,100.54l-10.115,0.054l-0.014-2.708l10.115-0.052L52.499,100.54z M32.267,100.646l-10.115,0.053
					l-0.014-2.707l10.115-0.052L32.267,100.646z"/>
			</g>
		</g>
		<g>
			<path fill="#357180" d="M102.687,75.74l-58.938,1.177C54.024,64.229,64.19,61.017,73.81,60.825
				C84.034,60.62,95.233,64.006,102.687,75.74z"/>
			<path fill="#A2DADB" d="M72.312,76.164l-23.756,0.475c8.039-9.926,15.988-12.437,23.514-12.587L72.312,76.164z"/>
			<path fill="#A2DADB" d="M75.169,76.106l23.756-0.474c-8.426-9.597-16.471-11.789-23.998-11.639L75.169,76.106z"/>
			<path fill="#357180" d="M100.944,93.974c0,0-74.832,1.495-77.428,1.548c-1.805,0.034-2.027-3.571-2.027-3.571
				c-0.324-16.236,24.363-15.226,24.363-15.226l56.754-1.134c0,0,4.287,2.463,8.863,3.133c3.393,0.495,4.58,3.368,4.643,6.524
				C116.192,89.345,113.683,91.688,100.944,93.974z"/>
			<path fill="#818282" d="M65.466,93.329c-25.146,0.051-43.779-0.065-43.779-0.065s-0.021,0.282-0.092,1.074
				c-0.088,0.994,0.42,1.665,1.15,1.65l78.133-1.562l0.117-1.808C93.321,92.471,90.612,93.278,65.466,93.329z"/>
			<circle fill="#202121" cx="38.122" cy="92.598" r="9.248"/>
			<circle fill="#202121" cx="92.246" cy="91.515" r="9.249"/>
			<circle fill="#818282" cx="38.122" cy="92.598" r="4.511"/>
			<circle fill="#818282" cx="92.247" cy="91.516" r="4.511"/>
		</g>
	</g>
</g>
</svg>
