<?xml version="1.0" encoding="utf-8"?>
<!-- Generator: Adobe Illustrator 16.0.0, SVG Export Plug-In . SVG Version: 6.00 Build 0)  -->
<!DOCTYPE svg PUBLIC "-//W3C//DTD SVG 1.1//EN" "http://www.w3.org/Graphics/SVG/1.1/DTD/svg11.dtd">
<svg version="1.1" id="Layer_1" xmlns="http://www.w3.org/2000/svg" xmlns:xlink="http://www.w3.org/1999/xlink" x="0px" y="0px"
	 width="136.833px" height="136.834px" viewBox="0 0 136.833 136.834" style="enable-background:new 0 0 136.833 136.834;"
	 xml:space="preserve">
<style type="text/css">
<![CDATA[
	.st0{fill:#AA865B;}
	.st1{fill:#49A0AE;}
	.st2{fill:#E0E0E0;}
	.st3{fill:#E23942;}
	.st4{fill:#E4DFD6;}
	.st5{fill:#E4E4E4;}
	.st6{fill:#4C3E30;}
	.st7{fill:#E7E7E7;}
	.st8{fill:#4D4946;}
	.st9{fill:#E84849;}
	.st10{fill:#E8E8DF;}
	.st11{fill:#E8E8E8;}
	.st12{fill:#E9E9EA;}
	.st13{fill:#818282;}
	.st14{fill:#828282;}
	.st15{fill:#B1C635;}
	.st16{fill:#857856;}
	.st17{fill:#B5DDE1;}
	.st18{fill:#B7C133;}
	.st19{fill:#89932C;}
	.st20{fill:#1E1B18;}
	.st21{fill:#ECECEC;}
	.st22{fill:#51473A;}
	.st23{fill:#EFEFEF;}
	.st24{fill:#524F49;}
	.st25{fill:#585550;}
	.st26{fill:#8CB23F;}
	.st27{fill:#202121;}
	.st28{fill:#8EC0C8;}
	.st29{fill:#F3F4F5;}
	.st30{fill:#5B4F3F;}
	.st31{fill:#5C9340;}
	.st32{fill:#C02026;}
	.st33{fill:#C0C0C0;}
	.st34{fill:#93793D;}
	.st35{fill:#939292;}
	.st36{fill:#C4E7ED;}
	.st37{opacity:0.5;}
	.st38{opacity:0.7;}
	.st39{opacity:0.8;}
	.st40{fill:#FFA300;}
	.st41{fill:#FFCE00;}
	.st42{fill:#FFFFFF;}
	.st43{fill:#65A844;}
	.st44{fill:#665C51;}
	.st45{fill:#67B8CB;}
	.st46{fill:#9BD7D9;}
	.st47{fill:#CDCCCB;}
	.st48{fill:#344E5D;}
	.st49{fill:#6B4E15;}
	.st50{fill:#6B7D35;}
	.st51{fill:#D2D2D2;}
	.st52{fill:#3A2F22;}
	.st53{fill:#3B342D;}
	.st54{fill:#D6EFF2;}
	.st55{fill:#D7D7D7;}
	.st56{fill:#3E8540;}
	.st57{fill:#D9E3E4;}
	.st58{fill:#A0D2DC;}
	.st59{fill:#A19F9F;}
	.st60{fill:#737373;}
	.st61{fill:#A2D4DE;}
	.st62{fill:#A2DADB;}
	.st63{fill:#73BFCB;}
	.st64{fill:#766959;}
	.st65{fill:#77746F;}
	.st66{fill:#77913B;}
	.st67{fill:#A6B232;}
	.st68{fill:#A8A7A7;}
	.st69{fill:#DFDFDF;}
	.st70{fill:#423528;}
	.st71{fill:#43B665;}
	.st72{fill:#444341;}
	.st73{fill:#453F38;}
]]>
</style>
<g>
	<g>
		<g>
			<g>
				<circle class="st15" cx="68.416" cy="68.417" r="63.333"/>
			</g>
		</g>
	</g>
	<g>
		<g>
			<g>
				<path class="st8" d="M92.366,108.034c0,1.925-1.561,3.484-3.484,3.484H40.88c-1.926,0-3.484-1.56-3.484-3.484V28.674
					c0-1.924,1.559-3.484,3.484-3.484h48.002c1.924,0,3.484,1.561,3.484,3.484V108.034z"/>
			</g>
		</g>
		<g>
			<g>
				<path class="st11" d="M84.624,54.689c0,1.382-1.121,2.503-2.504,2.503H47.64c-1.381,0-2.502-1.121-2.502-2.503V34.69
					c0-1.383,1.121-2.503,2.502-2.503h34.48c1.383,0,2.504,1.12,2.504,2.503V54.689z"/>
			</g>
		</g>
		<g>
			<g>
				<path class="st73" d="M98.431,109.969c0,1.925-1.559,3.484-3.482,3.484H34.944c-1.926,0-3.484-1.56-3.484-3.484l0,0
					c0-1.924,1.559-3.484,3.484-3.484h60.004C96.872,106.485,98.431,108.045,98.431,109.969L98.431,109.969z"/>
			</g>
		</g>
		<g>
			<g>
				<g>
					<path class="st15" d="M76.417,88.801c0-11.202-11.002-20.839-11.002-20.839c-4.203,10.196-11.002,12.723-11.002,20.839
						c0,5.659,4.273,10.314,9.77,10.929c1.406-4.103,2.764-7.422,2.764-12.214c0,0,1.686,5.735-0.219,12.201
						C72.185,99.067,76.417,94.433,76.417,88.801z"/>
				</g>
			</g>
		</g>
		<g>
			<g>
				<path class="st8" d="M105.271,97.969h-7.484c-0.855,0-1.549-0.693-1.549-1.549v-37.68h-4.902c-0.855,0-1.549-0.693-1.549-1.549
					s0.693-1.549,1.549-1.549h6.451c0.855,0,1.549,0.693,1.549,1.549v37.68h4.387V34.606l-7.676-7.676
					c-0.605-0.604-0.605-1.586,0-2.189c0.605-0.605,1.584-0.605,2.189,0l8.129,8.129c0.291,0.291,0.455,0.685,0.455,1.096V96.42
					C106.819,97.276,106.126,97.969,105.271,97.969z"/>
			</g>
		</g>
		<g>
			<g>
				<path class="st8" d="M105.993,39.09c-0.773,0.773-2.025,0.773-2.797,0l-4.541-4.539c-0.773-0.772-0.773-2.023,0-2.797
					l1.631-1.631c0.773-0.771,2.023-0.771,2.797,0l3.031,3.03L105.993,39.09z"/>
			</g>
		</g>
		<g>
			<g>
				<path class="st15" d="M67.892,38.933c0,0.722-0.584,1.306-1.307,1.306H49.929c-0.723,0-1.307-0.584-1.307-1.306l0,0
					c0-0.722,0.584-1.307,1.307-1.307h16.656C67.308,37.626,67.892,38.211,67.892,38.933L67.892,38.933z"/>
			</g>
		</g>
		<g>
			<g>
				<path class="st15" d="M81.296,37.626h-8.027c-0.721,0-1.307,0.585-1.307,1.307s0.586,1.306,1.307,1.306h8.027
					c0.723,0,1.307-0.584,1.307-1.306S82.019,37.626,81.296,37.626z"/>
			</g>
		</g>
		<g>
			<g>
				<path class="st15" d="M67.892,45.127c0,0.721-0.584,1.306-1.307,1.306H49.929c-0.723,0-1.307-0.585-1.307-1.306l0,0
					c0-0.723,0.584-1.307,1.307-1.307h16.656C67.308,43.821,67.892,44.405,67.892,45.127L67.892,45.127z"/>
			</g>
		</g>
		<g>
			<g>
				<path class="st15" d="M67.892,51.579c0,0.722-0.584,1.307-1.307,1.307H49.929c-0.723,0-1.307-0.585-1.307-1.307l0,0
					c0-0.721,0.584-1.307,1.307-1.307h16.656C67.308,50.272,67.892,50.858,67.892,51.579L67.892,51.579z"/>
			</g>
		</g>
	</g>
</g>
</svg>
