<?xml version="1.0" encoding="utf-8"?>
<!-- Generator: Adobe Illustrator 16.0.0, SVG Export Plug-In . SVG Version: 6.00 Build 0)  -->
<!DOCTYPE svg PUBLIC "-//W3C//DTD SVG 1.1//EN" "http://www.w3.org/Graphics/SVG/1.1/DTD/svg11.dtd">
<svg version="1.1" id="Layer_1" xmlns="http://www.w3.org/2000/svg" xmlns:xlink="http://www.w3.org/1999/xlink" x="0px" y="0px"
	 width="136.913px" height="136.914px" viewBox="0 0 136.913 136.914" enable-background="new 0 0 136.913 136.914"
	 xml:space="preserve">
<path fill="#78A4A4" d="M107.046,77.442c0,0.721-0.584,1.306-1.307,1.306H73.565c-0.723,0-1.307-0.585-1.307-1.306
	c0-0.722,0.584-1.306,1.307-1.306h32.174C106.462,76.136,107.046,76.72,107.046,77.442"/>
<path fill="#78A4A4" d="M107.046,82.923c0,0.722-0.584,1.306-1.307,1.306H73.565c-0.723,0-1.307-0.584-1.307-1.306
	s0.584-1.306,1.307-1.306h32.174C106.462,81.617,107.046,82.201,107.046,82.923"/>
<path fill="#78A4A4" d="M107.046,88.714c0,0.721-0.584,1.306-1.307,1.306H73.565c-0.723,0-1.307-0.585-1.307-1.306
	c0-0.723,0.584-1.306,1.307-1.306h32.174C106.462,87.408,107.046,87.992,107.046,88.714"/>
<g>
	<g>
		<g>
			<g>
				<g>
					<g>
						<circle fill="#F3EA83" cx="68.457" cy="68.457" r="63.333"/>
					</g>
				</g>
			</g>
		</g>
	</g>
	<path fill="#357180" d="M115.618,97.701c0,3.714-1.891,5.23-5.604,5.23H66.493V37.37h43.521c3.713,0,5.604,1.703,5.604,5.417
		V97.701z"/>
	<path fill="#FFFFFF" d="M71.63,100.41h36.518c3.428,0,4.254-0.401,4.254-3.829V44.28c0-3.427-0.826-4.389-4.254-4.389H71.63V100.41
		z"/>
	<path fill="#357180" d="M24.28,42.646c0-3.714,1.891-5.23,5.604-5.23h39.973v65.562H29.884c-3.713,0-5.604-1.703-5.604-5.416
		V42.646z"/>
	<g>
		<defs>
			<path id="SVGID_3_" d="M108.679,66.688c0,1.057-0.855,1.913-1.912,1.913H92.979c-1.055,0-1.912-0.856-1.912-1.913V49.616
				c0-1.057,0.857-1.912,1.912-1.912h13.787c1.057,0,1.912,0.855,1.912,1.912V66.688z"/>
		</defs>
		<clipPath id="SVGID_2_">
			<use xlink:href="#SVGID_3_"  overflow="visible"/>
		</clipPath>
		<path clip-path="url(#SVGID_2_)" fill="#90B9C0" d="M108.679,66.688c0,1.057-0.855,1.913-1.912,1.913H92.979
			c-1.055,0-1.912-0.856-1.912-1.913V49.616c0-1.057,0.857-1.912,1.912-1.912h13.787c1.057,0,1.912,0.855,1.912,1.912V66.688z"/>
		<path clip-path="url(#SVGID_2_)" fill="#FFFFFF" d="M101.286,62.516v-1.13c1.656-0.717,2.764-2.594,2.963-4.898
			c0.299-0.131,0.525-0.579,0.525-1.136c0-0.637-0.291-1.147-0.656-1.181c-0.508-2.246-2.121-3.403-4.322-3.403
			s-3.836,1.157-4.352,3.403c-0.363,0.03-0.656,0.543-0.656,1.181c0,0.557,0.223,1.004,0.523,1.136
			c0.201,2.291,1.313,4.162,2.961,4.888v1.142c-5.094,0.074-6.057,0.658-6.057,4.384v2.791h15.191V66.9
			C107.407,63.159,106.413,62.587,101.286,62.516z"/>
	</g>
	<polygon fill="#1C5A64" points="69.937,37.416 70.509,37.416 70.509,102.978 69.937,102.967 	"/>
	<path opacity="0.15" fill="#FFFFFF" d="M47.255,37.416h22.602v65.562H47.255C43.542,102.978,43.542,37.416,47.255,37.416z"/>
	<g>
		<path fill="#DAC425" d="M50.599,53.298c-0.637-1.857-1.586-3.571-2.787-5.077c-1.266,1.541-2.264,3.312-2.924,5.235
			c0.801,0.136,1.621,0.211,2.461,0.211C48.468,53.667,49.552,53.537,50.599,53.298z"/>
		<path fill="#DAC425" d="M49.321,46.923c-0.096-0.014-0.191-0.026-0.289-0.037c-0.219,0.216-0.434,0.437-0.641,0.663
			c1.324,1.631,2.365,3.499,3.055,5.53c0.613-0.18,1.209-0.397,1.785-0.651C52.317,50.328,50.978,48.458,49.321,46.923z"/>
		<path fill="#DAC425" d="M47.245,47.546c-0.211-0.237-0.426-0.471-0.648-0.696c-0.221,0.019-0.441,0.043-0.66,0.073
			c-1.709,1.583-3.08,3.523-3.996,5.702c0.674,0.27,1.371,0.49,2.09,0.657C44.743,51.165,45.841,49.225,47.245,47.546z"/>
		<path fill="#DAC425" d="M51.644,47.486c-0.271-0.096-0.547-0.183-0.828-0.258c1.313,1.413,2.391,3.045,3.174,4.836
			c0.385-0.196,0.76-0.41,1.125-0.64C54.202,49.911,53.022,48.578,51.644,47.486z"/>
		<path fill="#DAC425" d="M37.313,57.228c0.209-1.873,0.752-3.644,1.57-5.254c-0.266-0.176-0.529-0.356-0.783-0.547
			c-0.992,1.253-1.74,2.707-2.176,4.29C36.353,56.252,36.817,56.757,37.313,57.228z"/>
		<path fill="#DAC425" d="M44.444,47.228c-0.281,0.076-0.557,0.162-0.828,0.257c-1.455,1.152-2.686,2.576-3.617,4.192
			c0.381,0.222,0.77,0.428,1.17,0.615C41.96,50.411,43.075,48.7,44.444,47.228z"/>
		<path fill="#DAC425" d="M54.153,48.707c0.617,0.696,1.176,1.448,1.66,2.248c0.191-0.137,0.381-0.278,0.566-0.424
			C55.712,49.839,54.966,49.227,54.153,48.707z"/>
		<path fill="#DAC425" d="M50.853,54.103c-1.127,0.262-2.299,0.405-3.504,0.405c-0.926,0-1.834-0.086-2.717-0.244
			c-0.428,1.487-0.662,3.057-0.662,4.68c0,0.648,0.039,1.286,0.111,1.915c1.053,0.241,2.145,0.374,3.268,0.374
			c1.412,0,2.775-0.206,4.068-0.58c0.066-0.607,0.102-1.224,0.102-1.849C51.519,57.173,51.282,55.597,50.853,54.103z"/>
		<path fill="#DAC425" d="M55.526,52.159c-0.395,0.247-0.801,0.476-1.217,0.687c0.703,1.853,1.096,3.855,1.113,5.946
			c0.602-0.4,1.17-0.842,1.705-1.324C56.937,55.568,56.378,53.775,55.526,52.159z"/>
		<path fill="#DAC425" d="M45.554,67.941c-0.857-0.1-1.695-0.271-2.504-0.505c0.795,1.308,1.77,2.493,2.887,3.527
			c0.133,0.019,0.264,0.036,0.396,0.051c0.273-0.264,0.539-0.534,0.793-0.815C46.546,69.49,46.021,68.735,45.554,67.941z"/>
		<path fill="#DAC425" d="M49.937,67.828c-0.492,0.837-1.045,1.633-1.662,2.377c0.244,0.273,0.496,0.539,0.758,0.796
			c0.098-0.011,0.193-0.023,0.289-0.037c1.18-1.091,2.195-2.352,3.014-3.744C51.56,67.484,50.761,67.689,49.937,67.828z"/>
		<path fill="#DAC425" d="M44.206,61.751c0.324,1.929,0.975,3.749,1.895,5.401c0.412,0.034,0.828,0.057,1.248,0.057
			c0.686,0,1.361-0.052,2.021-0.143c0.938-1.683,1.6-3.537,1.922-5.505c-1.26,0.332-2.58,0.511-3.943,0.511
			C46.272,62.072,45.222,61.961,44.206,61.751z"/>
		<path fill="#DAC425" d="M41.108,48.705c-0.912,0.582-1.742,1.279-2.467,2.077c0.211,0.156,0.426,0.306,0.645,0.451
			C39.81,50.329,40.419,49.482,41.108,48.705z"/>
		<path fill="#DAC425" d="M39.833,58.943c0-2.06,0.363-4.035,1.029-5.867c-0.432-0.201-0.852-0.421-1.262-0.66
			c-0.84,1.679-1.367,3.539-1.504,5.505c0.549,0.45,1.131,0.86,1.742,1.228C39.837,59.08,39.833,59.013,39.833,58.943z"/>
		<path fill="#DAC425" d="M41.108,69.182c-1.018-1.146-1.865-2.444-2.508-3.855c-0.807-0.558-1.561-1.189-2.248-1.886
			C37.3,65.816,38.978,67.822,41.108,69.182z"/>
		<path fill="#DAC425" d="M41.858,67.038c-0.648-0.247-1.275-0.533-1.877-0.861c0.932,1.631,2.17,3.064,3.635,4.226
			c0.271,0.096,0.547,0.181,0.828,0.257C43.435,69.573,42.563,68.357,41.858,67.038z"/>
		<path fill="#DAC425" d="M59.677,60.432c0.059-0.488,0.094-0.983,0.094-1.488c0-0.941-0.111-1.855-0.314-2.736
			c-0.449,0.566-0.936,1.1-1.459,1.598c0.027,0.377,0.045,0.756,0.045,1.139c0,1.451-0.205,2.854-0.58,4.188
			C58.302,62.323,59.046,61.418,59.677,60.432z"/>
		<path fill="#DAC425" d="M55.548,65.688c-0.637,0.399-1.303,0.754-1.998,1.059c-0.729,1.431-1.65,2.747-2.734,3.913
			c0.281-0.076,0.557-0.163,0.828-0.258C53.253,69.126,54.589,67.521,55.548,65.688z"/>
		<path fill="#DAC425" d="M59.257,62.436c-0.695,0.841-1.48,1.603-2.336,2.28c-0.666,1.647-1.607,3.155-2.768,4.465
			C56.577,67.633,58.413,65.25,59.257,62.436z"/>
		<path fill="#DAC425" d="M57.202,58.943c0-0.141-0.008-0.278-0.01-0.419c-0.564,0.467-1.162,0.894-1.787,1.277
			c-0.1,2.025-0.553,3.96-1.297,5.743c0.746-0.39,1.451-0.842,2.113-1.349C56.853,62.565,57.202,60.795,57.202,58.943z"/>
		<path fill="#DAC425" d="M43.292,61.528c-0.879-0.239-1.727-0.553-2.535-0.937c0.205,2.061,0.799,4.007,1.699,5.771
			c0.834,0.298,1.701,0.521,2.596,0.663C44.183,65.332,43.577,63.482,43.292,61.528z"/>
		<path fill="#DAC425" d="M38.013,63.827c-0.514-1.536-0.797-3.178-0.797-4.884c0-0.22,0.008-0.438,0.018-0.656
			c-0.549-0.478-1.066-0.991-1.543-1.541c-0.131,0.714-0.201,1.446-0.201,2.197c0,0.869,0.092,1.717,0.266,2.533
			C36.419,62.341,37.175,63.131,38.013,63.827z"/>
		<path fill="#DAC425" d="M56.942,51.157c-0.232,0.185-0.469,0.361-0.713,0.533c0.824,1.545,1.395,3.244,1.652,5.044
			c0.467-0.485,0.898-1,1.293-1.545C58.69,53.698,57.927,52.333,56.942,51.157z"/>
		<path fill="#DAC425" d="M52.216,61.283c-0.277,1.985-0.881,3.867-1.756,5.59c0.857-0.188,1.686-0.448,2.48-0.778
			c0.865-1.776,1.416-3.733,1.584-5.795C53.788,60.688,53.017,61.017,52.216,61.283z"/>
		<path fill="#DAC425" d="M54.577,59.313c0.002-0.123,0.01-0.245,0.01-0.369c0-2.019-0.369-3.95-1.039-5.736
			c-0.6,0.262-1.217,0.487-1.852,0.675c0.449,1.564,0.695,3.214,0.695,4.922c0,0.524-0.027,1.043-0.072,1.558
			C53.106,60.075,53.86,59.723,54.577,59.313z"/>
		<path fill="#DAC425" d="M47.349,68.049c-0.242,0-0.482-0.007-0.721-0.019c0.332,0.52,0.689,1.019,1.072,1.497
			c0.402-0.494,0.775-1.013,1.121-1.551C48.337,68.023,47.847,68.049,47.349,68.049z"/>
		<path fill="#DAC425" d="M39.88,60.142c-0.637-0.353-1.244-0.747-1.822-1.184c0.002,2.063,0.436,4.026,1.211,5.807
			c0.645,0.429,1.324,0.806,2.033,1.129C40.513,64.113,40.021,62.176,39.88,60.142z"/>
		<path fill="#DAC425" d="M43.103,58.943c0-1.684,0.238-3.312,0.678-4.855c-0.736-0.176-1.451-0.402-2.143-0.679
			c-0.623,1.73-0.965,3.593-0.965,5.534c0,0.227,0.008,0.452,0.018,0.677c0.793,0.407,1.625,0.745,2.492,1.004
			C43.13,60.07,43.103,59.511,43.103,58.943z"/>
	</g>
	<path fill="#78A4A4" d="M88.954,49.144c0,0.721-0.584,1.307-1.307,1.307H75.272c-0.721,0-1.307-0.586-1.307-1.307
		c0-0.722,0.586-1.307,1.307-1.307h12.375C88.37,47.837,88.954,48.422,88.954,49.144"/>
	<path fill="#78A4A4" d="M88.954,54.624c0,0.722-0.584,1.306-1.307,1.306H75.272c-0.721,0-1.307-0.584-1.307-1.306
		s0.586-1.306,1.307-1.306h12.375C88.37,53.318,88.954,53.902,88.954,54.624"/>
	<path fill="#78A4A4" d="M88.954,60.416c0,0.72-0.584,1.305-1.307,1.305H75.272c-0.721,0-1.307-0.585-1.307-1.305
		c0-0.723,0.586-1.307,1.307-1.307h12.375C88.37,59.109,88.954,59.693,88.954,60.416"/>
</g>
</svg>
