<?xml version="1.0" encoding="utf-8"?>
<!-- Generator: Adobe Illustrator 16.0.0, SVG Export Plug-In . SVG Version: 6.00 Build 0)  -->
<!DOCTYPE svg PUBLIC "-//W3C//DTD SVG 1.1//EN" "http://www.w3.org/Graphics/SVG/1.1/DTD/svg11.dtd">
<svg version="1.1" id="Layer_1" xmlns="http://www.w3.org/2000/svg" xmlns:xlink="http://www.w3.org/1999/xlink" x="0px" y="0px"
	 width="136.913px" height="136.913px" viewBox="0 0 136.913 136.913" enable-background="new 0 0 136.913 136.913"
	 xml:space="preserve">
<g>
	<g>
		<g>
			<g>
				<g>
					<circle fill="#4ABC96" cx="68.457" cy="68.457" r="63.333"/>
				</g>
			</g>
		</g>
	</g>
	<g>
		<g>
			<path fill="#EF5E8F" d="M82.456,24.292l-3.971-1.77L67.36,17.637l-0.838-0.36c-0.09-0.03-0.18-0.064-0.271-0.091
				c-0.512-0.146-1.055-0.226-1.619-0.226c-3.033,0-5.494,2.281-5.494,5.097c0,0.503,0.082,0.987,0.229,1.445l7.535,49.257
				l2.668-0.408L62.599,26.79l-0.502-3.28c-0.549-3.729,3.115-3.633,4.955-3.067l3.059,1.314l7.277,3.231l0.01-0.022l3.969,1.77
				c0.6,0.268,1.33-0.063,1.631-0.737S83.056,24.558,82.456,24.292z"/>
		</g>
		<rect x="65.356" y="75.739" fill="#CFE6E9" width="4.627" height="43.089"/>
		<ellipse fill="#CFE6E9" cx="67.959" cy="118.539" rx="16.194" ry="1.157"/>
		<path opacity="0.8" fill="#CFE6E9" d="M69.868,77.762H65.47c-0.416,0-24.984-25.884-24.984-30.653
			c0-3.277,3.107-3.664,6.941-3.664h40.486c3.832,0,6.939,0,6.939,3.664C94.853,51.957,70.284,77.762,69.868,77.762z"/>
		<path fill="#F1F8F9" d="M67.669,75.642c-2.891,0-14.459-14.219-14.459-14.219l28.773-0.145
			C81.983,61.279,70.562,75.642,67.669,75.642z"/>
		<g>
			<g>
				<g>
					<path fill="#F4E028" d="M91.833,35.914c5.428,2.852,7.559,9.499,4.861,14.967l1.799,0.945
						c3.217-6.458,0.699-14.332-5.719-17.704c-6.42-3.372-14.332-0.976-17.822,5.339l1.799,0.945
						C79.722,35.083,86.405,33.063,91.833,35.914z"/>
				</g>
				<g>
					<path fill="#F9F29A" d="M91.833,35.914c-5.428-2.851-12.111-0.831-15.082,4.492l5.688,3.063l1.447-0.023l1.746,0.047
						l2.367,2.822l8.695,4.566C99.392,45.413,97.261,38.765,91.833,35.914z"/>
				</g>
			</g>
			<g>
				<path fill="#F4E028" d="M87.349,44.738c-0.045,0-0.09-0.012-0.133-0.034c-0.143-0.073-0.197-0.249-0.123-0.39l2.824-5.376
					c0.076-0.141,0.25-0.197,0.391-0.122c0.143,0.074,0.197,0.25,0.123,0.391l-2.824,5.376
					C87.554,44.68,87.454,44.738,87.349,44.738z"/>
			</g>
			<g>
				<path fill="#F4E028" d="M88.896,46.505c-0.123,0-0.238-0.079-0.275-0.204c-0.049-0.152,0.037-0.314,0.189-0.361l5.799-1.806
					c0.154-0.048,0.314,0.038,0.363,0.19c0.047,0.153-0.039,0.314-0.191,0.362l-5.799,1.806
					C88.952,46.501,88.923,46.505,88.896,46.505z"/>
			</g>
			<g>
				<path fill="#F4E028" d="M84.491,43.465l-1.555-5c-0.049-0.152,0.037-0.314,0.189-0.361c0.154-0.049,0.314,0.038,0.363,0.189
					l1.615,5.19L84.491,43.465z"/>
			</g>
		</g>
	</g>
</g>
</svg>
