<?xml version="1.0" encoding="utf-8"?>
<!-- Generator: Adobe Illustrator 16.0.0, SVG Export Plug-In . SVG Version: 6.00 Build 0)  -->
<!DOCTYPE svg PUBLIC "-//W3C//DTD SVG 1.1//EN" "http://www.w3.org/Graphics/SVG/1.1/DTD/svg11.dtd">
<svg version="1.1" id="Layer_1" xmlns="http://www.w3.org/2000/svg" xmlns:xlink="http://www.w3.org/1999/xlink" x="0px" y="0px"
	 width="136.914px" height="136.913px" viewBox="0 0 136.914 136.913" enable-background="new 0 0 136.914 136.913"
	 xml:space="preserve">
<g>
	<g>
		<g>
			<g>
				<g>
					<circle fill="#F3EA83" cx="68.457" cy="68.457" r="63.333"/>
				</g>
			</g>
		</g>
	</g>
	<g>
		<g>
			<g>
				<g>
					<g>
						<path fill-rule="evenodd" clip-rule="evenodd" fill="#F9AB60" d="M59.915,37.182L49.61,102.416l-2.503,0.039l10.335-65.531
							L59.915,37.182z"/>
					</g>
				</g>
				<g>
					<g>
						<g>
							<path fill-rule="evenodd" clip-rule="evenodd" fill="#A6D0EE" d="M60.26,19.959c19.343,2.006,32.007,25.248,32.007,25.248
								c-5.471-3.994-16.084-5.096-21.83-2.266c0,0-5.562-2.773-12.304-3.473c-6.741-0.697-11.905,0.963-11.905,0.963
								c-4.489-3.893-14.787-5.273-21.544-2.236C24.684,38.195,40.919,17.951,60.26,19.959z"/>
						</g>
					</g>
					<g>
						<g>
							<path fill-rule="evenodd" clip-rule="evenodd" fill="#B1D8F2" d="M60.384,19.973c19.903,2.064,32.854,26.771,32.854,26.771
								c-5.616-4.234-16.538-5.365-22.464-2.33c0,0-5.714-2.934-12.651-3.652c-6.938-0.721-12.259,1.068-12.259,1.068
								c-4.607-4.129-15.202-5.561-22.169-2.301C23.695,39.529,40.483,17.906,60.384,19.973z"/>
						</g>
					</g>
					<g>
						<g>
							<path fill-rule="evenodd" clip-rule="evenodd" fill="#D1E8F8" d="M60.26,19.959c6.496,0,10.177,22.982,10.177,22.982
								s-5.562-2.773-12.304-3.473c-6.741-0.697-11.905,0.963-11.905,0.963S53.765,19.959,60.26,19.959z"/>
						</g>
					</g>
					<g>
						
							<ellipse transform="matrix(0.9947 0.103 -0.103 0.9947 2.4027 -6.0968)" fill-rule="evenodd" clip-rule="evenodd" fill="#4B4A4B" cx="60.234" cy="20.216" rx="1.602" ry="1.024"/>
					</g>
				</g>
			</g>
			<g>
				<path fill-rule="evenodd" clip-rule="evenodd" fill="#B17B48" d="M60.042,103.455c0,1.609-1.305,1.361-2.914,1.361H40.034
					c-1.609,0-2.914,0.248-2.914-1.361v-1.553c0-1.609,1.305-2.914,2.914-2.914h17.095c1.609,0,2.914,1.305,2.914,2.914V103.455z"/>
			</g>
		</g>
		<g>
			<g>
				<path fill="#996B39" d="M83.413,100.023c-0.354,0-0.68-0.232-0.782-0.59l-4.354-15.158c-0.124-0.432,0.126-0.883,0.558-1.008
					c0.431-0.125,0.883,0.125,1.007,0.559l4.354,15.158c0.124,0.432-0.125,0.883-0.558,1.008
					C83.562,100.014,83.487,100.023,83.413,100.023z"/>
			</g>
			<g>
				<path fill="#E3B071" d="M60.078,113.229c-0.153,0-0.309-0.043-0.446-0.135c-0.375-0.246-0.48-0.75-0.233-1.127l32.921-50.105
					c0.248-0.377,0.753-0.479,1.128-0.234c0.375,0.248,0.48,0.752,0.233,1.129l-32.922,50.105
					C60.602,113.1,60.342,113.229,60.078,113.229z"/>
			</g>
			<g>
				<path fill="#996B39" d="M106.205,106.174c-0.347,0-0.667-0.223-0.776-0.57L92.03,62.768c-0.134-0.43,0.105-0.887,0.533-1.02
					c0.434-0.135,0.886,0.104,1.021,0.533l13.398,42.834c0.134,0.43-0.105,0.887-0.534,1.021
					C106.367,106.162,106.285,106.174,106.205,106.174z"/>
			</g>
			<g>
				<path fill="#996B39" d="M108.184,106.758c-0.067,0-0.136-0.008-0.204-0.025l-25.313-6.555c-0.436-0.113-0.697-0.557-0.584-0.992
					c0.112-0.434,0.556-0.693,0.992-0.584l25.313,6.555c0.436,0.113,0.697,0.557,0.584,0.992
					C108.876,106.516,108.546,106.758,108.184,106.758z"/>
			</g>
			<g>
				<path fill="#AA7243" d="M106.206,106.174c-0.059,0-0.118-0.006-0.178-0.02l-23.878-5.338c-0.439-0.098-0.715-0.533-0.617-0.971
					c0.098-0.439,0.533-0.715,0.972-0.617l23.878,5.336c0.438,0.1,0.715,0.533,0.617,0.973
					C106.915,105.916,106.579,106.174,106.206,106.174z"/>
			</g>
			<g>
				<path fill="#B17B48" d="M85.754,118.516c-0.067,0-0.137-0.008-0.205-0.025l-25.313-6.555c-0.435-0.113-0.696-0.557-0.584-0.992
					c0.112-0.434,0.557-0.695,0.992-0.584l25.313,6.555c0.436,0.113,0.697,0.557,0.584,0.992
					C86.447,118.273,86.116,118.516,85.754,118.516z"/>
			</g>
			<g>
				<path fill="#B17B48" d="M83.775,101.199c-0.065,0-0.132-0.008-0.198-0.025l-23.515-5.879c-0.437-0.107-0.701-0.551-0.592-0.986
					c0.108-0.436,0.547-0.701,0.987-0.592l23.515,5.879c0.436,0.109,0.701,0.551,0.592,0.986
					C84.472,100.951,84.139,101.199,83.775,101.199z"/>
			</g>
			<g>
				<path fill="#D1E8F8" d="M91.778,63.664c-6.944,29.367-20.346,31.889-27.047,31.123l-4.021-1.004l-0.407,1.627l21.119,5.291
					l0.995-1.492l13.838,3.211c15.472-4.127,18.586-36.043,18.586-36.043L91.778,63.664z"/>
			</g>
			<g>
				<path fill="#A6D0EE" d="M78.122,99.797l3.301,0.904l0.995-1.492l13.838,3.211c15.472-4.127,18.586-36.043,18.586-36.043
					l-5.109-0.541C109.053,106.717,78.122,99.797,78.122,99.797z"/>
			</g>
			<g>
				<path fill="#A6D0EE" d="M91.778,63.664c-6.944,29.367-20.346,31.889-27.047,31.123l-4.021-1.004l-0.407,1.627l5.065,1.221
					c0,0,22.449,5.938,30.932-32.424L91.778,63.664z"/>
			</g>
			<g>
				<path fill="#E3B071" d="M84.678,120.283c-0.137,0-0.275-0.035-0.403-0.107c-0.391-0.225-0.525-0.721-0.303-1.111l30.751-53.725
					c0.225-0.391,0.721-0.525,1.111-0.301c0.39,0.223,0.524,0.721,0.302,1.109l-30.751,53.725
					C85.235,120.137,84.96,120.283,84.678,120.283z"/>
			</g>
			<g>
				<path fill="#A6D0EE" d="M100.958,64.795l4.612,0.498c0,0-1.718,34.91-30.841,33.645l-4.161-0.994
					C70.569,97.943,97.838,98.305,100.958,64.795z"/>
			</g>
		</g>
	</g>
</g>
</svg>
