<?xml version="1.0" encoding="utf-8"?>
<!-- Generator: Adobe Illustrator 16.0.0, SVG Export Plug-In . SVG Version: 6.00 Build 0)  -->
<!DOCTYPE svg PUBLIC "-//W3C//DTD SVG 1.1//EN" "http://www.w3.org/Graphics/SVG/1.1/DTD/svg11.dtd">
<svg version="1.1" id="Layer_1" xmlns="http://www.w3.org/2000/svg" xmlns:xlink="http://www.w3.org/1999/xlink" x="0px" y="0px"
	 width="136.914px" height="136.913px" viewBox="0 0 136.914 136.913" enable-background="new 0 0 136.914 136.913"
	 xml:space="preserve">
<g>
	<g>
		<g>
			<g>
				<g>
					<circle fill="#49A0AE" cx="68.457" cy="68.457" r="63.333"/>
				</g>
			</g>
		</g>
	</g>
	<g>
		<path fill="#D3E4E8" d="M106.944,40.582v-2.475l-8.213-8.213h-2.533c-0.711,1.611-2.32,2.736-4.193,2.736
			c-1.875,0-3.484-1.125-4.195-2.736h-1.643c-0.709,1.611-2.318,2.736-4.191,2.736c-1.875,0-3.484-1.125-4.195-2.736h-1.73
			c-0.711,1.611-2.318,2.736-4.193,2.736c-1.873,0-3.482-1.125-4.193-2.736h-1.674c-0.709,1.611-2.318,2.736-4.193,2.736
			c-1.873,0-3.482-1.125-4.193-2.736h-1.465c-0.709,1.611-2.318,2.736-4.193,2.736c-1.873,0-3.482-1.125-4.191-2.736h-1.732
			c-0.711,1.611-2.32,2.736-4.195,2.736c-1.873,0-3.482-1.125-4.193-2.736h-2.473l-8.213,8.213v2.533
			c1.611,0.711,2.736,2.318,2.736,4.193s-1.125,3.482-2.736,4.193l-0.002,1.643c1.611,0.711,2.738,2.318,2.738,4.193
			s-1.127,3.482-2.738,4.193v1.73c1.611,0.711,2.738,2.32,2.738,4.195c0,1.873-1.127,3.482-2.738,4.191v1.676
			c1.611,0.709,2.738,2.318,2.738,4.193c0,1.873-1.127,3.482-2.738,4.193v1.463c1.611,0.711,2.738,2.32,2.738,4.193
			c0,1.875-1.127,3.482-2.738,4.193v1.732c1.611,0.711,2.738,2.32,2.738,4.195c0,1.873-1.127,3.482-2.738,4.191v2.475l8.215,8.213
			h2.533c0.711-1.611,2.318-2.736,4.193-2.736c1.873,0,3.482,1.125,4.193,2.736h1.643c0.711-1.611,2.318-2.736,4.193-2.736
			s3.482,1.125,4.193,2.736h1.73c0.711-1.611,2.32-2.736,4.195-2.736c1.873,0,3.482,1.125,4.191,2.736h1.674
			c0.711-1.611,2.32-2.736,4.193-2.736c1.875,0,3.484,1.125,4.193,2.736h1.465c0.711-1.611,2.32-2.736,4.193-2.736
			c1.875,0,3.482,1.125,4.193,2.736h1.732c0.711-1.611,2.32-2.736,4.193-2.736c1.875,0,3.482,1.125,4.193,2.736h2.475l8.213-8.213
			v-2.533c-1.611-0.711-2.738-2.32-2.738-4.193s1.127-3.484,2.738-4.193v-1.645c-1.611-0.709-2.738-2.318-2.738-4.191
			c0-1.875,1.127-3.484,2.738-4.193v-1.732c-1.611-0.709-2.738-2.318-2.738-4.193c0-1.873,1.127-3.482,2.738-4.193v-1.672
			c-1.611-0.711-2.738-2.32-2.738-4.193c0-1.875,1.127-3.484,2.738-4.195v-1.465c-1.611-0.709-2.738-2.318-2.738-4.193
			c0-1.873,1.127-3.482,2.738-4.191v-1.732c-1.611-0.711-2.738-2.32-2.738-4.193C104.206,42.9,105.333,41.293,106.944,40.582z"/>
		<rect x="38.493" y="39.756" fill="#357180" width="56.904" height="58.607"/>
		<g>
			<defs>
				<rect id="SVGID_5_" x="38.493" y="39.756" width="56.904" height="58.607"/>
			</defs>
			<clipPath id="SVGID_2_">
				<use xlink:href="#SVGID_5_"  overflow="visible"/>
			</clipPath>
			<g clip-path="url(#SVGID_2_)">
				<path fill="#E84849" d="M83.46,117.535c0,4.355-3.213,7.887-7.18,7.887H56.687c-3.967,0-7.18-3.531-7.18-7.887
					c0,0,1.645-17.088,2.99-21.357c1.346-4.271,3.215-7.887,7.182-7.887h14.209c3.965,0,6.133,2.629,7.18,7.887
					C82.114,101.434,83.46,117.535,83.46,117.535z"/>
				<path fill="#FFFFFF" d="M78.13,117.398c0,4.299-2.205,7.785-4.926,7.785H59.763c-2.721,0-4.926-3.486-4.926-7.785
					c0,0,1.129-16.869,2.051-21.084c0.926-4.217,2.207-7.787,4.928-7.787h9.748c2.719,0,4.207,2.596,4.924,7.787
					C77.208,101.504,78.13,117.398,78.13,117.398z"/>
				<path fill="#626463" d="M75.351,117.057c0,4.27-1.68,7.73-3.752,7.73H61.366c-2.07,0-3.75-3.461-3.75-7.73
					c0,0,0.859-16.75,1.563-20.936c0.703-4.188,1.678-7.732,3.75-7.732h7.422c2.072,0,3.203,2.578,3.75,7.732
					C74.647,101.273,75.351,117.057,75.351,117.057z"/>
				<path fill="#D7C9CA" d="M74.009,117.057c0,4.27-1.424,7.73-3.182,7.73H62.14c-1.758,0-3.184-3.461-3.184-7.73
					c0,0,0.73-16.75,1.326-20.936c0.598-4.188,1.426-7.732,3.186-7.732h6.297c1.76,0,2.721,2.578,3.184,7.732
					C73.413,101.273,74.009,117.057,74.009,117.057z"/>
			</g>
			<g clip-path="url(#SVGID_2_)">
				<g>
					<circle fill="#E9C29C" cx="66.921" cy="74.582" r="12.01"/>
					<path fill="#A46434" d="M78.931,74.582l-8.188-7.367c0,0-1.744,2.887-6.396,4.99c-4.484,2.027-9.436,2.377-9.436,2.377
						c0-6.633,5.377-12.01,12.008-12.01C73.554,62.572,78.931,67.949,78.931,74.582z"/>
					<g>
						<ellipse fill="#343433" cx="63.32" cy="76.367" rx="1.646" ry="1.736"/>
						<ellipse fill="#343433" cx="70.452" cy="76.367" rx="1.645" ry="1.736"/>
						<ellipse fill="#FFFFFF" cx="70.965" cy="75.707" rx="0.657" ry="0.697"/>
						<ellipse fill="#FFFFFF" cx="63.817" cy="75.707" rx="0.658" ry="0.697"/>
					</g>
				</g>
			</g>
			<g clip-path="url(#SVGID_2_)">
				<g>
					<path fill="#DEBA24" d="M79.829,68.902c0,1.428-1.154,2.582-2.58,2.582c0,0-3.561-0.914-10.285-0.914
						s-10.186,0.914-10.186,0.914c-1.426,0-2.584-1.154-2.584-2.582l-0.389-8.389c0-1.428,1.154-2.582,2.58-2.582h21.729
						c1.424,0,2.582,1.154,2.582,2.582L79.829,68.902z"/>
				</g>
				<g>
					<path fill="#DEBA24" d="M62.29,66.498c0.629,1.145,0.209,2.582-0.938,3.213l0,0c-1.146,0.629-2.582,0.211-3.213-0.938
						l-8.086-15.102c-0.627-1.148-0.209-2.584,0.938-3.213l0,0c1.145-0.631,2.584-0.211,3.211,0.934L62.29,66.498z"/>
				</g>
				<g>
					<path fill="#DEBA24" d="M72.212,66.498c-0.629,1.145-0.211,2.582,0.936,3.213l0,0c1.145,0.629,2.586,0.211,3.213-0.938
						l8.086-15.102c0.629-1.148,0.211-2.584-0.936-3.213l0,0c-1.145-0.631-2.584-0.211-3.215,0.934L72.212,66.498z"/>
				</g>
				<g>
					<path fill="#DEBA24" d="M69.892,66.488c0.004,1.305-1.049,2.371-2.355,2.377l0,0c-1.309,0.006-2.371-1.049-2.377-2.357
						l0.098-17.129c-0.008-1.307,1.049-2.369,2.354-2.377l0,0c1.309-0.008,2.373,1.047,2.381,2.354L69.892,66.488z"/>
				</g>
				<g>
					<path fill="#DEBA24" d="M53.124,50.404c0,0,7.242,4.482,12.693-2.545l-0.395,10.359l-7.6,0.861L53.124,50.404z"/>
				</g>
				<g>
					<path fill="#DEBA24" d="M81.521,50.332c0,0-6.453,4.84-11.904-2.188l-0.287,10.254l7.602,0.859L81.521,50.332z"/>
				</g>
				<g>
					<circle fill="#DEBA24" cx="50.256" cy="50.189" r="3.263"/>
				</g>
				<g>
					<path fill="#DEBA24" d="M70.763,46.566c0,1.803-1.461,3.266-3.26,3.266c-1.803,0-3.262-1.463-3.262-3.266
						c0-1.801,1.459-3.262,3.262-3.262C69.302,43.305,70.763,44.766,70.763,46.566z"/>
				</g>
				<g>
					<circle fill="#DEBA24" cx="84.173" cy="50.117" r="3.262"/>
				</g>
				<g opacity="0.4">
					<g>
						<path fill="#F6E568" d="M68.478,64.617c0,0.268-0.35,0.486-0.783,0.486l0,0c-0.438,0-0.789-0.219-0.789-0.486v-9.193
							c0-0.268,0.352-0.484,0.789-0.484l0,0c0.434,0,0.783,0.217,0.783,0.484V64.617z"/>
					</g>
				</g>
				<g opacity="0.4">
					<g>
						<path fill="#F6E568" d="M73.45,65.789c-0.145,0.225-0.564,0.209-0.938-0.033l0,0c-0.369-0.244-0.553-0.625-0.406-0.846
							l4.064-6.205c0.145-0.225,0.563-0.211,0.936,0.035l0,0c0.371,0.242,0.555,0.619,0.408,0.84L73.45,65.789z"/>
					</g>
				</g>
				<g opacity="0.4">
					<g>
						<path fill="#F6E568" d="M61.349,65.789c0.145,0.225,0.564,0.209,0.936-0.033l0,0c0.371-0.244,0.553-0.625,0.406-0.846
							l-4.064-6.205c-0.146-0.225-0.566-0.211-0.936,0.035l0,0c-0.371,0.242-0.555,0.619-0.406,0.84L61.349,65.789z"/>
					</g>
				</g>
				<g opacity="0.4">
					<g>
						<path fill="#F6E568" d="M47.628,50.945c-0.572-0.574,0.057-2.162,0.631-2.734c0.574-0.574,1.961-1.117,2.535-0.545
							C51.366,48.242,48.202,51.518,47.628,50.945z"/>
					</g>
				</g>
				<g opacity="0.4">
					<g>
						<path fill="#F6E568" d="M64.858,47.215c-0.574-0.572,0.055-2.16,0.631-2.732c0.572-0.576,1.959-1.121,2.531-0.545
							C68.595,44.51,65.431,47.787,64.858,47.215z"/>
					</g>
				</g>
				<g opacity="0.4">
					<g>
						<path fill="#F6E568" d="M81.554,50.678c-0.574-0.574,0.057-2.16,0.629-2.732c0.572-0.574,1.961-1.119,2.535-0.547
							C85.29,47.975,82.128,51.252,81.554,50.678z"/>
					</g>
				</g>
				<g>
					<path fill="#B8972F" d="M79.829,68.902c0,1.428-1.154,2.582-2.58,2.582c0,0-5.34-0.914-10.285-0.914
						c-4.943,0-10.186,0.914-10.186,0.914c-1.426,0-2.584-1.154-2.584-2.582c0,0,5.699-0.951,12.818-0.951
						C74.134,67.951,79.829,68.902,79.829,68.902z"/>
				</g>
			</g>
			<g clip-path="url(#SVGID_2_)">
				<path fill="#FFFFFF" d="M87.323,80.965H86.05v-4.809c0.48,0.053,0.938,0.209,1.369,0.469s1.004,0.775,1.717,1.543
					c0.576,0.619,0.967,0.996,1.172,1.137c0.283,0.189,0.563,0.283,0.84,0.283c0.305,0,0.541-0.082,0.705-0.246
					s0.246-0.393,0.246-0.682c0-0.287-0.086-0.514-0.258-0.684c-0.174-0.17-0.459-0.268-0.859-0.293l0.137-1.367
					c0.754,0.082,1.297,0.338,1.625,0.768s0.494,0.967,0.494,1.611c0,0.707-0.191,1.26-0.572,1.664s-0.854,0.605-1.42,0.605
					c-0.322,0-0.629-0.057-0.92-0.172c-0.293-0.117-0.598-0.301-0.916-0.551c-0.213-0.166-0.518-0.465-0.914-0.898
					s-0.66-0.707-0.791-0.822s-0.258-0.209-0.381-0.281V80.965z"/>
				<path fill="#FFFFFF" d="M87.89,81.912l0.143,1.367c-0.311,0.039-0.555,0.154-0.734,0.348c-0.182,0.191-0.271,0.412-0.271,0.664
					c0,0.285,0.115,0.527,0.35,0.727c0.232,0.199,0.582,0.299,1.051,0.299c0.439,0,0.77-0.1,0.99-0.295
					c0.219-0.197,0.328-0.455,0.328-0.77c0-0.395-0.174-0.748-0.521-1.061l0.16-1.113l3.727,0.703v3.629h-1.285v-2.588l-1.215-0.215
					c0.152,0.305,0.229,0.617,0.229,0.938c0,0.607-0.221,1.123-0.664,1.547s-1.018,0.635-1.723,0.635
					c-0.59,0-1.115-0.17-1.578-0.512c-0.631-0.467-0.947-1.113-0.947-1.939c0-0.66,0.178-1.199,0.533-1.615
					C86.813,82.242,87.29,81.994,87.89,81.912z"/>
				<path fill="#FFFFFF" d="M88.681,95.115l-0.443,1.402c-0.781-0.215-1.361-0.572-1.74-1.072c-0.381-0.5-0.57-1.135-0.57-1.902
					c0-0.951,0.326-1.732,0.975-2.344c0.65-0.611,1.537-0.918,2.664-0.918c1.191,0,2.117,0.309,2.775,0.924
					c0.66,0.615,0.988,1.424,0.988,2.426c0,0.875-0.258,1.588-0.775,2.135c-0.307,0.324-0.746,0.568-1.318,0.732l-0.342-1.432
					c0.371-0.084,0.664-0.26,0.879-0.529c0.215-0.268,0.322-0.596,0.322-0.979c0-0.531-0.191-0.961-0.572-1.291
					c-0.381-0.332-0.998-0.496-1.85-0.496c-0.906,0-1.551,0.162-1.934,0.488c-0.385,0.324-0.576,0.748-0.576,1.27
					c0,0.383,0.121,0.713,0.365,0.99S88.157,94.994,88.681,95.115z"/>
			</g>
		</g>
	</g>
</g>
</svg>
