<?xml version="1.0" encoding="utf-8"?>
<!-- Generator: Adobe Illustrator 16.0.0, SVG Export Plug-In . SVG Version: 6.00 Build 0)  -->
<!DOCTYPE svg PUBLIC "-//W3C//DTD SVG 1.1//EN" "http://www.w3.org/Graphics/SVG/1.1/DTD/svg11.dtd">
<svg version="1.1" id="Layer_1" xmlns="http://www.w3.org/2000/svg" xmlns:xlink="http://www.w3.org/1999/xlink" x="0px" y="0px"
	 width="136.913px" height="136.913px" viewBox="0 0 136.913 136.913" enable-background="new 0 0 136.913 136.913"
	 xml:space="preserve">
<g>
	<g>
		<g>
			<g>
				<g>
					<circle fill="#D1E8F8" cx="68.457" cy="68.457" r="63.333"/>
				</g>
			</g>
		</g>
	</g>
	<g>
		<path fill="#D1E8F8" d="M118.101,85.643c0,11.926-19.279,21.592-50.832,21.592c-31.552,0-48.133-7.867-48.133-19.793
			c0-11.924,16.131-13.496,47.683-13.496C98.372,73.945,118.101,73.717,118.101,85.643z"/>
		<g>
			<path fill="#B5D8E5" d="M28.76,93.744c6.83,6.146,21.852,8.055,38.344,8.055c14.053,0,19.173-8.453,27.069-13.23
				c7.568-4.578,24.342,2.564,18.676-13.703c-9.827-2.543-25.852-2.459-46.34-2.459c-18.757,0-32.636,0.498-41.514,2.971
				C24.963,83.371,24.182,89.623,28.76,93.744z"/>
		</g>
		<path fill="#F3ED73" d="M100.477,75c4.744,12.541-7.671,7.152-13.218,10.506c-5.688,3.441-9.375,9.529-19.495,9.529
			c-11.877,0-22.697-1.373-27.614-5.801c-3.36-3.023-2.711-7.641-2.711-13.557c0-2.711,19.995-15.25,31.857-15.25
			S98.917,70.881,100.477,75z"/>
		<g>
			<path fill="#F6F19B" d="M100.477,73.08c4.744,12.539-7.671,7.152-13.218,10.506c-5.688,3.441-9.375,9.529-19.495,9.529
				c-11.877,0-22.697-1.373-27.614-5.801c-3.36-3.023-2.711-7.641-2.711-13.557c0-2.711,19.995-15.25,31.857-15.25
				S98.917,68.959,100.477,73.08z"/>
			<path opacity="0.15" fill="#5C5C5C" d="M83.188,72.686c0-0.566-0.087-1.119-0.223-1.662c3.591-0.479,7.714-0.365,12.287,0.883
				c0,0-7.47-11.494-16.97-6.596c-1.307-0.787-2.819-1.416-4.481-1.844c0.004-0.148,0.015-0.293,0.015-0.439
				c0,0-2.327-1.527-4.771-1.75c-0.004,0-0.008-0.004-0.013-0.004c-0.023-0.002-0.046-0.002-0.069-0.006
				c-0.032,0-0.063-0.002-0.096-0.006c-0.099-0.006-0.196-0.01-0.295-0.01c-0.043-0.002-0.085-0.002-0.127,0
				c-0.09,0-0.178,0.002-0.267,0.006c-0.046,0.004-0.093,0.006-0.139,0.01c-0.085,0.008-0.17,0.016-0.254,0.027
				c-0.047,0.006-0.095,0.012-0.142,0.02c-0.085,0.014-0.169,0.029-0.253,0.049c-0.045,0.01-0.091,0.018-0.135,0.029
				c-0.092,0.021-0.182,0.049-0.271,0.078c-0.035,0.014-0.071,0.021-0.107,0.033c-0.249,0.09-0.49,0.201-0.725,0.344
				c-0.035,0.02-0.071,0.047-0.107,0.07c-0.079,0.051-0.157,0.104-0.233,0.162c-0.042,0.031-0.083,0.066-0.124,0.102
				c-0.068,0.057-0.136,0.113-0.202,0.176c-0.043,0.043-0.084,0.086-0.127,0.127c-0.063,0.064-0.123,0.131-0.183,0.201
				c-0.041,0.047-0.082,0.098-0.122,0.15c-0.059,0.072-0.114,0.15-0.17,0.23c-0.022,0.035-0.047,0.07-0.07,0.104
				c-1.92,0.355-3.683,0.965-5.199,1.781c-3.175-2.174-7.531-2.082-13.41,3.488c0,0,3.795,0.377,8.288,1.971
				c-0.017,0.047-0.037,0.092-0.052,0.137C38.416,66.047,34.187,83.6,34.187,83.6c5.731-6.461,13.816-7.955,20.666-7.77
				c0.65,1.314,1.698,2.5,3.045,3.502c-25.66,7.461-8.986,20.4-8.986,20.4c0.235-9.17,6.401-15.145,11.992-18.693
				c2.242,0.959,4.889,1.521,7.733,1.521c5.303,0,9.929-1.93,12.473-4.807c3.215,0.789,6.675,2.275,10.138,4.873
				C91.248,82.627,88.487,75.736,83.188,72.686z"/>
		</g>
		<g>
			<g>
				<path fill="#905C25" d="M66.728,45.418c0,0-2.021,24.234-3.703,26.592l6.06,3.365l4.375-2.691c0,0,2.357-16.496-4.038-27.939
					L66.728,45.418z"/>
			</g>
			<g>
				<path fill="#A46828" d="M66.728,45.418c0,0-2.021,24.234-3.703,26.592l6.06,3.365c0,0,2.805-15.932,0.337-30.631L66.728,45.418z
					"/>
			</g>
			<g>
				<g>
					<path fill="#68B147" d="M69.421,40.367c0,0,11.219-10.77,28.499-6.059C97.92,34.309,83.783,12.541,69.421,40.367z"/>
				</g>
				<g>
					<path fill="#86C06D" d="M69.421,40.367c0,0,11.219-10.77,28.499-6.059C97.92,34.309,83.11,19.723,69.421,40.367z"/>
				</g>
			</g>
			<g>
				<g>
					<path fill="#68B147" d="M68.748,41.266c0,0,6.957-7.406,6.957-16.158c0,0-7.854-5.162-10.099,1.795
						C65.606,26.902,65.606,34.084,68.748,41.266z"/>
				</g>
				<g>
					<path fill="#86C06D" d="M68.748,41.266c0,0,4.537-17.748,1.999-17.975c-2.033-0.18-4.142,0.516-5.141,3.611
						C65.606,26.902,65.606,34.084,68.748,41.266z"/>
				</g>
			</g>
			<g>
				<g>
					<path fill="#68B147" d="M47.092,30.717c0,0,16.157,1.572,21.768,12.119C68.86,42.836,64.147,14.561,47.092,30.717z"/>
				</g>
				<g>
					<path fill="#86C06D" d="M47.092,30.717c0,0,16.157,1.572,21.768,12.119C68.86,42.836,62.127,21.518,47.092,30.717z"/>
				</g>
			</g>
			<g>
				<path fill="#F1E042" d="M73.011,42.162c1.077,1.547,0.215,2.533-0.915,3.318c-1.129,0.789-2.097,1.078-3.175-0.467
					c-1.078-1.547-1.855-4.342-0.726-5.129C69.325,39.098,71.934,40.617,73.011,42.162z"/>
			</g>
			<g>
				<path fill="#FCEE35" d="M67.554,44.971c-1.205,1.516-2.521,1.326-3.629,0.445s-1.589-2.119-0.384-3.635
					c1.205-1.518,4.115-2.359,4.748-1.857C68.641,40.205,68.76,43.453,67.554,44.971z"/>
			</g>
			<g>
				<path fill="#FCEF57" d="M71.609,44.855c0,2.416-1.432,3.256-3.198,3.256c-1.766,0-3.197-0.84-3.197-3.256
					s2.188-5.498,3.197-5.498C68.972,39.357,71.609,42.439,71.609,44.855z"/>
			</g>
			<g>
				<g>
					<path fill="#68B147" d="M66.839,41.377c0,0,13.465-6.059,26.93,4.041C93.769,45.418,84.343,21.854,66.839,41.377z"/>
				</g>
				<g>
					<path fill="#86C06D" d="M66.839,41.377c0,0,13.465-6.059,26.93,4.041C93.769,45.418,82.773,27.463,66.839,41.377z"/>
				</g>
			</g>
			<g>
				<g>
					<g>
						<path fill="#68B147" d="M85.324,58.6c0,0-11.813-18.541-19.524-17.557C65.799,41.043,86.308,30.871,85.324,58.6z"/>
					</g>
				</g>
				<g>
					<g>
						<path fill="#86C06D" d="M85.324,58.6c0,0-11.813-18.541-19.524-17.557C65.799,41.043,78.925,34.809,85.324,58.6z"/>
					</g>
				</g>
			</g>
			<g>
				<g>
					<path fill="#68B147" d="M69.87,40.816c0,0-22.891-8.303-35.232,5.609C34.637,46.426,41.371,18.377,69.87,40.816z"/>
				</g>
				<g>
					<path fill="#86C06D" d="M69.87,40.816c0,0-22.891-8.303-35.232,5.609C34.637,46.426,42.042,25.781,69.87,40.816z"/>
				</g>
			</g>
			<g>
				<g>
					<path fill="#68B147" d="M71.665,39.357c0,0-21.319,6.285-21.768,23.789C49.897,63.146,27.906,46.09,71.665,39.357z"/>
				</g>
				<g>
					<path fill="#86C06D" d="M71.665,39.357c0,0-21.319,6.285-21.768,23.789C49.897,63.146,34.414,46.988,71.665,39.357z"/>
				</g>
			</g>
		</g>
	</g>
</g>
</svg>
