<?xml version="1.0" encoding="utf-8"?>
<!-- Generator: Adobe Illustrator 16.0.0, SVG Export Plug-In . SVG Version: 6.00 Build 0)  -->
<!DOCTYPE svg PUBLIC "-//W3C//DTD SVG 1.1//EN" "http://www.w3.org/Graphics/SVG/1.1/DTD/svg11.dtd">
<svg version="1.1" id="Layer_1" xmlns="http://www.w3.org/2000/svg" xmlns:xlink="http://www.w3.org/1999/xlink" x="0px" y="0px"
	 width="136.914px" height="136.913px" viewBox="0 0 136.914 136.913" enable-background="new 0 0 136.914 136.913"
	 xml:space="preserve">
<g>
	<g>
		<g>
			<g>
				<g>
					<circle fill="#A2D4DE" cx="68.457" cy="68.457" r="63.333"/>
				</g>
			</g>
		</g>
	</g>
	<g>
		<path fill="#E8D7C8" d="M114.442,71.307c2.004,0,3.627-0.088,3.627,2.148l0,0c0,2.238-1.623,4.053-3.627,4.053H26.892
			c-2.002,0-3.625-1.814-3.625-4.053l0,0c0-2.236-1.811-1.66,3.549-2.852C32.177,69.412,114.442,71.307,114.442,71.307z"/>
		<path fill="#B2987A" d="M29.716,87.789c0,2.373-1.723,4.299-3.848,4.299l0,0c-2.125,0-3.848-1.926-3.848-4.299V49.311
			c0-2.373,1.723-4.299,3.848-4.299l0,0c2.125,0,3.848,1.926,3.848,4.299V87.789z"/>
		<path fill="#A38669" d="M29.716,87.789c0,2.373-1.723,4.299-3.848,4.299l0,0c-2.125,0-2.125-47.076,0-47.076l0,0
			c2.125,0,3.848,1.926,3.848,4.299V87.789z"/>
		<path fill="#9A8267" d="M29.716,87.789c0,2.373-1.723,4.299-3.848,4.299l0,0c-2.125,0-3.848-1.926-3.848-4.299v-6.672l7.695-0.273
			V87.789z"/>
		<path fill="#B2987A" d="M119.315,87.789c0,2.373-1.723,4.299-3.848,4.299l0,0c-2.125,0-3.848-1.926-3.848-4.299V54.635
			c0-2.375,1.723-4.299,3.848-4.299l0,0c2.125,0,3.848,1.924,3.848,4.299V87.789z"/>
		<path fill="#A38669" d="M119.315,87.789c0,2.373-1.723,4.299-3.848,4.299l0,0c-2.125,0-2.125-41.752,0-41.752l0,0
			c2.125,0,3.848,1.924,3.848,4.299V87.789z"/>
		<path fill="#9A8267" d="M119.315,87.789c0,2.373-1.723,4.299-3.848,4.299l0,0c-2.125,0-3.848-1.926-3.848-4.299v-6.063
			l7.695-1.088V87.789z"/>
		<path fill="#9A8267" d="M117.116,74.07c2.125,0,3.848,1.924,3.848,4.299l0,0c0,2.375-1.723,4.301-3.848,4.301H24.218
			c-2.125,0-3.848-1.926-3.848-4.301l0,0c0-2.375,1.723-4.299,3.848-4.299H117.116z"/>
		<path fill="#B2987A" d="M117.116,74.07c2.125,0,3.848,1.924,3.848,4.299l0,0c0,2.375-100.594,2.375-100.594,0l0,0
			c0-2.375,1.723-4.299,3.848-4.299H117.116z"/>
		<path fill="#B5AFA9" d="M29.993,71.58c-0.104,0-0.205,0.002-0.307,0.004l-0.049-7.977c0.611-0.482,1.379-0.811,2.34-0.854
			c4.58-0.205,15.873,1.137,15.996,5.563c0.094,3.406-1.131,4.018-2.523,4.018L29.993,71.58z"/>
		<path fill="#AAA198" d="M29.993,71.58c-0.104,0-0.205,0.002-0.307,0.004l-0.025-4.156c0,0,18.205,0.488,18.205,2.699
			c0,1.855-1.318,2.207-2.416,2.207L29.993,71.58z"/>
		<path fill="#AAA198" d="M111.595,65.105l-54.971-3.148c-1.395,0-9.408-0.145-11.973,2.994c-2.057,2.518-1.344,7.973-1.344,7.973
			s14.416-0.488,28.707,0.246c14.293,0.732,38.725,3.664,38.725,3.664C112.134,76.834,111.595,65.105,111.595,65.105z"/>
		<path fill="#B5AFA9" d="M111.595,64.619l-54.971-3.15c-1.395,0-9.408-0.146-11.973,2.994c-2.057,2.518-1.344,7.973-1.344,7.973
			s14.416-0.488,28.707,0.244c14.293,0.732,38.725,3.666,38.725,3.666C112.134,76.346,111.595,64.619,111.595,64.619z"/>
		<path fill="#AAA198" d="M56.624,61.469c-1.395,0-9.408-0.146-11.973,2.994c-2.057,2.518-1.344,7.973-1.344,7.973l4.707-0.107
			C48.015,64.16,56.624,61.469,56.624,61.469z"/>
	</g>
</g>
</svg>
