<?xml version="1.0" encoding="utf-8"?>
<!-- Generator: Adobe Illustrator 16.0.0, SVG Export Plug-In . SVG Version: 6.00 Build 0)  -->
<!DOCTYPE svg PUBLIC "-//W3C//DTD SVG 1.1//EN" "http://www.w3.org/Graphics/SVG/1.1/DTD/svg11.dtd">
<svg version="1.1" id="Layer_1" xmlns="http://www.w3.org/2000/svg" xmlns:xlink="http://www.w3.org/1999/xlink" x="0px" y="0px"
	 width="214.606px" height="238.202px" viewBox="0 0 214.606 238.202" enable-background="new 0 0 214.606 238.202"
	 xml:space="preserve">
<g>
	<path d="M114.906,92.129c0,0-20.166,0.531-13.541,28.238l9.56-4.033l2.783,8.65l7.651-4.99l-0.472,8.984
		c0,0,21.43-12.049,20.794-19.873l-6.004-11.32l-5.168,7.367l-2.834-8.633l-6.788,5.484L114.906,92.129z"/>
	<path fill="#D1D3D4" d="M109.638,91.35c0,0-26.821,4.262-45.037,15.781c0,0,7.597,38.543,50.743,24.182
		C115.344,131.312,82.574,121.236,109.638,91.35z"/>
	<path fill="none" stroke="#000000" stroke-width="4.4192" stroke-miterlimit="10" d="M16.585,140.045
		c-5.624,17.92,3.379,31.414,13.658,37.074c16.347,9.004,47.176-5.461,36.301-65.312"/>
	<path fill="none" stroke="#000000" stroke-width="4.4192" stroke-miterlimit="10" d="M33.705,206.756
		c0,0,1.11,15.771,11.426,20.836c24.791,12.176,64.438-33.648,21.423-115.514"/>
	<path fill="none" stroke="#000000" stroke-width="4.4192" stroke-miterlimit="10" d="M66.603,113.439
		c14.248,27.357,8.535,63.41-18.444,78.354C30.785,201.41,10.98,196.4,4.742,174.545"/>
	<path fill="none" stroke="#000000" stroke-width="4.4192" stroke-miterlimit="10" d="M139.479,114.223
		c-10.145,11.672-38.837,36.166-68.606,8.02c-14.493-13.699-38.175,1.373-39.731,19.875c-2.466,29.295,27.814,31.893,30.761-3.549"
		/>
	
		<line fill="none" stroke="#000000" stroke-width="2.4525" stroke-miterlimit="10" x1="54.883" y1="150.227" x2="59.505" y2="150.613"/>
	
		<line fill="none" stroke="#000000" stroke-width="3.1956" stroke-miterlimit="10" x1="22.212" y1="152.758" x2="16.188" y2="153.225"/>
	
		<line fill="none" stroke="#000000" stroke-width="3.1956" stroke-miterlimit="10" x1="21.967" y1="158.227" x2="15.94" y2="158.695"/>
	
		<line fill="none" stroke="#000000" stroke-width="2.4525" stroke-miterlimit="10" x1="52.982" y1="153.893" x2="57.605" y2="154.277"/>
	
		<line fill="none" stroke="#000000" stroke-width="3.1956" stroke-miterlimit="10" x1="9.972" y1="175.32" x2="5.977" y2="179.857"/>
	
		<line fill="none" stroke="#000000" stroke-width="2.4525" stroke-miterlimit="10" x1="56.072" y1="146.447" x2="60.526" y2="147.746"/>
	<path fill="#F1F2F2" d="M65.238,105.729c0,0-11.142-27.721-3.162-66.613c1.456-7.094,1.28-7.459-9.422-8.512
		c-1.901,26.912-14.106-17.938-8.996-20.607c7.276-2.619,51.666,11.861,20.191,12.246c1.11,5.811,1.977,10.689,7.688,9.457
		c0,0,83.138,6.383,71.165,75.41c0,0-8.024-18.82-32.187-16.236C110.516,90.873,75.251,98.021,65.238,105.729z"/>
	<path fill="none" stroke="#000000" stroke-width="4.4192" stroke-miterlimit="10" d="M193.537,133.682
		c6.898,17.471-1.113,31.576-10.96,37.961c-15.66,10.156-47.445-2.061-40.896-62.537"/>
	<path fill="none" stroke="#000000" stroke-width="4.4192" stroke-miterlimit="10" d="M181.255,201.451
		c0,0,0.023,15.811-9.901,21.604c-23.854,13.924-66.688-28.936-29.662-113.678"/>
	<path fill="none" stroke="#000000" stroke-width="4.4192" stroke-miterlimit="10" d="M141.711,109.922
		c13.914-37.691-18.957-65.088-39.959-72.705c-13.128-4.762-36.917-4.35-47.881-6.553c-1.484-0.299-2.698,10.98-5.367,7.461
		c-4.438-5.85-6.054-28.971-6.054-28.971s32.534,2.959,30.695,9.215c-2.4,8.172-9.783,0.869-8.899,5.623
		c1.574,8.477-3.897,27.006-5.744,38.688c-2.438,15.426,0.438,33.102,8.071,49.943"/>
	<path fill="none" stroke="#000000" stroke-width="4.4192" stroke-miterlimit="10" d="M141.74,110.74
		c-12.248,28.307-3.962,63.857,24.022,76.824c18.019,8.346,37.413,1.924,42.065-20.322"/>
	<path d="M111.515,78.275c0.081,2.258,1.979,4.025,4.241,3.945c2.261-0.082,4.029-1.98,3.947-4.24
		c-0.081-2.264-1.98-4.029-4.242-3.949C113.199,74.113,111.433,76.012,111.515,78.275z"/>
	<circle cx="133.211" cy="82.438" r="3.546"/>
	<path fill="none" stroke="#000000" stroke-width="4.4192" stroke-miterlimit="10" d="M9.386,96.023
		c-10.214,47.15,21.841,29.34,21.841,29.34c99.495-61.516,107.556-23.973,110.301-16.893"/>
	<path fill="none" stroke="#000000" stroke-width="3.1956" stroke-miterlimit="10" d="M137.216,101.236"/>
	<path fill="none" stroke="#000000" stroke-width="3.1956" stroke-miterlimit="10" d="M109.697,93.307"/>
	<polyline fill="none" stroke="#000000" stroke-width="3.1956" stroke-miterlimit="10" points="135.714,98.148 129.525,105.861 
		127.02,97.078 119.82,102.174 114.451,91.451 	"/>
	<polyline fill="none" stroke="#000000" stroke-width="3.1956" stroke-miterlimit="10" points="100.53,120.988 111.618,116.414 
		113.708,124.984 121.359,119.994 120.976,129.877 	"/>
	
		<line fill="none" stroke="#000000" stroke-width="3.1956" stroke-miterlimit="10" x1="194.401" y1="138.133" x2="188.591" y2="139.789"/>
	
		<line fill="none" stroke="#000000" stroke-width="3.1956" stroke-miterlimit="10" x1="195.248" y1="143.543" x2="189.438" y2="145.201"/>
	
		<line fill="none" stroke="#000000" stroke-width="3.1956" stroke-miterlimit="10" x1="195.342" y1="148.635" x2="189.318" y2="149.104"/>
	
		<line fill="none" stroke="#000000" stroke-width="3.1956" stroke-miterlimit="10" x1="195.097" y1="154.107" x2="189.072" y2="154.572"/>
	
		<line fill="none" stroke="#000000" stroke-width="3.1956" stroke-miterlimit="10" x1="21.271" y1="142.254" x2="15.46" y2="143.912"/>
	
		<line fill="none" stroke="#000000" stroke-width="3.1956" stroke-miterlimit="10" x1="22.118" y1="147.664" x2="16.308" y2="149.324"/>
	
		<line fill="none" stroke="#000000" stroke-width="2.4525" stroke-miterlimit="10" x1="56.813" y1="142.232" x2="61.266" y2="143.531"/>
	
		<line fill="none" stroke="#000000" stroke-width="3.1956" stroke-miterlimit="10" x1="207.345" y1="170.889" x2="201.643" y2="168.889"/>
	
		<line fill="none" stroke="#000000" stroke-width="3.1956" stroke-miterlimit="10" x1="204.912" y1="175.797" x2="199.211" y2="173.799"/>
	
		<line fill="none" stroke="#000000" stroke-width="3.1956" stroke-miterlimit="10" x1="202.049" y1="180.01" x2="196.861" y2="176.914"/>
	
		<line fill="none" stroke="#000000" stroke-width="3.1956" stroke-miterlimit="10" x1="198.689" y1="184.338" x2="193.501" y2="181.238"/>
	
		<line fill="none" stroke="#000000" stroke-width="3.1956" stroke-miterlimit="10" x1="181.345" y1="204.779" x2="175.438" y2="203.5"/>
	
		<line fill="none" stroke="#000000" stroke-width="3.1956" stroke-miterlimit="10" x1="179.539" y1="209.951" x2="173.635" y2="208.672"/>
	
		<line fill="none" stroke="#000000" stroke-width="3.1956" stroke-miterlimit="10" x1="177.219" y1="214.484" x2="171.686" y2="212.053"/>
	
		<line fill="none" stroke="#000000" stroke-width="3.1956" stroke-miterlimit="10" x1="174.422" y1="219.191" x2="168.889" y2="216.766"/>
	
		<line fill="none" stroke="#000000" stroke-width="3.1956" stroke-miterlimit="10" x1="13.608" y1="179.416" x2="9.616" y2="183.951"/>
	
		<line fill="none" stroke="#000000" stroke-width="3.1956" stroke-miterlimit="10" x1="16.44" y1="183.65" x2="11.622" y2="187.299"/>
	
		<line fill="none" stroke="#000000" stroke-width="3.1956" stroke-miterlimit="10" x1="19.19" y1="188.387" x2="14.374" y2="192.037"/>
	
		<line fill="none" stroke="#000000" stroke-width="3.1956" stroke-miterlimit="10" x1="38.398" y1="208.586" x2="34.161" y2="212.895"/>
	
		<line fill="none" stroke="#000000" stroke-width="3.1956" stroke-miterlimit="10" x1="41.804" y1="212.873" x2="37.569" y2="217.184"/>
	
		<line fill="none" stroke="#000000" stroke-width="3.1956" stroke-miterlimit="10" x1="44.4" y1="217.258" x2="39.391" y2="220.637"/>
	
		<line fill="none" stroke="#000000" stroke-width="3.1956" stroke-miterlimit="10" x1="46.885" y1="222.139" x2="41.875" y2="225.516"/>
	
		<line fill="none" stroke="#000000" stroke-width="3.1956" stroke-miterlimit="10" x1="13.188" y1="98.936" x2="7.38" y2="100.594"/>
	
		<line fill="none" stroke="#000000" stroke-width="3.1956" stroke-miterlimit="10" x1="14.037" y1="104.346" x2="8.225" y2="106.004"/>
	
		<line fill="none" stroke="#000000" stroke-width="3.1956" stroke-miterlimit="10" x1="14.129" y1="109.439" x2="8.106" y2="109.904"/>
	
		<line fill="none" stroke="#000000" stroke-width="3.1956" stroke-miterlimit="10" x1="13.884" y1="114.908" x2="7.86" y2="115.377"/>
	<path fill="none" stroke="#000000" stroke-width="3.3014" stroke-miterlimit="10" d="M113.987,91.357
		c-29.588,11.51-11.187,59.74,22.527,26.971"/>
</g>
</svg>
