<?xml version="1.0" encoding="utf-8"?>
<!-- Generator: Adobe Illustrator 16.0.0, SVG Export Plug-In . SVG Version: 6.00 Build 0)  -->
<!DOCTYPE svg PUBLIC "-//W3C//DTD SVG 1.1//EN" "http://www.w3.org/Graphics/SVG/1.1/DTD/svg11.dtd">
<svg version="1.1" id="Layer_1" xmlns="http://www.w3.org/2000/svg" xmlns:xlink="http://www.w3.org/1999/xlink" x="0px" y="0px"
	 width="255.334px" height="163px" viewBox="0 0 255.334 163" enable-background="new 0 0 255.334 163" xml:space="preserve">
<g>
	<path fill="none" d="M82.733,56.053c-3.703-5.96-7.812-11.359-12.324-16.188l1.913,24.468L82.733,56.053z"/>
	<path fill="none" d="M88.652,66.783c-1.13-2.328-2.363-4.686-3.715-7.051c-0.236-0.413-0.48-0.814-0.72-1.223l-9.983,7.938
		L88.652,66.783z"/>
	<path fill="none" d="M69.622,66.387l0.004-0.019l-2.319-29.676c-3.488-3.401-7.195-6.49-11.122-9.261l2.473,28.183L69.622,66.387z"
		/>
	<path fill="none" d="M84.456,84.951L71.325,72.05l-6.008,28.197c4.774,1.125,9.823,1.805,15.152,2.015
		c-0.104-0.963-0.161-1.939-0.161-2.929C80.308,94.052,81.832,89.123,84.456,84.951z"/>
	<path fill="none" d="M115.827,139.342c3.827,2.682,8.324,4.464,13.187,5.044l-0.06-20.348L115.827,139.342z"/>
	<path fill="none" d="M131.086,112.477c-0.006,0.011-0.012,0.021-0.019,0.032l0.063,0.055
		C131.115,112.535,131.102,112.506,131.086,112.477z"/>
	<path fill="none" d="M107.403,126.429c-0.643,0-1.278-0.03-1.909-0.075c1.235,3.063,2.975,5.868,5.12,8.312l10.053-11.719
		C116.743,125.16,112.22,126.429,107.403,126.429z"/>
	<path fill="none" d="M22.1,65.194c3.249,6.351,7.315,12.429,12.431,17.745c2.129,2.211,4.394,4.222,6.775,6.058l23.145-18.405
		L22.1,65.194z"/>
	<path fill="none" d="M55.53,52.542l-2.383-27.159c-3.573-2.31-7.316-4.37-11.228-6.183l2.166,22.097L55.53,52.542z"/>
	<path fill="none" d="M56.986,57.962l-40.116-5.014c1.08,3.073,2.325,6.151,3.737,9.187l46.681,5.949L56.986,57.962z"/>
	<path fill="none" d="M68.392,71.094L43.689,90.738c5.648,3.928,11.94,6.878,18.866,8.811l6.057-28.427L68.392,71.094z"/>
	<path fill="none" d="M38.929,17.872c-7.98-3.371-16.629-5.748-25.934-7.123l27.926,27.438L38.929,17.872z"/>
	<path fill="none" d="M42.112,43.348l-28.887-2.989c0.733,3.132,1.604,6.349,2.644,9.595l37.773,4.722L42.112,43.348z"/>
	<path fill="none" d="M9.461,11.268c0.152,5.465,0.78,15.122,3.109,26.163l26.287,2.719L9.461,11.268z"/>
	<path fill="none" d="M72.72,69.431l13.399,13.165c1.887-2.395,4.168-4.464,6.746-6.11c-0.855-2.217-1.805-4.499-2.86-6.824
		l-17.298-0.402L72.72,69.431z"/>
	<path fill="none" d="M185.982,39.864c-4.512,4.83-8.621,10.229-12.324,16.189l10.412,8.28L185.982,39.864z"/>
	<path fill="none" d="M186.771,66.387l10.965-10.773l2.472-28.182c-3.927,2.771-7.634,5.86-11.122,9.261l-2.319,29.672
		L186.771,66.387z"/>
	<path fill="none" d="M172.175,58.509c-0.24,0.408-0.484,0.81-0.721,1.223c-1.353,2.365-2.585,4.723-3.714,7.051l14.417-0.335
		L172.175,58.509z"/>
	<path fill="none" d="M243.822,37.43c2.328-11.041,2.956-20.697,3.108-26.163l-29.396,28.882L243.822,37.43z"/>
	<path fill="none" d="M136.014,144.376c4.376-0.534,8.453-2.041,12.01-4.302l-12.065-14.805L136.014,144.376z"/>
	<path fill="none" d="M212.307,41.297l2.166-22.097c-3.911,1.813-7.655,3.874-11.228,6.183l-2.384,27.159L212.307,41.297z"/>
	<path fill="none" d="M243.397,10.749c-9.305,1.375-17.955,3.752-25.936,7.124l-1.991,20.316L243.397,10.749z"/>
	<path fill="none" d="M183.672,69.431l0.014-0.172l-17.299,0.402c-0.705,1.555-1.364,3.09-1.979,4.6
		c3.294,1.231,6.286,3.085,8.832,5.42L183.672,69.431z"/>
	<path fill="none" d="M131.289,86.461c-0.016,0-0.032,0-0.048,0.001c0.008,0.015,0.015,0.029,0.022,0.043
		C131.271,86.49,131.281,86.476,131.289,86.461z"/>
	<path fill="none" d="M175.231,81.713c4.233,4.782,6.811,11.062,6.811,17.936c0,0.725-0.037,1.44-0.093,2.15
		c3.146-0.346,6.191-0.858,9.127-1.55l-6.01-28.2L175.231,81.713z"/>
	<path fill="none" d="M202.749,54.676l37.775-4.722c1.039-3.246,1.91-6.463,2.644-9.595l-28.889,2.989L202.749,54.676z"/>
	<path fill="none" d="M144.472,124.637l8.969,11.005c2.555-2.661,4.608-5.803,6.011-9.278c-1.466,0.247-2.97,0.382-4.505,0.382
		C151.234,126.745,147.696,125.993,144.472,124.637z"/>
	<path fill="none" d="M189.103,68.084l46.685-5.95c1.412-3.036,2.657-6.114,3.736-9.187l-40.119,5.015L189.103,68.084z"/>
	<path fill="none" d="M215.089,88.999c2.379-1.834,4.643-3.843,6.77-6.053c5.118-5.317,9.187-11.398,12.437-17.752l-42.354,5.398
		L215.089,88.999z"/>
	<path fill="none" d="M187.779,71.122l6.058,28.43c6.927-1.933,13.22-4.883,18.868-8.812L188,71.094L187.779,71.122z"/>
	<path fill="none" d="M224.112,110.328c-9.055,5.666-20.568,9.5-34.366,11.429c-9.265,1.295-17.091,1.354-21.114,1.264
		c-0.327,0.192-0.657,0.38-0.993,0.559c-0.368,1.606-0.84,3.173-1.416,4.69c9.65,0.727,29.298,0.826,46.574-7.731l4.193-2.077
		l-0.605,4.642c-0.038,0.294-2.872,23.127,4.584,38.523h6.771C219.377,147.315,221.858,123.409,224.112,110.328z"/>
	<path fill="none" d="M158.168,140.818c-6.549,6.648-15.646,10.78-25.693,10.78c-10.34,0-19.671-4.378-26.256-11.37l0.039,0.227
		c-1.061,0.179-25.5,4.214-47.039-2.771c0.002,4.28-0.342,14.425-3.273,23.941h150.003c-2.931-9.517-3.274-19.661-3.272-23.941
		C184.867,143.459,165.088,141.702,158.168,140.818z"/>
	<path fill="none" d="M56.341,135.741l-0.084-2.109l1.987,0.713c18.25,6.553,39.98,4.325,45.944,3.533
		c-1.263-1.594-2.401-3.292-3.384-5.088c-6.327,0.842-28.814,2.948-49.929-5.943c0.493,7.354,0.679,22.451-4.468,34.779h6.529
		C56.821,149.651,56.349,135.936,56.341,135.741z"/>
	<path fill="none" d="M211.02,126.847c-18.64,7.851-38.344,7.128-47.063,6.271c-1.009,1.797-2.164,3.499-3.454,5.09
		c8.342,0.871,27.093,1.901,43.148-3.863l1.986-0.713l-0.084,2.109c-0.008,0.194-0.475,13.912,3.408,25.885h6.526
		C210.34,149.298,210.525,134.2,211.02,126.847z"/>
	<path fill="none" d="M45.508,123.103l-0.605-4.641l4.193,2.076c19.329,9.573,41.555,8.324,49.525,7.467
		c-0.416-1.123-0.778-2.271-1.082-3.443c-1.146-0.449-2.254-0.972-3.318-1.567c-3.635,0.119-12.005,0.17-22.074-1.237
		c-13.798-1.929-25.312-5.763-34.367-11.429c2.254,13.081,4.735,36.987-3.627,51.298h6.771
		C48.381,146.229,45.547,123.396,45.508,123.103z"/>
	<path d="M166.387,69.662l-4.867,0.113l-0.066-2.846l6.287-0.146c1.129-2.328,2.361-4.686,3.714-7.051
		c0.236-0.413,0.48-0.814,0.721-1.223l-3.157-2.51l1.771-2.228l2.869,2.282c3.703-5.96,7.812-11.359,12.324-16.189l0.457-5.851
		l2.838,0.222l-0.192,2.457c3.488-3.401,7.195-6.49,11.122-9.261l0.261-2.97l2.836,0.249l-0.059,0.672
		c3.572-2.31,7.316-4.37,11.228-6.183l0.586-5.975l2.832,0.277l-0.429,4.37c7.98-3.371,16.631-5.749,25.936-7.124l2.94-2.889
		l0.997,1.015l0.997,1.015l-1.401,1.377c-0.152,5.465-0.78,15.122-3.108,26.163l2.244-0.232l0.293,2.831l-3.191,0.33
		c-0.733,3.132-1.604,6.349-2.644,9.595l3.268-0.409l0.354,2.824l-4.622,0.578c-1.079,3.073-2.324,6.151-3.736,9.187l6.318-0.805
		l0.359,2.823l-8.17,1.042c-3.25,6.354-7.318,12.435-12.437,17.752c-2.127,2.209-4.391,4.218-6.77,6.053l2.271,1.807l-1.771,2.228
		l-2.884-2.293c-5.648,3.929-11.941,6.879-18.868,8.812l0.463,2.17l-2.783,0.594l-0.44-2.065c-2.936,0.691-5.98,1.204-9.127,1.55
		c-0.199,2.512-0.733,4.93-1.573,7.204c18.854-1.564,34.486-8.685,46.551-21.229c28.698-29.842,27.104-79.424,27.022-81.52
		l-0.144-3.674l-3.662,0.325c-47.362,4.197-72.309,31.454-84.896,53.582c-3.159,5.554-5.705,11.033-7.764,16.19
		c2.413,0.225,4.735,0.767,6.924,1.585C165.022,72.752,165.682,71.216,166.387,69.662z"/>
	<polygon points="212.09,43.504 212.307,41.297 200.861,52.542 200.67,54.725 	"/>
	<polygon points="187.84,67.331 197.544,57.796 197.735,55.613 186.771,66.387 186.795,66.499 	"/>
	<path d="M183.497,71.668l0.006-0.076l-9.241,9.08c0.332,0.338,0.654,0.686,0.97,1.042l9.835-9.664l-0.121-0.566L183.497,71.668z"/>
	<path d="M245.754,10.429l-30.488,29.956l2.269-0.235l29.396-28.882c0.01-0.346,0.019-0.685,0.024-0.996
		C246.552,10.319,246.155,10.377,245.754,10.429z"/>
	<path d="M215.255,40.385l0.011-0.001l30.488-29.956c-0.789,0.101-1.576,0.205-2.356,0.32l-27.927,27.439L215.255,40.385z"/>
	<polygon points="212.09,43.504 200.67,54.725 200.651,54.938 202.749,54.676 214.279,43.348 212.083,43.575 	"/>
	<polygon points="197.544,57.796 187.84,67.331 188.831,68.119 189.103,68.084 199.404,57.962 197.509,58.199 	"/>
	<path d="M174.262,80.672l9.241-9.08l0.169-2.161l-10.433,10.25C173.589,80.002,173.929,80.333,174.262,80.672z"/>
	<path d="M246.955,10.271c-0.006,0.312-0.015,0.65-0.024,0.996l1.401-1.377l-0.997-1.015l-1.581,1.554
		C246.155,10.377,246.552,10.319,246.955,10.271z"/>
	<path d="M247.335,8.875l-0.997-1.015l-2.94,2.889c0.78-0.115,1.567-0.219,2.356-0.32L247.335,8.875z"/>
	<path d="M215.471,38.188l1.991-20.316c-1.008,0.425-2.003,0.87-2.989,1.327l-2.166,22.097L215.471,38.188z"/>
	<path d="M214.279,43.348l28.889-2.989c0.23-0.985,0.451-1.963,0.654-2.929l-26.288,2.72L214.279,43.348z"/>
	<path d="M217.891,13.502l-2.832-0.277l-0.586,5.975c0.986-0.458,1.981-0.902,2.989-1.327L217.891,13.502z"/>
	<path d="M246.359,40.029l-0.293-2.831l-2.244,0.232c-0.203,0.966-0.424,1.944-0.654,2.929L246.359,40.029z"/>
	<polygon points="212.083,43.575 214.279,43.348 217.534,40.149 215.266,40.384 212.09,43.504 	"/>
	<polygon points="215.266,40.384 215.255,40.385 215.471,38.188 212.307,41.297 212.09,43.504 	"/>
	<path d="M200.861,52.542l2.384-27.159c-1.026,0.663-2.04,1.345-3.038,2.049l-2.472,28.182L200.861,52.542z"/>
	<path d="M199.404,57.962l40.119-5.015c0.351-0.999,0.682-1.997,1.001-2.993l-37.775,4.722L199.404,57.962z"/>
	<path d="M244.146,52.37l-0.354-2.824l-3.268,0.409c-0.319,0.996-0.65,1.994-1.001,2.993L244.146,52.37z"/>
	<path d="M203.304,24.71l-2.836-0.249l-0.261,2.97c0.998-0.704,2.012-1.386,3.038-2.049L203.304,24.71z"/>
	<polygon points="200.67,54.725 200.861,52.542 197.735,55.613 197.544,57.796 	"/>
	<polygon points="200.67,54.725 197.544,57.796 197.509,58.199 199.404,57.962 202.749,54.676 200.651,54.938 	"/>
	<path d="M188.962,68.223l2.979,2.369l42.354-5.398c0.519-1.014,1.015-2.034,1.492-3.06l-46.685,5.95L188.962,68.223z"/>
	<path d="M186.601,66.345l0.16-0.004l0.005,0.023l2.319-29.672c-1.055,1.028-2.089,2.086-3.103,3.172l-1.912,24.469L186.601,66.345z
		"/>
	<polygon points="187.779,71.122 188,71.094 187.728,70.877 	"/>
	<polygon points="183.686,69.259 183.672,69.431 183.851,69.255 	"/>
	<path d="M242.465,64.152l-0.359-2.823l-6.318,0.805c-0.478,1.026-0.974,2.046-1.492,3.06L242.465,64.152z"/>
	<path d="M189.085,36.692l0.192-2.457l-2.838-0.222l-0.457,5.851C186.996,38.779,188.03,37.721,189.085,36.692z"/>
	<polygon points="188.962,68.223 189.103,68.084 188.831,68.119 	"/>
	<polygon points="184.945,71.483 184.715,70.401 183.503,71.592 183.497,71.668 	"/>
	<polygon points="184.715,70.401 184.468,69.241 183.851,69.255 183.672,69.431 183.503,71.592 	"/>
	<polygon points="186.771,66.387 186.766,66.364 186.764,66.394 	"/>
	<path d="M183.803,67.756l-1.646-1.309l-14.417,0.335c-0.469,0.965-0.921,1.925-1.354,2.878l17.299-0.402L183.803,67.756z"/>
	<path d="M185.747,71.381l-0.681,0.668l6.01,28.2c0.93-0.219,1.854-0.445,2.761-0.698l-6.058-28.43L185.747,71.381z"/>
	<path d="M191.517,102.315l2.783-0.594l-0.463-2.17c-0.907,0.253-1.831,0.479-2.761,0.698L191.517,102.315z"/>
	<path d="M161.453,66.929l0.066,2.846l4.867-0.113c0.433-0.953,0.885-1.913,1.354-2.878L161.453,66.929z"/>
	<polygon points="185.066,72.05 185.747,71.381 184.945,71.483 	"/>
	<polygon points="186.758,66.47 186.795,66.499 186.771,66.387 186.764,66.394 	"/>
	<polygon points="186.916,70.232 185.747,71.381 187.779,71.122 187.728,70.877 	"/>
	<polygon points="184.673,68.448 183.803,67.756 183.686,69.259 183.851,69.255 	"/>
	<polygon points="186.764,66.394 186.766,66.364 186.761,66.341 186.601,66.345 186.718,66.438 	"/>
	<polygon points="185.795,69.34 184.715,70.401 184.945,71.483 185.747,71.381 186.916,70.232 	"/>
	<polygon points="184.673,68.448 183.851,69.255 184.468,69.241 184.715,70.401 185.795,69.34 	"/>
	<polygon points="186.764,66.394 186.718,66.438 186.758,66.47 	"/>
	<path d="M188,71.094l24.705,19.646c0.808-0.562,1.604-1.14,2.384-1.742l-23.147-18.407L188,71.094z"/>
	<path d="M183.908,66.407l0.162-2.074l-10.412-8.28c-0.502,0.808-0.997,1.627-1.483,2.456l9.982,7.938L183.908,66.407z"/>
	<path d="M170.789,53.771l-1.771,2.228l3.157,2.51c0.486-0.829,0.981-1.648,1.483-2.456L170.789,53.771z"/>
	<path d="M215.589,93.033l1.771-2.228l-2.271-1.807c-0.78,0.602-1.576,1.18-2.384,1.742L215.589,93.033z"/>
	<polygon points="187.84,67.331 186.795,66.499 187.122,68.036 	"/>
	<polygon points="187.185,68.329 188.831,68.119 187.84,67.331 187.122,68.036 	"/>
	<polygon points="184.07,64.333 183.908,66.407 186.601,66.345 	"/>
	<polygon points="187.728,70.877 188,71.094 191.941,70.592 188.962,68.223 187.474,69.685 	"/>
	<polygon points="187.185,68.329 187.474,69.685 188.962,68.223 188.831,68.119 	"/>
	<polygon points="182.157,66.448 183.803,67.756 183.908,66.407 	"/>
	<polygon points="186.771,68.381 187.122,68.036 186.795,66.499 186.758,66.47 186.606,68.402 	"/>
	<polygon points="186.771,68.381 187.185,68.329 187.122,68.036 	"/>
	<polygon points="187.728,70.877 187.474,69.685 186.916,70.232 	"/>
	<polygon points="186.718,66.438 186.601,66.345 183.908,66.407 183.803,67.756 184.673,68.448 	"/>
	<polygon points="185.795,69.34 186.916,70.232 187.474,69.685 187.185,68.329 186.771,68.381 	"/>
	<polygon points="186.771,68.381 186.606,68.402 186.758,66.47 186.718,66.438 184.673,68.448 185.795,69.34 	"/>
	<path d="M65.316,100.247l-0.44,2.068l-2.783-0.594l0.463-2.173c-6.926-1.933-13.218-4.883-18.866-8.811l-2.886,2.295l-1.771-2.228
		l2.274-1.809c-2.381-1.836-4.646-3.847-6.775-6.058c-5.116-5.315-9.183-11.394-12.431-17.745l-8.173-1.042l0.359-2.823l6.321,0.806
		c-1.413-3.036-2.658-6.114-3.737-9.187l-4.624-0.578l0.354-2.824l3.269,0.409c-1.04-3.246-1.911-6.463-2.644-9.595l-3.192-0.33
		l0.293-2.831l2.245,0.232c-2.329-11.041-2.957-20.698-3.109-26.163L8.06,9.89l0.998-1.015l0.998-1.015l2.94,2.889
		c9.305,1.375,17.954,3.752,25.934,7.123l-0.428-4.37l2.833-0.277L41.92,19.2c3.911,1.813,7.655,3.874,11.228,6.183l-0.059-0.672
		l2.835-0.249l0.261,2.97c3.927,2.771,7.634,5.86,11.122,9.261l-0.192-2.457l2.838-0.222l0.457,5.851
		c4.512,4.83,8.621,10.229,12.324,16.188l2.869-2.281l1.771,2.228l-3.157,2.51c0.24,0.408,0.484,0.81,0.72,1.223
		c1.352,2.365,2.585,4.723,3.715,7.051l6.287,0.146l-0.066,2.846l-4.868-0.113c1.055,2.326,2.004,4.607,2.86,6.824
		c1.967-1.256,4.103-2.27,6.37-2.988c-2.112-5.394-4.763-11.163-8.09-17.012C78.558,34.359,53.611,7.102,6.249,2.905L2.586,2.58
		L2.442,6.254C2.361,8.35,0.767,57.923,29.463,87.767c13.36,13.895,31.108,21.119,52.751,21.529c-0.88-2.218-1.48-4.576-1.746-7.034
		C75.14,102.052,70.091,101.372,65.316,100.247z"/>
	<path d="M41.126,40.384L10.638,10.429c-0.401-0.052-0.798-0.11-1.201-0.158c0.006,0.312,0.015,0.651,0.024,0.997l29.396,28.882
		L41.126,40.384z"/>
	<path d="M72.889,71.592l0.006,0.076l-1.449-0.185l-0.121,0.566l13.131,12.901c0.257-0.409,0.526-0.811,0.804-1.205L72.889,71.592z"
		/>
	<path d="M41.126,40.384l0.01,0.001l-0.215-2.198L12.995,10.749c-0.78-0.115-1.567-0.219-2.357-0.32L41.126,40.384z"/>
	<polygon points="55.722,54.725 44.302,43.504 44.309,43.575 42.112,43.348 53.642,54.676 55.741,54.938 	"/>
	<path d="M85.26,83.747c0.276-0.391,0.563-0.775,0.859-1.151L72.72,69.431l0.169,2.161L85.26,83.747z"/>
	<polygon points="55.722,54.725 55.53,52.542 44.086,41.297 44.302,43.504 	"/>
	<polygon points="68.552,67.331 69.598,66.499 69.622,66.387 58.657,55.614 58.849,57.797 	"/>
	<polygon points="68.552,67.331 58.849,57.797 58.884,58.199 56.986,57.962 67.289,68.084 67.561,68.119 	"/>
	<path d="M12.995,10.749l-2.94-2.889L9.057,8.875l1.581,1.554C11.428,10.53,12.215,10.634,12.995,10.749z"/>
	<path d="M10.638,10.429L9.057,8.875L8.06,9.89l1.402,1.377c-0.009-0.346-0.018-0.685-0.024-0.997
		C9.84,10.319,10.237,10.377,10.638,10.429z"/>
	<path d="M44.086,41.297L41.92,19.2c-0.987-0.458-1.982-0.902-2.991-1.328l1.992,20.315L44.086,41.297z"/>
	<path d="M38.857,40.149L12.57,37.43c0.204,0.966,0.424,1.944,0.655,2.929l28.887,2.989L38.857,40.149z"/>
	<path d="M41.334,13.225l-2.833,0.277l0.428,4.37c1.008,0.426,2.004,0.87,2.991,1.328L41.334,13.225z"/>
	<path d="M10.326,37.198l-0.293,2.831l3.192,0.33c-0.23-0.985-0.451-1.963-0.655-2.929L10.326,37.198z"/>
	<polygon points="44.302,43.504 41.126,40.384 38.857,40.149 42.112,43.348 44.309,43.575 	"/>
	<polygon points="44.086,41.297 40.921,38.187 41.136,40.385 41.126,40.384 44.302,43.504 	"/>
	<path d="M53.642,54.676l-37.773-4.722c0.319,0.996,0.65,1.994,1.001,2.994l40.116,5.014L53.642,54.676z"/>
	<path d="M58.657,55.614l-2.473-28.183c-0.998-0.704-2.011-1.385-3.037-2.048l2.383,27.159L58.657,55.614z"/>
	<path d="M12.6,49.545l-0.354,2.824l4.624,0.578c-0.351-1-0.683-1.998-1.001-2.994L12.6,49.545z"/>
	<path d="M55.923,24.461l-2.835,0.249l0.059,0.672c1.026,0.663,2.039,1.344,3.037,2.048L55.923,24.461z"/>
	<polygon points="58.849,57.797 55.722,54.725 55.741,54.938 53.642,54.676 56.986,57.962 58.884,58.199 	"/>
	<polygon points="58.849,57.797 58.657,55.614 55.53,52.542 55.722,54.725 	"/>
	<polygon points="68.392,71.094 68.613,71.122 68.665,70.877 	"/>
	<path d="M67.43,68.223l-0.141-0.139l-46.681-5.949c0.477,1.025,0.974,2.045,1.492,3.059l42.351,5.398L67.43,68.223z"/>
	<polygon points="72.72,69.431 72.707,69.259 72.542,69.256 	"/>
	<path d="M69.631,66.341l0.16,0.004l2.53-2.012l-1.913-24.468c-1.014-1.086-2.048-2.144-3.103-3.172l2.319,29.676L69.631,66.341z"/>
	<path d="M14.287,61.329l-0.359,2.823l8.173,1.042c-0.519-1.014-1.015-2.034-1.492-3.059L14.287,61.329z"/>
	<path d="M70.409,39.864l-0.457-5.851l-2.838,0.222l0.192,2.457C68.361,37.721,69.395,38.778,70.409,39.864z"/>
	<polygon points="71.446,71.483 72.895,71.668 72.889,71.592 71.676,70.4 	"/>
	<polygon points="67.289,68.084 67.43,68.223 67.561,68.119 	"/>
	<polygon points="71.923,69.241 71.676,70.4 72.889,71.592 72.72,69.431 72.542,69.256 	"/>
	<path d="M70.644,71.381l-2.031-0.259l-6.057,28.427c0.908,0.254,1.832,0.479,2.761,0.698l6.008-28.197L70.644,71.381z"/>
	<path d="M72.589,67.756l0.118,1.503l17.298,0.402c-0.433-0.953-0.885-1.913-1.353-2.878l-14.418-0.335L72.589,67.756z"/>
	<polygon points="69.625,66.368 69.622,66.387 69.627,66.393 	"/>
	<path d="M94.873,69.775l0.066-2.846l-6.287-0.146c0.468,0.965,0.92,1.925,1.353,2.878L94.873,69.775z"/>
	<path d="M62.093,101.722l2.783,0.594l0.44-2.068c-0.929-0.219-1.853-0.444-2.761-0.698L62.093,101.722z"/>
	<polygon points="69.634,66.47 69.627,66.393 69.622,66.387 69.598,66.499 	"/>
	<polygon points="70.644,71.381 71.325,72.05 71.446,71.483 	"/>
	<polygon points="72.542,69.256 72.707,69.259 72.589,67.756 71.72,68.448 	"/>
	<polygon points="69.674,66.438 69.792,66.345 69.631,66.341 69.625,66.368 69.627,66.393 	"/>
	<polygon points="68.665,70.877 68.613,71.122 70.644,71.381 69.475,70.232 	"/>
	<polygon points="71.676,70.4 70.597,69.34 69.475,70.232 70.644,71.381 71.446,71.483 	"/>
	<polygon points="69.627,66.393 69.634,66.47 69.674,66.438 	"/>
	<polygon points="72.542,69.256 71.72,68.448 70.597,69.34 71.676,70.4 71.923,69.241 	"/>
	<path d="M72.484,66.407l1.75,0.041l9.983-7.938c-0.487-0.829-0.981-1.648-1.484-2.457l-10.412,8.28L72.484,66.407z"/>
	<path d="M64.451,70.592L41.306,88.997c0.78,0.602,1.576,1.18,2.383,1.742l24.703-19.644L64.451,70.592z"/>
	<path d="M39.032,90.805l1.771,2.228l2.886-2.295c-0.807-0.562-1.603-1.14-2.383-1.742L39.032,90.805z"/>
	<path d="M87.374,55.999l-1.771-2.228l-2.869,2.281c0.502,0.809,0.997,1.627,1.484,2.457L87.374,55.999z"/>
	<polygon points="69.598,66.499 68.552,67.331 69.27,68.036 	"/>
	<polygon points="68.552,67.331 67.561,68.119 69.208,68.329 69.27,68.036 	"/>
	<polygon points="72.322,64.333 69.792,66.345 72.484,66.407 	"/>
	<polygon points="68.918,69.686 67.43,68.223 64.451,70.592 68.392,71.094 68.665,70.877 	"/>
	<polygon points="69.208,68.329 67.561,68.119 67.43,68.223 68.918,69.686 	"/>
	<polygon points="74.234,66.448 72.484,66.407 72.589,67.756 	"/>
	<polygon points="69.622,68.381 69.785,68.402 69.634,66.47 69.598,66.499 69.27,68.036 	"/>
	<polygon points="69.27,68.036 69.208,68.329 69.622,68.381 	"/>
	<polygon points="71.72,68.448 72.589,67.756 72.484,66.407 69.792,66.345 69.674,66.438 	"/>
	<polygon points="68.665,70.877 69.475,70.232 68.918,69.686 	"/>
	<polygon points="69.674,66.438 69.634,66.47 69.785,68.402 69.622,68.381 70.597,69.34 71.72,68.448 	"/>
	<polygon points="69.208,68.329 68.918,69.686 69.475,70.232 70.597,69.34 69.622,68.381 	"/>
	<path d="M153.44,135.642l1.733,2.127l-5.426,4.422l-1.725-2.116c-3.557,2.261-7.634,3.768-12.01,4.302l0.006,1.958l-7,0.021
		l-0.006-1.97c-4.863-0.58-9.36-2.362-13.187-5.044l-0.879,1.024l-5.313-4.559l0.979-1.142c-2.145-2.444-3.885-5.249-5.12-8.312
		c-2.788-0.194-5.46-0.813-7.954-1.792c0.304,1.172,0.666,2.32,1.082,3.443c1.893-0.204,2.989-0.386,3.043-0.395l0.853,4.926
		c-0.153,0.026-0.752,0.126-1.713,0.254c0.983,1.796,2.121,3.494,3.384,5.088c0.985-0.13,1.555-0.224,1.592-0.229l0.438,2.58
		c6.585,6.992,15.916,11.37,26.256,11.37c10.047,0,19.145-4.132,25.693-10.78c-1.449-0.185-2.348-0.332-2.531-0.363l0.477-2.807
		c0.063,0.011,1.682,0.277,4.389,0.56c1.29-1.591,2.445-3.293,3.454-5.09c-2.659-0.262-4.309-0.535-4.58-0.582l0.852-4.927
		c0.079,0.014,2.312,0.383,5.995,0.66c0.576-1.518,1.048-3.084,1.416-4.69c-2.52,1.342-5.275,2.295-8.188,2.784
		C158.049,129.839,155.995,132.98,153.44,135.642z"/>
	<path d="M131.241,86.462c0.016,0,0.032,0,0.048-0.001c1.421-2.539,3.235-4.828,5.365-6.78c-1.372-0.159-2.766-0.25-4.18-0.25
		c-2.097,0-4.148,0.19-6.148,0.535C128.271,81.866,129.935,84.053,131.241,86.462z"/>
	<path fill="#F6E867" d="M160.749,108.72c-1.146-0.114-2.288-0.222-3.451-0.369v2.084h-2.846v-2.499
		c-0.775-0.115-1.541-0.21-2.322-0.339l-1.532-0.253l-1.057,1.057l-2.012-2.012l1.587-1.587l0.101-1.007
		c0.017-0.163,0.104-0.979,0.3-2.317h-4.022v-2.846h4.488c0.114-0.638,0.244-1.329,0.391-2.067l-2.844-2.844l1.851-1.851
		c-3.021-2.165-6.469-3.766-10.194-4.649c-2.706,3.424-4.335,7.736-4.335,12.429c0,11.081,9.015,20.096,20.096,20.096
		c2.254,0,4.414-0.39,6.438-1.077c0.112-1.036,0.174-2.088,0.174-3.153C161.559,113.175,161.273,110.901,160.749,108.72z"/>
	<path fill="#F6E867" d="M151.089,93.188c-0.121-0.102-0.244-0.199-0.367-0.299l0.354,0.354
		C151.08,93.226,151.085,93.207,151.089,93.188z"/>
	<path fill="#F6E867" d="M168.001,109.24c0.298,1.688,0.477,3.415,0.529,5.175c1.594-1.467,2.962-3.175,4.017-5.085
		c-0.103,0-0.202,0.006-0.305,0.006C170.851,109.336,169.431,109.296,168.001,109.24z"/>
	<path fill="#F6E867" d="M160.22,92.474l8.007-7.867c-1.832-1.62-3.958-2.904-6.29-3.774c-1.271,3.667-2.276,7.084-3.065,10.115
		C159.334,91.445,159.786,91.951,160.22,92.474z"/>
	<path fill="#F6E867" d="M164.221,93.721l-1.755,1.755c0.682,1.017,1.31,2.07,1.887,3.156h1.903v2.846h-0.54
		c0.091,0.214,0.17,0.433,0.257,0.648c2.131,0.129,4.229,0.21,6.27,0.21c0.879,0,1.741-0.028,2.606-0.053
		c0.114-0.864,0.193-1.739,0.193-2.634c0-4.966-1.82-9.508-4.815-13.019l-6.605,6.49L164.221,93.721z"/>
	<path fill="#F6E867" d="M154.945,79.554c-3.391,0-6.584,0.852-9.389,2.342c2.638,1.03,5.126,2.359,7.422,3.95
		C153.549,83.857,154.2,81.754,154.945,79.554z"/>
	<path fill="#F6E867" d="M150.373,96.564c-0.146,0.738-0.276,1.43-0.391,2.067h2.458L150.373,96.564z"/>
	<path fill="#F6E867" d="M154.452,96.62v-0.122c-1.031-1.19-2.154-2.3-3.363-3.31c-0.004,0.019-0.009,0.037-0.013,0.056
		L154.452,96.62z"/>
	<path fill="#F6E867" d="M165.973,102.126c0.91,2.268,1.594,4.647,2.028,7.114c1.43,0.056,2.85,0.096,4.241,0.096
		c0.103,0,0.202-0.006,0.305-0.006c1.182-2.141,1.97-4.522,2.302-7.047c-0.865,0.024-1.728,0.053-2.606,0.053
		C170.202,102.336,168.104,102.255,165.973,102.126z"/>
	<path fill="#F6E867" d="M149.517,101.478c-0.196,1.339-0.283,2.154-0.3,2.317l-0.101,1.007l3.324-3.324H149.517z"/>
	<path fill="#F6E867" d="M157.298,103.489v4.861c1.163,0.147,2.306,0.255,3.451,0.369c-0.204-0.85-0.446-1.684-0.724-2.503
		L157.298,103.489z"/>
	<path fill="#F6E867" d="M150.598,107.344l1.532,0.253c0.781,0.129,1.547,0.224,2.322,0.339v-4.446L150.598,107.344z"/>
	<path fill="#F6E867" d="M158.871,90.948c0.789-3.031,1.795-6.448,3.065-10.115c-2.181-0.813-4.529-1.279-6.99-1.279h-0.001
		c-0.745,2.201-1.396,4.304-1.967,6.292C155.123,87.333,157.098,89.044,158.871,90.948z"/>
	<path fill="#F6E867" d="M160.764,93.154l1.445-1.445l0.406,0.406l6.653-6.538c-0.333-0.338-0.687-0.655-1.042-0.97l-8.007,7.867
		C160.406,92.696,160.583,92.927,160.764,93.154z"/>
	<path fill="#F6E867" d="M162.615,92.115l1.006,1.006l6.605-6.49c-0.309-0.361-0.625-0.715-0.958-1.054L162.615,92.115z"/>
	<path fill="#F6E867" d="M160.22,92.474c-0.434-0.522-0.886-1.028-1.349-1.525c-0.346,1.329-0.649,2.581-0.917,3.752L160.22,92.474z
		"/>
	<path fill="#F6E867" d="M159.37,101.538c2.239,0.262,4.441,0.458,6.603,0.588c-0.087-0.216-0.166-0.435-0.257-0.648h-6.406
		L159.37,101.538z"/>
	<path fill="#F6E867" d="M164.353,98.632c-0.577-1.086-1.205-2.14-1.887-3.156l-3.156,3.156H164.353z"/>
	<path fill="#F6E867" d="M166.213,115.921c0.022,0.002,0.179,0.012,0.447,0.024c0.655-0.473,1.277-0.984,1.87-1.53
		c-0.053-1.76-0.231-3.486-0.529-5.175c-2.368-0.093-4.792-0.274-7.252-0.521c0.524,2.182,0.81,4.455,0.81,6.795
		c0,1.065-0.062,2.117-0.174,3.153c1.713-0.581,3.331-1.372,4.803-2.369L166.213,115.921z"/>
	<path fill="#F6E867" d="M149.541,91.709l1.181,1.181c0.123,0.1,0.246,0.197,0.367,0.299c0.497-2.191,1.12-4.661,1.89-7.343
		c-2.296-1.591-4.784-2.92-7.422-3.95c-2.479,1.316-4.643,3.139-6.371,5.325c3.726,0.884,7.174,2.484,10.194,4.649L149.541,91.709z"
		/>
	<path fill="#F6E867" d="M159.37,101.538l4.851,4.851l-2.012,2.012l-2.184-2.184c0.277,0.819,0.52,1.653,0.724,2.503
		c2.46,0.246,4.884,0.428,7.252,0.521c-0.435-2.467-1.118-4.847-2.028-7.114C163.812,101.996,161.609,101.8,159.37,101.538z"/>
	<path fill="#F6E867" d="M154.452,96.498v-6.824h2.846v5.67l0.656-0.645c0.268-1.171,0.571-2.423,0.917-3.752
		c-1.773-1.904-3.748-3.616-5.893-5.103c-0.77,2.682-1.393,5.152-1.89,7.343C152.298,94.198,153.421,95.308,154.452,96.498z"/>
	<path fill="#F6E867" d="M157.593,96.325l3.171-3.171c-0.181-0.228-0.357-0.458-0.544-0.681l-2.266,2.227
		C157.826,95.26,157.705,95.805,157.593,96.325z"/>
	<path fill="#F6E867" d="M157.593,96.325c0.112-0.521,0.233-1.065,0.361-1.625l-0.656,0.645v1.275L157.593,96.325z"/>
	<path d="M168.632,123.021c-0.308-0.007-0.597-0.015-0.858-0.022c-0.041,0.194-0.09,0.387-0.135,0.581
		C167.975,123.4,168.305,123.213,168.632,123.021z"/>
	<path d="M131.131,112.563l2.384,2.045l1.673-1.363l9.284,11.392c3.225,1.356,6.763,2.108,10.475,2.108
		c1.535,0,3.039-0.135,4.505-0.382c0.5-1.236,0.918-2.514,1.245-3.827c-1.841,0.461-3.767,0.709-5.75,0.709
		c-9.991,0-18.524-6.212-21.967-14.981c-0.513,1.466-1.147,2.874-1.894,4.213C131.102,112.506,131.115,112.535,131.131,112.563z"/>
	<path d="M133.095,90.743c0.601-1.47,1.342-2.867,2.212-4.172c-0.932-0.091-1.876-0.14-2.832-0.14c-0.397,0-0.792,0.014-1.186,0.03
		c-0.008,0.015-0.018,0.029-0.025,0.044C131.991,87.853,132.602,89.271,133.095,90.743z"/>
	<path d="M173.239,79.682c-2.546-2.334-5.538-4.188-8.832-5.42c-0.447,1.1-0.871,2.185-1.273,3.253
		c2.835,1.049,5.413,2.626,7.614,4.614L173.239,79.682z"/>
	<path d="M175.231,81.713l-2.492,2.448c3.611,4.145,5.803,9.559,5.803,15.488c0,0.832-0.044,1.654-0.128,2.464
		c1.192-0.08,2.37-0.185,3.535-0.313c0.056-0.71,0.093-1.426,0.093-2.15C182.042,92.775,179.465,86.496,175.231,81.713z"/>
	<path d="M171.919,116.031c1.368-0.011,2.944-0.046,4.688-0.123c1.571-2.089,2.849-4.411,3.769-6.904
		c-1.276,0.105-2.568,0.187-3.874,0.242C175.374,111.774,173.816,114.066,171.919,116.031z"/>
	<path d="M154.946,76.054c0.411,0,0.82,0.011,1.227,0.032c0.412-1.118,0.851-2.256,1.311-3.409
		c-0.836-0.078-1.681-0.123-2.537-0.123c-7.045,0-13.468,2.704-18.292,7.127c1.537,0.178,3.045,0.45,4.518,0.816
		C145.049,77.704,149.803,76.054,154.946,76.054z"/>
	<path d="M163.134,77.515c0.402-1.069,0.826-2.154,1.273-3.253c-2.188-0.818-4.511-1.36-6.924-1.585
		c-0.46,1.153-0.898,2.292-1.311,3.409C158.609,76.21,160.947,76.706,163.134,77.515z"/>
	<path d="M178.414,102.113c-0.262,2.518-0.923,4.914-1.912,7.133c1.306-0.056,2.598-0.137,3.874-0.242
		c0.84-2.274,1.374-4.692,1.573-7.204C180.784,101.929,179.606,102.033,178.414,102.113z"/>
	<path d="M171.774,83.115l2.487-2.443c-0.333-0.339-0.673-0.67-1.022-0.99l-2.491,2.447
		C171.101,82.447,171.441,82.777,171.774,83.115z"/>
	<path d="M171.774,83.115c0.333,0.338,0.653,0.688,0.965,1.046l2.492-2.448c-0.315-0.355-0.638-0.704-0.97-1.042L171.774,83.115z"/>
	<path d="M131.289,86.461c0.394-0.016,0.788-0.03,1.186-0.03c0.956,0,1.9,0.049,2.832,0.14c1.575-2.36,3.566-4.417,5.865-6.074
		c-1.473-0.366-2.98-0.639-4.518-0.816C134.524,81.633,132.71,83.922,131.289,86.461z"/>
	<path d="M165.897,120.549c-1.631,0.856-3.373,1.529-5.201,1.987c-0.327,1.313-0.745,2.591-1.245,3.827
		c2.912-0.489,5.668-1.442,8.188-2.784c0.045-0.194,0.094-0.387,0.135-0.581c-1.215-0.039-1.93-0.086-2.037-0.093L165.897,120.549z"
		/>
	<path d="M134.499,99.333c0,3.129-0.539,6.132-1.52,8.931c3.442,8.77,11.976,14.981,21.967,14.981c1.983,0,3.909-0.248,5.75-0.709
		c0.313-1.26,0.546-2.551,0.688-3.868c-2.024,0.688-4.185,1.077-6.438,1.077c-11.081,0-20.096-9.015-20.096-20.096
		c0-4.692,1.629-9.005,4.335-12.429c-1.264-0.3-2.558-0.521-3.879-0.65c-0.87,1.305-1.611,2.702-2.212,4.172
		C134.001,93.444,134.499,96.331,134.499,99.333z"/>
	<path d="M168.227,84.607l2.521-2.478c-2.201-1.987-4.779-3.565-7.614-4.614c-0.424,1.126-0.821,2.232-1.197,3.318
		C164.269,81.703,166.395,82.987,168.227,84.607z"/>
	<path d="M154.945,79.554c0.384-1.132,0.793-2.29,1.228-3.468c-0.406-0.021-0.815-0.032-1.227-0.032
		c-5.144,0-9.897,1.65-13.774,4.443c1.501,0.373,2.964,0.844,4.385,1.398C148.361,80.406,151.555,79.554,154.945,79.554z"/>
	<path d="M168.53,114.415c0.012,0.366,0.028,0.73,0.028,1.1c0,0.166-0.011,0.329-0.013,0.495c0.898,0.021,2.038,0.032,3.373,0.021
		c1.897-1.965,3.455-4.257,4.583-6.785c-1.304,0.055-2.623,0.08-3.955,0.084C171.492,111.24,170.124,112.948,168.53,114.415z"/>
	<path d="M172.739,84.162l-2.513,2.469c2.995,3.511,4.815,8.053,4.815,13.019c0,0.895-0.079,1.77-0.193,2.634
		c1.202-0.033,2.391-0.09,3.565-0.17c0.084-0.81,0.128-1.632,0.128-2.464C178.542,93.721,176.351,88.307,172.739,84.162z"/>
	<path d="M154.946,79.554c2.461,0,4.81,0.466,6.99,1.279c0.376-1.085,0.773-2.192,1.197-3.318c-2.187-0.809-4.524-1.305-6.961-1.43
		C155.738,77.264,155.329,78.421,154.946,79.554L154.946,79.554z"/>
	<path d="M172.547,109.33c1.332-0.004,2.651-0.029,3.955-0.084c0.989-2.219,1.65-4.615,1.912-7.133
		c-1.175,0.08-2.363,0.137-3.565,0.17C174.517,104.808,173.729,107.189,172.547,109.33z"/>
	<path d="M169.269,85.577c0.333,0.339,0.649,0.692,0.958,1.054l2.513-2.469c-0.312-0.358-0.632-0.708-0.965-1.046L169.269,85.577z"
		/>
	<path d="M169.269,85.577l2.506-2.462c-0.333-0.338-0.674-0.668-1.026-0.986l-2.521,2.478
		C168.582,84.922,168.936,85.239,169.269,85.577z"/>
	<path d="M166.188,116.299c-1.472,0.997-3.09,1.788-4.803,2.369c-0.143,1.317-0.375,2.608-0.688,3.868
		c1.828-0.458,3.57-1.131,5.201-1.987L166.188,116.299z"/>
	<path d="M145.557,81.896c-1.421-0.555-2.884-1.025-4.385-1.398c-2.299,1.656-4.29,3.713-5.865,6.074
		c1.321,0.128,2.615,0.35,3.879,0.65C140.914,85.034,143.077,83.212,145.557,81.896z"/>
	<path d="M168.546,116.01c0.002-0.166,0.013-0.329,0.013-0.495c0-0.369-0.017-0.733-0.028-1.1c-0.593,0.546-1.215,1.058-1.87,1.53
		C167.051,115.964,167.688,115.99,168.546,116.01z"/>
	<path fill="#F6E867" d="M118.17,82.394c-3.116-1.988-6.804-3.157-10.767-3.157c-2.008,0-3.945,0.304-5.776,0.855
		c1.497,4.476,2.607,8.548,3.424,12.009C108.606,87.943,113.084,84.599,118.17,82.394z"/>
	<path fill="#F6E867" d="M98.567,98.816l-8.955-8.798c-1.465,2.787-2.305,5.953-2.305,9.314c0,1.001,0.098,1.977,0.24,2.938
		c3.552-0.119,7.239-0.434,11.02-0.923V98.816z"/>
	<path fill="#F6E867" d="M97.068,108.568c-2.431,0.27-4.827,0.476-7.172,0.599c1.585,2.81,3.822,5.2,6.51,6.966
		c-0.003-0.207-0.016-0.411-0.016-0.618C96.391,113.139,96.628,110.817,97.068,108.568z"/>
	<path fill="#F6E867" d="M95.295,83.333c-1.577,1.196-2.97,2.615-4.135,4.217l7.278,7.151
		C97.702,91.478,96.684,87.613,95.295,83.333z"/>
	<path fill="#F6E867" d="M117.295,93.721l-4.912,4.911h6.945v2.846h-6.945l4.912,4.911l-2.013,2.012l-4.912-4.911v6.945h-2.846
		v-6.944l-0.346,0.346l0.323,3.227l-2.997,0.494c-0.721,2.531-1.116,5.198-1.116,7.958c0,1.2,0.082,2.382,0.224,3.544
		c1.229,0.235,2.493,0.37,3.789,0.37c11.081,0,20.096-9.015,20.096-20.096c0-4.312-1.378-8.303-3.7-11.58
		c-3.007,0.941-5.801,2.365-8.302,4.17L117.295,93.721z"/>
	<path fill="#F6E867" d="M110.521,96.471l2.912-2.911C112.395,94.46,111.422,95.434,110.521,96.471z"/>
	<path fill="#F6E867" d="M101.25,97.463c0.376-0.648,0.769-1.288,1.184-1.91l-1.832-1.832l2.013-2.012l1.516,1.516
		c0.3-0.381,0.606-0.755,0.921-1.123c-0.817-3.461-1.927-7.534-3.424-12.009c-2.317,0.697-4.449,1.812-6.332,3.24
		c1.389,4.281,2.407,8.145,3.143,11.368L101.25,97.463z"/>
	<path fill="#F6E867" d="M99.233,101.478h-0.666v-0.129c-3.781,0.489-7.468,0.804-11.02,0.923c0.365,2.473,1.167,4.801,2.349,6.896
		c2.345-0.123,4.741-0.329,7.172-0.599C97.55,106.107,98.277,103.733,99.233,101.478z"/>
	<path fill="#F6E867" d="M107.18,103.836l-2.192,2.191c-0.174,0.504-0.334,1.014-0.481,1.529l2.997-0.494L107.18,103.836z"/>
	<path fill="#F6E867" d="M98.992,97.238c-0.163-0.791-0.349-1.643-0.553-2.538l-7.278-7.151c-0.284,0.39-0.552,0.79-0.808,1.201
		L98.992,97.238z"/>
	<path fill="#F6E867" d="M98.567,98.632h0.702c-0.086-0.445-0.177-0.905-0.278-1.394l-8.64-8.488
		c-0.258,0.415-0.511,0.834-0.739,1.269l8.955,8.798V98.632z"/>
	<path fill="#F6E867" d="M100.597,98.632c0.21-0.395,0.43-0.783,0.654-1.169L98.438,94.7c0.205,0.896,0.39,1.747,0.553,2.538
		l1.418,1.394H100.597z"/>
	<path fill="#F6E867" d="M98.992,97.238c0.101,0.488,0.192,0.948,0.278,1.394h1.14L98.992,97.238z"/>
	<path fill="#F6E867" d="M103.391,115.515c0-2.76,0.395-5.427,1.116-7.958l-0.244,0.04c-0.333,0.055-0.657,0.092-0.988,0.145
		l-0.66,0.659l-0.492-0.491c-1.702,0.254-3.386,0.474-5.055,0.659c-0.44,2.249-0.678,4.57-0.678,6.946
		c0,0.207,0.012,0.411,0.016,0.618c2.153,1.414,4.59,2.424,7.208,2.926C103.472,117.896,103.391,116.715,103.391,115.515z"/>
	<path fill="#F6E867" d="M105.051,92.102c0.218,0.923,0.417,1.807,0.594,2.638l1.88,1.88v-6.945h2.846v6.946l0.149-0.149
		c0.901-1.037,1.874-2.011,2.912-2.911l1.851-1.851l0.214,0.214c2.501-1.805,5.295-3.229,8.302-4.17
		c-1.51-2.131-3.422-3.952-5.628-5.359C113.084,84.599,108.606,87.943,105.051,92.102z"/>
	<path fill="#F6E867" d="M105.051,92.102c-0.314,0.368-0.621,0.742-0.921,1.123l1.515,1.515
		C105.468,93.908,105.269,93.024,105.051,92.102z"/>
	<path fill="#F6E867" d="M103.274,107.741c0.331-0.053,0.656-0.09,0.988-0.145l0.244-0.04c0.147-0.516,0.307-1.025,0.481-1.529
		L103.274,107.741z"/>
	<path fill="#F6E867" d="M105.514,98.632l-3.08-3.079c-0.415,0.622-0.807,1.262-1.184,1.91l1.189,1.169H105.514z"/>
	<path fill="#F6E867" d="M105.514,101.478h-6.281c-0.956,2.256-1.683,4.63-2.165,7.091c1.668-0.186,3.353-0.405,5.055-0.659
		l-1.521-1.521L105.514,101.478z"/>
	<path fill="#F6E867" d="M102.44,98.632l-1.189-1.169c-0.224,0.386-0.444,0.774-0.654,1.169H102.44z"/>
	<path d="M87.013,87.464l-2.557-2.513c-2.624,4.171-4.148,9.101-4.148,14.382c0,0.989,0.057,1.966,0.161,2.929
		c1.166,0.046,2.344,0.069,3.536,0.071c-0.125-0.983-0.196-1.983-0.196-3C83.808,95.004,84.979,90.951,87.013,87.464z"/>
	<path d="M86.119,82.596l2.502,2.459c1.537-2.019,3.39-3.782,5.487-5.215c-0.39-1.098-0.805-2.217-1.243-3.354
		C90.287,78.132,88.006,80.201,86.119,82.596z"/>
	<path d="M96.727,120.373c-0.26-0.132-0.518-0.267-0.771-0.407l0.201,2.939c-0.104,0.007-0.785,0.052-1.935,0.089
		c1.064,0.596,2.172,1.118,3.318,1.567C97.186,123.196,96.919,121.796,96.727,120.373z"/>
	<path d="M107.403,126.429c4.816,0,9.34-1.269,13.263-3.481l9.568-11.153l0.833,0.715c0.007-0.011,0.013-0.021,0.019-0.032
		c-0.728-1.347-1.338-2.766-1.832-4.237c-3.516,8.615-11.972,14.689-21.851,14.689c-1.055,0-2.091-0.076-3.108-0.21
		c0.319,1.246,0.725,2.458,1.199,3.635C106.125,126.398,106.761,126.429,107.403,126.429z"/>
	<path d="M131.264,86.505c-0.008-0.014-0.015-0.029-0.022-0.043c-1.291,0.054-2.559,0.196-3.801,0.414
		c0.755,1.212,1.401,2.498,1.929,3.843C129.883,89.253,130.518,87.845,131.264,86.505z"/>
	<path d="M86.013,109.294c-0.614,0.011-1.243,0.042-1.849,0.042c-0.004,0-0.009,0-0.014,0c-0.653,0-1.29-0.027-1.936-0.04
		c0.954,2.403,2.241,4.638,3.806,6.647c1.781,0.068,3.37,0.094,4.72,0.095C88.794,114.097,87.189,111.815,86.013,109.294z"/>
	<path d="M107.403,75.737c5.592,0,10.726,1.949,14.77,5.2c1.353-0.404,2.739-0.728,4.153-0.972
		c-4.888-4.776-11.565-7.728-18.923-7.728c-2.846,0-5.589,0.443-8.168,1.261c0.435,1.11,0.844,2.201,1.234,3.276
		C102.662,76.102,104.99,75.737,107.403,75.737z"/>
	<path d="M94.108,79.839c1.934-1.321,4.073-2.362,6.361-3.065c-0.39-1.075-0.799-2.167-1.234-3.276
		c-2.267,0.718-4.403,1.731-6.37,2.988C93.304,77.622,93.719,78.742,94.108,79.839z"/>
	<path d="M84.164,109.336c0.606,0,1.235-0.031,1.849-0.042c-1.008-2.162-1.696-4.502-2.009-6.961
		c-1.191-0.002-2.37-0.025-3.536-0.071c0.266,2.458,0.865,4.816,1.746,7.034c0.646,0.013,1.283,0.04,1.936,0.04
		C84.155,109.336,84.159,109.336,84.164,109.336z"/>
	<path d="M87.783,86.226c0.267-0.4,0.548-0.789,0.838-1.171l-2.502-2.459c-0.296,0.376-0.583,0.76-0.859,1.151L87.783,86.226z"/>
	<path d="M85.26,83.747c-0.278,0.394-0.547,0.795-0.804,1.205l2.557,2.513c0.246-0.42,0.5-0.835,0.77-1.238L85.26,83.747z"/>
	<path d="M104.295,122.719c-2.693-0.354-5.241-1.162-7.568-2.346c0.192,1.423,0.459,2.823,0.813,4.188
		c2.494,0.979,5.166,1.598,7.954,1.792C105.02,125.177,104.614,123.965,104.295,122.719z"/>
	<path d="M127.44,86.876c1.242-0.218,2.51-0.36,3.801-0.414c-1.306-2.409-2.97-4.596-4.915-6.497
		c-1.414,0.244-2.8,0.568-4.153,0.972C124.245,82.603,126.029,84.61,127.44,86.876z"/>
	<path d="M132.979,108.264c-1.048-2.67-1.629-5.573-1.629-8.614c0-3.152,0.623-6.157,1.744-8.907
		c-0.493-1.472-1.104-2.89-1.831-4.237c-0.746,1.339-1.38,2.748-1.894,4.214c1.047,2.669,1.629,5.573,1.629,8.614
		c0,3.152-0.623,6.157-1.745,8.906c0.494,1.472,1.104,2.891,1.832,4.237C131.832,111.138,132.467,109.729,132.979,108.264z"/>
	<path d="M132.979,108.264c0.98-2.799,1.52-5.802,1.52-8.931c0-3.002-0.498-5.889-1.404-8.59c-1.121,2.75-1.744,5.754-1.744,8.907
		C131.351,102.69,131.932,105.594,132.979,108.264z"/>
	<path d="M127.499,99.333c0,11.081-9.015,20.096-20.096,20.096c-1.296,0-2.561-0.135-3.789-0.37c0.152,1.245,0.376,2.468,0.681,3.66
		c1.018,0.134,2.054,0.21,3.108,0.21c9.879,0,18.335-6.074,21.851-14.689c-0.906-2.701-1.404-5.588-1.404-8.59
		c0-3.129,0.539-6.132,1.519-8.93c-0.528-1.346-1.174-2.631-1.929-3.843c-1.242,0.217-2.459,0.506-3.642,0.877
		C126.121,91.03,127.499,95.021,127.499,99.333z"/>
	<path d="M96.406,116.133c-2.688-1.766-4.925-4.156-6.51-6.966c-1.312,0.068-2.602,0.104-3.884,0.127
		c1.176,2.521,2.781,4.803,4.727,6.744c3.025,0.003,4.855-0.111,4.939-0.117l0.277,4.045c0.253,0.141,0.511,0.275,0.771,0.407
		C96.539,118.982,96.431,117.568,96.406,116.133z"/>
	<path d="M107.403,79.237c3.963,0,7.651,1.168,10.767,3.157c1.296-0.562,2.633-1.048,4.002-1.457c-4.044-3.25-9.178-5.2-14.77-5.2
		c-2.414,0-4.741,0.364-6.934,1.037c0.409,1.127,0.796,2.235,1.158,3.318C103.458,79.542,105.396,79.237,107.403,79.237z"/>
	<path d="M84.164,102.336c1.112,0,2.244-0.025,3.384-0.064c-0.142-0.962-0.24-1.938-0.24-2.938c0-3.361,0.84-6.527,2.305-9.314
		l-2.6-2.555c-2.034,3.487-3.205,7.54-3.205,11.869c0,1.017,0.072,2.017,0.196,3c0.05,0,0.098,0.003,0.147,0.003
		C84.155,102.336,84.16,102.336,84.164,102.336z"/>
	<path d="M88.621,85.055l2.539,2.495c1.165-1.602,2.558-3.021,4.135-4.217c-0.369-1.137-0.764-2.302-1.187-3.493
		C92.011,81.273,90.158,83.036,88.621,85.055z"/>
	<path d="M101.627,80.092c-0.362-1.083-0.75-2.191-1.158-3.318c-2.288,0.703-4.427,1.744-6.361,3.065
		c0.423,1.191,0.818,2.356,1.187,3.493C97.179,81.904,99.311,80.79,101.627,80.092z"/>
	<path d="M87.547,102.271c-1.14,0.039-2.271,0.064-3.384,0.064c-0.004,0-0.009,0-0.013,0c-0.049,0-0.097-0.003-0.147-0.003
		c0.312,2.459,1,4.799,2.009,6.961c1.282-0.022,2.571-0.059,3.884-0.127C88.715,107.072,87.912,104.744,87.547,102.271z"/>
	<path d="M87.783,86.226c-0.27,0.403-0.524,0.818-0.77,1.238l2.6,2.555c0.229-0.435,0.481-0.854,0.739-1.269L87.783,86.226z"/>
	<path d="M90.352,88.75c0.256-0.411,0.524-0.811,0.808-1.201l-2.539-2.495c-0.291,0.382-0.571,0.771-0.838,1.171L90.352,88.75z"/>
	<path d="M123.799,87.753c1.183-0.371,2.4-0.66,3.642-0.877c-1.411-2.266-3.195-4.273-5.268-5.939
		c-1.37,0.409-2.706,0.895-4.002,1.457C120.376,83.801,122.289,85.622,123.799,87.753z"/>
	<path d="M103.614,119.059c-2.618-0.502-5.055-1.512-7.208-2.926c0.024,1.436,0.133,2.85,0.321,4.24
		c2.327,1.184,4.875,1.991,7.568,2.346C103.99,121.526,103.767,120.304,103.614,119.059z"/>
	<path d="M129.37,90.719c-0.98,2.798-1.519,5.801-1.519,8.93c0,3.002,0.498,5.889,1.404,8.59c1.122-2.749,1.745-5.754,1.745-8.906
		C130.999,96.292,130.417,93.389,129.37,90.719z"/>
	<path d="M135.939,118.937l0.019,6.333l12.065,14.805c1.98-1.258,3.798-2.748,5.417-4.433l-8.969-11.005
		C141.269,123.289,138.379,121.341,135.939,118.937z"/>
	<path d="M148.023,140.074l1.725,2.116l5.426-4.422l-1.733-2.127C151.821,137.326,150.004,138.816,148.023,140.074z"/>
	<path d="M135.927,114.695l0.013,4.241c2.439,2.404,5.329,4.353,8.532,5.7l-9.284-11.392l-1.673,1.363l0.109,0.094L135.927,114.695z
		"/>
	<path d="M132.031,120.451l-3.077,3.587l0.06,20.348c1.136,0.135,2.289,0.213,3.461,0.213c1.199,0,2.378-0.081,3.539-0.223
		l-0.056-19.106L132.031,120.451z"/>
	<path d="M129.014,144.386l0.006,1.97l7-0.021l-0.006-1.958c-1.161,0.142-2.34,0.223-3.539,0.223
		C131.303,144.599,130.149,144.521,129.014,144.386z"/>
	<path d="M134.575,117.485l-2.544,2.966l3.927,4.818l-0.019-6.333C135.466,118.471,135.013,117.985,134.575,117.485z"/>
	<path d="M133.624,114.702l1.923,1.65l-0.972,1.133c0.438,0.5,0.891,0.985,1.364,1.451l-0.013-4.241L133.624,114.702z"/>
	<path d="M132.432,114.706c-0.465-0.692-0.9-1.407-1.301-2.143l-0.063-0.055c-0.424,0.759-0.883,1.494-1.375,2.206L132.432,114.706z
		"/>
	<path d="M128.93,115.763c-2.233,2.918-5.045,5.369-8.263,7.185l-10.053,11.719c1.542,1.759,3.292,3.33,5.213,4.676l13.127-15.304
		L128.93,115.763z"/>
	<path d="M110.614,134.666l-0.979,1.142l5.313,4.559l0.879-1.024C113.906,137.996,112.156,136.425,110.614,134.666z"/>
	<path d="M133.398,114.703l0.116-0.095l-2.384-2.045c0.4,0.735,0.836,1.45,1.301,2.143L133.398,114.703z"/>
	<path d="M128.93,115.763l-0.003-1.046l0.766-0.002c0.492-0.712,0.951-1.447,1.375-2.206l-0.833-0.715l-9.568,11.153
		C123.885,121.132,126.697,118.681,128.93,115.763z"/>
	<polygon points="133.624,114.702 133.515,114.608 133.398,114.703 	"/>
	<path d="M132.781,115.206c-0.117-0.166-0.236-0.331-0.35-0.5l-2.739,0.009c-0.246,0.355-0.5,0.704-0.763,1.048l0.024,8.275
		l3.077-3.587l-2.27-2.784L132.781,115.206z"/>
	<path d="M133.398,114.703l-0.967,0.003c0.113,0.169,0.232,0.334,0.35,0.5L133.398,114.703z"/>
	<path d="M128.927,114.717l0.003,1.046c0.263-0.344,0.517-0.692,0.763-1.048L128.927,114.717z"/>
	<path d="M132.781,115.206l-3.02,2.461l2.27,2.784l2.544-2.966C133.938,116.759,133.339,115.998,132.781,115.206z"/>
	<path d="M134.575,117.485l0.972-1.133l-1.923-1.65l-0.226,0.001l-0.617,0.503C133.339,115.998,133.938,116.759,134.575,117.485z"/>
	<path d="M168.632,123.021c4.023,0.091,11.85,0.031,21.114-1.264c13.798-1.929,25.312-5.763,34.366-11.429
		c-2.254,13.081-4.735,36.987,3.627,51.298h8.724c-11.842-12.15-6.987-45.528-3.688-58.76l2.771-11.105l-8.508,7.656
		c-14.351,12.915-37.202,15.905-50.431,16.491C174.45,118.773,171.736,121.195,168.632,123.021z"/>
	<path d="M166.188,116.299c0.163-0.11,0.312-0.238,0.473-0.354c-0.269-0.013-0.425-0.022-0.447-0.024L166.188,116.299z"/>
	<path d="M168.384,119.041c-0.131,1.342-0.336,2.661-0.61,3.957c0.262,0.008,0.551,0.016,0.858,0.022
		c3.104-1.825,5.818-4.247,7.976-7.112c-1.744,0.077-3.32,0.112-4.688,0.123C170.844,117.146,169.66,118.155,168.384,119.041z"/>
	<path d="M165.736,122.905c0.107,0.007,0.822,0.054,2.037,0.093c0.274-1.296,0.479-2.615,0.61-3.957
		c-0.795,0.552-1.625,1.056-2.486,1.508L165.736,122.905z"/>
	<path d="M168.546,116.01c-0.014,1.021-0.064,2.032-0.162,3.031c1.276-0.886,2.46-1.896,3.535-3.01
		C170.584,116.042,169.444,116.03,168.546,116.01z"/>
	<path d="M166.66,115.945c-0.16,0.115-0.31,0.243-0.473,0.354l-0.29,4.25c0.861-0.452,1.691-0.956,2.486-1.508
		c0.098-0.999,0.148-2.011,0.162-3.031C167.688,115.99,167.051,115.964,166.66,115.945z"/>
	<path d="M216.385,123.103l0.605-4.642l-4.193,2.077c-17.276,8.558-36.924,8.458-46.574,7.731c-0.637,1.68-1.396,3.299-2.267,4.849
		c8.72,0.856,28.424,1.579,47.063-6.271c-0.494,7.354-0.68,22.451,4.468,34.779h5.481
		C213.513,146.229,216.347,123.396,216.385,123.103z"/>
	<path d="M159.376,132.536c0.271,0.047,1.921,0.32,4.58,0.582c0.87-1.55,1.63-3.169,2.267-4.849
		c-3.683-0.277-5.916-0.646-5.995-0.66L159.376,132.536z"/>
	<path d="M205.553,135.741l0.084-2.109l-1.986,0.713c-16.056,5.765-34.807,4.734-43.148,3.863c-0.736,0.907-1.515,1.778-2.334,2.61
		c6.92,0.884,26.699,2.641,44.508-3.134c-0.002,4.28,0.342,14.425,3.272,23.941h3.013
		C205.078,149.653,205.545,135.936,205.553,135.741z"/>
	<path d="M155.637,140.455c0.184,0.031,1.082,0.179,2.531,0.363c0.819-0.832,1.598-1.703,2.334-2.61
		c-2.707-0.282-4.325-0.549-4.389-0.56L155.637,140.455z"/>
	<path d="M37.781,110.328c9.054,5.666,20.568,9.5,34.367,11.429c10.069,1.407,18.439,1.356,22.074,1.237
		c-3.185-1.781-5.973-4.187-8.203-7.051c-13.095-0.499-36.52-3.347-51.165-16.526l-8.515-7.663l2.778,11.113
		c3.307,13.229,8.174,46.604-3.684,58.759h8.72C42.517,147.315,40.035,123.409,37.781,110.328z"/>
	<path d="M94.222,122.994c1.15-0.037,1.831-0.082,1.935-0.089l-0.201-2.939c-1.918-1.066-3.674-2.39-5.216-3.928
		c-1.351-0.001-2.939-0.026-4.72-0.095C88.249,118.808,91.037,121.213,94.222,122.994z"/>
	<path d="M90.74,116.038c1.542,1.538,3.298,2.861,5.216,3.928l-0.277-4.045C95.595,115.927,93.765,116.041,90.74,116.038z"/>
	<path d="M50.875,126.847c21.115,8.892,43.603,6.785,49.929,5.943c-0.838-1.531-1.569-3.13-2.182-4.785
		c-7.97,0.857-30.196,2.106-49.525-7.467l-4.193-2.076l0.605,4.641c0.039,0.294,2.873,23.127-4.583,38.523h5.482
		C51.553,149.298,51.368,134.2,50.875,126.847z"/>
	<path d="M101.665,127.61c-0.054,0.009-1.15,0.19-3.043,0.395c0.613,1.655,1.344,3.254,2.182,4.785
		c0.961-0.128,1.561-0.228,1.713-0.254L101.665,127.61z"/>
	<path d="M106.257,140.455l-0.039-0.227c-0.71-0.754-1.387-1.538-2.031-2.351c-5.964,0.792-27.694,3.02-45.944-3.533l-1.987-0.713
		l0.084,2.109c0.008,0.194,0.48,13.91-3.405,25.885h3.01c2.931-9.517,3.275-19.661,3.273-23.941
		C80.757,144.669,105.196,140.634,106.257,140.455z"/>
	<path d="M104.188,137.878c0.644,0.812,1.321,1.597,2.031,2.351l-0.438-2.58C105.743,137.654,105.173,137.748,104.188,137.878z"/>
	<path fill="#F2623D" d="M154.452,110.435h2.846v-2.084c-0.939-0.119-1.896-0.274-2.846-0.415V110.435z"/>
	<path fill="#F2623D" d="M155.875,102.066l-1.423,1.423v4.446c0.949,0.141,1.906,0.296,2.846,0.415v-4.861L155.875,102.066z"/>
	<path fill="#F2623D" d="M154.452,96.498v0.122l0.647,0.647C154.889,97.007,154.672,96.751,154.452,96.498z"/>
	<path fill="#F2623D" d="M155.219,97.387l2.079-2.042v-5.67h-2.846v6.824c0.22,0.253,0.437,0.509,0.647,0.77L155.219,97.387z"/>
	<polygon fill="#F2623D" points="155.875,98.043 157.298,96.62 157.298,95.345 155.219,97.387 	"/>
	<path fill="#F2623D" d="M145.494,98.632v2.846h4.022c0.114-0.776,0.268-1.729,0.466-2.846H145.494z"/>
	<path fill="#F2623D" d="M166.256,101.478v-2.846h-1.903c0.492,0.927,0.951,1.874,1.363,2.846H166.256z"/>
	<path fill="#F2623D" d="M153.863,100.055l-1.423-1.423h-2.458c-0.198,1.116-0.352,2.069-0.466,2.846h2.924L153.863,100.055z"/>
	<path fill="#F2623D" d="M157.887,100.055l1.423,1.423h6.406c-0.412-0.972-0.871-1.919-1.363-2.846h-5.043L157.887,100.055z"/>
	<path fill="#F2623D" d="M162.466,95.476l1.755-1.755l-0.6-0.6l-1.661,1.632C162.13,94.993,162.302,95.231,162.466,95.476z"/>
	<polygon fill="#F2623D" points="149.116,104.802 147.529,106.389 149.541,108.4 150.598,107.344 148.89,107.062 	"/>
	<polygon fill="#F2623D" points="154.452,101.478 152.44,101.478 149.116,104.802 148.89,107.062 150.598,107.344 154.452,103.489 	
		"/>
	<path fill="#F2623D" d="M162.615,92.115l-0.406-0.406l-1.445,1.445c0.116,0.146,0.232,0.292,0.346,0.439L162.615,92.115z"/>
	<path fill="#F2623D" d="M161.96,94.753l1.661-1.632l-1.006-1.006l-1.506,1.479C161.401,93.974,161.684,94.361,161.96,94.753z"/>
	<path fill="#F2623D" d="M158.012,98.632h1.298l3.156-3.156c-0.164-0.244-0.336-0.482-0.506-0.723L158.012,98.632z"/>
	<path fill="#F2623D" d="M157.298,98.632h0.714l3.948-3.879c-0.276-0.392-0.559-0.779-0.851-1.159l-3.708,3.644
		c-0.036,0.175-0.069,0.341-0.104,0.51V98.632z"/>
	<path fill="#F2623D" d="M157.401,97.237l3.708-3.644c-0.113-0.147-0.229-0.293-0.346-0.439l-3.171,3.171
		C157.526,96.636,157.462,96.941,157.401,97.237z"/>
	<path fill="#F2623D" d="M157.298,97.747c0.034-0.169,0.067-0.335,0.104-0.51l-0.104,0.102V97.747z"/>
	<path fill="#F2623D" d="M157.298,97.339l0.104-0.102c0.061-0.296,0.125-0.602,0.191-0.912l-0.295,0.295V97.339z"/>
	<polygon fill="#F2623D" points="154.452,101.478 154.452,103.489 155.875,102.066 155.286,101.478 	"/>
	<path fill="#F2623D" d="M157.298,98.632v-0.885c-0.062,0.304-0.119,0.599-0.175,0.885H157.298z"/>
	<polygon fill="#F2623D" points="157.298,97.339 157.298,96.62 155.875,98.043 156.225,98.393 	"/>
	<path fill="#F2623D" d="M156.464,98.632h0.659c0.056-0.286,0.113-0.581,0.175-0.885v-0.408l-1.073,1.054L156.464,98.632z"/>
	<polygon fill="#F2623D" points="153.863,100.055 152.44,101.478 154.452,101.478 154.452,100.644 	"/>
	<polygon fill="#F2623D" points="157.298,99.466 157.887,100.055 159.31,98.632 158.012,98.632 157.298,99.333 	"/>
	<polygon fill="#F2623D" points="157.298,99.333 158.012,98.632 157.298,98.632 	"/>
	<polygon fill="#F2623D" points="154.452,100.644 154.452,101.478 155.286,101.478 	"/>
	<polygon fill="#F2623D" points="157.298,99.466 157.298,99.333 157.23,99.399 	"/>
	<path fill="#F2623D" d="M157.018,99.186l0.213,0.214l0.067-0.066v-0.701h-0.175C157.087,98.819,157.051,99.005,157.018,99.186z"/>
	<path fill="#F2623D" d="M157.123,98.632h-0.659l0.554,0.554C157.051,99.005,157.087,98.819,157.123,98.632z"/>
	<path fill="#F2623D" d="M150.722,92.89c-0.437-0.353-0.885-0.691-1.342-1.02l-1.851,1.851l2.844,2.844
		c0.201-1.021,0.433-2.125,0.703-3.32L150.722,92.89z"/>
	<path fill="#F2623D" d="M157.298,101.478v2.012l2.728,2.728c-0.559-1.65-1.257-3.236-2.089-4.739H157.298z"/>
	<path fill="#F2623D" d="M153.952,98.632l0.5-0.491V96.62l-3.376-3.376c-0.271,1.195-0.502,2.3-0.703,3.32l2.067,2.067H153.952z"/>
	<polygon fill="#F2623D" points="154.452,98.141 153.952,98.632 154.452,98.632 	"/>
	<path fill="#F2623D" d="M158.879,101.478c0.163,0.02,0.328,0.041,0.491,0.061l-0.061-0.061H158.879z"/>
	<path fill="#F2623D" d="M149.541,91.709l-0.161,0.161c0.457,0.328,0.905,0.667,1.342,1.02L149.541,91.709z"/>
	<path fill="#F2623D" d="M157.937,101.478c0.832,1.503,1.53,3.089,2.089,4.739l2.184,2.184l2.012-2.012l-4.851-4.851
		c-0.163-0.02-0.328-0.041-0.491-0.061H157.937z"/>
	<path fill="#F2623D" d="M155.1,97.268l-0.647-0.647v1.521l0.753-0.739C155.169,97.357,155.135,97.312,155.1,97.268z"/>
	<polygon fill="#F2623D" points="156.464,101.478 155.875,102.066 157.298,103.489 157.298,101.478 	"/>
	<path fill="#F2623D" d="M155.286,98.632l0.495-0.496c-0.187-0.249-0.382-0.491-0.576-0.734l-0.753,0.739v0.491H155.286z"/>
	<path fill="#F2623D" d="M155.1,97.268c0.035,0.044,0.069,0.09,0.105,0.134l0.014-0.015L155.1,97.268z"/>
	<path fill="#F2623D" d="M155.219,97.387l-0.014,0.015c0.194,0.243,0.39,0.485,0.576,0.734l0.094-0.093L155.219,97.387z"/>
	<path fill="#F2623D" d="M157.298,101.283c0.19,0.026,0.377,0.046,0.567,0.07c-0.152-0.272-0.306-0.544-0.467-0.811l-0.101,0.101
		V101.283z"/>
	<path fill="#F2623D" d="M157.298,101.283v0.194h0.639c-0.023-0.042-0.048-0.083-0.071-0.124
		C157.675,101.329,157.488,101.31,157.298,101.283z"/>
	<polygon fill="#F2623D" points="154.452,99.146 153.949,98.635 153.952,98.632 152.44,98.632 153.863,100.055 154.452,99.466 	"/>
	<polygon fill="#F2623D" points="154.452,99.146 154.452,98.632 153.952,98.632 153.949,98.635 	"/>
	<path fill="#F2623D" d="M157.865,101.354c0.339,0.044,0.676,0.083,1.014,0.124h0.431l-1.423-1.423l-0.488,0.488
		C157.56,100.81,157.713,101.081,157.865,101.354z"/>
	<path fill="#F2623D" d="M157.937,101.478h0.942c-0.338-0.041-0.675-0.08-1.014-0.124
		C157.889,101.395,157.913,101.436,157.937,101.478z"/>
	<path fill="#F2623D" d="M156.728,101.214c0.191,0.026,0.379,0.044,0.57,0.069v-0.64L156.728,101.214z"/>
	<path fill="#F2623D" d="M156.728,101.214l-0.264,0.264h0.834v-0.194C157.106,101.258,156.919,101.24,156.728,101.214z"/>
	<polygon fill="#F2623D" points="154.452,99.146 154.452,99.466 154.61,99.308 	"/>
	<polygon fill="#F2623D" points="155.286,98.632 154.452,98.632 154.452,99.146 154.61,99.308 	"/>
	<polygon fill="#F2623D" points="155.286,101.478 155.875,102.066 156.464,101.478 	"/>
	<path fill="#F2623D" d="M156.071,98.544c-0.097-0.136-0.189-0.274-0.29-0.408l-0.495,0.496h0.696L156.071,98.544z"/>
	<path fill="#F2623D" d="M156.071,98.544l-0.089,0.088h0.152C156.113,98.603,156.093,98.573,156.071,98.544z"/>
	<path fill="#F2623D" d="M156.225,98.393l-0.35-0.35l-0.094,0.093c0.101,0.134,0.193,0.272,0.29,0.408L156.225,98.393z"/>
	<path fill="#F2623D" d="M156.464,98.632l-0.239-0.239l-0.153,0.151c0.021,0.029,0.042,0.059,0.063,0.088H156.464z"/>
	<path fill="#F2623D" d="M157.398,100.543c-0.033-0.056-0.066-0.111-0.101-0.167v0.268L157.398,100.543z"/>
	<polygon fill="#F2623D" points="154.452,99.466 153.863,100.055 154.452,100.644 	"/>
	<path fill="#F2623D" d="M157.298,100.376c0.034,0.056,0.067,0.111,0.101,0.167l0.488-0.488l-0.589-0.589V100.376z"/>
	<path fill="#F2623D" d="M156.657,101.205c0.023,0.003,0.047,0.005,0.07,0.009l0.57-0.57v-0.268
		c-0.126-0.205-0.259-0.405-0.39-0.606C156.814,100.286,156.73,100.766,156.657,101.205z"/>
	<path fill="#F2623D" d="M156.657,101.205c0.073-0.439,0.157-0.919,0.251-1.436c-0.007-0.012-0.014-0.022-0.021-0.033l-0.944,0.928
		l-0.997-1.015l-0.336-0.342l-0.158,0.158v1.178l0.834,0.834h1.178l0.264-0.264C156.704,101.21,156.681,101.208,156.657,101.205z"/>
	<path fill="#F2623D" d="M155.982,98.632l-1.036,1.018l0.997,1.015l0.944-0.928c-0.243-0.374-0.494-0.742-0.753-1.104H155.982z"/>
	<polygon fill="#F2623D" points="154.946,99.649 155.982,98.632 155.286,98.632 154.61,99.308 	"/>
	<path fill="#F2623D" d="M156.921,99.704c-0.004,0.021-0.009,0.044-0.013,0.065c0.131,0.201,0.264,0.401,0.39,0.606v-0.91
		l-0.067-0.066L156.921,99.704z"/>
	<path fill="#F2623D" d="M156.888,99.736c0.007,0.011,0.014,0.021,0.021,0.033c0.004-0.021,0.009-0.045,0.013-0.065L156.888,99.736z
		"/>
	<path fill="#F2623D" d="M157.23,99.399l-0.213-0.214c-0.033,0.176-0.066,0.351-0.097,0.519L157.23,99.399z"/>
	<path fill="#F2623D" d="M157.018,99.186l-0.554-0.554h-0.329c0.259,0.362,0.51,0.73,0.753,1.104l0.033-0.032
		C156.951,99.536,156.984,99.361,157.018,99.186z"/>
	<polygon fill="#F2623D" points="107.525,103.49 107.525,110.435 110.371,110.435 110.371,103.489 108.949,102.066 	"/>
	<polygon fill="#F2623D" points="110.371,96.62 110.371,89.674 107.525,89.674 107.525,96.619 108.949,98.043 	"/>
	<path fill="#F2623D" d="M99.631,100.598c-0.049-0.284-0.102-0.581-0.159-0.892l-0.905-0.89v2.532
		c0.257-0.033,0.509-0.06,0.767-0.095C99.43,101.033,99.532,100.816,99.631,100.598z"/>
	<polygon fill="#F2623D" points="112.384,101.478 119.329,101.478 119.329,98.632 112.384,98.632 110.961,100.055 	"/>
	<path fill="#F2623D" d="M98.567,101.349v0.129h0.666c0.032-0.075,0.069-0.148,0.101-0.224
		C99.077,101.289,98.824,101.315,98.567,101.349z"/>
	<path fill="#F2623D" d="M99.631,100.598c0.078-0.17,0.151-0.341,0.23-0.509l-0.39-0.383
		C99.529,100.017,99.582,100.313,99.631,100.598z"/>
	<path fill="#F2623D" d="M99.27,98.632h-0.702v0.185l0.905,0.89C99.41,99.365,99.341,99.004,99.27,98.632z"/>
	<path fill="#F2623D" d="M99.862,100.089c0.214-0.451,0.44-0.895,0.672-1.335l-0.125-0.122h-1.14
		c0.072,0.372,0.141,0.733,0.203,1.074L99.862,100.089z"/>
	<path fill="#F2623D" d="M100.41,98.632l0.125,0.122c0.021-0.04,0.041-0.082,0.062-0.122H100.41z"/>
	<path fill="#F2623D" d="M106.597,99.716c0.033,0.196,0.067,0.397,0.097,0.581l0.243-0.242L106.597,99.716z"/>
	<path fill="#F2623D" d="M99.735,101.205c-0.032-0.193-0.067-0.398-0.104-0.607c-0.1,0.219-0.202,0.436-0.297,0.656
		C99.469,101.236,99.601,101.224,99.735,101.205z"/>
	<path fill="#F2623D" d="M106.694,100.297c-0.03-0.184-0.064-0.385-0.097-0.581l-1.083-1.084h-3.074l0.003,0.003l-0.998,1.015
		l-0.998,1.015l-0.586-0.575c-0.08,0.168-0.153,0.339-0.23,0.509c0.037,0.209,0.072,0.414,0.104,0.607
		c-0.135,0.019-0.267,0.031-0.401,0.049c-0.032,0.075-0.069,0.148-0.101,0.224h6.281L106.694,100.297z"/>
	<path fill="#F2623D" d="M100.534,98.754l0.911,0.896l0.998-1.015l-0.003-0.003h-1.843
		C100.575,98.672,100.556,98.714,100.534,98.754z"/>
	<path fill="#F2623D" d="M99.862,100.089l0.586,0.575l0.998-1.015l-0.911-0.896C100.302,99.194,100.076,99.638,99.862,100.089z"/>
	<path fill="#F2623D" d="M110.371,98.632h2.013l4.912-4.911l-1.799-1.798c-0.713,0.515-1.401,1.061-2.064,1.637l-2.912,2.911
		c-0.05,0.058-0.1,0.115-0.149,0.173V98.632z"/>
	<path fill="#F2623D" d="M107.013,101.478c-0.035,0.064-0.074,0.126-0.109,0.19c0.178,1.227,0.257,1.972,0.272,2.127l0.004,0.041
		l0.346-0.346v-2.013H107.013z"/>
	<path fill="#F2623D" d="M106.903,101.668c-0.754,1.388-1.392,2.847-1.916,4.359l2.192-2.191l-0.004-0.041
		C107.16,103.64,107.081,102.895,106.903,101.668z"/>
	<path fill="#F2623D" d="M110.521,96.471l-0.149,0.149v0.023C110.42,96.586,110.471,96.528,110.521,96.471z"/>
	<path fill="#F2623D" d="M115.283,91.709l-1.851,1.851c0.663-0.576,1.351-1.122,2.064-1.637L115.283,91.709z"/>
	<path fill="#F2623D" d="M106.875,101.478c0.009,0.063,0.019,0.129,0.028,0.19c0.035-0.064,0.074-0.126,0.109-0.19H106.875z"/>
	<path fill="#F2623D" d="M102.615,108.4l0.66-0.659c-0.386,0.061-0.767,0.11-1.151,0.168L102.615,108.4z"/>
	<path fill="#F2623D" d="M106.903,101.668c-0.009-0.062-0.019-0.127-0.028-0.19h-1.362l-4.912,4.911l1.521,1.521
		c0.384-0.058,0.765-0.107,1.151-0.168l1.713-1.714C105.511,104.515,106.149,103.056,106.903,101.668z"/>
	<path fill="#F2623D" d="M110.371,98.632v-1.988c-0.435,0.508-0.856,1.028-1.255,1.565l0.422,0.423H110.371z"/>
	<polygon fill="#F2623D" points="108.359,101.478 107.525,101.478 107.525,103.49 108.949,102.066 	"/>
	<path fill="#F2623D" d="M109.116,98.209c0.399-0.537,0.821-1.058,1.255-1.565V96.62l-1.422,1.423L109.116,98.209z"/>
	<polygon fill="#F2623D" points="110.371,99.465 110.961,100.055 112.384,98.632 110.371,98.632 	"/>
	<path fill="#F2623D" d="M107.505,100.623c-0.169,0.282-0.333,0.566-0.492,0.854h0.513v-0.834L107.505,100.623z"/>
	<path fill="#F2623D" d="M107.505,100.623l-0.568-0.568l-0.243,0.242c0.07,0.436,0.128,0.821,0.182,1.181h0.137
		C107.172,101.189,107.336,100.905,107.505,100.623z"/>
	<path fill="#F2623D" d="M105.514,101.478h1.362c-0.053-0.359-0.111-0.745-0.182-1.181L105.514,101.478z"/>
	<polygon fill="#F2623D" points="110.371,99.465 110.371,98.632 109.538,98.632 	"/>
	<polygon fill="#F2623D" points="107.525,101.478 108.359,101.478 107.525,100.644 	"/>
	<polygon fill="#F2623D" points="110.371,103.489 115.283,108.4 117.295,106.389 112.384,101.478 110.371,101.478 	"/>
	<path fill="#F2623D" d="M102.615,91.709l-2.013,2.012l1.832,1.832c0.534-0.801,1.102-1.574,1.696-2.328L102.615,91.709z"/>
	<path fill="#F2623D" d="M107.525,98.632v-2.013l-1.88-1.88c0.311,1.453,0.561,2.752,0.764,3.893H107.525z"/>
	<path fill="#F2623D" d="M106.41,98.632c-0.204-1.141-0.454-2.439-0.764-3.893l-1.515-1.515c-0.594,0.754-1.163,1.527-1.696,2.328
		l3.08,3.079H106.41z"/>
	<polygon fill="#F2623D" points="109.538,101.478 108.949,102.066 110.371,103.489 110.371,101.478 	"/>
	<polygon fill="#F2623D" points="108.359,98.632 108.949,98.043 107.525,96.619 107.525,98.632 	"/>
	<polygon fill="#F2623D" points="110.371,100.645 110.371,101.478 112.384,101.478 110.961,100.055 	"/>
	<path fill="#F2623D" d="M107.525,99.466v-0.834h-1.116c0.068,0.381,0.13,0.741,0.188,1.084l0.339,0.339L107.525,99.466z"/>
	<path fill="#F2623D" d="M105.514,98.632l1.083,1.084c-0.057-0.343-0.12-0.703-0.188-1.084H105.514z"/>
	<polygon fill="#F2623D" points="110.371,101.478 110.371,100.645 109.538,101.478 	"/>
	<polygon fill="#F2623D" points="108.359,98.632 107.525,98.632 107.525,99.466 	"/>
	<polygon fill="#F2623D" points="108.949,102.066 109.538,101.478 108.359,101.478 	"/>
	<path fill="#F2623D" d="M109.538,98.632l-0.422-0.423c-0.103,0.139-0.2,0.282-0.301,0.423H109.538z"/>
	<path fill="#F2623D" d="M109.116,98.209l-0.167-0.166l-0.589,0.589h0.456C108.916,98.491,109.013,98.348,109.116,98.209z"/>
	<polygon fill="#F2623D" points="110.961,100.055 110.371,99.465 110.371,100.645 	"/>
	<path fill="#F2623D" d="M107.525,100.587c-0.007,0.012-0.014,0.024-0.021,0.036l0.021,0.021V100.587z"/>
	<path fill="#F2623D" d="M107.525,99.466l-0.589,0.589l0.568,0.568c0.007-0.012,0.013-0.024,0.021-0.036V99.466z"/>
	<path fill="#F2623D" d="M108.815,98.632c-0.454,0.635-0.887,1.284-1.29,1.955v0.057l0.834,0.834h1.179l0.833-0.833v-1.18
		l-0.833-0.833H108.815z"/>
	<path fill="#F2623D" d="M107.525,100.587c0.403-0.671,0.835-1.32,1.29-1.955h-0.456l-0.834,0.834V100.587z"/>
</g>
</svg>
